<svg width="21px" height="21px" viewBox="0 0 21 21" version="1.1" xmlns="http://www.w3.org/2000/svg" xmlns:xlink="http://www.w3.org/1999/xlink">
    <defs></defs>
    <g id="Symbols" stroke="none" stroke-width="1" fill="none" fill-rule="evenodd">
        <g id="icon/hover/main_search" transform="translate(-1.000000, -1.000000)">
            <g id="Shape">
                <polygon points="0 0 24 0 24 24 0 24"></polygon>
                <path d="M16.0388822,14.3236164 L15.1355089,14.3236164 L14.8153259,14.0148685 C15.9359663,12.7112664 16.6106375,11.0188708 16.6106375,9.17781875 C16.6106375,5.07261578 13.2830217,1.745 9.17781875,1.745 C5.07261578,1.745 1.745,5.07261578 1.745,9.17781875 C1.745,13.2830217 5.07261578,16.6106375 9.17781875,16.6106375 C11.0188708,16.6106375 12.7112664,15.9359663 14.0148685,14.8153259 L14.3236164,15.1355089 L14.3236164,16.0388822 L20.0411692,21.745 L21.745,20.0411692 L16.0388822,14.3236164 Z M9.17781875,14.3236164 C6.33047742,14.3236164 4.03202115,12.0251601 4.03202115,9.17781875 C4.03202115,6.33047742 6.33047742,4.03202115 9.17781875,4.03202115 C12.0251601,4.03202115 14.3236164,6.33047742 14.3236164,9.17781875 C14.3236164,12.0251601 12.0251601,14.3236164 9.17781875,14.3236164 Z" fill="#000000" fill-rule="nonzero"></path>
            </g>
        </g>
    </g>
</svg>