<?xml version="1.0" encoding="UTF-8" standalone="no"?>
<svg width="40px" height="40px" viewBox="0 0 40 40" version="1.1" xmlns="http://www.w3.org/2000/svg" xmlns:xlink="http://www.w3.org/1999/xlink">
    <!-- Generator: Sketch 39.1 (31720) - http://www.bohemiancoding.com/sketch -->
    <title>icon_danger</title>
    <desc>Created with Sketch.</desc>
    <defs></defs>
    <g id="Element-guideline-v0.2.4" stroke="none" stroke-width="1" fill="none" fill-rule="evenodd">
        <g id="Message" transform="translate(-60.000000, -332.000000)">
            <g id="带倾向_信息" transform="translate(60.000000, 332.000000)">
                <g id="Rectangle-2">
                    <g id="icon_danger">
                        <rect id="Rectangle-2" fill="#FF4949" x="0" y="0" width="40" height="40"></rect>
                        <path d="M25.8172627,16.3451796 C25.9390902,16.2233483 26,16.0761418 26,15.9035523 C26,15.7309628 25.9390902,15.5837563 25.8172627,15.4619289 L24.5076157,14.1827411 C24.3857882,14.0609137 24.2436575,14 24.0812196,14 C23.9187817,14 23.776651,14.0609137 23.6548235,14.1827411 L20,17.8375635 L16.3147216,14.1827411 C16.1928902,14.0609137 16.0507595,14 15.8883216,14 C15.7258876,14 15.5837569,14.0609137 15.4619294,14.1827411 L14.1522824,15.4619289 C14.0507582,15.5837563 14,15.7309628 14,15.9035523 C14,16.0761418 14.0507582,16.2233483 14.1522824,16.3451796 L17.8375608,20.0000019 L14.1522824,23.6548243 C14.0507582,23.7766517 14,23.9238582 14,24.0964477 C14,24.2690372 14.0507582,24.4162437 14.1522824,24.5380711 L15.4619294,25.8172589 C15.5837569,25.9390863 15.7258876,26 15.8883216,26 C16.0507595,26 16.1928902,25.9390863 16.3147216,25.8172589 L20,22.1624365 L23.6548235,25.8172589 C23.776651,25.9390863 23.9187817,26 24.0812196,26 C24.2436575,26 24.3857882,25.9390863 24.5076157,25.8172589 L25.8172627,24.5380711 C25.9390902,24.4162437 26,24.2690372 26,24.0964477 C26,23.9238582 25.9390902,23.7766517 25.8172627,23.6548243 L22.1319804,20.0000019 L25.8172627,16.3451796 Z" id="Path" fill="#FFFFFF"></path>
                    </g>
                </g>
            </g>
        </g>
    </g>
</svg>