<?xml version="1.0" encoding="UTF-8" standalone="no"?>
<svg width="40px" height="40px" viewBox="0 0 40 40" version="1.1" xmlns="http://www.w3.org/2000/svg" xmlns:xlink="http://www.w3.org/1999/xlink">
    <!-- Generator: Sketch 39.1 (31720) - http://www.bohemiancoding.com/sketch -->
    <title>icon_info</title>
    <desc>Created with Sketch.</desc>
    <defs></defs>
    <g id="Element-guideline-v0.2.4" stroke="none" stroke-width="1" fill="none" fill-rule="evenodd">
        <g id="Message" transform="translate(-60.000000, -152.000000)">
            <g id="带倾向_信息" transform="translate(60.000000, 152.000000)">
                <g id="Rectangle-2">
                    <g id="icon_info">
                        <rect id="Rectangle-2" fill="#50BFFF" x="0" y="0" width="40" height="40"></rect>
                        <path d="M21.6153846,26.5432099 C21.6153846,26.9478751 21.4583348,27.2918368 21.1442308,27.5751029 C20.8301268,27.8583689 20.4487194,28 20,28 C19.5512806,28 19.1698732,27.8583689 18.8557692,27.5751029 C18.5416652,27.2918368 18.3846154,26.9478751 18.3846154,26.5432099 L18.3846154,19.744856 C18.3846154,19.3401907 18.5416652,18.996229 18.8557692,18.712963 C19.1698732,18.4296969 19.5512806,18.2880658 20,18.2880658 C20.4487194,18.2880658 20.8301268,18.4296969 21.1442308,18.712963 C21.4583348,18.996229 21.6153846,19.3401907 21.6153846,19.744856 L21.6153846,26.5432099 Z M20,15.8042981 C19.4444427,15.8042981 18.972224,15.6193687 18.5833333,15.2495046 C18.1944427,14.8796406 18,14.4305255 18,13.9021491 C18,13.3737726 18.1944427,12.9246575 18.5833333,12.5547935 C18.972224,12.1849295 19.4444427,12 20,12 C20.5555573,12 21.027776,12.1849295 21.4166667,12.5547935 C21.8055573,12.9246575 22,13.3737726 22,13.9021491 C22,14.4305255 21.8055573,14.8796406 21.4166667,15.2495046 C21.027776,15.6193687 20.5555573,15.8042981 20,15.8042981 Z" id="Combined-Shape" fill="#FFFFFF"></path>
                    </g>
                </g>
            </g>
        </g>
    </g>
</svg>