<?xml version="1.0" encoding="UTF-8" standalone="no"?>
<svg width="40px" height="40px" viewBox="0 0 40 40" version="1.1" xmlns="http://www.w3.org/2000/svg" xmlns:xlink="http://www.w3.org/1999/xlink">
    <!-- Generator: Sketch 39.1 (31720) - http://www.bohemiancoding.com/sketch -->
    <title>icon_success</title>
    <desc>Created with Sketch.</desc>
    <defs></defs>
    <g id="Element-guideline-v0.2.4" stroke="none" stroke-width="1" fill="none" fill-rule="evenodd">
        <g id="Message" transform="translate(-60.000000, -212.000000)">
            <g id="带倾向_信息" transform="translate(60.000000, 212.000000)">
                <g id="Rectangle-2">
                    <g id="icon_success">
                        <rect id="Rectangle-2" fill="#13CE66" x="0" y="0" width="40" height="40"></rect>
                        <path d="M27.8255814,17.1484357 L19.01744,25.8281213 C18.9011609,25.9427083 18.7655033,26 18.610467,26 C18.455427,26 18.3197693,25.9427083 18.2034865,25.8281213 L18.0290716,25.65625 L13.1744186,20.84375 C13.0581395,20.729163 13,20.5954837 13,20.4427047 C13,20.2899293 13.0581395,20.15625 13.1744186,20.0416667 L14.3662772,18.8671857 C14.48256,18.7526023 14.6182177,18.6953107 14.7732577,18.6953107 C14.928294,18.6953107 15.0639516,18.7526023 15.1802307,18.8671857 L18.610467,22.276038 L25.8197693,15.1718713 C25.9360484,15.057288 26.071706,15 26.2267423,15 C26.3817823,15 26.51744,15.057288 26.6337228,15.1718713 L27.8255814,16.3463523 C27.9418605,16.4609357 28,16.594615 28,16.747394 C28,16.900173 27.9418605,17.0338523 27.8255814,17.1484357 L27.8255814,17.1484357 Z" id="Path" fill="#FFFFFF"></path>
                    </g>
                </g>
            </g>
        </g>
    </g>
</svg>