<svg xmlns="http://www.w3.org/2000/svg" width="84" height="84" viewBox="0 0 84 84">
    <path fill-rule="nonzero" d="M30.093 48.25c.1.102.15.281.15.538.01 1.887.035 3.774.07 5.66.006.36.083.72.151 1.269.299-.28.473-.397.586-.558 1.152-1.644 2.288-3.302 3.444-4.943.369-.523.454-.928-.141-1.377-.579-.437-.03-.813.197-1.169.222-.349.478-.722.962-.367 1.414 1.034 2.821 2.079 4.236 3.113.435.318.291.638.037.974-.3.395-.539 1.035-1.172.606-.581-.393-.843-.136-1.158.327-1.084 1.593-2.193 3.168-3.284 4.757-.174.253-.306.537-.458.807l.144.206c1.052-.35 2.106-.695 3.157-1.05a227.1 227.1 0 0 0 2.887-.99c.625-.22.922.003.924.668 0 .082.008.164.008.246.002 2.578.217 2.18-2.057 3.045a366.294 366.294 0 0 0-8.755 3.475c-.39.16-.734.54-.998.898-.901 1.22-1.744 2.486-2.634 3.715-.855 1.181-2.11 1.196-3.036.065-.445-.542-.421-1.314-.01-1.88.986-1.361 2.08-2.667 2.866-4.142.44-.826.438-1.94.49-2.933.166-3.164.255-6.333.402-9.498.012-.246.158-.604.342-.718-.148-.03-.334-.166-.452-.277-.255-.24-.465-.525-.69-.795-2.169-2.62-4.325-5.252-6.521-7.852-.293-.346-.753-.615-1.19-.777-1.407-.52-2.85-.943-4.259-1.458-1.496-.547-1.79-2.018-.578-3.021.315-.261.923-.405 1.321-.307 1.375.34 2.732.766 4.064 1.246.983.354 1.923.294 2.89.027 3.258-.9 6.52-1.786 9.772-2.71.505-.144.827-.08 1.12.339.372.53.755 1.055 1.17 1.552.407.486.267.74-.292.924-1.839.607-3.674 1.226-5.51 1.845-.274.093-.54.21-.809.316l-.018.204c.7.258 1.393.54 2.103.768 1.429.458 2.872.873 4.3 1.335.571.185 1.003.182 1.258-.456.29-.725.826-.283 1.25-.191.445.095.744.371.585.88-.507 1.614-1.021 3.226-1.536 4.839-.183.574-.617.538-1.06.375-.423-.156-1.065-.14-.861-.892.114-.42.143-.794-.402-.969-2.183-.698-4.362-1.41-6.544-2.11-.116-.037-.25-.018-.641-.039l4.628 6.325-.448.136zm40.74-13.745c.391 1.105.123 1.82-1.087 2.299-1.482.586-3.033.998-4.526 1.56-.527.198-1.086.523-1.433.948a453.688 453.688 0 0 0-6.371 8.028c-.467.6-.956.816-1.677.544-.454-.172-.93-.29-1.39-.446-.768-.262-.83-.423-.366-1.076 1.014-1.425 2.048-2.835 3.064-4.259.258-.36.477-.748.714-1.123l-.187-.206c-1.46.47-2.92.94-4.378 1.412-.67.217-1.328.47-2.007.655-.593.16-.893.404-.695 1.08.225.769-.46.77-.919.926-.455.154-.85.148-1.031-.421-.49-1.534-1.012-3.058-1.483-4.598-.083-.272-.095-.773.053-.866.394-.247.889-.349 1.356-.454.07-.015.253.25.305.41.167.513.503.683 1.002.522 2.137-.69 4.27-1.39 6.403-2.09.069-.023.118-.102.28-.25-.386-.167-.704-.335-1.04-.445-1.75-.574-3.506-1.128-5.256-1.697-.803-.262-.873-.409-.367-1.045 1.878-2.364.997-2.171 3.973-1.362 2.873.78 5.728 1.644 8.634 2.283.933.204 2.019-.114 3.002-.336 1.051-.238 2.054-.676 3.094-.97 1.175-.334 2 .038 2.333.977zM56.915 62.128c.87 1.355 1.818 2.655 2.713 3.993.607.906.455 1.926-.338 2.565-.618.498-1.736.414-2.322-.327-1.03-1.3-1.945-2.696-2.96-4.01-.314-.409-.747-.81-1.209-.994a521.745 521.745 0 0 0-9.922-3.808c-.634-.236-.912-.592-.873-1.274.03-.522-.002-1.048.013-1.572.023-.807.18-.923.936-.68 1.838.586 3.672 1.185 5.51 1.775.243.078.495.129.743.192l.165-.217c-.456-.662-.904-1.331-1.37-1.987-.867-1.224-1.76-2.43-2.612-3.665-.298-.43-.543-.604-1.034-.262-.76.53-1.082-.147-1.457-.645-.428-.567-.032-.819.36-1.106a551.03 551.03 0 0 0 3.9-2.885c.383-.285.739-.344 1.016.126.254.43.82.787.217 1.42-.185.194-.264.766-.125.975 1.238 1.865 2.535 3.69 3.822 5.52.084.119.233.19.562.449 0-1.123.002-2.042 0-2.96-.004-1.325-.018-2.649-.011-3.973.004-.849.122-.934.887-.715 2.33.664 2.3.665 2.4 3.12.13 3.168.294 6.334.492 9.497.03.495.23 1.031.497 1.448zM36.497 33.396c-.56.78-.839.803-1.405.066-1.386-1.805-1.398-1.812-.159-3.703 1.657-2.528 3.358-5.03 4.98-7.579.327-.514.509-1.184.54-1.793.066-1.229-.028-2.465-.036-3.698-.002-.4.03-.805.098-1.2a1.672 1.672 0 0 1 1.725-1.413c.945.036 1.696.703 1.725 1.616.047 1.499-.004 3.002.087 4.497.034.548.254 1.143.563 1.607 2.048 3.08 4.155 6.123 6.201 9.205.16.241.099.733-.038 1.03-.233.507-.599.958-.926 1.422-.511.724-.746.738-1.276.036a389.796 389.796 0 0 1-3.48-4.689c-.171-.233-.25-.529-.372-.796l-.49.294c-.034.917-.088 1.833-.097 2.75-.011 1.341.02 2.682.014 4.022-.002.55.192.878.806.861.945-.026.82.646.85 1.231.034.667-.406.717-.916.718-1.65.003-3.298.01-4.947.029-.519.005-.871-.137-.833-.719.035-.538-.135-1.21.754-1.251.481-.023.68-.244.674-.711-.023-2.12-.032-4.238-.052-6.357-.002-.124-.06-.246-.092-.37l-.362-.298c-.099.245-.153.52-.303.73-1.068 1.495-2.163 2.971-3.233 4.463z"/>
</svg>
