<svg xmlns="http://www.w3.org/2000/svg" width="24" height="24" viewBox="0 0 24 24">
    <g fill-rule="evenodd">
        <path d="M9.146 17.76l2.451-.774c.304.902.194 1.489-.773 1.742-.596.156-1.153.456-1.746.631-1.198.356-2.193.947-2.805 2.094-.255.476-.678.805-1.217.423-.545-.386-.372-.903.013-1.28 1.485-1.452 1.081-3.334 1.16-5.086.041-.908.333-1.399 1.44-1.414v2.505l.218.072c.358-.855 1.523-1.242 1.267-2.48-.015-.069.54-.402.67-.328.585.333 1.112.768 1.615 1.133l-2.464 2.527.171.235zm8.442-.579c-.062 1.29.171 2.448 1.114 3.41.372.38.57.882.02 1.281-.548.398-.985.057-1.217-.413-.939-1.899-2.924-2.021-4.554-2.736-1.01-.444-1.025-.411-.825-1.748l2.503.784c-.676-.736-.667-2.072-1.982-2.194-.056-.005-.188-.594-.08-.695.426-.399.912-.751 1.426-1.03.125-.068.647.262.633.317-.33 1.265.97 1.636 1.23 2.56l.262-.09v-2.52c.946.003 1.453.312 1.38 1.312-.044.582.119 1.178.09 1.762zm-4.51-7.746c.055.05-.193.653-.352.68a5.22 5.22 0 0 1-1.662.002c-.163-.026-.42-.622-.365-.674.915-.869.22-1.899.278-2.877L9.444 8.625c-.797-.574-.991-1.124-.37-1.884.428-.526.718-1.161 1.136-1.697.697-.892 1.09-1.848.94-3.002-.07-.533.03-1.032.721-1.042.676-.01.834.443.753 1.003-.165 1.15.23 2.107.914 3.004.43.565.738 1.227 1.188 1.774.613.743.362 1.265-.396 1.867l-1.51-2.064c.053.973-.69 1.994.258 2.85zm9.884-.535c.183.644-.326.924-.832.998-2.064.304-2.8 2.116-3.918 3.456-.608.73-1.115.866-1.943.25l1.65-2.32c-.891.292-1.585.514-2.274.75a1.042 1.042 0 0 0-.384.223c-.195.191-.363.41-.541.616-.173-.263-.384-.51-.509-.795-.161-.367-.323-.76-.348-1.15-.012-.188.404-.584.43-.568 1.122.693 1.942-.362 2.89-.6l-2.358-.79c.35-1.15.506-1.241 1.558-.958.629.17 1.278.283 1.885.51 1.15.432 2.26.516 3.402-.035.509-.246 1.094-.282 1.292.413zm-15.45 4.712c-.764.523-1.37.64-1.902-.23-.305-.497-.752-.906-1.094-1.384-.733-1.027-1.546-1.9-2.866-2.197-.273-.061-.436-.606-.65-.928.32-.163.767-.552.942-.454 1.892 1.055 3.621.053 5.356-.413.942-.253 1.389 0 1.732.922l-2.417.835c.938.201 1.67 1.294 2.793.611.047-.029.538.402.51.569a5.561 5.561 0 0 1-.517 1.579c-.077.154-.463.154-.707.225-.24-1.077-1.307-.796-1.964-1.186-.177-.105-.406-.122-.842-.243l1.626 2.294z"/>
    </g>
</svg>
