<svg xmlns="http://www.w3.org/2000/svg" width="12" height="12" viewBox="0 0 12 12">
    <g fill-rule="evenodd">
        <path fill-rule="nonzero" d="M6.478 9.096v-.253-7.155c0-.08.005-.155-.004-.235a.553.553 0 0 0-.546-.52c-.281 0-.513.22-.54.525-.005.08-.005.155-.005.235v7.45c-.09-.084-.15-.14-.209-.197-.75-.774-1.5-1.548-2.245-2.327-.155-.164-.327-.286-.56-.235a.525.525 0 0 0-.413.39c-.063.225.005.413.16.577.504.52 1.004 1.041 1.508 1.562.614.638 1.232 1.276 1.845 1.91.31.319.6.328.91.014C7.5 9.683 8.613 8.524 9.731 7.365c.26-.267.264-.591.032-.83-.222-.23-.54-.212-.804.056-.755.779-1.509 1.557-2.263 2.341-.06.061-.105.136-.155.202-.018-.014-.04-.024-.064-.038z"/>
    </g>
</svg>
