<svg xmlns="http://www.w3.org/2000/svg" width="12" height="12" viewBox="0 0 12 12">
    <path fill-rule="nonzero" d="M6.613 2.904v7.408c0 .08.005.155-.004.235a.553.553 0 0 1-.546.52c-.282 0-.513-.22-.54-.525a4.039 4.039 0 0 1-.005-.235V3.152v-.295l-.21.197c-.75.774-1.499 1.548-2.244 2.327-.155.164-.328.286-.56.235a.525.525 0 0 1-.413-.39c-.064-.225.005-.413.16-.577.504-.52 1.004-1.041 1.508-1.562.614-.638 1.232-1.276 1.845-1.91.31-.319.6-.328.91-.014 1.122 1.154 2.235 2.313 3.353 3.472.26.267.264.591.032.83-.223.23-.54.212-.804-.056-.755-.779-1.51-1.557-2.264-2.341-.059-.061-.104-.136-.154-.202-.018.014-.041.024-.064.038z"/>
</svg>
