<svg xmlns="http://www.w3.org/2000/svg" width="16" height="16" viewBox="0 0 16 16">
    <path d="M12.731 9.001a4.107 4.107 0 0 0 0-5.801 4.107 4.107 0 0 0-5.802 0 4.104 4.104 0 0 0-.933 4.348c-1.221-1.137-2.155-1.87-2.273-1.753-.155.154 1.156 1.714 2.926 3.484 1.771 1.771 3.332 3.081 3.485 2.927.118-.118-.615-1.052-1.752-2.272A4.105 4.105 0 0 0 12.73 9zm-3.517.276c.266-.505.027-1.323-.607-1.955-.632-.634-1.45-.872-1.954-.607a2.802 2.802 0 0 1 .81-2.218 2.81 2.81 0 0 1 3.97 0 2.81 2.81 0 0 1 0 3.969 2.8 2.8 0 0 1-2.219.81zM6.003 9.246a.43.43 0 0 0-.61 0l-.468.468c-.743-.23-1.615-.03-2.237.593-.872.87-.921 2.234-.11 3.045.81.81 2.173.761 3.045-.11.622-.621.822-1.493.593-2.237l.468-.467a.432.432 0 0 0 0-.611l-.68-.681z"/>
</svg>
