<svg xmlns="http://www.w3.org/2000/svg" width="16" height="16" viewBox="0 0 16 16">
    <g fill-rule="evenodd">
        <path d="M15.007 8.312v.054c-.021.039-.05.075-.064.116a7.36 7.36 0 0 1-2.657 3.556c-.034.025-.064.058-.13.12l1.291 1.267c-.29 0-.504-.011-.716.003a.563.563 0 0 1-.503-.204c-.216-.246-.45-.476-.664-.7-2.901 1.212-4.083 1.211-7.118.004-.5.5-.93 1.197-1.887.81l1.233-1.225c-.007-.01-.016-.028-.03-.038-.057-.045-.115-.09-.173-.133a7.391 7.391 0 0 1-2.46-3.28c-.04-.1-.086-.196-.13-.296v-.054c.082.003.165.008.246.008h13.408c.119 0 .236-.005.354-.008zM1 6.835l13.065.003c.053 0 .105-.007.186-.012v-.828c0-.583.007-1.166-.003-1.75-.015-.773-.6-1.376-1.373-1.432a1.461 1.461 0 0 0-1.545 1.217c-.012.072-.029.142-.047.225h-.674c-.088-.928.721-1.924 1.708-2.122a2.192 2.192 0 0 1 2.64 1.892c.011.08.033.156.05.235v3.611c-.097.014-.194.041-.292.042-4.474.002-8.948.002-13.423 0-.097 0-.194-.028-.292-.042v-1.04zm0-1.533c.137-.202.266-.411.547-.438.327-.03.593.15.676.466a.61.61 0 0 1-.338.702.617.617 0 0 1-.786-.243c-.034-.052-.066-.105-.099-.158v-.329zm3.816-1.075c.007.537-.442 1-.983 1.01a1.013 1.013 0 0 1-1.016-1.001c0-.54.455-.995.995-.998.538-.003.996.448 1.004.99zm-.863-1.769a.442.442 0 0 1-.454.445.455.455 0 0 1-.46-.443A.458.458 0 0 1 3.51 2a.447.447 0 0 1 .443.458z"/>
    </g>
</svg>
