<svg width="15px" height="12px" viewBox="0 0 15 12" version="1.1" xmlns="http://www.w3.org/2000/svg" xmlns:xlink="http://www.w3.org/1999/xlink">
    <g id="Symbols" stroke="none" stroke-width="1" fill-rule="evenodd">
        <g id="icon/services/room/bath" transform="translate(-1.000000, -2.000000)">
            <g id="bath" transform="translate(1.000000, 2.000000)">
                <g id="Group-3" transform="translate(0.000000, 6.307457)">
                    <path d="M14.0072571,0.00462857143 L14.0072571,0.0586285714 C13.9858286,0.0972 13.9575429,0.1332 13.9429714,0.174342857 C13.4235429,1.6332 12.5372571,2.81862857 11.2858286,3.73062857 C11.2515429,3.75548571 11.2224,3.78805714 11.1555429,3.84977143 C11.5746857,4.2612 11.9809714,4.65977143 12.4472571,5.11748571 C12.1575429,5.11748571 11.9432571,5.10634286 11.7306857,5.12005714 C11.5241143,5.13377143 11.3664,5.07548571 11.2275429,4.91605714 C11.0124,4.67005714 10.7784,4.44034286 10.5641143,4.21577143 C7.66268571,5.42862857 6.48068571,5.42777143 3.4464,4.22091429 C2.94668571,4.72062857 2.5164,5.41748571 1.55897143,5.03005714 C1.98068571,4.61091429 2.38611429,4.20805714 2.7924,3.8052 C2.78468571,3.79491429 2.77611429,3.77777143 2.7624,3.76748571 C2.70497143,3.72205714 2.64668571,3.67834286 2.58925714,3.63462857 C1.4604,2.77234286 0.6384,1.6812 0.1284,0.3552 C0.0898285714,0.254914286 0.0426857143,0.158057143 -0.000171428571,0.0586285714 L-0.000171428571,0.00462857143 C0.0812571429,0.0072 0.163542857,0.0123428571 0.244971429,0.0123428571 C4.71411429,0.0132 9.18411429,0.0132 13.6532571,0.0123428571 C13.7715429,0.0123428571 13.8889714,0.0072 14.0072571,0.00462857143" id="Fill-1" ></path>
                </g>
                <path d="M0,4.83462857 C4.35514286,4.83548571 8.71028571,4.8372 13.0654286,4.83805714 C13.1177143,4.83805714 13.17,4.8312 13.2514286,4.82605714 C13.2514286,4.53977143 13.2514286,4.26891429 13.2514286,3.99805714 C13.2505714,3.4152 13.2582857,2.83234286 13.248,2.24862857 C13.2334286,1.47462857 12.6488571,0.872057143 11.8748571,0.816342857 C11.124,0.762342857 10.4648571,1.28177143 10.3302857,2.03348571 C10.3182857,2.10462857 10.3011429,2.17491429 10.2831429,2.25805714 L9.60857143,2.25805714 C9.52114286,1.32977143 10.3302857,0.333771429 11.3168571,0.135771429 C12.606,-0.122228571 13.7905714,0.7272 13.9577143,2.02834286 C13.968,2.1072 13.9902857,2.18434286 14.0074286,2.2632 L14.0074286,5.87434286 C13.9097143,5.88805714 13.8128571,5.91548571 13.7151429,5.91634286 C9.24085714,5.91805714 4.76657143,5.91805714 0.292285714,5.91634286 C0.194571429,5.91548571 0.0977142857,5.88805714 0,5.87434286 L0,4.83462857 Z" id="Fill-4"></path>
                <path d="M0,3.3024 C0.137142857,3.10011429 0.265714286,2.89097143 0.546857143,2.8644 C0.874285714,2.8344 1.14,3.01354286 1.22314286,3.32982857 C1.29685714,3.6084 1.152,3.90925714 0.884571429,4.03182857 C0.597428571,4.16211429 0.275142857,4.06354286 0.0985714286,3.78925714 C0.0651428571,3.73697143 0.0334285714,3.68382857 0,3.63068571 L0,3.3024 Z" id="Fill-6" ></path>
                <path d="M3.81574286,2.2272 C3.82345714,2.76377143 3.37431429,3.22662857 2.83345714,3.23777143 C2.2866,3.24977143 1.81602857,2.7852 1.81688571,2.23577143 C1.81774286,1.69577143 2.27202857,1.24148571 2.81202857,1.23805714 C3.35031429,1.23548571 3.80802857,1.68634286 3.81574286,2.2272" id="Fill-8"></path>
                <path d="M2.95268571,0.458142857 C2.95011429,0.711857143 2.7564,0.902142857 2.49925714,0.903 C2.24725714,0.903857143 2.04325714,0.707571429 2.03811429,0.459857143 C2.03297143,0.205285714 2.24982857,-0.00642857143 2.5104,0.000428571429 C2.76325714,0.00642857143 2.95525714,0.205285714 2.95268571,0.458142857" id="Fill-10"></path>
            </g>
        </g>
    </g>
</svg>