<svg xmlns="http://www.w3.org/2000/svg" width="16" height="16" viewBox="0 0 16 16">
    <path fill-rule="nonzero" d="M2.952 10.63H8.9l.032-.004v2.08H2.952c-.484 0-.884-.395-.944-.905A1.15 1.15 0 0 1 2 11.619c.024-.55.441-.988.95-.988zm7.367-.325H2.976c-.363 0-.7.119-.976.321V4.003C2 3.45 2.438 3 2.976 3h7.343v7.305zm-.693.321h1.387v2.08H9.626v-2.08zm4.16-6.934h-1.358v.528h1.358v.692h-1.358v.563h1.358v.692h-1.358v.563h1.358v.692h-1.358v.564h1.358v.691h-1.358v.564h1.358v.692h-2.773V3L13.786 3v.692z"/>
</svg>
