<svg xmlns="http://www.w3.org/2000/svg" width="16" height="16" viewBox="0 0 16 16">
    <g transform="translate(2.5, 0.5)">
        <path fill-rule="evenodd" d="M10.996 10.091c.002.229-.074.385-.245.542-.502.452-.981.929-1.483 1.383a.654.654 0 0 1-.397.157c-2.238.01-4.477.01-6.715 0a.708.708 0 0 1-.431-.165A55.888 55.888 0 0 1 .181 10.55c-.081-.08-.157-.208-.157-.314C.014 8.705.018 7.171.018 5.64c0-.03.011-.06.022-.129h10.958v.985c-.003 1.198-.011 2.397-.002 3.595zM9.869 7.145a3.388 3.388 0 0 0-.61.285c-.129.077-.225.199-.339.297-.665.581-1.47.585-2.136.013-.122-.105-.239-.216-.368-.314-.593-.45-1.289-.436-1.866.032-.151.121-.299.246-.451.365-.585.456-1.285.463-1.873.009-.178-.138-.339-.298-.517-.438-.244-.189-.518-.307-.856-.263-.013.045-.034.084-.034.122-.003.897-.007 1.793.006 2.69.001.097.079.211.156.288.343.338.687.678 1.053.993a.79.79 0 0 0 .457.176c2.018.012 4.036.01 6.056 0 .135 0 .3-.063.399-.15.365-.319.717-.651 1.052-.996a.647.647 0 0 0 .182-.402c.015-.823-.005-1.648.006-2.471.004-.248-.11-.307-.317-.236zM.016 3.599c0-.531-.013-1.063.008-1.594A.65.65 0 0 1 .201 1.6c.5-.499 1.016-.984 1.538-1.462a.612.612 0 0 1 .372-.144C4.37-.015 6.63-.015 8.891-.007c.117 0 .262.049.345.124.547.499 1.081 1.01 1.618 1.52.057.056.126.136.127.205.008.956.006 1.912.006 2.886H.016V3.599zm5.477.158c.862-.003 1.539-.634 1.54-1.438.005-.83-.665-1.465-1.54-1.463-.855.001-1.52.633-1.523 1.449-.003.808.676 1.454 1.523 1.452zm.193-2.194c.106.222.167.466.226.639-.028.306-.14.478-.406.476-.259-.002-.423-.161-.394-.4.029-.242.105-.487.207-.71.103-.226.261-.226.367-.005zM4.58 12.955c0 .181.024.34-.008.49-.027.124-.089.28-.192.346-.186.119-.266.247-.249.46.017.246.004.493.004.756H3.007c0-.292.007-.571-.002-.848-.003-.087-.028-.224-.082-.248-.491-.202-.332-.588-.336-.956H4.58zm2.2-.023c.537-.002 1.075-.001 1.648-.001 0 .23.014.425-.006.617-.008.078-.069.188-.137.217-.286.121-.322.333-.303.59.015.206.003.413.003.645H6.87c0-.276.007-.552-.002-.828-.003-.087-.025-.227-.08-.248-.492-.192-.354-.582-.354-.975.132-.008.239-.017.346-.017z"/>
    </g>
</svg>
