<svg xmlns="http://www.w3.org/2000/svg" width="16" height="16" viewBox="0 0 16 16">
    <g fill-rule="evenodd">
        <path fill-rule="nonzero" d="M13.741 3.613a7.639 7.639 0 0 0-2.203-.305c-1.227 0-2.548.244-3.461.916-.913-.672-2.234-.916-3.462-.916-1.227 0-2.549.244-3.461.916v8.95c0 .152.157.305.315.305.062 0 .094-.031.157-.031.85-.397 2.077-.672 2.99-.672 1.227 0 2.548.244 3.46.916.85-.519 2.393-.916 3.462-.916 1.039 0 2.109.183 2.99.641.063.031.094.031.157.031.158 0 .315-.153.315-.305V4.224c-.378-.275-.787-.458-1.259-.61zm0 8.247c-.692-.214-1.447-.306-2.203-.306-1.07 0-2.611.397-3.461.917V5.446c.85-.52 2.392-.917 3.461-.917.756 0 1.511.092 2.203.306v7.025z"/>
    </g>
</svg>
