<svg width="20px" height="20px" viewBox="0 0 20 20" version="1.1" xmlns="http://www.w3.org/2000/svg" xmlns:xlink="http://www.w3.org/1999/xlink">
    <defs></defs>
    <g id="Symbols" stroke="none" stroke-width="1" fill="none" fill-rule="evenodd">
        <g id="icon/default/order" transform="translate(-1.000000, -2.000000)">
            <g id="Shape">
                <polygon points="0 0 24 0 24 24 0 24"></polygon>
                <path d="M7,18 C5.9,18 5.01,18.9 5.01,20 C5.01,21.1 5.9,22 7,22 C8.1,22 9,21.1 9,20 C9,18.9 8.1,18 7,18 Z M1,2 L1,4 L3,4 L6.6,11.59 L5.25,14.04 C5.09,14.32 5,14.65 5,15 C5,16.1 5.9,17 7,17 L19,17 L19,15 L7.42,15 C7.28,15 7.17,14.89 7.17,14.75 L7.2,14.63 L8.1,13 L15.55,13 C16.3,13 16.96,12.59 17.3,11.97 L20.88,5.48 C20.96,5.34 21,5.17 21,5 C21,4.45 20.55,4 20,4 L5.21,4 L4.27,2 L1,2 Z M17,18 C15.9,18 15.01,18.9 15.01,20 C15.01,21.1 15.9,22 17,22 C18.1,22 19,21.1 19,20 C19,18.9 18.1,18 17,18 Z" fill="#000000" fill-rule="nonzero"></path>
            </g>
        </g>
    </g>
</svg>