<svg xmlns="http://www.w3.org/2000/svg" width="14" height="18" viewBox="0 0 14 18">
    <g fill-rule="evenodd">
        <path fill-rule="nonzero" d="M11.766 5.495L9.322 7.993v7.049a.932.932 0 0 1-.276.676.893.893 0 0 1-.662.282.893.893 0 0 1-.66-.282.932.932 0 0 1-.277-.676v-3.285h-.536v3.285a.932.932 0 0 1-.276.676.893.893 0 0 1-.661.282.893.893 0 0 1-.661-.282.932.932 0 0 1-.276-.676V7.993L2.593 5.495a.8.8 0 0 1-.235-.581.8.8 0 0 1 .235-.582.766.766 0 0 1 .569-.24c.223 0 .413.08.569.24l1.908 1.95h3.08l1.908-1.95a.766.766 0 0 1 .57-.24c.223 0 .412.08.569.24a.8.8 0 0 1 .234.582.8.8 0 0 1-.234.581zM9.288 3.31c0 .584-.205 1.081-.616 1.493a2.033 2.033 0 0 1-1.493.616 2.033 2.033 0 0 1-1.492-.616 2.033 2.033 0 0 1-.617-1.493c0-.584.206-1.081.617-1.492A2.033 2.033 0 0 1 7.179 1.2c.584 0 1.081.206 1.493.617.41.41.616.908.616 1.492z"/>
    </g>
</svg>
