<svg width="13px" height="12px" viewBox="0 0 13 12" version="1.1" xmlns="http://www.w3.org/2000/svg" xmlns:xlink="http://www.w3.org/1999/xlink">
    <g id="Symbols" stroke="none" stroke-width="1" fill-rule="evenodd">
        <g id="icon/default/square" >
            <path fill="#000000" fill-rule="nonzero" d="M1.37980435,2.66328741 C1.21483898,2.6541187 1.07736475,2.6541187 0.94905851,2.6357813 C0.637457334,2.59909935 0.435832763,2.4340413 0.435832763,2.10392519 C0.417503312,1.65459454 0.417503298,1.19610232 0.426668038,0.737602251 C0.426668038,0.389144455 0.619127769,0.196575525 0.967388075,0.196575525 C1.36147407,0.187405581 1.7647188,0.196575525 2.15880195,0.196575525 C2.70868889,0.196575525 2.84616241,0.33412439 2.87365426,0.902661019 C2.87365426,0.976017779 2.89198454,1.04938167 2.90114611,1.15025167 C5.14650889,1.15025167 7.38271009,1.15025167 9.61886852,1.15025167 C9.63726296,1.12273843 9.67390926,1.10440102 9.67390926,1.07688778 C9.77472222,0.205745498 9.78384815,0.196575525 10.6911648,0.196575525 C10.9936037,0.196575525 11.3052398,0.187405581 11.6076787,0.196575525 C11.9558898,0.205745498 12.1391926,0.389144455 12.1483898,0.737602251 C12.1575157,1.13190713 12.1483898,1.53538713 12.1483898,1.9296913 C12.1483898,2.47989195 12.0109306,2.61743676 11.4426991,2.64495 C11.3693352,2.64495 11.2960426,2.66328741 11.1952296,2.67246324 C11.1952296,4.91909509 11.1952296,7.15655824 11.1952296,9.394 C11.22275,9.41239445 11.2410731,9.44904074 11.2685222,9.44904074 C12.1391926,9.549925 12.1483898,9.55905093 12.1483898,10.466938 C12.1483898,10.7695194 12.1575157,11.0812981 12.1483898,11.3838796 C12.1391926,11.7323759 11.9558898,11.91575 11.6076787,11.9249472 C11.2135528,11.9340731 10.8103009,11.9249472 10.4162463,11.9249472 C9.86633796,11.9249472 9.7288787,11.7874167 9.70135833,11.2188287 C9.70135833,11.1454648 9.68303519,11.0721009 9.67390926,10.971288 C7.42853222,10.971288 5.19233102,10.971288 2.95613695,10.971288 C2.93780667,10.998737 2.90114611,11.0171315 2.90114611,11.0446519 C2.80033315,11.91575 2.78201,11.9249472 1.88386204,11.9249472 C1.58142315,11.9249472 1.26982269,11.9340731 0.967388075,11.9249472 C0.619127769,11.91575 0.435832763,11.7323759 0.426668038,11.3838796 C0.417503298,10.9896111 0.426668038,10.5861454 0.426668038,10.1918056 C0.426668038,9.64161204 0.564139075,9.50408148 1.13235345,9.47656111 C1.20567028,9.47656111 1.27899139,9.45823796 1.37980435,9.44904074 C1.37980435,7.19324019 1.37980435,4.95577704 1.37980435,2.66328741 Z M2.89198454,10.4394176 C5.15567759,10.4394176 7.40103324,10.4394176 9.65558611,10.4394176 C9.77472222,9.59576852 9.77472222,9.59576852 10.6545185,9.42152037 C10.6545185,7.17490278 10.6545185,4.91909509 10.6545185,2.67246324 C9.8021713,2.59909935 9.8021713,2.59909935 9.65558611,1.69127648 C7.41020195,1.69127648 5.15567759,1.69127648 2.91031482,1.69127648 C2.82783213,2.57159324 2.82783213,2.57159324 1.92052259,2.69080065 C1.92052259,4.9374325 1.92052259,7.19324019 1.92052259,9.44904074 C2.82783213,9.54072778 2.84616241,9.55905093 2.89198454,10.4394176 Z M2.32376732,2.12226259 C2.32376732,1.65459454 2.32376732,1.18692648 2.32376732,0.700922445 C1.84720148,0.700922445 1.3981275,0.700922445 0.930728945,0.700922445 C0.930728945,1.18692648 0.930728945,1.64542583 0.930728945,2.12226259 C1.4072962,2.12226259 1.84720148,2.12226259 2.32376732,2.12226259 Z M11.644325,0.700922445 C11.1493861,0.700922445 10.700362,0.700922445 10.2421407,0.700922445 C10.2421407,1.18692648 10.2421407,1.64542583 10.2421407,2.11309389 C10.7278111,2.11309389 11.1769065,2.11309389 11.644325,2.11309389 C11.644325,1.63625713 11.644325,1.18692648 11.644325,0.700922445 Z M2.33293602,11.4205972 C2.33293602,10.9345704 2.33293602,10.4760639 2.33293602,10.0084315 C1.84720148,10.0084315 1.4072962,10.0084315 0.939893371,10.0084315 C0.939893371,10.494387 0.939893371,10.9528935 0.939893371,11.4205972 C1.42562648,11.4205972 1.86553176,11.4205972 2.33293602,11.4205972 Z M10.2329435,9.99923426 C10.2329435,10.494387 10.2329435,10.9437676 10.2329435,11.4022741 C10.7186852,11.4022741 11.1769065,11.4022741 11.644325,11.4022741 C11.644325,10.9162472 11.644325,10.466938 11.644325,9.99923426 C11.1677093,9.99923426 10.7186852,9.99923426 10.2329435,9.99923426 Z" id="path0_fill"></path>
            <path fill="#000000" fill-rule="nonzero" d="M11.0585546,12 C10.8752519,12 10.6920204,12 10.5178435,12 L10.4170306,12 C9.76638056,12 9.55555741,11.7912 9.51891111,11.1284471 C9.51891111,11.1012 9.51891111,11.0739529 9.50971389,11.0467059 L3.06692426,11.0467059 C2.9661113,11.9182588 2.84697519,11.9908941 1.88467481,11.9908941 C1.79303056,11.9908941 1.70137917,11.9908941 1.60973491,11.9908941 C1.39894028,11.9908941 1.1789912,11.9908941 0.959035,11.9908941 C0.50996387,11.9818588 0.244186464,11.7185647 0.235021703,11.2737176 C0.225856963,10.9105412 0.225856963,10.5473647 0.235021703,10.1932941 L0.235021703,10.0934118 C0.235021703,9.44887059 0.44581075,9.24 1.1148388,9.20371765 C1.14233065,9.20371765 1.1698225,9.20371765 1.19732148,9.19461177 L1.19732148,2.81217882 C1.10567009,2.81217882 1.01402583,2.80310118 0.922377296,2.79402353 C0.500799444,2.74862824 0.253351175,2.49441882 0.244186464,2.09495294 C0.235021703,1.65008471 0.235021703,1.18706118 0.244186464,0.724037648 C0.253351175,0.288254118 0.519128296,0.0158880007 0.968203704,0.00680915368 C1.33478787,-0.00226971456 1.70137917,-0.00226971456 2.05880176,0.00680915368 L2.15961472,0.00680915368 C2.81031463,0.00680915368 3.02110213,0.21562306 3.05776269,0.878378824 C3.05776269,0.905618824 3.05776269,0.932851765 3.06692426,0.960091765 L9.50971389,0.960091765 C9.61052685,0.0794400007 9.72053704,0.00680915368 10.6920204,0.00680915368 C10.7836361,0.00680915368 10.8752519,0.00680915368 10.9669389,0.00680915368 C11.1776907,0.00680915368 11.3977111,0.00680915368 11.6176602,0.00680915368 C12.0666843,0.0158880007 12.3324769,0.27917506 12.3416741,0.724037648 C12.3508,1.08719294 12.3508,1.45034824 12.3416741,1.80442588 L12.3416741,1.90429412 C12.3416741,2.54889177 12.1308509,2.75770588 11.4618065,2.79402353 C11.4343574,2.79402353 11.406837,2.79402353 11.3793167,2.80310118 L11.3793167,9.18557647 C12.2591843,9.28538824 12.3324769,9.40341177 12.3324769,10.3567059 C12.3324769,10.4474824 12.3324769,10.5383294 12.3324769,10.62 C12.3324769,10.8288 12.3324769,11.0467059 12.3324769,11.2646118 C12.3232796,11.7094588 12.0575583,11.9727529 11.608463,11.9818588 C11.4251602,11.9908941 11.2418574,12 11.0585546,12 Z M2.94778815,10.6835294 L9.83047593,10.6835294 L9.84887037,10.8470118 C9.84887037,10.8832941 9.8579963,10.9105412 9.8579963,10.9377882 C9.86719352,11.0013176 9.87631944,11.0467059 9.87631944,11.1012 C9.90383981,11.5732941 9.95880926,11.6277882 10.4079046,11.6277882 L10.5087176,11.6277882 C10.8661259,11.6277882 11.2327315,11.6368235 11.5901398,11.6277882 C11.8376093,11.6186824 11.9475481,11.5188 11.9567454,11.2646118 C11.9658713,11.0558118 11.9567454,10.8379059 11.9567454,10.6291059 C11.9567454,10.5383294 11.9567454,10.4474824 11.9567454,10.3567059 C11.9567454,10.0207765 11.9567454,9.75755294 11.8833815,9.67581177 C11.8192861,9.59407059 11.5626194,9.56689412 11.2327315,9.53054118 C11.1502417,9.52143529 11.1043981,9.47604706 11.0768778,9.44887059 L11.0677519,9.43976471 L11.0035852,9.38527059 L10.9944593,9.29449412 L10.9944593,2.48534118 L11.1593676,2.46718588 C11.1960852,2.46718588 11.2235343,2.45810824 11.2510546,2.45810824 C11.3152213,2.44902353 11.3701907,2.43994588 11.4160343,2.43994588 C11.8925787,2.41271294 11.9475481,2.35824 11.9475481,1.91337177 L11.9475481,1.81350353 C11.9475481,1.45942588 11.9567454,1.09627059 11.9475481,0.742200001 C11.9384222,0.497068236 11.8376093,0.388121648 11.5809426,0.379042589 C11.3701907,0.369964236 11.1502417,0.379042589 10.9486157,0.379042589 C10.8569287,0.379042589 10.765313,0.379042589 10.6736972,0.379042589 C10.3345407,0.379042589 10.0688194,0.379042589 9.98632963,0.451673648 C9.90383981,0.515226354 9.88551667,0.760355295 9.83967315,1.09627059 C9.83047593,1.17798353 9.7847037,1.22337882 9.75718333,1.25061177 L9.74805741,1.25969647 L9.69301667,1.32324706 L9.60140093,1.33232471 L2.73699352,1.33232471 L2.71866324,1.16890588 C2.71866324,1.13258824 2.70950167,1.10535529 2.70950167,1.07811529 C2.70034009,1.01456471 2.69117139,0.960091765 2.69117139,0.914696471 C2.66367954,0.433516236 2.6086887,0.379042589 2.15961472,0.369964236 L2.05880176,0.369964236 C1.70137917,0.369964236 1.33478787,0.369964236 0.968203704,0.379042589 C0.720752796,0.388121648 0.61077612,0.487989177 0.601610981,0.742200001 C0.601610981,1.18706118 0.601610981,1.64100706 0.61077612,2.08586824 C0.61077612,2.24020941 0.656599676,2.40362824 0.968203704,2.43086824 C1.05068639,2.43994588 1.14233065,2.43994588 1.23397491,2.44902353 C1.27980417,2.44902353 1.33478787,2.44902353 1.3897787,2.45810824 L1.56390565,2.46718588 L1.56390565,9.5124 L1.39894028,9.53054118 C1.36228685,9.53054118 1.33478787,9.53964706 1.30729602,9.53964706 C1.24314361,9.54868235 1.18815278,9.55778824 1.14233065,9.55778824 C0.665764815,9.58503529 0.61077612,9.63945882 0.61077612,10.0843765 L0.61077612,10.1842588 C0.61077612,10.5383294 0.601610981,10.9014353 0.61077612,11.2555059 C0.619940546,11.5006588 0.720752796,11.6095765 0.977365278,11.6186824 C1.18815278,11.6277882 1.40810898,11.6186824 1.60973491,11.6186824 C1.70137917,11.6186824 1.79303056,11.6186824 1.88467481,11.6186824 C2.22376713,11.6186824 2.48954546,11.6186824 2.57202815,11.5460471 C2.65451083,11.4825176 2.68200981,11.2283294 2.71866324,10.9014353 C2.72783194,10.8197647 2.77365407,10.7743765 2.80114593,10.7471294 L2.81031463,10.7380235 L2.86530546,10.6744941 L2.94778815,10.6835294 Z M2.51704444,11.4915529 L0.757411926,11.4915529 L0.757411926,9.73030588 L2.51704444,9.73030588 L2.51704444,11.4915529 Z M1.12400037,11.1284471 L2.15045315,11.1284471 L2.15045315,10.0934118 L1.12400037,10.0934118 L1.12400037,11.1284471 Z M11.828412,11.4825176 L10.050425,11.4825176 L10.050425,9.7212 L11.828412,9.7212 L11.828412,11.4825176 Z M10.4170306,11.1193412 L11.4618065,11.1193412 L11.4618065,10.0843765 L10.4170306,10.0843765 L10.4170306,11.1193412 Z M9.81215278,10.5201176 L2.71866324,10.5201176 L2.70950167,10.3476706 C2.69117139,9.97538824 2.67284111,9.75755294 2.59952713,9.68491765 C2.51704444,9.60317647 2.28792667,9.57592941 1.89384352,9.53054118 L1.72887102,9.5124 L1.72887102,2.50349647 L1.88467481,2.48534118 C2.26959639,2.43086824 2.50787574,2.40362824 2.58119685,2.32192235 C2.65451083,2.24020941 2.68200981,2.02231765 2.70950167,1.65916235 L2.72783194,1.49574353 L9.80302685,1.49574353 L9.83047593,1.65008471 C9.89464259,2.04048 9.93128889,2.26744941 10.0137787,2.34915529 C10.0871426,2.42179059 10.3070917,2.43994588 10.6645,2.46718588 L10.8294796,2.47626353 L10.8294796,9.47604706 L10.6828231,9.50329412 C10.2978944,9.57592941 10.0779454,9.62131765 9.99545556,9.71209412 C9.91296574,9.79383529 9.88551667,10.0026353 9.83047593,10.3658118 L9.81215278,10.5201176 Z M3.06692426,10.1570118 L9.50058796,10.1570118 C9.61052685,9.43976471 9.72053704,9.33988235 10.4720713,9.17647059 L10.4720713,2.81217882 C9.73886019,2.73955059 9.63804722,2.63968235 9.50058796,1.84982118 L3.06692426,1.84982118 C2.98444157,2.60336471 2.88362861,2.70323294 2.09546231,2.81217882 L2.09546231,9.17647059 C2.89279731,9.28538824 3.01194056,9.40341177 3.06692426,10.1570118 Z M2.50787574,2.28560471 L0.757411926,2.28560471 L0.757411926,0.515225648 L2.51704444,0.515225648 L2.51704444,2.28560471 L2.50787574,2.28560471 Z M1.12400037,1.92244941 L2.15045315,1.92244941 L2.15045315,0.878378824 L1.12400037,0.878378824 L1.12400037,1.92244941 Z M11.828412,2.27652706 L10.0596222,2.27652706 L10.0596222,0.515225648 L11.828412,0.515225648 L11.828412,2.27652706 Z M10.4262278,1.91337177 L11.4618065,1.91337177 L11.4618065,0.878378824 L10.4262278,0.878378824 L10.4262278,1.91337177 Z" id="path1_fill"></path>
        </g>
    </g>
</svg>