<svg xmlns="http://www.w3.org/2000/svg" width="16" height="16" viewBox="0 0 16 16">
    <g fill-rule="evenodd">
        <path d="M3.38 4.663c-.165-.009-.303-.009-.43-.027-.313-.037-.514-.202-.514-.532-.018-.45-.018-.908-.01-1.366 0-.349.193-.541.541-.541.394-.01.798 0 1.192 0 .55 0 .687.137.715.706 0 .073.018.146.027.247h6.718c.018-.027.055-.046.055-.073.1-.871.11-.88 1.017-.88.303 0 .614-.01.917 0 .348.009.531.192.54.54.01.395 0 .798 0 1.193 0 .55-.137.687-.705.715-.074 0-.147.018-.248.027v6.722c.028.018.046.055.074.055.87.1.88.11.88 1.018 0 .303.009.614 0 .917-.01.348-.193.532-.541.54-.394.01-.798 0-1.192 0-.55 0-.687-.137-.715-.705 0-.074-.018-.147-.027-.248H4.956c-.018.028-.055.046-.055.074-.1.87-.119.88-1.017.88-.303 0-.614.01-.917 0-.348-.01-.531-.193-.54-.541-.01-.394 0-.798 0-1.192 0-.55.137-.688.705-.715.074 0 .147-.019.248-.028V4.663zm1.512 7.776h6.764c.119-.843.119-.843.999-1.017v-6.75c-.853-.073-.853-.073-1-.98H4.91c-.082.88-.082.88-.99.999v6.758c.908.092.926.11.972.99zm-.568-8.317V2.701H2.93v1.421h1.393zm9.32-1.421h-1.402v1.412h1.402V2.701zM4.333 13.42v-1.413H2.94v1.413h1.393zm7.9-1.422v1.403h1.411V12h-1.411z"/>
        <path d="M13.059 14h-.642c-.65 0-.861-.209-.898-.872 0-.027 0-.054-.01-.081H5.068c-.1.871-.22.944-1.182.944h-.926c-.449-.01-.715-.272-.724-.717-.01-.363-.01-.727 0-1.08v-.1c0-.645.21-.854.88-.89.027 0 .055 0 .082-.01V4.813c-.091 0-.183-.009-.275-.018-.421-.045-.669-.3-.678-.699-.009-.445-.009-.908 0-1.371.01-.436.275-.708.724-.717.367-.01.733-.01 1.09 0h.102c.65 0 .861.209.898.871 0 .028 0 .055.009.082h6.443c.1-.88.21-.953 1.182-.953h.925c.45.009.715.272.725.717.009.363.009.726 0 1.08v.1c0 .645-.211.854-.88.89-.028 0-.055 0-.083.01v6.382c.88.1.953.217.953 1.17v.909c-.009.444-.274.708-.724.717-.183.009-.366.018-.55.018zm-8.111-1.316h6.882l.019.163c0 .036.009.064.009.09.01.064.018.11.018.164.028.472.083.527.532.527h.1c.358 0 .725.009 1.082 0 .248-.01.358-.11.367-.363.009-.21 0-.427 0-.636v-.272c0-.336 0-.6-.074-.681-.064-.082-.32-.11-.65-.145-.083-.01-.129-.055-.156-.082l-.01-.01-.063-.054-.01-.09v-6.81l.165-.018c.037 0 .065-.009.092-.009.064-.009.12-.018.165-.018.477-.027.532-.082.532-.527v-.1c0-.354.009-.717 0-1.07-.01-.246-.11-.355-.367-.364-.21-.009-.43 0-.632 0h-.275c-.34 0-.605 0-.688.073-.082.063-.1.308-.146.644a.245.245 0 0 1-.083.155l-.009.009-.055.063-.092.01H4.737l-.018-.164c0-.036-.01-.064-.01-.09-.009-.064-.018-.119-.018-.164-.027-.481-.082-.536-.531-.545h-.101c-.358 0-.724 0-1.09.009-.248.01-.358.109-.367.363 0 .445 0 .899.009 1.344 0 .154.046.318.357.345.083.009.174.009.266.018.046 0 .1 0 .156.01l.174.008v7.045l-.165.019c-.037 0-.064.009-.092.009-.064.009-.119.018-.165.018-.476.027-.531.081-.531.526v.1c0 .354-.01.717 0 1.072.009.245.11.354.366.363.211.009.431 0 .633 0h.275c.339 0 .605 0 .687-.073.083-.063.11-.318.147-.645.009-.081.055-.127.082-.154l.01-.009.054-.064.083.01zm-.431.808h-1.76V11.73h1.76v1.762zm-1.393-.364H4.15v-1.035H3.124v1.035zm10.704.355H12.05V11.72h1.778v1.762zm-1.411-.364h1.045v-1.035h-1.045v1.035zm-.605-.599H4.72l-.01-.172c-.018-.373-.036-.59-.11-.663-.082-.082-.311-.11-.705-.154l-.165-.019V4.503l.156-.018c.385-.054.623-.081.696-.163.074-.082.101-.3.129-.663l.018-.163h7.075l.027.154c.065.39.101.617.184.7.073.072.293.09.65.117l.165.01v6.999l-.146.027c-.385.073-.605.118-.688.21-.082.08-.11.29-.165.653l-.018.154zm-6.745-.363H11.5c.11-.717.22-.817.971-.98V4.811c-.733-.072-.834-.172-.971-.962H5.067c-.083.753-.183.853-.972.962v6.364c.798.11.917.227.972.981zm-.56-7.871h-1.75v-1.77h1.76v1.77h-.01zm-1.383-.364H4.15V2.878H3.124v1.044zm10.704.355H12.06V2.515h1.768v1.762zm-1.402-.364h1.036V2.878h-1.036v1.035z"/>
    </g>
</svg>
