<svg xmlns="http://www.w3.org/2000/svg" width="24" height="24" viewBox="0 0 24 24">
    <path fill-rule="nonzero" d="M12 0C5.376 0 0 5.376 0 12s5.376 12 12 12 12-5.376 12-12S18.624 0 12 0z"/>
    <path fill="#FFF" fill-rule="nonzero" d="M7 8.982v5.402c0 .532.458.982 1 .982h1.333v1.637a.164.164 0 0 0 .167.164.168.168 0 0 0 .123-.054l1.617-1.747H16c.542 0 1-.45 1-.982V8.982C17 8.45 16.542 8 16 8H8c-.542 0-1 .45-1 .982zm6.667 2.62c0-.362.299-.656.666-.656.368 0 .667.294.667.655a.661.661 0 0 1-.667.655.661.661 0 0 1-.666-.655zm-2.334 0c0-.362.3-.656.667-.656.368 0 .667.294.667.655a.661.661 0 0 1-.667.655.661.661 0 0 1-.667-.655zm-2.333 0c0-.362.299-.656.667-.656.367 0 .666.294.666.655a.661.661 0 0 1-.666.655.661.661 0 0 1-.667-.655z"/>
</svg>
