<svg xmlns="http://www.w3.org/2000/svg" width="16" height="16" viewBox="0 0 16 16">
    <g fill-rule="evenodd">
        <path fill-rule="nonzero" d="M10.038 8.718c.876.413 1.766.715 2.526 1.305.79.617 1.115 1.553 1.326 2.544.06.276.07.562.105.843.03.22-.065.336-.246.413-.74.325-1.515.495-2.3.606-2.041.292-4.092.303-6.137.099-1.03-.105-2.051-.276-3.021-.689-.225-.093-.315-.231-.285-.49.13-1.283.43-2.49 1.42-3.304.4-.33.885-.54 1.346-.777.38-.198.78-.358 1.19-.545.12.49.225.953.345 1.404a16.471 16.471 0 0 0 1.47 3.75c.196.364.266.359.466-.005.815-1.498 1.365-3.117 1.72-4.813.015-.094.04-.193.075-.341zm3.136 3.249c-.34.154-.69.303-1.035.462-.125.061-.23.182-.355.232-.12.044-.28.088-.385.038-.35-.165-.69-.369-1.036-.556-.13-.072-.265-.127-.4-.187.005-.028.005-.055.01-.083h.625c.185 0 .37-.01.55.006.076.01.146.11.226.12.13.023.26.012.39-.005.04-.005.075-.11.115-.11.425-.01.855-.005 1.28-.005l.015.088zm-7.78-7.431c1.76.738 3.471.777 5.202-.011-.015.297.075.512.16.749.11.303.07.677.055 1.019a1.29 1.29 0 0 1-.18.562c-.336.545-.58 1.145-.89 1.701C9.294 9.35 8.63 9.818 7.75 9.68c-.81-.121-1.346-.694-1.686-1.482a6.412 6.412 0 0 0-.54-1.035 2.377 2.377 0 0 1-.38-1.614c.01-.099.015-.225.07-.286.185-.193.2-.435.18-.727zm-.486-.758c-.135-.336-.11-.65.04-.92.16-.291.35-.583.58-.815C6.954.617 9.17.661 10.565 2.126c.3.314.555.666.595 1.14.015.154-.02.32-.03.523-1.02-.528-2.035-.848-3.116-.848-1.085.006-2.105.309-3.106.837zm6.006.214c-1.95 1.019-3.87 1.019-5.801.016.945-1.03 4.33-1.046 5.801-.016zM7.99 13.579c-.205-.441-.45-.805-.53-1.207-.06-.286.09-.633.17-.941.01-.039.145-.055.225-.055.65.005.49-.1.655.556.07.292.06.545-.09.804-.155.242-.27.512-.43.843zm.012-3.471c.675.005.6-.094.48.639-.065.39-.07.39-.44.39-.065 0-.135-.005-.2 0-.195.028-.29-.049-.3-.275-.005-.154-.045-.308-.08-.457-.045-.21 0-.32.215-.297.11.01.215 0 .325 0z"/>
    </g>
</svg>
