<svg xmlns="http://www.w3.org/2000/svg" width="16" height="16" viewBox="0 0 16 16">
    <g transform="translate(1.5, -0.5)">
        <path fill-rule="evenodd" d="M5.319.5h2.38c.293.178.64.349.664.725.045.68.135 1.371-.111 2.038-.183.495.04.901.537 1.059.584.185 1.171.373 1.733.614 1.184.506 1.806 1.391 1.744 2.713-.013.277-.01.524-.255.723-.082.067-.102.242-.102.368-.007 1.353-.009 2.706.001 4.059.002.178.089.354.124.533.071.371.218.752.185 1.115-.093 1.04-.791 1.577-1.735 1.846-.317.09-.646.139-.969.207H3.502c-.099-.023-.198-.045-.297-.071-.39-.104-.801-.164-1.167-.323-1.168-.507-1.585-1.73-1.017-2.858a.97.97 0 0 0 .088-.417c.006-1.29 0-2.581.006-3.872.002-.297.018-.584-.273-.778-.049-.032-.074-.122-.082-.188-.164-1.464.359-2.431 1.707-3.042.575-.26 1.187-.446 1.792-.633.313-.097.72-.557.549-.936-.231-.511-.151-1.04-.194-1.565-.05-.605.14-1.054.705-1.317zm5.899 7.511H1.782c.025.078.085.167.075.247-.032.265.098.309.327.313.823.012 1.647.041 2.47.065.209.007.418.021.675.034-.322.438-.606.822-.888 1.209-.19.263-.191.469.006.595.247.16.406.018.547-.175.357-.487.714-.975 1.075-1.459.045-.062.113-.149.173-.15.399-.014.799-.007 1.24-.007-.08.131-.143.236-.208.339-.577.928-1.158 1.854-1.732 2.784-.177.286-.078.596.201.588.139-.004.323-.135.404-.261.559-.866 1.096-1.746 1.642-2.62.176-.282.296-.67.552-.813.266-.148.666-.056 1.007-.072l1.766-.08.104-.537zM1.76 13.618c3.17.175 6.333.18 9.492 0l-.127-.511H1.892l-.132.511zm2.128-6.984c.271-.016.564-.151.771-.441.264-.372.12-.8-.311-.949-.361-.125-.677-.019-.964.196-.272.203-.384.506-.297.758.095.274.369.441.801.436zm1.707-2.829h1.823v-.604H5.595v.604z"/>
    </g>
</svg>
