<svg xmlns="http://www.w3.org/2000/svg" width="16" height="16" viewBox="0 0 16 16">
    <g transform="translate(0, 0.5)">
        <path fill-rule="evenodd" d="M14.038 11.673c-.435.01-.88.048-1.299-.12-.251-.095-.491-.225-.712-.332-.269.43-.512.895-.827 1.303-.307.402-.682.749-1.022 1.112h.13c1.205 0 2.408-.003 3.612 0 .286 0 .484.188.503.457a.48.48 0 0 1-.494.531c-.468 0-.936.002-1.401-.003-.103 0-.159.021-.21.137-.04.095-.16.153-.257.21-.041.025-.107.009-.163.009H2.533c-.308 0-.373-.048-.482-.353H.503c-.277-.003-.474-.183-.495-.446-.026-.305.177-.537.479-.542.488-.003.976 0 1.462 0h2.359c-.173-.153-.325-.276-.464-.409-1.115-1.075-1.755-2.418-1.921-4.005-.065-.647-.041-1.301-.057-1.952 0-.019.007-.04.013-.07.052-.003.101-.007.149-.007h10.369c.086 0 .191-.029.172.137.496 0 .972-.009 1.451.001.934.022 1.712.693 1.932 1.663.308 1.334-.63 2.654-1.914 2.679zm-.004-3.196c-.214-.012-.429-.006-.641-.008h-.817c-.009.034-.016.055-.02.076-.054.464-.11.928-.159 1.393-.007.053.026.123.06.163.192.203.422.353.686.391.286.043.574.043.861.041.524-.002.943-.461.95-1.021.004-.552-.4-1.013-.92-1.035zm-3.702-5.239c-.224.368-.257.753-.161 1.163.041.176.093.347.14.522.043.152-.03.277-.177.295a.735.735 0 0 1-.808-.49c-.099-.263-.149-.546-.222-.821l.042-.012c0-.377.105-.723.27-1.05.123-.243.252-.485.373-.729.142-.282.156-.579.083-.885-.041-.174-.083-.351-.116-.528-.035-.165.002-.222.154-.261.333-.09.694.139.815.526.158.498.151.999-.03 1.486a4.66 4.66 0 0 1-.363.784zm-2.643.405C7.39 4.194 7.41 4.762 7.6 5.34c.019.056.042.108.061.164.094.272-.021.467-.294.481-.307.015-.536-.152-.698-.411-.255-.409-.302-.872-.26-1.351.044-.514.216-.982.447-1.429.104-.201.202-.404.307-.605.189-.369.227-.753.115-1.159C7.21.79 7.157.547 7.093.305c-.039-.143.006-.22.139-.26a.64.64 0 0 1 .644.123c.344.28.447.676.477 1.109.008.112.004.224.004.304.053.516-.109.946-.31 1.361-.113.237-.233.471-.358.701zm-2.521-.41c-.229.373-.256.763-.159 1.179.038.17.089.336.138.506.044.162-.033.286-.189.301-.366.036-.663-.133-.802-.501-.098-.263-.146-.547-.217-.82.013-.006.026-.009.04-.013.003-.365.105-.702.265-1.022.122-.242.247-.484.371-.728.147-.291.168-.595.089-.914-.043-.169-.08-.341-.114-.511-.035-.174.003-.23.165-.271.334-.083.689.149.807.539.155.499.147 1-.035 1.487a4.562 4.562 0 0 1-.359.768z"/>
    </g>
</svg>
