<svg xmlns="http://www.w3.org/2000/svg" width="16" height="16" viewBox="0 0 16 16">
    <g transform="translate(1.5, 0.5)">
        <path fill-rule="evenodd" d="M12.175 10.668c-.15 1.06-.305 2.119-.452 3.179-.108.774-.496 1.112-1.314 1.112-1.98.004-3.962.003-5.942.003-.714 0-1.429.007-2.144-.003-.731-.009-1.169-.348-1.277-1.018-.115-.696-.191-1.398-.287-2.1-.074-.534-.155-1.07-.232-1.603V9.61c.193-.506.607-.766 1.106-.957.653-.253 1.293-.536 1.938-.807a4.131 4.131 0 0 1 1.689-.345c.769.013 1.537.011 2.307 0a3.64 3.64 0 0 1 1.573.319c.729.327 1.474.621 2.208.938.517.222.975.662.884 1.423-.019.162-.034.325-.057.487zM4.067 8.174c-.001-.333-.06-.372-.381-.232L1.411 8.946a1.116 1.116 0 0 0-.593.567c-.039.085-.015.194-.022.293.096-.003.2.018.285-.01.84-.273 1.678-.555 2.516-.834.47-.155.47-.155.47-.631v-.157zm2.322-.47c-.395.004-.734.325-.733.692 0 .382.344.711.745.711.395 0 .748-.336.746-.71-.002-.379-.351-.698-.758-.693zm1.245 3.051a.702.702 0 0 0-.235-.558c-.245-.229-.48-.467-.722-.698-.208-.201-.345-.206-.552-.003-.257.247-.52.491-.755.758a.71.71 0 0 0-.177.416 76 76 0 0 0 0 2.701c.004.146.094.313.198.426.224.246.481.465.726.692.196.181.348.188.547.011.239-.212.466-.435.702-.651a.762.762 0 0 0 .268-.615c-.011-.41-.002-.819-.003-1.229 0-.417-.008-.833.003-1.25zm3.709-1.771c-.712-.312-1.42-.625-2.125-.942-.501-.226-.527-.214-.527.411-.003.133-.047.38.275.486.919.3 1.838.61 2.758.909.07.023.207.023.227-.012a.321.321 0 0 0 .006-.244 1.117 1.117 0 0 0-.614-.608zM9.222 3.915a2.803 2.803 0 0 1-4.29 2.878c-.971-.644-1.467-1.818-1.219-2.904 1.834 1.056 3.67 1.157 5.509.026zm.626-1.196c-.199.009-.4.002-.601.002.032-.164-.05-.251-.203-.318-.669-.288-1.379-.384-2.102-.416-1.03-.047-2.039.058-3.012.411-.167.06-.273.148-.282.322-.177.001-.355 0-.533.003-.145.002-.217-.063-.216-.202 0-.112.002-.223-.003-.335-.007-.154.069-.25.206-.315C4.151 1.369 5.23.971 6.42.952c.996-.016 1.928.25 2.833.623.228.094.452.195.675.301.189.09.302.632.152.77-.053.049-.152.069-.232.073zm-6.198.006l-.004.001.002-.006h.002v.005zm3.578-.437c.691.041 1.377.145 2.013.437.003.296-.003.593.011.89.007.168-.056.222-.227.219-.551-.006-1.103-.002-1.655-.002-1.142 0-2.285-.005-3.427.005-.218.001-.286-.067-.278-.269.009-.281-.009-.562-.015-.843.137-.046.274-.095.412-.137 1.033-.31 2.097-.365 3.166-.3zm-.724 1.306c.363.001.644-.243.647-.561.003-.312-.282-.57-.639-.572-.346-.003-.66.256-.67.553-.009.311.297.58.662.58zm2.743-.873c-.001.002.001.003.001.006l-.007-.002v-.004h.006z"/>
    </g>
</svg>
