<svg width="20px" height="19px" viewBox="0 0 20 19" version="1.1" xmlns="http://www.w3.org/2000/svg" xmlns:xlink="http://www.w3.org/1999/xlink">
    <g id="Symbols" stroke="none" stroke-width="1">
        <g id="icon/hover/class" transform="translate(-2.000000, -2.000000)">
            <path d="M5.35,5.64 C4.45,5 4.23,3.76 4.86,2.85 C5.49,1.95 6.74,1.73 7.65,2.36 C8.55,3 8.77,4.24 8.14,5.15 C7.5,6.05 6.26,6.27 5.35,5.64 Z M16,19 L8.93,19 C7.45,19 6.19,17.92 5.97,16.46 L4,7 L2,7 L3.99,16.76 C4.37,19.2 6.47,21 8.94,21 L16,21 L16,19 Z M16.23,15 L11.35,15 L10.32,10.9 C11.9,11.79 13.6,12.44 15.47,12.12 L15.47,9.99 C13.84,10.3 12.03,9.72 10.78,8.74 L9.14,7.47 C8.91,7.29 8.65,7.17 8.38,7.09 C8.06,7 7.72,6.97 7.39,7.03 L7.37,7.03 C6.14,7.25 5.32,8.42 5.53,9.64 L6.88,15.56 C7.16,16.98 8.39,18 9.83,18 L16.68,18 L20.5,21 L22,19.5 L16.23,15 Z" fill-rule="nonzero"></path>
        </g>
    </g>
</svg>