<svg xmlns="http://www.w3.org/2000/svg" width="16" height="16" viewBox="0 0 16 16">
    <g transform="translate(1, 0.5)">
        <path fill-rule="evenodd" d="M13.461 12.901h-2.218c-.229-.006-.343-.079-.419-.292-.257-.746-.511-1.496-.766-2.245-.064-.179-.131-.361-.184-.54-.031-.119-.092-.152-.218-.152-1.454.006-2.907 0-4.36 0-.326 0-.433-.075-.527-.37a931.159 931.159 0 0 1-1.156-3.676c-.097-.309-.169-.628-.297-.925-.151-.354-.044-.659.115-.966.16-.311.404-.546.764-.677-.544-.162-.925-.488-1.125-.987a1.43 1.43 0 0 1-.015-1.032C3.278.409 3.9-.034 4.641-.01c.826.029 1.413.623 1.529 1.247.149.802-.288 1.518-1.176 1.803.065.026.108.042.146.06.278.127.553.254.826.386.201.096.251.298.324.475.194.447.382.898.564 1.349.051.118.123.167.263.176.807.045 1.613.096 2.418.15.313.02.444.163.42.466-.009.16-.028.322-.042.482-.026.283-.163.41-.459.417-.567.016-1.129.032-1.697.045a5.78 5.78 0 0 0-.153.009c.025.099.058.161.17.175.799.096 1.594.197 2.39.296.135.017.264.033.398.044.229.02.374.126.455.328.174.42.358.835.539 1.249.327.756.65 1.51.984 2.26.017.042.095.081.146.082.255.022.517.031.772.049.339.018.467.148.47.473 0 .148.003.295 0 .443-.003.31-.146.441-.467.447zM1.176 9.782c0 1.148.412 2.12 1.233 2.921.822.794 1.821 1.197 2.997 1.197 1 0 1.885-.313 2.653-.931.763-.614 1.249-1.392 1.445-2.325l.797 1.051c-.417.937-1.077 1.717-1.976 2.345-.903.628-1.873.942-2.919.942-1.466 0-2.721-.505-3.763-1.516C.6 12.455.079 11.228.079 9.782c0-.896.226-1.728.68-2.507a5.346 5.346 0 0 1 1.816-1.863l.099 1.274c-.999.829-1.498 1.862-1.498 3.096z"/>
    </g>
</svg>
