<svg width="16px" height="5px" viewBox="0 0 16 5" version="1.1" xmlns="http://www.w3.org/2000/svg" xmlns:xlink="http://www.w3.org/1999/xlink">
    <defs></defs>
    <g id="Symbols" stroke="none" stroke-width="1" fill="none" fill-rule="evenodd">
        <g id="icon/services/room/more" transform="translate(0.000000, -5.000000)">
            <g>
                <polygon id="Shape" points="1 1 15 1 15 15 1 15"></polygon>
                <path d="M10.0768854,2.00681515 C10.0768854,3.13644869 9.17287856,4.05220125 8.05772529,4.05220125 C6.94257201,4.05220125 6.03856519,3.13644869 6.03856519,2.00681515 C6.03856519,0.877181606 6.94257201,-0.0385651887 8.05772529,-0.0385651887 C9.17287856,-0.0385651887 10.0768854,0.877181606 10.0768854,2.00681515 Z M10.0768854,7.45854741 C10.0768854,8.58818095 9.17287856,9.50393352 8.05772529,9.50393352 C6.94257201,9.50393352 6.03856519,8.58818095 6.03856519,7.45854741 C6.03856519,6.32891387 6.94257201,5.41316708 8.05772529,5.41316708 C9.17287856,5.41316708 10.0768854,6.32891387 10.0768854,7.45854741 Z M10.0768854,12.9160487 C10.0768854,14.0456822 9.17287856,14.9614348 8.05772529,14.9614348 C6.94257201,14.9614348 6.03856519,14.0456822 6.03856519,12.9160487 C6.03856519,11.7864152 6.94257201,10.8706684 8.05772529,10.8706684 C9.17287856,10.8706684 10.0768854,11.7864152 10.0768854,12.9160487 Z" id="more" fill="#000000" fill-rule="nonzero" transform="translate(8.057725, 7.461435) rotate(90.000000) translate(-8.057725, -7.461435) "></path>
            </g>
        </g>
    </g>
</svg>