<svg xmlns="http://www.w3.org/2000/svg" width="16" height="16" viewBox="0 0 16 16">
    <g fill-rule="evenodd">
        <path d="M15.335 10.63H.032c.066-.1.108-.183.163-.255.457-.665.915-1.324 1.36-1.988a.85.85 0 0 0 .145-.46c.012-1.345.006-2.696.006-4.041 0-.388.542-.886.958-.886H12.69c.416 0 .952.504.952.891 0 1.301.006 2.602-.006 3.904 0 .27.072.492.228.72.494.686.964 1.383 1.47 2.114zM3.09 7.417a23.4 23.4 0 0 1 9.16 0V4.284h-9.16v3.134z"/>
        <path d="M1.583 13.77v-1.987h-1.59v-1.436h15.364v1.411h-1.59v2.006c-.428 0-.82.013-1.205-.013-.06 0-.156-.139-.162-.221-.018-.462-.006-.93-.006-1.392v-.36H2.957c0 .569-.012 1.125.006 1.682.006.24-.067.317-.29.304-.349-.006-.698.006-1.09.006zM10.938 6.099c-.843-.105-1.653-.204-2.486-.309 0-.194-.025-.403.01-.602a.622.622 0 0 1 .188-.337c.49-.437 1.605-.437 2.094 0 .097.09.18.237.19.36.024.3.004.603.004.888zM5.06 6.1c0-.29-.033-.599.015-.902.025-.157.16-.328.291-.432.432-.332 1.435-.313 1.89-.005.2.138.31.313.301.555-.01.157 0 .314 0 .47-.848.11-1.667.209-2.496.313z"/>
    </g>
</svg>
