<svg width="17px" height="11px" viewBox="0 0 17 11" version="1.1" xmlns="http://www.w3.org/2000/svg" xmlns:xlink="http://www.w3.org/1999/xlink">
    <g id="Symbols" stroke="none" stroke-width="1" fill-rule="evenodd">
        <g id="double-bed" fill-rule="nonzero">
            <path d="M16.3348863,7.62919976 C11.2098216,7.62919976 6.13896572,7.62919976 1.03197573,7.62919976 C1.0982221,7.52957109 1.14037877,7.44650233 1.19458067,7.37454081 C1.65228301,6.71017243 2.1099838,6.05133749 2.55564528,5.38696238 C2.64598051,5.25408601 2.70018164,5.08245544 2.70018164,4.92743862 C2.71222634,3.58208138 2.70620399,2.23119071 2.70620399,0.885833477 C2.70620399,0.498279985 3.24821536,0 3.6637651,0 C7.0061916,0 10.3486411,0 13.6910446,0 C14.1066174,0 14.6425603,0.50381678 14.6425603,0.891366907 C14.6425603,2.19242978 14.6486287,3.49349938 14.6365687,4.79456225 C14.6365687,5.06584842 14.7088522,5.28730679 14.8654026,5.51429859 C15.3592505,6.20082088 15.8289783,6.89841003 16.3348863,7.62919976 Z M4.09135184,4.41808033 C7.15675799,3.81461334 10.204074,3.81461334 13.2514285,4.41808033 C13.2514285,3.35508285 13.2514285,2.31977272 13.2514285,1.28445585 C10.1860224,1.28445585 7.14470561,1.28445585 4.09135184,1.28445585 C4.09135184,2.33637974 4.09135184,3.36615644 4.09135184,4.41808033 Z" id="path0_fill"></path>
            <path d="M2.58348328,10.7702358 C2.58348328,10.0805592 2.58348328,9.45414497 2.58348328,8.78344786 C2.04748657,8.78344786 1.52956152,8.78344786 0.99356789,8.78344786 C0.99356789,8.28991284 0.99356789,7.83434057 0.99356789,7.3471337 C6.10658023,7.3471337 11.2195772,7.3471337 16.356702,7.3471337 C16.356702,7.80270404 16.356702,8.26460177 16.356702,8.7581368 C15.8388107,8.7581368 15.3208427,8.7581368 14.7667712,8.7581368 C14.7667712,9.43516552 14.7667712,10.0868832 14.7667712,10.7639119 C14.3392152,10.7639119 13.9477626,10.7765674 13.5623015,10.7512564 C13.502078,10.7512564 13.4057512,10.6120532 13.3996828,10.5297961 C13.3816311,10.0679037 13.3936911,9.59967206 13.3936911,9.13777972 C13.3936911,9.02388761 13.3936911,8.9099955 13.3936911,8.77711625 C10.2379498,8.77711625 7.11232012,8.77711625 3.95658643,8.77711625 C3.95658643,9.34658448 3.94454173,9.90338947 3.96260878,10.4601945 C3.96863113,10.7006342 3.89636294,10.7765674 3.67353605,10.7639119 C3.32423215,10.757588 2.97493593,10.7702358 2.58348328,10.7702358 Z" id="path1_fill"></path>
            <path d="M11.9381161,3.0987958 C11.0947667,2.99439342 10.2853387,2.89473398 9.45168519,2.79033737 C9.45168519,2.5957672 9.42745162,2.38696821 9.46137947,2.1876551 C9.48076685,2.06901525 9.55831565,1.93139498 9.65040609,1.85072115 C10.1399347,1.41413294 11.2547111,1.41413294 11.7442379,1.85072115 C11.8411739,1.94088605 11.9235757,2.08799739 11.9332693,2.21138134 C11.9575033,2.51034812 11.9381161,2.81406361 11.9381161,3.0987958 Z" id="path2_fill"></path>
            <path d="M6.06084852,3.09941896 C6.06084852,2.80993806 6.02692043,2.50147963 6.0753888,2.19776991 C6.09962305,2.04116519 6.23533475,1.87032588 6.36619896,1.76592465 C6.7975654,1.43373767 7.80086536,1.45271982 8.25646456,1.76117883 C8.45518954,1.89879909 8.56666594,2.07438366 8.55697234,2.31640688 C8.54727874,2.47301045 8.55697234,2.62960825 8.55697234,2.78621182 C7.70877616,2.89535714 6.88966078,2.99501658 6.06084852,3.09941896 Z" id="path3_fill"></path>
        </g>
    </g>
</svg>