<svg width="12px" height="12px" viewBox="0 0 12 12" version="1.1" xmlns="http://www.w3.org/2000/svg" xmlns:xlink="http://www.w3.org/1999/xlink">
    <defs>
        <polygon id="path-1" points="0.326702587 0.4996345 9.28442541 0.4996345 9.28442541 12 0.326702587 12"></polygon>
        <polygon id="path-3" points="0 0.484178571 2.52855 0.484178571 2.52855 6.53332284 0 6.53332284"></polygon>
    </defs>
    <g id="Symbols" stroke="none" stroke-width="1" fill="none" fill-rule="evenodd">
        <g id="icon/services/room/dryer" transform="translate(-2.000000, -2.000000)">
            <g>
                <polygon id="Shape" points="1 1 15 1 15 15 1 15"></polygon>
                <g id="dryer" transform="translate(2.000000, 2.000000)">
                    <g id="Group-3" transform="translate(2.571429, 0.000000)">
                        <mask id="mask-2" fill="white">
                            <use xlink:href="#path-1"></use>
                        </mask>
                        <g id="Clip-2"></g>
                        <path d="M9.28242857,3.37087059 C9.2817033,1.63792941 8.12343956,0.502870588 6.35159341,0.500752941 C4.56306593,0.498635294 2.77381319,0.500047059 0.985285714,0.500752941 C0.894626374,0.500752941 0.804692308,0.508517647 0.702428571,0.514164706 L0.702428571,6.74710588 L2.91886813,6.74710588 C2.82748352,6.90169412 2.77381319,6.99557647 2.71796703,7.08734118 C1.97165934,8.31063529 1.22172527,9.53110588 0.479043956,10.7558118 C0.100450549,11.3805176 0.459461538,11.9896941 1.20286813,11.9960471 C1.70620879,11.9995765 2.20954945,11.9875765 2.71216484,11.9995765 C3.11759341,12.0094588 3.3931978,11.8513412 3.60062637,11.5075765 C4.5151978,9.99275294 5.44572527,8.4864 6.36464835,6.97369412 C6.45675824,6.82051765 6.5553956,6.74357647 6.75049451,6.72381176 C7.85581319,6.61298824 8.62823077,6.04687059 9.075,5.05722353 C9.31941758,4.51510588 9.28242857,3.94122353 9.28242857,3.37087059" id="Fill-1" fill="#000000" mask="url(#mask-2)"></path>
                    </g>
                    <g id="Group-6">
                        <mask id="mask-4" fill="white">
                            <use xlink:href="#path-3"></use>
                        </mask>
                        <g id="Clip-5"></g>
                        <path d="M2.52855,0.486857143 C2.14155,0.486857143 1.77126429,0.48 1.40162143,0.488228571 C0.613478571,0.506742857 0.0226928571,1.11977143 0.0104785714,1.9632 C-0.00430714286,3.00274286 -0.00302142857,4.04297143 0.0111214286,5.08251429 C0.0207642857,5.77645714 0.45405,6.39634286 1.06926429,6.49508571 C1.54240714,6.5712 2.03483571,6.51017143 2.52855,6.51017143 L2.52855,0.486857143 Z" id="Fill-4" fill="#000000" mask="url(#mask-4)"></path>
                    </g>
                    <path d="M3.45274679,9.28609142 C3.65280683,8.95297809 3.87954154,8.63325919 4.08214202,8.30131059 C4.16724692,8.1592133 4.38318474,8.00954525 4.23520383,7.84881225 C4.14374781,7.74981004 3.91891843,7.7556337 3.75378951,7.71428571 C3.74997884,7.72768013 3.74616818,7.74165691 3.74299262,7.75505133 C3.63692904,7.75505133 3.53086547,7.74806294 3.425437,7.75621606 C3.01579026,7.78591673 2.67410041,8.06661711 2.59153595,8.43641949 C2.50516083,8.82078102 2.70268042,9.19524233 3.07612582,9.37810524 C3.24125475,9.45847174 3.3517641,9.45323045 3.45274679,9.28609142" id="Fill-7" fill="#000000"></path>
                </g>
            </g>
        </g>
    </g>
</svg>