<svg xmlns="http://www.w3.org/2000/svg" width="16" height="16" viewBox="0 0 16 16">
    <g fill-rule="evenodd">
        <path d="M13.854 5.37c0 .571.037 1.145-.208 1.687-.446.99-1.219 1.556-2.324 1.667-.195.02-.294.097-.386.25-.919 1.512-1.85 3.019-2.764 4.534-.207.343-.483.501-.888.492-.503-.012-1.006 0-1.51-.004-.743-.006-1.102-.615-.724-1.24.743-1.225 1.493-2.445 2.24-3.669.055-.091.109-.185.2-.34H5.274V2.514c.102-.005.192-.013.283-.013 1.788-.001 3.577-.002 5.366 0 1.772.002 2.93 1.137 2.93 2.87zM4.529 2.488V8.51c-.494 0-.987.061-1.46-.015-.615-.099-1.048-.719-1.058-1.412-.014-1.04-.015-2.08 0-3.12.012-.843.602-1.456 1.39-1.475.37-.008.74-.001 1.128-.001zm.924 8.8c-.101.166-.212.171-.377.091-.373-.183-.57-.557-.484-.942.082-.37.424-.65.833-.68.106-.008.212 0 .318 0a.966.966 0 0 1 .01-.042c.166.042.39.036.482.135.148.16-.068.31-.153.452-.202.332-.43.652-.63.985z"/>
    </g>
</svg>
