<svg xmlns="http://www.w3.org/2000/svg" xmlns:xlink="http://www.w3.org/1999/xlink" width="21" height="21" viewBox="0 0 21 21">
    <defs>
        <path id="a" d="M2.402 3.816l14.782 14.782A10.457 10.457 0 0 1 10.5 21C4.701 21 0 16.299 0 10.5c0-2.54.901-4.868 2.402-6.684zm1.414-1.414A10.457 10.457 0 0 1 10.5 0C16.299 0 21 4.701 21 10.5c0 2.54-.901 4.868-2.402 6.684L3.816 2.402z"/>
    </defs>
    <g fill="none" fill-rule="evenodd">
        <mask id="b" fill="#fff">
            <use xlink:href="#a"/>
        </mask>
        <use fill="#50586D" xlink:href="#a"/>
        <path fill="#FFF" d="M5.66 11.744c.091.586.276.997.554 1.233.279.236.678.354 1.2.354.562 0 1.007-.22 1.335-.66.327-.439.494-1.049.5-1.83H6.451v-.772H9.25c0-.771-.168-1.381-.505-1.83-.337-.45-.808-.675-1.414-.675-.488 0-.868.127-1.14.381-.272.254-.448.664-.53 1.23h-.942c.075-.745.34-1.328.796-1.75.455-.421 1.06-.632 1.816-.632.573 0 .735.435 1.17.707.435.272.767.497 1 1 .233.503.691.944.691 1.599v.708c0 .654-.115 1.232-.346 1.733-.231.501-.558.886-.98 1.155a2.645 2.645 0 0 1-1.452.403c-.775 0-1.396-.205-1.863-.613-.467-.409-.744-.989-.832-1.74h.942zm6.764-.527V14h-.937V6.89h2.622c.778 0 1.387.2 1.828.596.441.397.662.923.662 1.577 0 .69-.216 1.222-.647 1.595-.431.372-1.05.559-1.853.559h-1.675zm0-.767h1.685c.5 0 .885-.118 1.152-.354.267-.236.4-.577.4-1.023 0-.423-.133-.761-.4-1.015-.267-.254-.633-.386-1.099-.396h-1.738v2.788z" mask="url(#b)"/>
    </g>
</svg>
