<svg xmlns="http://www.w3.org/2000/svg" width="16" height="16" viewBox="0 0 16 16">
    <g transform="translate(1.5, 1)">
        <path fill-rule="evenodd" d="M11.996 3.372c-.339-.085-.667-.165-.995-.246-.647-.158-1.299-.315-1.941-.477-.04-.009-.099-.055-.099-.082-.007-.599-.004-1.199-.004-1.806L9.993.507c.638-.158 1.268-.31 1.907-.466.021-.005.04-.019.059-.026h.031c.003.04.014.08.014.12v3.113c0 .037-.003.072-.008.124zM9.26 5.158v8.673c0 .053.006.107.006.155H3.175c-.004-.044-.012-.089-.012-.133 0-2.928-.003-5.854.003-8.783 0-.213.032-.434.116-.636.206-.485.691-.732 1.307-.753 1.02-.033 2.042-.019 3.06-.019.173 0 .349.016.52.05.682.14.972.483 1.065 1.013.026.142.026.291.026.433zM7.435 1.491h1.101c.058 0 .112-.002.112.064v.653H7.435v-.717zm-.474 1.927a76.111 76.111 0 0 0-1.511-.001c-.119.001-.157-.025-.155-.12.003-.802.003-1.605-.002-2.408 0-.09.033-.12.151-.119.515.004 1.029.003 1.544.003l.132.004v.122c0 .795-.002 1.59.003 2.384 0 .097-.024.137-.162.135zM2.58 3.249c-.302.185-.577.392-.866.587a.344.344 0 0 1-.172.056c-.179.008-.358.004-.558.004a3.323 3.323 0 0 1 1.232-1.673c.774-.56 1.713-.83 2.761-.914v1.21c-.361.057-.707.096-1.041.169a4.431 4.431 0 0 0-1.356.561z"/>
    </g>
</svg>
