<svg xmlns="http://www.w3.org/2000/svg" width="24" height="24" viewBox="0 0 24 24">
    <g fill-rule="evenodd">
        <path fill-rule="nonzero" d="M5 7.376V20.58c3.635 0 7.223 0 10.864-.007v-3.337h4.115l.011-.11a.832.832 0 0 0 .01-.112v-1.78c.001-1.856.003-3.715-.007-5.574 0-.138-.1-.301-.204-.406a1257.446 1257.446 0 0 0-3.04-3.03l-2.004-1.995A.71.71 0 0 0 14.198 4c-1.367.01-2.73.008-4.097.007H8.345v3.37H5zm4.985-1.668h3.35v4.914h4.939v5.005h-8.29v-9.92zm-3.28 13.177V8.966h1.64v8.27h5.807v1.65H6.705zm8.343-9.952V6.99l1.975 1.943h-1.975zm1.56 5.026v-1.636h-4.944v1.636h4.944z"/>
    </g>
</svg>
