<svg xmlns="http://www.w3.org/2000/svg" width="16" height="16" viewBox="0 0 16 16">
    <g fill-rule="evenodd">
        <path fill-rule="nonzero" d="M15.95 7.112a7.984 7.984 0 0 1-.004 1.819.445.445 0 0 1-.468.392l-.099-.002a1.79 1.79 0 0 0-1.636 1.084c-.29.69-.11 1.492.448 1.996a.444.444 0 0 1 .047.608c-.38.474-.815.904-1.294 1.28a.447.447 0 0 1-.603-.051c-.477-.523-1.323-.72-1.982-.45a1.778 1.778 0 0 0-1.095 1.705.445.445 0 0 1-.395.458 7.932 7.932 0 0 1-1.8-.004.444.444 0 0 1-.393-.468 1.774 1.774 0 0 0-1.082-1.736c-.66-.277-1.516-.08-1.995.448a.445.445 0 0 1-.609.049 7.948 7.948 0 0 1-1.265-1.28.444.444 0 0 1 .048-.603 1.78 1.78 0 0 0 .448-1.979A1.755 1.755 0 0 0 .575 9.282c-.23 0-.5-.168-.525-.394A8.02 8.02 0 0 1 .053 7.07a.435.435 0 0 1 .463-.393c.781 0 1.464-.423 1.74-1.08.29-.69.11-1.493-.447-1.997a.445.445 0 0 1-.048-.608 7.953 7.953 0 0 1 1.294-1.28.446.446 0 0 1 .604.051c.476.524 1.327.718 1.98.451A1.78 1.78 0 0 0 6.736.506.445.445 0 0 1 7.131.05a7.984 7.984 0 0 1 1.8.004.444.444 0 0 1 .393.468 1.777 1.777 0 0 0 1.08 1.737c.662.276 1.519.08 1.996-.449a.446.446 0 0 1 .608-.049 7.92 7.92 0 0 1 1.267 1.28.445.445 0 0 1-.049.604 1.782 1.782 0 0 0-.447 1.978 1.777 1.777 0 0 0 1.656 1.096c.227 0 .49.169.515.394zM8 13c.99 0 1.914-.29 2.69-.787L8.478 10a3.058 3.058 0 0 1-1.197.242 3.046 3.046 0 0 1-2.167-.897 3.076 3.076 0 0 1-.791-2.97.343.343 0 0 1 .323-.261c.064 0 .16.019.252.112 0 0 1.039 1.031 1.415 1.407a.231.231 0 0 0 .184.07l.018-.004V7.7c.404-.036.888-.108 1.074-.167l.024-.025.023-.022c.058-.183.128-.66.165-1.058l.003-.024c.006-.033.006-.123-.032-.16-.362-.362-1.443-1.452-1.443-1.452a.339.339 0 0 1-.096-.331.347.347 0 0 1 .24-.242c.263-.072.535-.108.808-.108.819 0 1.589.319 2.168.898.579.579.898 1.348.898 2.167 0 .418-.084.824-.243 1.197l2.19 2.19A5 5 0 1 0 8 13z"/>
    </g>
</svg>
