<svg xmlns="http://www.w3.org/2000/svg" width="16" height="16" viewBox="0 0 16 16">
    <g fill-rule="evenodd">
        <path fill-rule="nonzero" d="M13.679 3.063c.214-.224.321-.428.321-.61a.343.343 0 0 0-.135-.285.688.688 0 0 0-.284-.137 1.57 1.57 0 0 0-.32-.031H2.74c-.115 0-.222.01-.322.031a.687.687 0 0 0-.284.137.343.343 0 0 0-.134.285c0 .182.107.386.321.61L7.044 8v6H4.653a.45.45 0 0 0-.337.148.491.491 0 0 0-.142.352c0 .135.048.253.142.351a.45.45 0 0 0 .337.149h6.694a.45.45 0 0 0 .337-.149.491.491 0 0 0 .142-.351.491.491 0 0 0-.142-.352.45.45 0 0 0-.337-.148h-2.39V8l4.722-4.937z"/>
    </g>
</svg>
