<svg xmlns="http://www.w3.org/2000/svg" width="24" height="24" viewBox="0 0 28 28">
    <path transform="translate(-8, -8)" fill-rule="nonzero" d="M15.596 32.387c-.537.586-.977 1.084-1.446 1.562-.411.42-.802.42-1.222.01-.636-.625-1.271-1.26-1.897-1.894-.39-.4-.4-.781.01-1.192.479-.488.978-.947 1.545-1.484-.763-.742-1.477-1.396-2.16-2.1-.626-.644-.548-1.59.146-2.147.567-.46 1.339-.43 1.906.107s1.114 1.094 1.662 1.65c1.857 1.856 3.715 3.701 5.552 5.556.841.84.548 2.11-.547 2.47-.567.186-1.066.03-1.476-.38-.665-.674-1.31-1.367-2.073-2.158zm16.822-16.789c.734.713 1.389 1.328 2.014 1.963.714.713.753 1.572.117 2.197-.615.595-1.495.547-2.17-.127-2.346-2.344-4.702-4.687-7.038-7.04-.655-.655-.694-1.534-.108-2.13.606-.634 1.467-.614 2.16.06.656.654 1.291 1.327 2.044 2.099.528-.576.968-1.094 1.447-1.582.39-.4.782-.39 1.192 0 .645.625 1.271 1.26 1.897 1.894.42.43.41.801-.01 1.22-.489.47-.987.909-1.545 1.446zm-8.079 15.63c-.01.8-.293 1.25-.802 1.522-.498.264-1.007.235-1.476-.078-.137-.088-.254-.205-.371-.322-3.02-3.007-6.032-6.015-9.052-9.032-.47-.469-.733-.996-.48-1.67.353-.937 1.418-1.27 2.24-.693.087.068.175.146.253.224 3.06 3.066 6.12 6.123 9.16 9.199.284.263.42.664.528.85zm-2.03-19.168c.185.098.596.215.87.478 3.089 3.047 6.158 6.123 9.228 9.199.694.703.694 1.533.058 2.168-.606.605-1.446.586-2.13-.098-3.1-3.086-6.188-6.19-9.278-9.286-.43-.44-.527-.987-.293-1.533.245-.567.704-.889 1.545-.928zm-.357 14.176L19 23.286A896.814 896.814 0 0 0 23.32 19c.949.957 1.966 1.972 2.953 2.959-1.398 1.386-2.874 2.841-4.32 4.277z"/>
</svg>
