<svg xmlns="http://www.w3.org/2000/svg" width="16" height="16" viewBox="0 0 16 16">
    <g transform="translate(1, 2)">
        <path fill-rule="evenodd" d="M.004 9.182c.058-.191.102-.389.18-.571.14-.324.415-.502.682-.687.702-.48 1.399-.968 2.099-1.452 1-.692 2.001-1.38 3.002-2.07.122-.084.248-.166.365-.257a.188.188 0 0 0 .059-.129c.005-.177.005-.359.002-.538-.01-.403.139-.705.447-.926.174-.123.355-.244.511-.39.306-.281.235-.689-.137-.839-.269-.109-.527-.081-.758.116-.17.145-.18.365-.196.578-.004.039-.003.081-.003.122-.001.22-.031.264-.229.319a1.214 1.214 0 0 1-.728-.013c-.154-.048-.185-.093-.181-.271.007-.322.013-.648.133-.949C5.498.603 5.908.18 6.527.053c.692-.14 1.307.043 1.786.62.436.528.565 1.237.263 1.886a1.611 1.611 0 0 1-.56.645 4.111 4.111 0 0 0-.334.263c-.124.116-.201.458-.145.616a.144.144 0 0 0 .064.063c.732.504 1.467 1.006 2.2 1.51.823.565 1.643 1.132 2.465 1.695.351.244.7.478 1.049.718.366.251.565.625.649 1.081.005.038.014.07.022.105v.418c-.01.033-.026.067-.031.099-.08.391-.27.701-.569.936-.293.228-.629.304-.978.304H1.647c-.099 0-.201-.005-.301-.016-.61-.08-1.05-.407-1.258-1.055C.052 9.829.03 9.713.004 9.6v-.418zm7.002.493h5.471a.295.295 0 0 0 .256-.218c.029-.124-.016-.229-.131-.31-.37-.256-.742-.509-1.115-.767A572.437 572.437 0 0 1 9.22 6.831c-.698-.477-1.401-.956-2.096-1.443-.096-.067-.161-.059-.247.004-.408.284-.817.564-1.229.844-1.023.701-2.046 1.407-3.069 2.111-.383.258-.767.523-1.152.788-.112.082-.164.203-.135.322.029.129.125.205.266.216h.113c1.777.002 3.557.002 5.335.002z"/>
    </g>
</svg>
