<svg width="22px" height="15px" viewBox="0 0 22 15" version="1.1" xmlns="http://www.w3.org/2000/svg" xmlns:xlink="http://www.w3.org/1999/xlink">
    <g id="Symbols" stroke="none" stroke-width="1" fill-rule="evenodd">
        <g id="icon/default/hotel" transform="translate(-1.000000, -5.000000)">
            <path d="M7,13 C8.66,13 10,11.66 10,10 C10,8.34 8.66,7 7,7 C5.34,7 4,8.34 4,10 C4,11.66 5.34,13 7,13 Z M19,7 L11,7 L11,14 L3,14 L3,5 L1,5 L1,20 L3,20 L3,17 L21,17 L21,20 L23,20 L23,11 C23,8.79 21.21,7 19,7 Z" id="Shape" fill-rule="nonzero"></path>
        </g>
    </g>
</svg>