<svg xmlns="http://www.w3.org/2000/svg" width="16" height="16" viewBox="0 0 16 16">
    <path fill-rule="nonzero" d="M11.655 2.6h-7.21c-.907 0-1.645.738-1.645 1.645v7.21c0 .907.738 1.645 1.645 1.645h7.21c.907 0 1.645-.738 1.645-1.645v-7.21c0-.907-.738-1.645-1.645-1.645zm-.228 5.347a3.345 3.345 0 0 1-3.342 3.34 3.345 3.345 0 0 1-3.34-3.34 3.345 3.345 0 0 1 3.34-3.342 3.345 3.345 0 0 1 3.342 3.342zm-1.158-.245v.602a.674.674 0 0 1-.675.675h-.543a.674.674 0 0 1-.674-.675v-.602c0-.373.302-.675.674-.675h.543c.373 0 .675.302.675.675zm-2.422 0v.602a.674.674 0 0 1-.675.675H6.63a.674.674 0 0 1-.674-.675v-.602c0-.373.302-.675.674-.675h.543c.373 0 .675.302.675.675z"/>
</svg>
