<svg xmlns="http://www.w3.org/2000/svg" width="13" height="13" viewBox="0 0 13 13">
    <g fill="#EC5657" fill-rule="evenodd">
        <path fill-rule="nonzero" d="M9.569 3.431A4.323 4.323 0 0 0 6.5 2.143 4.37 4.37 0 0 0 2.143 6.5c0 2.4 1.958 4.357 4.357 4.357A4.369 4.369 0 0 0 10.857 6.5c0-1.16-.466-2.247-1.288-3.069zm.1-.1A4.465 4.465 0 0 1 11 6.5C11 8.98 8.973 11 6.5 11A4.51 4.51 0 0 1 2 6.5C2 4.025 4.026 2 6.5 2c1.189 0 2.315.475 3.17 1.33zM6.54 9.856a3.26 3.26 0 0 0 1.96-.645l-4.646-4.64a3.29 3.29 0 0 0-.64 1.96A3.321 3.321 0 0 0 6.54 9.856zm0 .143a3.464 3.464 0 0 1-3.469-3.469c0-.743.233-1.454.668-2.044l.098-.134 4.88 4.875-.132.099c-.588.439-1.3.673-2.045.673zm2.672-1.5a3.26 3.26 0 0 0 .645-1.96 3.321 3.321 0 0 0-3.326-3.326 3.29 3.29 0 0 0-1.96.64L9.212 8.5zm.016.218l-4.875-4.88.134-.1a3.433 3.433 0 0 1 2.044-.667A3.464 3.464 0 0 1 10 6.541c0 .745-.234 1.456-.673 2.044l-.099.133z"/>
        <path d="M9.67 3.33A4.464 4.464 0 0 0 6.5 2 4.514 4.514 0 0 0 2 6.5 4.51 4.51 0 0 0 6.5 11C8.966 11 11 8.986 11 6.5c0-1.197-.482-2.32-1.33-3.17zM6.541 9.968a3.43 3.43 0 0 1-3.435-3.435c0-.74.232-1.442.66-2.024l4.799 4.793a3.368 3.368 0 0 1-2.024.666zm2.76-1.401L4.507 3.767a3.398 3.398 0 0 1 2.024-.66 3.43 3.43 0 0 1 3.435 3.435c0 .74-.232 1.442-.666 2.024z"/>
    </g>
</svg>
