<svg xmlns="http://www.w3.org/2000/svg" width="13" height="13" viewBox="0 0 13 13">
    <path d="M11.864 6.122l-1.941-1.86A4.948 4.948 0 0 0 9.622 4L4 9.39a5.12 5.12 0 0 0 2.423.61 5.045 5.045 0 0 0 3.5-1.388l1.94-1.86a.432.432 0 0 0 0-.63zm-5.44 2.542a.456.456 0 0 1-.466-.445c0-.246.209-.446.465-.446.769 0 1.394-.6 1.394-1.336 0-.246.208-.446.465-.446s.465.2.465.446c0 1.228-1.043 2.227-2.324 2.227zM3.077 4.386l-1.94 1.861a.433.433 0 0 0 0 .63l1.94 1.862c.097.093.198.177.301.261L9 3.608c-1.885-1.016-4.32-.76-5.923.778zm3.5.839c-.769 0-1.394.6-1.394 1.337a.456.456 0 0 1-.465.446.456.456 0 0 1-.465-.446c0-1.229 1.043-2.229 2.324-2.229.256 0 .465.2.465.446a.456.456 0 0 1-.465.446z"/>
</svg>
