<svg xmlns="http://www.w3.org/2000/svg" width="14" height="18" viewBox="0 0 14 18">
    <g fill-rule="evenodd">
        <path fill-rule="nonzero" d="M9.076 10.618s1.364 1.366 1.368 1.368c.435.438.323 1.208-.09 1.628l-1.903 1.983a.709.709 0 0 1-1.004-.994l1.207-1.209-1.182-1.172 1.604-1.604zm-4.243 0S3.47 11.984 3.47 11.986c-.438.438-.326 1.208.082 1.628l1.912 1.983a.709.709 0 0 0 1.004-.994l-1.205-1.209 1.173-1.172-1.603-1.604zm2.169-5.082a1.98 1.98 0 1 0 0-3.96 1.98 1.98 0 1 0 0 3.96zm2.145 4.289l.029-1.35 1.646 1.535a.702.702 0 0 0 .99-.033.701.701 0 0 0-.034-.992S9.89 6.935 9.62 6.696C9.118 6.251 8.382 6 7.188 6h-.375c-1.195 0-1.93.252-2.434.697-.27.238-2.157 2.29-2.157 2.29a.702.702 0 0 0 .957 1.024l1.646-1.535.028 1.35h4.294z"/>
    </g>
</svg>
