<?xml version="1.0" encoding="UTF-8"?>
<svg width="16px" height="16px" viewBox="0 0 16 16" version="1.1" xmlns="http://www.w3.org/2000/svg" xmlns:xlink="http://www.w3.org/1999/xlink">
    <!-- Generator: sketchtool 48.2 (47327) - http://www.bohemiancoding.com/sketch -->
    <title>213B44B4-FE19-4941-BD2D-93CFB8B8B019</title>
    <desc>Created with sketchtool.</desc>
    <defs></defs>
    <g id="-Buttons-/-additional-services-/-insurance" stroke="none" stroke-width="1" fill="none" fill-rule="evenodd">
        <g id="icon/default/insurance_mini">
            <polygon id="Shape" points="0 0 16 0 16 16 0 16"></polygon>
            <path d="M13.8,8 C13.8,7.3125 14.34,6.75 15,6.75 L15,3.25 C15,2.5625 14.46,2 13.8,2 L2.2,2 C1.54,2 1.006,2.5625 1.006,3.25 L1.006,6.75 C1.666,6.75 2.2,7.3125 2.2,8 C2.2,8.6875 1.666,9.25 1,9.25 L1,12.75 C1,13.4375 1.54,14 2.2,14 L13.8,14 C14.46,14 15,13.4375 15,12.75 L15,9.25 C14.34,9.25 13.8,8.6875 13.8,8 Z" id="Shape" fill="#7F95E1" fill-rule="nonzero"></path>
            <g id="Group-4" transform="translate(5.000000, 5.000000)" fill="#FFFFFF">
                <rect id="Rectangle-2" x="2" y="0" width="2" height="6"></rect>
                <rect id="Rectangle-4" x="0" y="2" width="6" height="2"></rect>
            </g>
        </g>
    </g>
</svg>