<svg xmlns="http://www.w3.org/2000/svg" width="84" height="84" viewBox="0 0 84 84">
    <g fill-opacity="0" fill-rule="evenodd">
        <path d="M0 0h84v84H0z"/>
        <path fill-opacity="1" fill-rule="nonzero" d="M40.593 39.929c-1.787.38-3.392.699-4.996 1.098-.65.16-1.178.48-1.482 1.219-.163.38-.914.759-1.36.739-.468-.02-1.138-.44-1.32-.84-.305-.758-.854-1.098-1.524-1.318-3.147-1.018-6.315-1.018-9.463-.02-.588.18-1.137.42-1.34 1.199-.223.839-1.239 1.258-2.05.959-.874-.32-1.179-.999-1.016-1.838 1.503-7.13 4.853-13.122 11.067-17.377 3.838-2.636 7.371-3.875 13.484-4.654 0-.499-.02-1.018 0-1.518.04-.938.65-1.558 1.502-1.578.833-.02 1.483.62 1.544 1.538.02.5 0 1 0 1.478 1.644.3 3.269.44 4.812.88 10.154 2.836 16.49 9.327 19.007 19.433.122.52.305 1.02.447 1.538.284 1-.081 1.858-.934 2.118-.853.26-1.726-.22-2.153-1.059-.182-.38-.528-.799-.893-.939-3.35-1.238-6.742-1.238-10.093 0-.467.18-.75.78-1.157 1.099-.467.36-.995.899-1.503.899-.467.02-.954-.56-1.4-.92-.326-.259-.529-.758-.874-.838-1.665-.48-3.37-.859-5.158-1.298-.06.479-.101.699-.101.919 0 6.69-.02 13.382 0 20.073 0 2.317 2.03 3.795 4.101 3.016 1.26-.48 1.91-1.438 1.99-2.757.041-.559-.04-1.138.041-1.697.102-.78.61-1.279 1.422-1.319.812-.04 1.441.4 1.543 1.159.447 3.355-.71 6.611-4.59 7.61-3.837.999-7.513-1.858-7.533-5.812-.02-6.592 0-13.183 0-19.774-.02-.36-.02-.72-.02-1.418zm-5.93-2.097c2.498-.26 4.914-.7 7.31-.72 2.437 0 4.854.42 7.392.66-.203-1.259-.386-2.657-.67-4.055-.65-3.236-1.523-6.412-3.371-9.208-2.112-3.216-4.325-3.236-6.458-.04-2.72 4.095-3.573 8.769-4.203 13.363zm1.462-14.8c-5.808.339-15.616 9.427-15.738 14.42 1.869-.12 3.757-.4 5.605-.32 1.848.08 3.696.54 5.564.84.67-5.154 1.726-10.287 4.57-14.94zM52.472 38.19c3.716-1.398 7.432-1.358 11.21-.58-.752-5.732-10.885-15.12-15.617-14.5 2.782 4.634 3.737 9.787 4.407 15.08z"/>
    </g>
</svg>
