<svg xmlns="http://www.w3.org/2000/svg" width="28" height="28" viewBox="0 0 28 28">
    <path transform="translate(-10, -8.5)" fill-rule="nonzero" d="M23.463 28.068c-2.75 0-5.498.007-8.247 0-1.026 0-1.88-.516-2.134-1.259-.263-.768.115-1.569.993-1.943a3.155 3.155 0 0 1 1.206-.245 4654.43 4654.43 0 0 1 16.446-.007c1.304 0 2.281.756 2.273 1.724-.008.994-.985 1.737-2.306 1.737-2.741 0-5.49-.007-8.231-.007zm.033 2.495c2.774 0 5.547-.007 8.321 0 1.469.006 2.47 1.046 2.109 2.163-.238.73-1.075 1.265-2.027 1.272-5.588.006-11.185.006-16.774 0-1.173 0-2.117-.775-2.125-1.705-.008-.942.927-1.724 2.134-1.73 2.782-.007 5.572.006 8.362 0zm-8.767-9.1c-.227-2.478 1.585-4.573 4.894-5.63v-1.287h1.664v1.258h8.223c-.207-1.018-.394-1.998-.63-2.969-.03-.105-.315-.22-.483-.22-2.964-.01-5.938-.01-8.902-.01h-.6V11h11.324c.719 3.469 1.448 6.947 2.186 10.473-5.928-.01-11.787-.01-17.676-.01z"/>
</svg>
