<svg xmlns="http://www.w3.org/2000/svg" width="16" height="16" viewBox="0 0 16 16">
    <g ill-rule="evenodd">
        <path fill-rule="nonzero" d="M12.673 13.053c.436.446.436 1.171 0 1.617a1.111 1.111 0 0 1-1.581 0L6.888 9.863l-.6.614-4.547-4.65c-.424-.433-.676-1.021-.73-1.7-.047-.596.058-1.248.303-1.886L1.407 2h.455l5.825 5.956 4.986 5.097zM4.555 10L6 11.446l-3.256 3.257a1.029 1.029 0 0 1-1.445 0 1.024 1.024 0 0 1 0-1.446L4.555 10zm9.818-5.494l.627.626-3.132 3.133a2.21 2.21 0 0 1-1.433.644c-.137.008-.272.04-.4.091L8 6.965c.052-.128.083-.263.09-.4.033-.54.262-1.05.645-1.433L11.868 2l.626.626-2.402 2.402.627.626 2.401-2.401.627.626-2.402 2.402.627.626 2.401-2.401z"/>
    </g>
</svg>
