<svg xmlns="http://www.w3.org/2000/svg" xmlns:xlink="http://www.w3.org/1999/xlink" width="16" height="16" viewBox="0 0 16 16">
    <g fill-rule="evenodd">
        <g transform="translate(2 2)">
            <path d="M6.07 7.419L4.513 8.977c-.843.843-1.686 1.688-2.53 2.53-.384.381-.857.407-1.196.07-.339-.334-.318-.816.06-1.195C2.118 9.11 3.389 7.84 4.662 6.57c.071-.072.152-.133.26-.227-.253-.247-.476-.475-.714-.685-.054-.047-.17-.053-.247-.035a1.18 1.18 0 0 1-1.162-.325C1.994 4.505 1.19 3.713.394 2.914c-.513-.516-.524-1.24-.039-1.72.478-.474 1.208-.454 1.72.056a1578.54 1578.54 0 0 1 3.716 3.718c.071.071.12.163.178.243l.798-.842c-.047-.048-.132-.138-.216-.229-.33-.353-.339-.816 0-1.158A493.35 493.35 0 0 1 9.35.181c.22-.22.464-.237.632-.064.161.164.136.423-.074.634-.667.67-1.336 1.338-2.006 2.003-.071.071-.159.125-.266.208l.639.547c.028-.027.1-.092.17-.161l1.965-1.966c.058-.058.114-.123.182-.166.182-.114.37-.123.525.042.147.155.14.334.024.504-.056.082-.132.152-.203.223l-2.105 2.11.563.578c.201-.206.415-.428.633-.647.51-.514 1.023-1.027 1.538-1.537.077-.075.17-.177.262-.183.14-.01.345.008.413.098.08.104.068.301.048.452-.012.083-.117.158-.188.229-.855.857-1.712 1.713-2.568 2.569-.55.55-.908.55-1.473.001-.032-.032-.068-.06-.092-.083l-.792.798c.26.252.53.513.795.778 1.084 1.082 2.166 2.167 3.251 3.248.241.241.344.519.245.85-.091.31-.31.494-.624.553-.32.06-.565-.08-.785-.3-1.27-1.274-2.543-2.543-3.812-3.817-.07-.07-.114-.166-.179-.263"/>
        </g>
    </g>
</svg>
