<svg xmlns="http://www.w3.org/2000/svg" width="21" height="16" viewBox="0 0 21 16">
    <g fill-rule="nonzero">
        <path d="M14.793 6.875H9c-.276 0-.5.28-.5.625s.224.625.5.625h5.793l-.647.808a.74.74 0 0 0 0 .884c.196.244.512.244.708 0l1.5-1.875a.59.59 0 0 0 .032-.045l.008-.012a.608.608 0 0 0 .022-.037l.005-.012a.673.673 0 0 0 .02-.041l.003-.009a.703.703 0 0 0 .018-.046c0-.002 0-.004.002-.006a.724.724 0 0 0 .014-.052l.002-.007a.737.737 0 0 0 .01-.052l.002-.016a.723.723 0 0 0 .005-.17c0-.015-.003-.03-.005-.044l-.002-.016a.751.751 0 0 0-.01-.053l-.002-.006a.731.731 0 0 0-.015-.052l-.001-.006a.686.686 0 0 0-.018-.047l-.003-.008a.677.677 0 0 0-.02-.041l-.005-.011a.65.65 0 0 0-.023-.038l-.007-.012a.617.617 0 0 0-.033-.045l-1.5-1.875A.454.454 0 0 0 14.5 5a.454.454 0 0 0-.354.183.74.74 0 0 0 0 .884l.647.808z"/>
        <path d="M8.821 12c1.442 0 2.784-.745 3.59-1.993a.564.564 0 0 0-.145-.763.515.515 0 0 0-.733.15c-.608.943-1.622 1.506-2.712 1.506-1.8 0-3.264-1.525-3.264-3.4S7.02 4.1 8.82 4.1c1.087 0 2.099.56 2.708 1.5a.515.515 0 0 0 .733.147.564.564 0 0 0 .142-.763C11.598 3.742 10.26 3 8.821 3 6.44 3 4.5 5.019 4.5 7.5S6.439 12 8.821 12z"/>
    </g>
</svg>
