<svg width="17px" height="20px" viewBox="0 0 17 20" version="1.1" xmlns="http://www.w3.org/2000/svg" xmlns:xlink="http://www.w3.org/1999/xlink">
    <g id="Symbols" stroke="none" stroke-width="1" fill-rule="evenodd">
        <g id="icon/hover/main_search" transform="translate(-4.000000, -2.000000)">
            <path d="M5.5,22 L5.5,14.5 L4,14.5 L4,9 C4,7.9 4.9,7 6,7 L9,7 C10.1,7 11,7.9 11,9 L11,14.5 L9.5,14.5 L9.5,22 L5.5,22 Z M18,22 L18,16 L21,16 L18.46,8.37 C18.18,7.55 17.42,7 16.56,7 L16.44,7 C15.58,7 14.81,7.55 14.54,8.37 L12,16 L15,16 L15,22 L18,22 Z M7.5,6 C8.61,6 9.5,5.11 9.5,4 C9.5,2.89 8.61,2 7.5,2 C6.39,2 5.5,2.89 5.5,4 C5.5,5.11 6.39,6 7.5,6 Z M16.5,6 C17.61,6 18.5,5.11 18.5,4 C18.5,2.89 17.61,2 16.5,2 C15.39,2 14.5,2.89 14.5,4 C14.5,5.11 15.39,6 16.5,6 Z" id="Shape" fill="#000000" fill-rule="nonzero"></path>
        </g>
    </g>
</svg>