<svg xmlns="http://www.w3.org/2000/svg" width="16" height="16" viewBox="0 0 16 16">
    <g transform="translate(0.5, 2)">
        <path fill-rule="evenodd" d="M10.961 12.01V8.582c-.058.05-.096.078-.129.112A4.72 4.72 0 0 1 9.23 9.786a5.998 5.998 0 0 1-1.293.355c-.413.069-.722-.119-.864-.54-.177-.516.051-1.091.495-1.232.176-.055.362-.073.542-.113.573-.135 1.114-.368 1.593-.799.366-.331.668-.74.949-1.179.299-.47.621-.909 1.038-1.227.257-.198.539-.297.838-.308.321-.007.646-.005.969.006.727.022 1.349.698 1.483 1.578.006.034.019.064.026.098v5.585h-4.045zm2.01-7.77c-.949-.004-1.707-.948-1.702-2.121.005-1.168.772-2.111 1.718-2.108.945.001 1.715.964 1.708 2.132-.008 1.173-.772 2.102-1.724 2.097zm-6.205 5.821c-1.01-.213-1.908-.664-2.696-1.5v3.449H.014V6.395c.028-.117.055-.234.087-.347.196-.718.743-1.256 1.358-1.29a10.76 10.76 0 0 1 1.231.013c.234.012.444.138.648.285.479.347.805.885 1.147 1.403.402.6.864 1.11 1.452 1.413.264.137.552.22.829.327.033.014.067.023.123.044-.378.566-.454 1.163-.123 1.818zM2.041 4.24c-.95.002-1.714-.938-1.716-2.106C.323.963 1.095.011 2.043.011c.94 0 1.706.949 1.706 2.117 0 1.174-.76 2.112-1.708 2.112z"/>
    </g>
</svg>
