<svg width="14px" height="14px" viewBox="0 0 14 14" version="1.1" xmlns="http://www.w3.org/2000/svg" xmlns:xlink="http://www.w3.org/1999/xlink">
    <g id="Symbols" stroke="none" stroke-width="1" fill-rule="evenodd">
        <path d="M3.80466667,2.63389286 C3.82133333,2.65909694 3.834,2.68894388 3.85533333,2.7095051 C5.08866667,3.93455612 6.32066667,5.16159694 7.562,6.37935204 C7.64466667,6.46093367 7.796,6.50537245 7.91733333,6.50868878 C8.422,6.52261735 8.928,6.51465816 9.458,6.51465816 C9.458,6.98557653 9.46533333,7.41736224 9.45133333,7.84848469 C9.44866667,7.92078061 9.35466667,7.9897602 9.30266667,8.06139286 C9.99,8.73593367 10.6806667,9.41379082 11.3706667,10.0896582 C12.8613333,8.19006633 12.824,5.09129082 10.7253333,3.08822959 C8.57666667,1.03675 5.48533333,1.2795051 3.80466667,2.63389286 M10.3146667,11.1873622 C9.286,10.1884847 8.27266667,9.2114949 7.27,8.22322959 C7.10333333,8.05940306 6.942,7.98113776 6.702,7.98312755 C5.41533333,7.99440306 4.12733333,7.98843367 2.84,7.98843367 L2.514,7.98843367 L2.514,6.49210714 L5.34333333,6.49210714 C4.452,5.59338265 3.544,4.6787398 2.638,3.76542347 C1.15266667,5.59669898 1.04066667,8.68751531 3.09066667,10.7608827 C5.11,12.8030765 8.22066667,12.8621071 10.3146667,11.1873622 M6.96933333,13.9286378 C3.11066667,13.9273112 0.00133333333,10.8185867 2.64697796e-22,6.95904592 C-0.00133333333,3.1797602 3.142,0.053127551 6.942,0.0564438776 C10.82,0.0597602041 13.944,3.15521939 13.9433333,6.99419898 C13.9426667,10.8172602 10.8126667,13.9299643 6.96933333,13.9286378" id="Fill-1" fill="#000000"></path>
        <path d="M9.49134714,2 C9.60254056,2.72919955 10.0760093,3.0410372 10.7704301,3.12153326 C10.8809062,3.13438557 10.9899475,3.15806088 11.0997061,3.17767756 C11.5437624,3.25614431 11.8572561,3.48207441 11.9706017,3.90552424 C12.0753387,4.29921082 11.8959945,4.71251409 11.5000024,5 C11.3902438,4.22615558 10.8242334,3.96640361 10.1047044,3.87914318 C9.97270704,3.86358512 9.83927494,3.84193912 9.7130166,3.80338219 C9.30195964,3.67756483 9.05231248,3.40901917 9.00711774,3.00518602 C8.96120562,2.60202931 9.13911509,2.27869222 9.49134714,2" id="Fill-4" fill="#000000"></path>
        <polygon id="Fill-6" fill="#000000" points="10 7 10.671 7 10.671 6 10 6"></polygon>
        <polygon id="Fill-8" fill="#000000" points="11 7 11.666 7 11.666 6 11 6"></polygon>
    </g>
</svg>