<svg xmlns="http://www.w3.org/2000/svg" xmlns:xlink="http://www.w3.org/1999/xlink" width="74" height="77" viewBox="0 0 74 77">
    <g fill="currentColor" transform="translate(-614 -152)">
        <path d="M649.046 186.51l4.243 4.243a2.5 2.5 0 1 1-3.536 3.536l-4.243-4.243-4.242 4.243a2.5 2.5 0 1 1-3.536-3.536l4.243-4.243-4.243-4.242a2.5 2.5 0 0 1 3.536-3.536l4.242 4.243 4.243-4.243a2.5 2.5 0 0 1 3.536 3.536l-4.243 4.242z"/>
        <path d="M621.94 185.135c-.028 12.828 10.355 23.263 23.176 23.29 12.82.03 23.29-10.367 23.33-23.162.04-12.806-10.368-23.288-23.163-23.329-12.88-.041-23.314 10.329-23.342 23.2m39.413 23.218c-14.215 9.669-31.25 4.274-39.018-6.613-8.096-11.346-6.884-26.792 2.986-36.571 9.866-9.776 25.3-10.882 36.534-2.75 10.98 7.95 16.02 24.94 6.408 39.061.204.127.492.24.692.44 4.832 4.816 9.664 9.633 14.474 14.472 1.993 2.005 2.088 4.925.289 6.927-1.963 2.185-5.147 2.26-7.316.116-3.347-3.307-6.663-6.645-9.987-9.976-1.697-1.7-3.383-3.412-5.062-5.106"/>
    </g>
</svg>
