<svg xmlns="http://www.w3.org/2000/svg" width="24" height="24" viewBox="0 0 32 32">
    <g transform="translate(-7.5, -7.5)">
        <path d="M38 23.506C38 31.5 31.473 38.026 23.48 38 15.489 37.987 9.014 31.486 9 23.468 8.987 15.54 15.552 8.975 23.48 9 31.513 9.026 38 15.514 38 23.506zm-27.203-.025c.026 7.036 5.75 12.773 12.722 12.734 7.05-.05 12.722-5.736 12.696-12.747-.025-7.01-5.761-12.696-12.785-12.67-6.947.025-12.658 5.761-12.633 12.683z"/>
        <path d="M21.694 25.286v4.5H19.03v-13.55c.612 0 1.185-.013 1.746 0 1.861.025 3.748-.064 5.596.127 3.366.344 5.01 3.455 3.582 6.54-.535 1.147-1.466 1.835-2.651 2.09-.905.191-1.848.242-2.766.293-.918.038-1.836 0-2.843 0zm.026-2.728c1.39 0 2.702.077 4.002-.025 1.084-.077 1.555-.74 1.543-1.81-.026-1.033-.497-1.594-1.58-1.708-.779-.077-1.569-.064-2.346-.077-.536-.013-1.071 0-1.62 0v3.62z"/>
    </g>
</svg>
