<svg xmlns="http://www.w3.org/2000/svg" width="16" height="16" viewBox="0 0 16 16">
    <g fill-rule="evenodd">
        <path fill-rule="nonzero" d="M8.019 7.074c1.098.009 2.031.726 2.371 1.793a.89.89 0 0 0 .34.455c1.212.778 1.596 2.221.898 3.428-.697 1.199-2.127 1.575-3.409.936-.14-.07-.375-.026-.532.044-1.055.507-2.267.289-3.025-.56a2.522 2.522 0 0 1-.253-3.035c.043-.07.087-.166.157-.21.671-.455 1.037-1.137 1.447-1.82.436-.725 1.169-1.022 2.006-1.031zm-3.617-3.02a2.378 2.378 0 0 1 .61-1.557c.575-.648 1.43-.665 2.032-.035.854.892.854 2.624-.01 3.516-.583.603-1.42.594-2.005-.027-.4-.428-.619-1.05-.627-1.898zm7.18.154c0 .717-.2 1.346-.74 1.845-.532.49-1.282.472-1.814-.017-.942-.875-.959-2.747-.026-3.639.567-.542 1.343-.525 1.91.026.435.42.67 1.059.67 1.785zM14 6.695c-.026.647-.174 1.154-.55 1.574-.636.691-1.569.525-1.935-.332-.296-.691-.105-1.706.427-2.23.654-.657 1.596-.464 1.918.41.079.21.105.446.14.578zM2 6.788c0-.901.514-1.514 1.238-1.479.14.01.288.044.419.105.959.455 1.281 2.126.575 2.913-.392.437-1.003.481-1.49.114C2.278 8.1 2 7.47 2 6.788z"/>
    </g>
</svg>
