<svg width="12px" height="13px" viewBox="0 0 12 13" version="1.1" xmlns="http://www.w3.org/2000/svg" xmlns:xlink="http://www.w3.org/1999/xlink">
    <g id="Symbols" stroke="none" stroke-width="1" fill-rule="evenodd">
        <g id="icon/services/room/phone">
            <path d="M0,1.9016 C0.215,1.0226 0.888,0.5376 1.596,0.1036 C1.764,0.0016 2.029,-0.0224 2.227,0.0206 C2.833,0.1526 3.328,0.4526 3.479,1.1166 C3.639,1.8136 3.81,2.5106 3.922,3.2156 C3.952,3.4076 3.835,3.6666 3.705,3.8296 C3.469,4.1226 3.185,4.3826 2.895,4.6266 C2.723,4.7706 2.715,4.8956 2.796,5.0806 C3.21,6.0256 3.764,6.8786 4.472,7.6256 C5.124,8.3136 5.838,8.9296 6.662,9.4106 C6.818,9.5016 6.918,9.4926 7.055,9.3696 C7.336,9.1146 7.634,8.8786 7.936,8.6486 C8.178,8.4626 8.452,8.4126 8.748,8.5226 C9.441,8.7796 10.158,8.9886 10.825,9.3026 C11.645,9.6876 11.813,10.7666 11.216,11.4386 C10.797,11.9116 10.314,12.2966 9.726,12.5396 L8.966,12.5396 C8.488,12.4426 7.998,12.3876 7.535,12.2436 C3.612,11.0256 1.283,8.3136 0.261,4.4036 C0.134,3.9176 0.085,3.4116 0,2.9146 L0,1.9016 Z" id="Fill-1"></path>
        </g>
    </g>
</svg>