<svg xmlns="http://www.w3.org/2000/svg" width="16" height="16" viewBox="0 0 16 16">
    <g fill-rule="evenodd">
        <path d="M5.208 12.734c-1.206-.024-2.41.018-3.587.321-.148.038-.289.102-.436.14a.202.202 0 0 1-.156-.032c-.027-.021-.037-.095-.023-.134.356-.97.434-1.987.48-3.004.054-1.152.047-2.307-.122-3.45-.078-.53-.234-1.049-.35-1.574-.011-.053-.002-.13.03-.168.024-.028.107-.032.152-.015.744.28 1.524.388 2.308.428a34.3 34.3 0 0 0 2.815.037c.977-.031 1.953-.123 2.885-.465.045-.016.123-.007.153.022.032.032.047.11.032.154-.457 1.34-.495 2.73-.497 4.123-.002 1.114.066 2.223.32 3.313.045.193.118.38.17.573.013.049.012.13-.017.154a.206.206 0 0 1-.171.028c-.85-.304-1.737-.392-2.628-.446-.451-.028-.905-.005-1.358-.005zM6.6 4.803c.062-.42.14-.795.168-1.172.036-.492.033-.988.05-1.481.002-.046.019-.114.05-.131.042-.023.12-.027.158-.002C8.74 3.105 10.67 3.57 12.628 3.952c.724.141 1.456.233 2.199.164.053-.005.123.033.16.074.023.023.013.103-.011.138-.616.879-.958 1.88-1.279 2.887-.38 1.193-.666 2.41-.796 3.658-.04.39-.013.788-.024 1.182-.002.071-.019.172-.065.202-.041.027-.146-.008-.203-.046-.792-.533-1.678-.859-2.578-1.147-.228-.073-.348-.154-.345-.428.01-.963-.038-1.927-.018-2.89.02-1.03.133-2.054.434-3.048.027-.09.07-.175.089-.265.01-.05.003-.122-.028-.154-.031-.033-.106-.05-.154-.038-.52.12-1.034.28-1.56.366-.605.098-1.22.132-1.849.196z"/>
    </g>
</svg>
