<svg xmlns="http://www.w3.org/2000/svg" width="16" height="16" viewBox="0 0 16 16">
    <g transform="translate(1, 1)">
        <path fill-rule="evenodd" d="M9.626 4.994c-.081 0-.13-.011-.155-.113-.392-1.527-.788-3.052-1.183-4.578C8.28.275 8.278.247 8.27.212c2.761-.932 5.69 1.41 5.683 4.78h-.121c-1.402 0-2.804 0-4.206.002zm4.368.687a4.267 4.267 0 0 1-.265 1.47c-.369 1.003-1.011 1.755-1.844 2.32-1.111.751-2.328 1.041-3.624.965a5.62 5.62 0 0 1-2.592-.791c-.825-.493-1.495-1.169-1.941-2.084a4.066 4.066 0 0 1-.429-1.77c-.004-.815-.392-1.352-1.019-1.709-.228-.13-.484-.2-.729-.29-.033-.013-.078.006-.116.019-.086.029-.17.087-.257.092a5.066 5.066 0 0 1-.686-.002C.21 3.876.008 3.624.003 3.324c-.005-.305.196-.578.478-.603.242-.022.489-.012.732.003a.396.396 0 0 1 .238.106c.093.088.199.114.31.144.575.156 1.106.408 1.543.859.441.457.699 1.013.769 1.673.019.174.018.174.175.174l9.573.001h.173zm-7.426 4.985c.837.023 1.506.779 1.49 1.686-.018.915-.714 1.655-1.538 1.634-.848-.018-1.532-.779-1.509-1.68.023-.933.715-1.661 1.557-1.64zm-.038 2.47c.411.002.745-.356.748-.804.002-.446-.327-.811-.737-.814-.412-.004-.745.354-.749.804-.003.446.327.812.738.814zm4.106-2.47c.841-.007 1.525.733 1.529 1.654.004.917-.674 1.664-1.517 1.668-.839.003-1.524-.744-1.524-1.663-.001-.912.674-1.652 1.512-1.659zm.008 2.47c.407 0 .744-.363.745-.809.003-.443-.335-.809-.743-.809-.409 0-.746.366-.747.807-.002.443.337.809.745.811z"/>
    </g>
</svg>
