<svg xmlns="http://www.w3.org/2000/svg" width="19" height="19" viewBox="0 0 19 19">
    <path fill-rule="nonzero" d="M15.525 8.895a1.55 1.55 0 0 0-1.14-.478h-.538V6.25c0-.226-.057-.474-.169-.745a1.97 1.97 0 0 0-.404-.643l-1.279-1.287a1.96 1.96 0 0 0-.639-.406 1.933 1.933 0 0 0-.74-.169H4.962a.777.777 0 0 0-.573.237.786.786 0 0 0-.235.575v4.605h-.539c-.443 0-.823.159-1.14.478A1.569 1.569 0 0 0 2 10.042v3.52c0 .074.027.137.08.191.053.054.116.08.19.08h1.884v1.354c0 .226.078.418.235.576a.777.777 0 0 0 .573.237h8.077c.224 0 .415-.08.572-.237a.786.786 0 0 0 .235-.576v-1.354h1.885a.258.258 0 0 0 .19-.08.261.261 0 0 0 .079-.19v-3.521c0-.446-.158-.828-.475-1.147zm-2.756 6.022H5.231V12.75h7.538v2.167zm0-5.417H5.231V4.083h5.385v1.354c0 .226.078.418.235.576a.776.776 0 0 0 .572.237h1.346V9.5zm1.994.922a.516.516 0 0 1-.378.161.516.516 0 0 1-.379-.16.522.522 0 0 1-.16-.381c0-.147.054-.274.16-.381a.516.516 0 0 1 .379-.161c.146 0 .272.054.378.16.107.108.16.235.16.382a.522.522 0 0 1-.16.38z"/>
    <path fill="#646464" d="M1.222 3.636l1.414-1.414 14.142 14.142-1.414 1.414z"/>
</svg>
