<svg xmlns="http://www.w3.org/2000/svg" width="24" height="24" viewBox="0 0 14 14">
    <path fill-rule="nonzero" d="M6.413 0a6.5 6.5 0 1 0 .175 13 6.5 6.5 0 0 0-.175-13zm-.019 10.457h-.036c-.553-.017-.942-.425-.927-.97a.924.924 0 0 1 .95-.923h.031c.569.017.954.42.938.98-.016.538-.409.913-.956.913zm2.325-4.615c-.13.184-.416.414-.776.694l-.397.274c-.217.17-.349.329-.398.485-.039.124-.058.156-.061.407v.064H5.571l.004-.128c.018-.527.031-.837.25-1.093.342-.402 1.098-.888 1.13-.909.108-.082.2-.174.267-.274.16-.219.23-.391.23-.56 0-.236-.07-.454-.208-.647-.133-.187-.385-.282-.75-.282-.361 0-.609.115-.757.35-.152.242-.229.496-.229.756v.065H3.947l.003-.068c.04-.956.382-1.645 1.015-2.047.397-.256.892-.385 1.469-.385.755 0 1.393.183 1.895.545.509.367.767.916.767 1.633 0 .4-.127.777-.377 1.12z"/>
</svg>
