<svg xmlns="http://www.w3.org/2000/svg" width="16" height="16" viewBox="0 0 16 16">
    <g transform="translate(1, 1)">
        <path fill-rule="evenodd" d="M1.501 14.001L14.006 1.487v12.514H1.501zm4.855-9.279c-.004.195-.079.352-.255.452a.451.451 0 0 1-.489-.015c-.172-.11-.202-.29-.197-.484.019-.929.034-1.858.049-2.787l-.008-.248L.919 6.181c-.049.05-.094.095-.146.141a.478.478 0 0 1-.649-.009.482.482 0 0 1-.017-.652c.046-.053.093-.097.143-.144l4.358-4.361.154-.154C4.755.978 4.748.958 4.746.941c-.07.008-.145.027-.218.028l-2.804.046c-.322.003-.529-.18-.524-.456.004-.286.205-.482.526-.485C3.112.049 4.497.02 5.883 0c.379-.001.551.179.545.562-.011.761-.024 1.527-.039 2.289-.01.626-.025 1.248-.033 1.871z"/>
    </g>
</svg>
