<svg xmlns="http://www.w3.org/2000/svg" width="16" height="16" viewBox="0 0 16 16">
    <g fill-rule="evenodd">
        <path fill="#000000" fill-rule="nonzero" d="M7.93 3.539c-2.386 0-4.325 2.069-4.325 4.615h2.163l-2.885 3.077L0 8.154h2.163C2.163 4.754 4.743 2 7.93 2c1.131 0 2.184.354 3.07.954L9.949 4.077A4.026 4.026 0 0 0 7.93 3.54zm2.304 4.307l2.883-3.077L16 7.846h-2.163c0 3.4-2.58 6.154-5.766 6.154A5.462 5.462 0 0 1 5 13.046l1.053-1.123c.597.346 1.29.538 2.018.538 2.385 0 4.326-2.069 4.326-4.615h-2.163z"/>
    </g>
</svg>
