<svg xmlns="http://www.w3.org/2000/svg" width="24" height="24" viewBox="0 0 24 24">
    <g fill="#5FC879" fill-rule="nonzero">
        <path d="M23.48 21.969l-4.302-4.302c-.69.97-1.54 1.82-2.511 2.512l4.301 4.3a1.775 1.775 0 1 0 2.512-2.51zM19.81 11.905a8.905 8.905 0 1 0-17.81 0 8.905 8.905 0 0 0 17.81 0zm-7.867 4.265c-.09.496-.055 1.02-.25 1.496-.16.32.003.702-.118 1.02-.224.023-.44.069-.67.069a6.858 6.858 0 0 1-6.85-6.85c0-1.485.487-2.851 1.293-3.975-.023.095-.047.19-.05.289-.023.374.042.779.296 1.069.129.17.357.22.478.4.155.216.468.217.62.437.138.189.289.368.432.554.104.13.13.325.291.404.366.186.815.133 1.162.367.603.352 1.185.757 1.84 1.011.226.105.561-.014.704.238.108.298-.24.475-.29.742-.038.168.03.367-.097.507.135.334.357.625.554.923.164.24.454.348.626.578.117.22.052.484.029.721zm.503 2.395c.092-.186.167-.38.298-.544.07-.078.043-.234.173-.256.189-.042.444-.022.522-.245-.029-.028-.054-.058-.08-.084.118-.003.235-.014.353-.012.266-.347.582-.659.773-1.055.11-.208.385-.21.53-.384.121-.132.265-.255.347-.419.057-.23-.028-.502.134-.703.157-.18.367-.337.408-.587.047-.153-.05-.304-.187-.366-.45-.227-1-.183-1.423-.476-.13-.118-.085-.326-.197-.458-.147-.194-.404-.228-.62-.296-.177-.046-.302-.188-.464-.264a2.556 2.556 0 0 0-1.275-.27c-.172.008-.35.075-.44.232-.045.093-.153.032-.221.004-.351-.173-.733-.351-.948-.697-.044-.084-.133-.123-.215-.161.042-.19.214-.334.197-.538-.223-.075-.448.044-.672.018-.139-.021-.124-.192-.138-.296-.027-.207.02-.44.204-.564.226-.164.53-.34.814-.218.24.102.244.424.47.542.133-.225-.038-.475-.04-.711.13-.191.343-.294.508-.448.121-.094-.051-.25.053-.353.202-.277.414-.568.719-.74.202-.118.44-.014.66-.03.17-.057.263-.234.42-.314.23-.136.506-.112.758-.069-.084-.168-.156-.43-.373-.452-.173.064-.217.301-.406.356-.178.104-.352-.041-.468-.167-.208.085-.42.165-.64.207.454-.202.953-.292 1.397-.519.065-.038.183-.1.127-.192-.14-.255-.441-.367-.583-.622-.092-.133-.105-.317-.229-.426-.178-.077-.362.105-.542.024-.223-.109-.379-.337-.631-.388-.14-.032-.322-.067-.43.05-.077.245.103.477.113.719-.098.19-.152.395-.218.597-.042.145-.2.207-.338.175-.007-.14.075-.35-.101-.417-.333-.134-.68-.238-1.007-.387-.215-.074-.432-.314-.272-.54.206-.278.538-.413.8-.624.023-.018.043-.042.065-.064.257-.03.509-.078.774-.078.168 0 .325.038.49.05-.09.05-.179.098-.257.163.13.065.278.04.417.06.331.017.54.365.872.368.069-.169-.205-.135-.235-.272.13-.014.273.048.39-.02.012-.063-.014-.1-.05-.132.424.104.834.244 1.224.424-.001.032.002.064-.023.098-.084.165-.388.099-.395.306.118.302.351.552.596.76.168.125.434.243.618.083.156-.153.212-.414.372-.558 1.707 1.247 2.83 3.249 2.83 5.52 0 3.245-2.274 5.956-5.308 6.66z"/>
    </g>
</svg>
