<svg xmlns="http://www.w3.org/2000/svg" width="16" height="16" viewBox="0 0 16 16">
    <path fill-rule="evenodd" d="M9.365 7.358V5.866h5.997v1.492H9.365zm0-3.743h5.997v1.491H9.365V3.615zm3.752-2.253h1.494v1.495h-1.494V1.362zM10.114.613h2.246v2.243h-2.246V.613zm.219 7.533c.005-.014.031-.022.05-.032.004-.003.015 0 .021 0h3.691c.003.11-.048.192-.116.266a1.423 1.423 0 0 1-.479.316c-.392.185-.81.302-1.218.443a16.06 16.06 0 0 0-.68.259.31.31 0 0 0-.171.151c-.306.584-.617 1.169-.926 1.754-.158.299-.325.597-.475.905a.707.707 0 0 1-.521.385c-.378.079-.693-.04-.938-.333-.478-.568-.949-1.142-1.425-1.712-.009-.009-.017-.017-.036-.04v.083c0 1.162-.002 2.322 0 3.483 0 .359-.096.686-.321.967a1.462 1.462 0 0 1-1.181.576 668.93 668.93 0 0 1-3.748 0 1.492 1.492 0 0 1-1.475-1.229c-.02-.098-.027-.2-.027-.3-.003-2.344-.001-4.69-.004-7.034 0-.057.021-.082.069-.096.287-.08.572-.165.859-.238.16-.042.324-.067.483-.097.029-.006.058-.006.093-.009l1.636 7.103h.01c.45-2.366.901-4.731 1.355-7.106.114.01.226.017.335.031.462.056.922.122 1.374.235.182.045.361.109.539.17.086.03.15.088.201.168a2269.495 2269.495 0 0 0 2.054 3.077c.062-.135.12-.265.177-.393.265-.582.528-1.168.794-1.753zM3.357 5.862c-1.274 0-2.252-.978-2.249-2.252 0-1.274.978-2.25 2.252-2.25 1.273.002 2.251.98 2.25 2.252-.002 1.274-.98 2.251-2.253 2.25z"/>
</svg>
