<svg xmlns="http://www.w3.org/2000/svg" width="24" height="24" viewBox="0 0 18 18">
    <path fill-rule="nonzero" d="M15.956 8.223c-.022-.197-.251-.345-.45-.345-.641 0-1.21-.377-1.45-.96a1.56 1.56 0 0 1 .392-1.73.389.389 0 0 0 .043-.528 6.927 6.927 0 0 0-1.11-1.12.39.39 0 0 0-.531.043c-.418.462-1.167.634-1.746.392a1.555 1.555 0 0 1-.946-1.52.388.388 0 0 0-.343-.408 6.989 6.989 0 0 0-1.575-.005.39.39 0 0 0-.347.401c.023.65-.362 1.25-.958 1.493-.572.234-1.317.064-1.733-.394a.39.39 0 0 0-.528-.044c-.42.329-.802.706-1.133 1.12a.39.39 0 0 0 .042.531c.487.441.644 1.143.391 1.747-.241.575-.839.946-1.523.946a.38.38 0 0 0-.404.344 7.012 7.012 0 0 0-.003 1.592c.022.197.258.344.459.344a1.535 1.535 0 0 1 1.44.959 1.556 1.556 0 0 1-.391 1.73.389.389 0 0 0-.043.528c.325.415.699.792 1.108 1.12a.39.39 0 0 0 .532-.041c.42-.464 1.169-.635 1.746-.393.604.253.984.863.947 1.52a.389.389 0 0 0 .343.408 6.958 6.958 0 0 0 1.575.004.39.39 0 0 0 .347-.4 1.556 1.556 0 0 1 .957-1.493c.576-.235 1.318-.063 1.734.394.138.15.367.169.528.044a6.97 6.97 0 0 0 1.133-1.12.389.389 0 0 0-.042-.531 1.551 1.551 0 0 1-.392-1.746 1.567 1.567 0 0 1 1.432-.95l.086.003a.39.39 0 0 0 .41-.343 7.006 7.006 0 0 0 .003-1.592zM9.011 11.35a2.337 2.337 0 0 1-2.335-2.335A2.337 2.337 0 0 1 9.011 6.68a2.337 2.337 0 0 1 2.335 2.335 2.337 2.337 0 0 1-2.335 2.335z"/>
</svg>
