<svg xmlns="http://www.w3.org/2000/svg" width="16" height="16" viewBox="0 0 16 16">
    <g fill-rule="evenodd">
        <path fill-rule="nonzero" d="M9.17 1C11.281 1 13 2.69 13 4.768v9.596c0 .351-.29.636-.647.636a.642.642 0 0 1-.647-.636V4.768c0-1.376-1.138-2.495-2.537-2.495-.741 0-1.43.316-1.903.845 1.46.549 2.499 1.94 2.499 3.567 0 .351-.29.636-.647.636h-6.47A.642.642 0 0 1 2 6.685c0-2.098 1.73-3.807 3.861-3.818A3.842 3.842 0 0 1 9.17 1zM3.5 12c.276 0 .5.269.5.6v.8c0 .331-.224.6-.5.6s-.5-.269-.5-.6v-.8c0-.331.224-.6.5-.6zm2 0c.276 0 .5.269.5.6v.8c0 .331-.224.6-.5.6s-.5-.269-.5-.6v-.8c0-.331.224-.6.5-.6zm3 0c.276 0 .5.269.5.6v.8c0 .331-.224.6-.5.6s-.5-.269-.5-.6v-.8c0-.331.224-.6.5-.6zm-5-3c.276 0 .5.269.5.6v.8c0 .331-.224.6-.5.6s-.5-.269-.5-.6v-.8c0-.331.224-.6.5-.6zm2 0c.276 0 .5.269.5.6v.8c0 .331-.224.6-.5.6s-.5-.269-.5-.6v-.8c0-.331.224-.6.5-.6zm3 0c.276 0 .5.269.5.6v.8c0 .331-.224.6-.5.6s-.5-.269-.5-.6v-.8c0-.331.224-.6.5-.6z"/>
    </g>
</svg>
