<svg xmlns="http://www.w3.org/2000/svg" width="16" height="16" viewBox="0 0 16 16">
    <path fill-rule="nonzero" d="M12.865 8.562a.654.654 0 1 1 0 1.307H2.681a.654.654 0 1 1 0-1.307h10.184zm-9.166 3.495c.271 0 .49.22.49.49v.164a.49.49 0 1 1-.98 0v-.163c0-.271.219-.49.49-.49zm0-1.798c.271 0 .49.22.49.49v.164a.49.49 0 1 1-.98 0v-.164c0-.27.219-.49.49-.49zm0 3.597c.271 0 .49.22.49.49v.164a.49.49 0 1 1-.98 0v-.164c0-.27.219-.49.49-.49zm2.037-1.799c.27 0 .49.22.49.49v.164a.49.49 0 0 1-.98 0v-.163c0-.271.219-.49.49-.49zm0 1.799c.27 0 .49.22.49.49v.164a.49.49 0 1 1-.98 0v-.164c0-.27.219-.49.49-.49zm0-3.597c.27 0 .49.22.49.49v.164a.49.49 0 1 1-.98 0v-.164c0-.27.219-.49.49-.49zm2.037 3.597c.27 0 .49.22.49.49v.164a.49.49 0 1 1-.98 0v-.164c0-.27.219-.49.49-.49zm0-1.799c.27 0 .49.22.49.49v.164a.49.49 0 1 1-.98 0v-.163c0-.271.219-.49.49-.49zm0-1.798c.27 0 .49.22.49.49v.164a.49.49 0 1 1-.98 0v-.164c0-.27.219-.49.49-.49zm2.037 0c.271 0 .49.22.49.49v.164a.49.49 0 1 1-.98 0v-.164c0-.27.219-.49.49-.49zm0 3.597c.271 0 .49.22.49.49v.164a.49.49 0 1 1-.98 0v-.164c0-.27.219-.49.49-.49zm0-1.799c.271 0 .49.22.49.49v.164a.49.49 0 0 1-.98 0v-.163c0-.271.219-.49.49-.49zm2.037 0c.271 0 .49.22.49.49v.164a.49.49 0 1 1-.98 0v-.163c0-.271.219-.49.49-.49zm0 1.799c.271 0 .49.22.49.49v.164a.49.49 0 1 1-.98 0v-.164c0-.27.219-.49.49-.49zm0-3.597c.271 0 .49.22.49.49v.164a.49.49 0 1 1-.98 0v-.164c0-.27.219-.49.49-.49zm-8.161-2.25a.327.327 0 0 1-.328-.327 4.42 4.42 0 0 1 3.945-4.388A2.61 2.61 0 0 1 9.891 1h1.244a.49.49 0 0 1 0 .981H9.89c-.793 0-1.453.57-1.597 1.32a4.419 4.419 0 0 1 3.893 4.38c0 .182-.146.328-.327.328H3.686z"/>
</svg>
