<svg width="10px" height="11px" viewBox="0 0 10 11" version="1.1" xmlns="http://www.w3.org/2000/svg" xmlns:xlink="http://www.w3.org/1999/xlink">
    <g id="Symbols" stroke="none" stroke-width="1" fill-rule="evenodd">
        <path d="M9.47199895,7.62919976 C6.38322382,7.62919976 3.32711928,7.62919976 0.249237439,7.62919976 C0.289162816,7.52957109 0.314569807,7.44650233 0.347236223,7.37454081 C0.623084365,6.71017243 0.89893158,6.05133749 1.16752294,5.38696238 C1.22196619,5.25408601 1.25463214,5.08245544 1.25463214,4.92743862 C1.26189124,3.58208138 1.25826169,2.23119071 1.25826169,0.885833477 C1.25826169,0.498279985 1.58492123,0 1.83536483,0 C3.84977916,0 5.86420738,0 7.87860782,0 C8.12906532,0 8.45206752,0.50381678 8.45206752,0.891366907 C8.45206752,2.19242978 8.45572485,3.49349938 8.44845649,4.79456225 C8.44845649,5.06584842 8.49202035,5.28730679 8.58637014,5.51429859 C8.88400253,6.20082088 9.1670982,6.89841003 9.47199895,7.62919976 Z M2.0930629,4.41808033 C3.94052255,3.81461334 5.77707965,3.81461334 7.61365991,4.41808033 C7.61365991,3.35508285 7.61365991,2.31977272 7.61365991,1.28445585 C5.76620026,1.28445585 3.93325882,1.28445585 2.0930629,1.28445585 C2.0930629,2.33637974 2.0930629,3.36615644 2.0930629,4.41808033 Z" id="path0_fill"></path>
        <path d="M1.18430035,10.7702358 C1.18430035,10.0805592 1.18430035,9.45414497 1.18430035,8.78344786 C0.861265736,8.78344786 0.549122554,8.78344786 0.226089795,8.78344786 C0.226089795,8.28991284 0.226089795,7.83434057 0.226089795,7.3471337 C3.30760119,7.3471337 6.38910332,7.3471337 9.48514681,7.3471337 C9.48514681,7.80270404 9.48514681,8.26460177 9.48514681,8.7581368 C9.17302399,8.7581368 8.86085489,8.7581368 8.526927,8.7581368 C8.526927,9.43516552 8.526927,10.0868832 8.526927,10.7639119 C8.26924744,10.7639119 8.03332667,10.7765674 7.80101693,10.7512564 C7.76472142,10.7512564 7.70666714,10.6120532 7.70300981,10.5297961 C7.69213042,10.0679037 7.69939878,9.59967206 7.69939878,9.13777972 C7.69939878,9.02388761 7.69939878,8.9099955 7.69939878,8.77711625 C5.79749588,8.77711625 3.91374073,8.77711625 2.01184246,8.77711625 C2.01184246,9.34658448 2.00458335,9.90338947 2.01547201,10.4601945 C2.01910156,10.7006342 1.97554695,10.7765674 1.84125359,10.7639119 C1.63073504,10.757588 1.42022112,10.7702358 1.18430035,10.7702358 Z" id="path1_fill"></path>
        <path d="M4.06084852,3.09941896 C4.06084852,2.80993806 4.02692043,2.50147963 4.0753888,2.19776991 C4.09962305,2.04116519 4.23533475,1.87032588 4.36619896,1.76592465 C4.7975654,1.43373767 5.80086536,1.45271982 6.25646456,1.76117883 C6.45518954,1.89879909 6.56666594,2.07438366 6.55697234,2.31640688 C6.54727874,2.47301045 6.55697234,2.62960825 6.55697234,2.78621182 C5.70877616,2.89535714 4.88966078,2.99501658 4.06084852,3.09941896 Z" id="path3_fill"></path>
    </g>
</svg>