<svg xmlns="http://www.w3.org/2000/svg" width="16" height="16" viewBox="0 0 16 16">
    <g fill-rule="evenodd">
        <path fill-rule="nonzero" d="M10.068 10.455c.157 0 .285.15.285.334v2.876c0 .185-.128.335-.285.335H.285C.128 14 0 13.85 0 13.665V10.79c0-.185.128-.334.285-.334h9.783zm3.755 0c.163 0 .295.15.295.334v2.876c0 .185-.132.335-.295.335H11.59c-.163 0-.295-.15-.295-.335V10.79c0-.185.132-.334.295-.334h2.234zM12.09 8.012a.557.557 0 0 1-.172-.742l1.026-1.779-1.478-1.383a.56.56 0 0 1-.097-.684l1.247-2.164a.499.499 0 0 1 .705-.182c.242.155.32.488.172.743L12.468 3.6l1.477 1.383a.56.56 0 0 1 .098.684L12.795 7.83a.508.508 0 0 1-.439.26.492.492 0 0 1-.266-.079zm3.738-3.03a.56.56 0 0 1 .098.685L14.678 7.83a.507.507 0 0 1-.44.26.491.491 0 0 1-.265-.079.557.557 0 0 1-.173-.742l1.026-1.779-1.477-1.383a.56.56 0 0 1-.098-.684l1.248-2.164a.499.499 0 0 1 .705-.182c.242.155.319.488.172.743L14.35 3.6l1.478 1.383z"/>
    </g>
</svg>
