<svg width="12px" height="14px" viewBox="0 0 12 14" version="1.1" xmlns="http://www.w3.org/2000/svg" xmlns:xlink="http://www.w3.org/1999/xlink">
    <g id="Symbols" stroke="none" stroke-width="1" fill-rule="evenodd">
        <g transform="translate(-1.000000, -3.000000)">
            <path d="M10.9351882,12.8880281 C10.9351882,13.3025933 10.9399407,13.6492766 10.9340001,13.9959598 C10.9268714,14.4081007 10.7510297,14.6226564 10.4369701,14.6190198 C10.1240987,14.6145752 9.96291048,14.403656 9.9621184,13.9806055 C9.96093028,13.5110881 9.97795999,13.0415708 9.96291048,12.5732656 C9.95895008,12.4544721 9.89360351,12.2855751 9.8029104,12.2302189 C9.0666724,11.776864 8.31736508,11.3449242 7.53795874,10.8863164 C7.5237013,10.9889476 7.50429535,11.0616783 7.50429535,11.1348131 C7.5027112,11.9207092 7.51063199,12.7070094 7.49954288,13.4929055 C7.49637456,13.6961475 7.56013697,13.8117086 7.73518656,13.9070666 C8.14984024,14.1337441 8.55578104,14.3773921 8.96013769,14.6222523 C9.28132597,14.8170091 9.37043493,15.0849006 9.21875168,15.3527922 C9.06944467,15.615431 8.77795938,15.6784643 8.46825625,15.5043146 C8.16053332,15.3313771 7.85756286,15.1491461 7.50389931,14.9422676 C7.50389931,15.4538071 7.50667159,15.9067581 7.50310723,16.359709 C7.500731,16.7492225 7.31182001,16.9908502 7.01122579,16.9997395 C6.71102762,17.0090329 6.50231464,16.7690214 6.49518592,16.3815282 C6.48686909,15.9257489 6.49320573,15.4691614 6.49320573,14.9507528 C6.15181941,15.1475299 5.85795787,15.3204674 5.56053198,15.4881522 C5.2254823,15.6772521 4.92449205,15.6239163 4.77993752,15.3548125 C4.63459091,15.0836885 4.7438979,14.7988264 5.07181886,14.6052818 C5.46904678,14.3713312 5.87102719,14.1442497 6.26429472,13.903026 C6.35340367,13.848478 6.47815621,13.7482712 6.47974037,13.6674592 C6.49518592,12.7575168 6.48924533,11.8467663 6.48924533,10.870154 C5.81993805,11.2641122 5.22191794,11.6580704 4.58746217,11.9752573 C4.1569669,12.190217 3.96805591,12.4536639 4.0326104,12.948233 C4.0793431,13.3058258 4.05003615,13.6743283 4.04449159,14.037982 C4.038551,14.4093128 3.84409545,14.6262929 3.54152104,14.6186158 C3.24409514,14.6113427 3.08211486,14.417394 3.07657031,14.0452551 C3.07102575,13.6848338 3.07538219,13.3240085 3.07538219,12.8860078 C2.60211462,13.1615765 2.20092629,13.4262356 1.77161914,13.6294776 C1.61359926,13.7046327 1.3553813,13.69938 1.20726241,13.6137193 C1.09241087,13.5474535 1.02231182,13.2941081 1.03775738,13.1345045 C1.05043065,13.0052054 1.19934162,12.8585318 1.32369812,12.7773158 C1.71696565,12.5203338 2.12726289,12.2904238 2.57201559,12.0257647 C2.24013423,11.8273714 1.94508457,11.6520095 1.65043096,11.4746273 C1.30033177,11.2637082 1.19538122,11.0071302 1.34548031,10.7331778 C1.49637147,10.4580131 1.77755974,10.40993 2.11973813,10.6079193 C2.53954033,10.8511632 2.95260985,11.1061249 3.37676848,11.3404795 C3.46033288,11.3873504 3.60607553,11.4099778 3.68132309,11.3671474 C4.45280864,10.9275305 5.21597735,10.4725593 6.02587875,9.99536479 C5.20805655,9.51372564 4.42785813,9.04905699 3.63973891,8.59933856 C3.57478838,8.56216507 3.44132297,8.60297509 3.36132293,8.64822978 C2.97993659,8.86399765 2.60607501,9.09431168 2.22904512,9.31896886 C1.8021142,9.57271835 1.52567842,9.55776814 1.35577734,9.27371418 C1.17993567,8.97955872 1.29518325,8.72984984 1.72528248,8.47205975 C1.99181727,8.31205212 2.25755998,8.15123636 2.56884727,7.9633486 C2.14468864,7.71121536 1.75379735,7.48090133 1.36449022,7.24735483 C1.01795539,7.03926409 0.915381075,6.77581718 1.07023264,6.50226876 C1.22389608,6.23154877 1.50389623,6.18791033 1.8488469,6.38791987 C2.23696591,6.61257706 2.62191661,6.84248702 3.07538219,7.10957048 C3.07538219,6.69258088 3.07260991,6.33741241 3.07617427,5.98183988 C3.08013466,5.58303297 3.23775851,5.38059907 3.54191708,5.37332599 C3.85597665,5.36605292 4.04171932,5.58707357 4.04567971,5.98830484 C4.04964011,6.46953993 4.0365708,6.95077502 4.05399655,7.43120199 C4.05835299,7.5483793 4.12251144,7.71444784 4.21162039,7.76939995 C4.91934353,8.20578442 5.6393439,8.62115778 6.35657199,9.0409758 C6.3835027,9.05673413 6.42152252,9.05269353 6.49082949,9.0640072 C6.49082949,8.15204448 6.49637404,7.25260761 6.48251265,6.3535748 C6.48092849,6.26751008 6.37716606,6.15477743 6.29241354,6.10305779 C5.87974006,5.84930831 5.45518539,5.6157618 5.03934359,5.3672651 C4.73518502,5.18543823 4.63775923,4.89289902 4.78112564,4.6334927 C4.92528413,4.37247014 5.21716547,4.31145713 5.53360127,4.48681903 C5.83379945,4.65369568 6.12845306,4.83026977 6.49241365,5.04118893 C6.49241365,4.62298715 6.49122553,4.26781868 6.49320573,3.91184209 C6.49399781,3.75951159 6.48370077,3.60435267 6.50825524,3.4556587 C6.55578002,3.16635196 6.72449297,2.98412104 7.02548323,3.00109155 C7.3237012,3.01806206 7.48805772,3.21443507 7.49795872,3.5057621 C7.51498843,3.99750275 7.5027112,4.49005151 7.5027112,5.04603764 C7.83261235,4.85370523 8.12449369,4.68238392 8.41795919,4.51308291 C8.77241482,4.30903277 9.06786051,4.35954023 9.22350416,4.64844291 C9.37320721,4.92643597 9.27380121,5.17654892 8.91815747,5.38989244 C8.51300874,5.63313637 8.09914715,5.86264228 7.70033506,6.11639176 C7.61083006,6.17336418 7.51419635,6.3054917 7.51261219,6.40489038 C7.49795872,7.28372021 7.50429535,8.16335815 7.50429535,9.08744266 C7.6092459,9.0409758 7.69003802,9.01471192 7.76172123,8.97228565 C8.39974136,8.59933856 9.03063277,8.21346155 9.67578162,7.85425249 C9.90033619,7.72899398 9.97518771,7.5774716 9.96449464,7.32412617 C9.94588077,6.86753872 9.9541976,6.40933504 9.96132632,5.95193947 C9.96726692,5.58060861 10.1328116,5.38383154 10.425485,5.37332599 C10.734,5.36241638 10.9225149,5.56848682 10.9316238,5.94789887 C10.9403367,6.30953229 10.933604,6.67156978 10.933604,7.09946899 C11.3882577,6.83400177 11.7823174,6.57499951 12.2025156,6.3725656 C12.3637038,6.29498614 12.6179614,6.2763994 12.7716248,6.35236262 C13.1074666,6.51802709 13.0627141,6.97986732 12.704298,7.20412045 C12.2955849,7.45989023 11.8757828,7.69788139 11.4286538,7.96213643 C11.7660797,8.16537845 12.0730106,8.34680125 12.3767731,8.53388089 C12.6920208,8.72782954 12.793803,9.00178201 12.654001,9.25997615 C12.5086544,9.52867584 12.2108324,9.57716301 11.8749907,9.37998188 C11.4666736,9.14077854 11.0654853,8.88864529 10.6512277,8.65954345 C10.5581583,8.60822787 10.3981582,8.57994369 10.3153859,8.62721868 C9.54271224,9.0640072 8.78073165,9.51978653 7.97320649,9.99496073 C8.78191977,10.4713471 9.550237,10.9303589 10.3280592,11.3728043 C10.4013265,11.4148265 10.5470692,11.3829058 10.6322178,11.3352267 C11.0555843,11.100064 11.4690499,10.8455064 11.888456,10.6022624 C12.2112285,10.4151828 12.4900405,10.4588213 12.6421198,10.7121667 C12.8017238,10.978038 12.6995456,11.2612838 12.3664761,11.4633136 C12.0635056,11.6475649 11.7577629,11.8273714 11.4235053,12.027381 C11.8536045,12.2811305 12.2425156,12.5074039 12.6286544,12.738122 C12.9684566,12.941364 13.0789517,13.2169327 12.9336051,13.4836121 C12.7878624,13.7515037 12.4912286,13.7995868 12.1534067,13.6036178 C11.7672678,13.3797688 11.3835053,13.151475 10.9351882,12.8880281" id="Fill-1" fill="#000000"></path>
        </g>
    </g>
</svg>