<svg xmlns="http://www.w3.org/2000/svg" width="16" height="16" viewBox="0 0 16 16">
    <g fill-rule="evenodd">
        <path d="M11.935 10.888c0 .415.005.761-.001 1.108-.007.412-.183.627-.497.623-.313-.004-.474-.215-.475-.638-.001-.47.016-.94 0-1.408-.003-.119-.068-.287-.16-.343-.735-.453-1.485-.885-2.264-1.344-.014.103-.034.176-.034.249-.001.786.007 1.572-.004 2.358-.004.203.06.319.235.414.415.227.82.47 1.225.715.321.195.41.463.259.73-.15.263-.441.326-.75.152-.308-.173-.611-.355-.965-.562 0 .512.003.965 0 1.418-.003.39-.192.63-.493.64-.3.009-.509-.231-.516-.618-.008-.456-.002-.913-.002-1.431-.341.197-.635.37-.932.537-.336.19-.637.136-.781-.133-.145-.271-.036-.556.292-.75.397-.234.799-.46 1.192-.702.09-.055.214-.155.216-.236.015-.91.01-1.82.01-2.797-.67.394-1.268.788-1.903 1.105-.43.215-.619.479-.554.973.046.358.017.726.011 1.09-.005.371-.2.588-.502.58-.298-.007-.46-.2-.465-.573-.006-.36-.002-.721-.002-1.159-.473.276-.874.54-1.303.743a.69.69 0 0 1-.565-.015c-.115-.067-.185-.32-.17-.48.013-.129.162-.275.287-.357.393-.257.803-.487 1.248-.751l-.922-.551c-.35-.211-.455-.468-.305-.742.151-.275.433-.323.775-.125.42.243.833.498 1.257.732.083.047.23.07.304.027.772-.44 1.535-.894 2.345-1.372C6.208 7.514 5.428 7.05 4.64 6.6c-.065-.037-.199.004-.279.05-.381.215-.755.445-1.132.67-.427.254-.703.239-.873-.045-.176-.294-.06-.544.37-.802.266-.16.532-.32.843-.509-.424-.252-.815-.482-1.205-.716-.346-.208-.449-.471-.294-.745.154-.27.434-.314.779-.114.388.225.773.454 1.226.722 0-.417-.002-.773.001-1.128.004-.399.162-.601.466-.609.314-.007.5.214.504.615.004.482-.01.963.008 1.443.004.117.069.283.158.338.707.437 1.427.852 2.145 1.272.027.016.065.012.134.023 0-.912.005-1.811-.008-2.71-.002-.086-.106-.2-.19-.25-.413-.255-.838-.488-1.254-.737-.304-.182-.401-.474-.258-.734.144-.26.436-.322.753-.146.3.167.594.343.958.554l.001-1.13c.001-.151-.01-.307.015-.455.048-.29.216-.472.517-.455.299.017.463.213.473.505.017.492.005.984.005 1.54.33-.192.621-.364.915-.533.354-.204.65-.153.806.135.15.278.05.529-.306.742-.405.243-.819.473-1.218.726-.09.057-.186.19-.187.289-.015.879-.009 1.758-.009 2.682.105-.046.186-.072.258-.115.638-.373 1.269-.759 1.914-1.118.224-.125.3-.277.288-.53-.018-.456-.01-.915-.003-1.372.006-.371.172-.568.464-.579.309-.01.498.195.507.575.008.362.002.724.002 1.151.454-.265.848-.524 1.269-.726.16-.078.415-.097.569-.02.335.165.29.627-.068.851-.408.256-.828.494-1.275.758.337.203.644.385.948.572.315.194.417.468.277.726-.145.269-.443.317-.779.12-.408-.24-.81-.491-1.224-.72-.093-.052-.253-.08-.336-.033-.772.437-1.534.893-2.342 1.368.809.476 1.577.935 2.355 1.378.073.042.22.01.304-.038.424-.235.837-.49 1.256-.733.323-.187.602-.143.754.11.16.266.058.55-.276.751-.302.185-.608.364-.942.564.43.254.819.48 1.205.711.34.203.45.479.305.746-.146.268-.443.316-.78.12-.387-.224-.77-.453-1.219-.716"/>
    </g>
</svg>
