<svg xmlns="http://www.w3.org/2000/svg" width="28" height="28" viewBox="0 0 28 28">
    <path transform="translate(-8, -8)" fill-rule="nonzero" d="M25.683 30.65c-.405.692-.766 1.308-1.138 1.935-.406.67-1.019.876-1.599.541-.57-.324-.69-.962-.296-1.654.35-.606.701-1.211 1.095-1.881h-3.47c.394.68.766 1.308 1.138 1.946.252.443.296.886-.022 1.319-.47.627-1.38.562-1.84-.152-.415-.648-.788-1.33-1.226-2.065-.547.93-1.062 1.817-1.587 2.703a3.86 3.86 0 0 1-.318.498 1.095 1.095 0 0 1-1.467.237c-.482-.313-.646-.886-.35-1.427.46-.832.963-1.654 1.434-2.486.098-.173.186-.336.34-.627-.745 0-1.413.021-2.07-.011-.318-.011-.668-.043-.942-.184-.438-.227-.613-.66-.492-1.146.13-.52.525-.833 1.127-.843.756-.022 1.522 0 2.398 0-.613-1.05-1.171-2-1.763-3.017-.405.692-.766 1.32-1.138 1.935-.406.682-1.008.887-1.599.563-.58-.314-.712-.963-.318-1.644.35-.616.701-1.222 1.052-1.827.01-.01 0-.032.022-.13h-2.158c-.46 0-.908.011-1.368 0C8.47 23.212 8 22.757 8 22.152s.47-1.07 1.128-1.081c1.16-.011 2.332 0 3.591 0-.427-.725-.821-1.384-1.193-2.054-.405-.746-.055-1.536.733-1.676.537-.098.92.151 1.183.594.197.325.383.66.57.984.185.325.382.649.612 1.049.592-1.049 1.15-2 1.763-3.049-.854 0-1.598.01-2.343 0-.942-.022-1.489-.822-1.106-1.578.23-.455.646-.617 1.128-.617h2.3c-.165-.292-.285-.508-.406-.713-.449-.779-.92-1.557-1.357-2.347-.318-.573-.154-1.2.372-1.502.536-.314 1.171-.163 1.522.4.525.843 1.018 1.708 1.522 2.562.087.151.186.303.306.497.373-.627.701-1.2 1.04-1.773.482-.81 1.052-1.048 1.676-.713.613.335.7.984.24 1.784-.328.573-.656 1.146-1.018 1.762.197.022.296.043.406.043h3.076c-.164-.303-.295-.53-.416-.746-.23-.389-.46-.778-.679-1.167-.394-.692-.284-1.32.285-1.655.602-.346 1.204-.14 1.631.573.362.606.712 1.211 1.106 1.892.22-.356.416-.67.592-.983.405-.682.788-1.384 1.204-2.055.361-.584 1.018-.746 1.555-.41.526.324.668.918.34 1.513-.471.833-.964 1.654-1.446 2.476-.088.151-.164.314-.296.562.865 0 1.643-.032 2.42.011.942.054 1.468 1.006.898 1.687-.219.26-.668.443-1.03.475-.722.076-1.455.022-2.31.022.603 1.027 1.15 1.979 1.752 3.017.416-.714.8-1.363 1.172-2 .263-.444.635-.703 1.172-.628.799.108 1.182.908.777 1.644-.361.68-.766 1.34-1.204 2.086h3.558c.482 0 .843.206 1.051.638.197.4.165.822-.153 1.103-.24.216-.624.39-.953.411-.963.054-1.938.022-2.901.022h-.613c.405.702.766 1.319 1.127 1.935.395.692.285 1.319-.284 1.654-.591.357-1.205.14-1.632-.573-.361-.605-.711-1.21-1.128-1.903a485.673 485.673 0 0 0-1.762 3.017c.865 0 1.61-.011 2.365 0 .492.01.887.194 1.095.66.186.42.142.853-.197 1.135-.263.205-.635.335-.975.378-.536.065-1.095.01-1.642.022-.176 0-.35.01-.624.032.448.778.865 1.492 1.28 2.206.154.27.318.53.46.8.329.605.165 1.243-.383 1.546-.558.302-1.171.13-1.544-.476-.514-.854-1.007-1.708-1.51-2.573-.023-.13-.11-.249-.22-.422zm-3.69-3.308c.898 0 1.785.021 2.683-.011.186-.01.46-.14.547-.303a191.643 191.643 0 0 0 2.672-4.573c.088-.162.099-.465 0-.616a237.477 237.477 0 0 0-2.672-4.574c-.098-.162-.36-.303-.547-.314a220.96 220.96 0 0 0-5.354 0c-.186 0-.46.141-.559.303a173.199 173.199 0 0 0-2.671 4.585c-.088.162-.099.464 0 .616a238.17 238.17 0 0 0 2.671 4.573c.099.162.395.303.603.314.876.01 1.751 0 2.627 0z"/>
</svg>
