<svg xmlns="http://www.w3.org/2000/svg" width="16" height="16" viewBox="0 0 16 16">
    <g transform="translate(-0.95, 3)">
        <path fill-rule="evenodd" d="M16.866 6.258c-.255 1.404-1.024 2.375-2.276 2.928-.063.028-.093.058-.104.13-.084.434-.436.771-.839.817a.98.98 0 0 1-1.028-.61c-.021-.057-.054-.07-.106-.07H5.358c-.045 0-.081-.002-.103.056-.184.441-.586.676-1.038.622-.411-.048-.752-.386-.839-.836-.008-.058-.031-.079-.078-.101-1.168-.5-1.919-1.386-2.242-2.665a3.703 3.703 0 0 1-.107-.928v-.933c0-.817.523-1.463 1.288-1.598.776-.135 1.565.453 1.699 1.27.017.109.026.221.026.331.005.308.003.615.003.921.002.415.268.697.662.697 1.436.004 2.871.004 4.307.004 1.433 0 2.863 0 4.296-.004.307 0 .544-.165.631-.446a.793.793 0 0 0 .04-.234c.002-.323 0-.645.002-.967 0-.86.635-1.551 1.455-1.587.784-.036 1.495.603 1.546 1.423.033.592.062 1.193-.04 1.78zm-3.515-1.832c-.03.377-.011.759-.013 1.137 0 .024.005.048-.004.065a.174.174 0 0 1-.063.066c-.024.01-.053.002-.08.002H4.629c-.077-.001-.097-.021-.097-.104 0-.314.003-.628 0-.942-.004-1.078-.723-1.969-1.735-2.149-.048-.008-.054-.03-.054-.072 0-.367-.005-.736 0-1.103.013-.762.569-1.33 1.303-1.331 1.123-.002 2.246-.001 3.37-.001h1.521c1.629 0 3.253-.001 4.878.001.528.001.923.25 1.175.738.094.182.135.379.135.586.003.37 0 .74.003 1.11 0 .05-.017.064-.064.072-.913.153-1.638.955-1.713 1.925z"/>
    </g>
</svg>
