<svg xmlns="http://www.w3.org/2000/svg" width="16" height="16">
    <path fill-rule="evenodd" d="M11.642 15.512h-.786c-.027-.015-.051-.04-.08-.044a2.893 2.893 0 0 1-1.87-1.141c-.045-.059-.161-.094-.245-.096-.423-.01-.849.002-1.271-.01-.151-.006-.228.051-.325.151-.245.247-.481.523-.782.693-.358.2-.777.302-1.17.447h-.735c-.053-.018-.104-.04-.158-.052-1.114-.242-1.876-.875-2.193-1.926-.319-1.062-.013-1.983.798-2.772.167-.16.24-.408.358-.618l-.069-.037c-.221.117-.439.241-.665.349a1.366 1.366 0 0 1-1.606-.312c-.571-.636-.382-1.548.422-1.993.943-.52 1.888-1.034 2.829-1.551l1.369-.747c-.056-.072-.093-.12-.132-.168a3.084 3.084 0 0 1-.694-1.87c-.005-.162-.046-.238-.22-.295-1.059-.358-1.408-1.62-.699-2.453.255-.299.597-.446.955-.579h.589l1.014.471C7.411.343 8.612.356 9.789 1c.163-.113.297-.23.453-.311.163-.084.344-.136.518-.201h.539c.014.008.026.022.042.024.715.13 1.296.748 1.327 1.468a1.58 1.58 0 0 1-1.198 1.589c-.052.013-.103.104-.114.164-.038.232-.045.468-.09.697-.103.524-.374.976-.722 1.402.068.042.12.077.176.108.695.383 1.39.761 2.084 1.143.708.39 1.425.767 2.119 1.181.455.271.637.706.565 1.213-.126.894-1.097 1.37-1.945.966-.221-.107-.432-.225-.693-.36.105.318.194.562.422.776a2.63 2.63 0 0 1-.484 4.211c-.345.202-.761.297-1.146.442zm-8.498-2.743c-.006.849.718 1.551 1.609 1.56.867.009 1.614-.694 1.628-1.528.013-.844-.723-1.564-1.602-1.567-.898-.003-1.628.683-1.635 1.535zm9.731.012c-.003-.855-.727-1.549-1.62-1.547-.886.001-1.618.705-1.616 1.555.001.829.744 1.538 1.612 1.54.891 0 1.625-.701 1.624-1.548zM8.238 5.346c0 .103.013.205-.003.305-.038.233.096.341.296.419.597.235 1.256-.148 1.301-.768a2.752 2.752 0 0 0-.012-.514c-.078-.63-.394-1.089-1.052-1.277a2.833 2.833 0 0 0-1.547-.001c-.431.119-.784.365-.913.779a2.956 2.956 0 0 0-.142 1.057c.045.654.842 1.007 1.417.659.064-.039.164-.114.159-.161-.055-.417.208-.892-.229-1.247-.047-.038-.073-.104-.099-.16-.132-.29-.037-.475.284-.535.141-.027.299-.047.436-.016.163.037.398.099.446.211.054.131-.052.33-.1.495-.014.047-.082.077-.107.125-.051.098-.108.197-.131.302-.022.104-.004.217-.004.327zm-.6 1.708c-.266-.134-.526-.249-.77-.391-.2-.116-.324-.063-.456.096-.441.54-.43 1.344.025 1.868.12.137.238.168.404.08.262-.143.532-.271.804-.409.205.204.412.254.647.052.032-.027.136-.004.191.022.228.107.453.218.672.338.159.088.268.053.384-.073.478-.52.475-1.395-.003-1.923-.114-.128-.226-.152-.382-.068-.267.145-.545.276-.81.409-.297-.239-.407-.239-.706-.001zm3.635-4.252c.346-.095.572-.36.586-.715a.8.8 0 0 0-.551-.779c-.325-.107-.661-.019-.82.186.262.439.517.861.785 1.308zm-6.52.002c.119-.243.212-.477.344-.691.133-.218.302-.416.454-.621-.291-.242-.629-.293-.935-.145-.299.142-.493.462-.466.763.034.343.248.592.603.694zm2.619.174c.001-.037.001-.074.003-.11-.096-.071-.186-.182-.292-.202-.155-.03-.265.079-.27.233-.006.15.088.273.247.254.109-.013.208-.114.312-.175zm1.267-.113c.002.035.002.071.003.108.102.063.199.166.307.179.156.02.253-.094.249-.249-.004-.158-.111-.264-.263-.237-.107.019-.197.128-.296.199z"/>
</svg>
