<svg xmlns="http://www.w3.org/2000/svg" width="24" height="24" viewBox="0 0 24 24">
    <g fill-rule="evenodd">
        <path d="M21.484 10.15L10.117 21.485c-.685-.684-1.396-1.4-2.098-2.126-.058-.067-.067-.233-.033-.333.242-.817.117-1.559-.494-2.15-.593-.576-1.328-.701-2.13-.46-.11.034-.285.009-.36-.066-.71-.684-1.413-1.375-2.065-2.026L14.246 3.047c-.025-.033-.05-.075-.075-.108.067.041.142.075.192.133.644.634 1.287 1.267 1.914 1.917a.526.526 0 0 1 .1.417c-.234.817-.125 1.559.477 2.16.602.6 1.354.708 2.165.466.117-.033.3 0 .384.083.719.675 1.404 1.359 2.081 2.034zM10.82 18.1c2.432-2.425 4.865-4.85 7.255-7.235-1.496-1.5-3.034-3.034-4.539-4.535l-7.263 7.244c1.513 1.5 3.05 3.043 4.547 4.526z"/>
        <path d="M7.658 13.528l5.876-5.86c1.062 1.067 2.14 2.16 3.185 3.21-1.923 1.917-3.904 3.9-5.86 5.851-1.036-1.025-2.114-2.117-3.2-3.2z"/>
    </g>
</svg>
