<?xml version="1.0" encoding="UTF-8"?>
<svg width="24px" height="24px" viewBox="0 0 24 24" version="1.1" xmlns="http://www.w3.org/2000/svg" xmlns:xlink="http://www.w3.org/1999/xlink">
    <g stroke="none" stroke-width="1" fill-rule="evenodd">
        <g transform="translate(-368.000000, -421.000000)">
            <g transform="translate(344.000000, 240.000000)">
                <g transform="translate(24.000000, 181.000000)">
                    <g transform="translate(2.600000, 2.610000)" fill-rule="nonzero">
                        <path d="M18.8841739,7.53917765 C15.0812048,11.3319375 11.3116202,15.0913213 7.51695502,18.8757435 C6.83157753,18.1922038 6.12112793,17.475364 5.4190329,16.750178 C5.36052568,16.6834932 5.35217112,16.5167392 5.38559779,16.41667 C5.62798965,15.5998451 5.50261223,14.8579669 4.89246794,14.266066 C4.29902434,13.6909418 3.56350263,13.5659184 2.76111071,13.807619 C2.65245083,13.8410035 2.47692918,13.8159651 2.40170441,13.7409343 C1.69125481,13.0573946 0.989160617,12.3655931 0.337217391,11.7153537 C4.11514813,7.94762378 7.88471588,4.18822314 11.6458869,0.437150922 C11.6208485,0.403808384 11.5958101,0.362129832 11.5706874,0.328786957 C11.6375408,0.370465509 11.7128246,0.403808384 11.7629857,0.462158121 C12.406565,1.09567242 13.0501444,1.72918334 13.6769473,2.37937219 C13.7605772,2.4710616 13.8107383,2.67112425 13.7772694,2.79615603 C13.5432406,3.61305673 13.6519089,4.35493499 14.2536733,4.95510607 C14.855522,5.55527715 15.6077697,5.66364196 16.4185247,5.42190767 C16.5355391,5.3885653 16.7194069,5.42190767 16.8029525,5.50525938 C17.5218157,6.1804529 18.2071257,6.86398413 18.8841739,7.53917765 Z M8.21905006,15.4914297 C10.6512642,13.0657407 13.083529,10.6400517 15.4739787,8.25605124 C13.9779138,6.75561932 12.4399496,5.22185346 10.9354542,3.72142153 C8.51994071,6.13044357 6.08769283,8.55613257 3.6721625,10.9651293 C5.18500403,12.4655781 6.72291766,14.0076732 8.21905006,15.4914297 Z"></path>
                        <path d="M5.058261,10.9182645 C6.9973789,8.98438179 8.9699236,7.0171567 10.9341137,5.05826093 C11.9956066,6.12523356 13.0738255,7.21721091 14.1186177,8.2675082 C12.1962088,10.184724 10.2153011,12.1686245 8.259474,14.1192079 C7.22304477,13.0938815 6.14483432,12.0019042 5.058261,10.9182645 Z"></path>
                    </g>
                </g>
            </g>
        </g>
    </g>
</svg>