<svg xmlns="http://www.w3.org/2000/svg" width="16" height="16" viewBox="0 0 16 16">
    <path fill-rule="nonzero" d="M7 8H3V4h-.643C2.16 4 2 3.776 2 3.5V3c0-.552.32-1 .714-1h3.572C6.68 2 7 2.448 7 3v.5c0 .276-.16.5-.357.5H7v3h6.305c.384 0 .695.224.695.5s-.311.5-.695.5H7zM3 9h3.331c.169 1.99 1.776 3.555 3.674 3.555.346 0 .678-.056.995-.152v1.242c0 .196-.148.355-.332.355H4.657a.327.327 0 0 1-.277-.16.378.378 0 0 1-.028-.335l.396-1.013c.125-.313.128-.66.01-.976a1.232 1.232 0 0 0-.636-.7C3.442 10.506 3.004 9.793 3 9zm7.022 3C8.476 12 7.17 10.683 7 9h6c-.169 1.683-1.432 3-2.978 3z"/>
</svg>
