<svg xmlns="http://www.w3.org/2000/svg" width="24" height="24" viewBox="0 0 24 24">
    <g fill-rule="evenodd">
        <path d="M0 0h24v24H0z"/>
        <path fill-rule="nonzero" d="M5 16.594a3.285 3.285 0 0 0 3.281 3.281l-1.406 1.406v.469h11.25v-.469l-1.406-1.406A3.285 3.285 0 0 0 20 16.594V6.75C20 3.469 16.644 3 12.5 3S5 3.469 5 6.75v9.844zM12.5 18a1.88 1.88 0 0 1-1.875-1.875A1.88 1.88 0 0 1 12.5 14.25a1.88 1.88 0 0 1 1.875 1.875A1.88 1.88 0 0 1 12.5 18zm5.625-6.563H6.875V6.75h11.25v4.688z"/>
    </g>
</svg>
