<?xml version="1.0" encoding="UTF-8"?>
<svg width="16px" height="16px" viewBox="0 0 16 16" version="1.1" xmlns="http://www.w3.org/2000/svg" xmlns:xlink="http://www.w3.org/1999/xlink">
    <g stroke="none" stroke-width="1" fill-rule="evenodd">
        <g>
            <polygon points="0 0 16 0 16 16 0 16"></polygon>
            <path d="M13.3822222,2.7575 C13.2266667,2.315 12.7911111,2 12.2777778,2 L3.72222222,2 C3.20888889,2 2.78111111,2.315 2.61777778,2.7575 L1,7.25 L1,13.25 C1,13.6625 1.35,14 1.77777778,14 L2.55555556,14 C2.98333333,14 3.15384615,13.4125 3.15384615,13 L3.15384615,12 L12.8461538,12 L12.8461538,13 C12.8461538,13.4125 13.0166667,14 13.4444444,14 L14.2222222,14 C14.65,14 15,13.6625 15,13.25 L15,7.25 L13.3822222,2.7575 Z M3.72222222,10.25 C3.07666667,10.25 2.55555556,9.7475 2.55555556,9.125 C2.55555556,8.5025 3.07666667,8 3.72222222,8 C4.36777778,8 4.88888889,8.5025 4.88888889,9.125 C4.88888889,9.7475 4.36777778,10.25 3.72222222,10.25 Z M12.2777778,10.25 C11.6322222,10.25 11.1111111,9.7475 11.1111111,9.125 C11.1111111,8.5025 11.6322222,8 12.2777778,8 C12.9233333,8 13.4444444,8.5025 13.4444444,9.125 C13.4444444,9.7475 12.9233333,10.25 12.2777778,10.25 Z M2.55555556,6.5 L3.72222222,3.125 L12.2777778,3.125 L13.4444444,6.5 L2.55555556,6.5 Z" fill-rule="nonzero"></path>
        </g>
    </g>
</svg>