<svg xmlns="http://www.w3.org/2000/svg" width="83" height="62" viewBox="0 0 83 62">
    <path fill-rule="nonzero" d="M82.999 13.781c.067-7.66-5.804-13.713-13.4-13.78-7.262-.067-13.536 5.896-13.604 12.909-.09 7.705 5.85 13.937 13.357 14.026 7.305.09 13.58-5.963 13.647-13.155zm-2.6-.313c-.045 5.941-5.042 10.81-11.025 10.743-5.939-.067-10.801-5.003-10.734-10.876.045-5.852 5.087-10.766 10.958-10.721 5.894.044 10.846 5.003 10.802 10.854zM15.099 31.001c-.807 2.613-2.286 4.087-5.222 3.238-.298 0-.597-.002-.896-.005h-.077l-.04-.001h-.128c-.517-.003-1.031-.006-1.548.006-3.81.09-6.677 2.569-7.059 6.299-.163 1.753-.135 3.535-.106 5.311v.021l.004.311.013.923c.022 1.966.74 3.685 2.196 5.07 1.703 1.608 3.764 2.01 6.006 1.832 1.255-.09 1.86.2 2.218 1.585.897 3.507 4.034 5.651 7.686 5.561 3.496-.089 6.387-2.479 7.283-6.007l.02-.084c.147-.59.268-1.078 1.146-1.078 8.493.023 17.009.023 25.524 0 .74 0 1.031.246 1.187.983.673 3.507 3.72 6.075 7.239 6.186 3.698.134 7.014-2.21 7.82-5.717.292-1.273.852-1.541 1.973-1.43 1.479.157 2.801-.133 3.854-1.317 2.174-2.435 3.451-5.182 3.205-8.51-.247-3.35-2.936-6.477-6.05-7.035l-3.055-.555-.413-.074-.22-.04a912.062 912.062 0 0 1-9.915-1.832c-.56-.112-1.233-.559-1.546-1.028-.91-1.36-1.765-2.762-2.618-4.163a254.2 254.2 0 0 0-1.102-1.8c-1.591-2.569-3.855-4.221-6.88-4.668-1.076-.157-1.367-.58-1.345-1.63.045-2.122-1.344-3.954-3.339-4.065a94.475 94.475 0 0 0-10.062-.023c-2.039.09-3.495 2.01-3.54 4.087-.044 1.453-.045 1.453-1.502 1.474h-.067c-4.414.045-7.619 2.033-9.591 5.964-.113.23-.233.457-.354.683-.266.496-.53.991-.7 1.528zm56.09 8.89c1.435.267 2.577 1.317 3.048 2.992-1.322 0-2.554 0-3.877-.022v2.59h4.437c-.359 2.39-1.3 4.311-3.003 5.696-.322.265-.856.25-1.41.236-.328-.01-.664-.018-.965.032-.937.15-1.169-.404-1.416-.995l-.009-.02-.01-.024-.016-.04c-.038-.087-.075-.175-.118-.262-1.479-3.081-4.638-4.69-8.246-4.265-3.003.357-5.715 2.97-6.364 6.097a2.305 2.305 0 0 0-.057.206l-.008.032-.003.012-.006.027-.003.014c-.02.086-.044.192-.08.334a23.198 23.198 0 0 1-.162-.594l-.008-.027-.008-.03-.018-.071-.017-.062-.08-.288c-.29-.022-.582-.044-.873-.044-8.403 0-16.807 0-25.21.022-.92 0-1.412-.223-1.838-1.139-1.344-2.948-3.765-4.556-6.97-4.579-3.316-.022-5.804 1.63-7.17 4.646-.403.893-.874 1.162-1.748 1.072-.367-.031-.741-.04-1.117-.05h-.009c-.701-.018-1.409-.036-2.078-.196-1.838-.424-3.026-2.032-3.071-3.908a64.543 64.543 0 0 1-.003-1.574c.003-.703.006-1.407-.02-2.111-.044-.715.203-1.05.942-.983.143.01.29.006.438 0h.011c.152-.006.303-.011.448 0 .716.09 1.052-.201 1.008-.938-.014-.335-.01-.67-.005-1.036.003-.195.005-.4.005-.617H3.11c.157-1.608 1.613-2.948 3.406-3.015a81.787 81.787 0 0 1 6.611-.022c1.345.044 2.196-.268 2.756-1.63.514-1.252 1.14-2.452 1.77-3.657.302-.58.605-1.161.897-1.749 1.456-2.948 3.877-4.466 7.148-4.489 6.013-.044 12.024-.023 18.037 0h.115c1.501 0 2.935.357 4.37 1.541-.29.01-.526.025-.734.039l-.02.001c-.236.015-.436.027-.636.027l-4.715.003c-4.74.004-9.474.008-14.22-.025-2.04 0-3.518.692-4.483 2.523a24.655 24.655 0 0 1-.948 1.603l-.038.06a33.15 33.15 0 0 0-.671 1.107c-1.233 2.122.022 4.445 2.487 4.534 2.097.074 4.209.071 6.311.068h.033l1.275-.001c2.319 0 4.636-.012 6.953-.024h.047l.048-.001h.047l.048-.001h.047l.048-.001h.094c5.28-.025 10.555-.05 15.84.072 1.875.046 3.73.46 5.585.873.85.19 1.698.38 2.549.534a795.9 795.9 0 0 1 4.175.777l.186.035c1.222.23 2.441.46 3.661.684zM17.81 58.56c-2.711 0-5.02-2.322-5.02-5.07a5.023 5.023 0 0 1 5.088-5.091c2.733 0 5.086 2.278 5.13 4.98.046 2.77-2.374 5.182-5.198 5.182zm43.093.023c-2.734 0-5.064-2.3-5.087-5.025-.022-2.881 2.174-5.137 5.02-5.16 2.802-.022 5.177 2.3 5.2 5.048.021 2.725-2.376 5.137-5.133 5.137zm-22.23-28.879h11.855a384.202 384.202 0 0 1 2.712 4.423H38.673v-4.423zm-14.534 4.258l-.009-.006-.018-.013-.021-.014a3.678 3.678 0 0 0-.14-.093c.31-.499.612-1.001.912-1.502.44-.731.876-1.457 1.328-2.16.157-.224.583-.358.897-.358 2.869-.022 5.736-.022 8.762-.022 0 .376.003.745.007 1.109.01.887.018 1.743-.03 2.599 0 .223-.38.602-.582.602-3.508.023-6.994 0-10.5-.02h-.237l-.131-.002c-.062 0-.124-.042-.238-.12zm12.833-11.134l-1.234-.003c-.376 0-.753.003-1.128.007h-.123c-1.038.01-2.074.019-3.097-.029-.492-.022-1.277-.179-1.367-.469-.246-.782-.179-1.675.628-2.189.313-.2.762-.334 1.142-.334 2.69-.023 5.38-.045 8.068 0 1.367.022 2.24 1.362 1.703 2.613-.09.223-.582.38-.896.38-1.225.033-2.464.029-3.696.024zm-5.335 18.602h2.69c-.028.276-.028.57-.028.857 0 .642.001 1.253-.309 1.577-.265.295-.888.266-1.528.236a8.522 8.522 0 0 0-.825-.013v-2.657zm13.085 2.613c1.188-.044 1.233-.178.941-2.59-2.531-.268-2.599-.223-2.644 1.005-.044 1.608 0 1.653 1.703 1.585zm-4.884-2.657l.047.518c.214 2.3.215 2.323-2.444 2.072v-2.59H39.837zm-5.31 2.948v2.412c2.487.47 3.093-.156 2.353-2.412h-2.353zm5.87-.045h2.354v2.39c-2.745.5-2.716.281-2.383-2.172l.03-.218zM15.86 53.38c-.022 1.14.919 2.145 1.995 2.145 1.075 0 2.039-1.005 2.039-2.122-.022-1.072-.941-1.988-2.017-1.988-1.075 0-1.994.871-2.017 1.966zm1.622-.58c.114-.14.245-.3.373-.491.133.188.273.352.395.495.225.263.388.454.344.6-.048.235-.284.427-.513.613-.097.078-.192.155-.272.235-.064-.07-.138-.14-.213-.21l-.009-.007-.009-.009c-.21-.194-.424-.392-.44-.6-.015-.187.138-.374.344-.627zm43.375-1.385c1.076-.022 1.995.871 2.04 1.966.044 1.116-.897 2.122-1.973 2.144-1.03.022-1.994-.938-2.039-1.988-.045-1.139.852-2.1 1.972-2.122zm.045.916a6.184 6.184 0 0 1-.385.485c-.218.256-.384.451-.354.61.048.24.28.434.507.623l.011.01c.086.072.17.142.243.215.069-.075.152-.15.236-.224l.014-.014c.213-.19.43-.384.445-.588.031-.205-.15-.421-.393-.712l-.008-.01c-.098-.118-.207-.249-.316-.395zm13.535-39.197c-.023-.067-.045-.134-.157-.402h-4.168c0-.263.002-.513.005-.753.005-.452.01-.871-.005-1.28-.034-1.18-.05-1.772-.353-2.038-.305-.268-.899-.206-2.09-.084-.038 0-.07.029-.113.07a.967.967 0 0 1-.134.11l-.001 1.157c-.004 1.579-.007 3.192.047 4.806 0 .268.515.692.806.714 1.34.09 2.679.067 4.019.045h.015c1.14-.022 1.711-.034 1.978-.324.268-.293.23-.868.15-2.021z"/>
</svg>
