<svg xmlns="http://www.w3.org/2000/svg" width="16" height="16" viewBox="0 0 16 16">
    <path fill-rule="nonzero" d="M14.59 6.241a.352.352 0 0 0-.27-.13h-1.33c-.33-.865-.757-1.713-1.243-2.034-1.682-1.106-6.142-1.106-7.824 0-.487.32-.913 1.17-1.243 2.035H1.35a.349.349 0 0 0-.343.42l.197.956a.35.35 0 0 0 .343.279h.394c-.38.439-.565.991-.567 1.544-.003.683.257 1.3.73 1.738l.016.012v1.336c0 .29.236.525.525.525h1.227c.29 0 .525-.236.525-.525v-.537h6.875v.537c0 .29.235.525.525.525h1.227c.289 0 .525-.236.525-.525v-1.31c.503-.46.744-1.095.747-1.728a2.358 2.358 0 0 0-.594-1.593h.42c.167 0 .31-.116.343-.28l.198-.954a.353.353 0 0 0-.072-.291zM4.5 4.954c1.34-.882 5.33-.882 6.67 0 .26.17.595.861.902 1.707H3.598c.306-.845.64-1.535.901-1.707zM2.93 9.443a1.033 1.033 0 1 1 2.065 0 1.033 1.033 0 0 1-2.066 0zm8.79 1.033a1.033 1.033 0 1 1 .001-2.066 1.033 1.033 0 0 1 0 2.066z"/>
</svg>
