<svg xmlns="http://www.w3.org/2000/svg" width="16" height="16" viewBox="0 0 16 16">
    <g fill-rule="evenodd">
        <path d="M3.216 10.719h9.563V4.094H3.216v6.625zM2 11.016V3.984c.145-.511.474-.838.984-.984h10.032c.51.146.837.475.984.984v7.032c-.016.034-.034.068-.046.104-.191.61-.586.996-1.222 1.12-.398.077-.795.157-1.192.237-.416.084-.832.17-1.31.269.14.06.216.09.29.124.274.13.555.249.819.396.189.106.177.165-.01.28H4.671c-.187-.117-.19-.16-.011-.283.077-.054.158-.1.243-.14.266-.12.533-.236.837-.371-.077-.023-.119-.04-.161-.048-.778-.157-1.556-.315-2.335-.467a1.48 1.48 0 0 1-1.034-.73c-.09-.153-.142-.327-.211-.491z"/>
    </g>
</svg>
