<svg width="18px" height="18px" viewBox="0 0 18 18" version="1.1" xmlns="http://www.w3.org/2000/svg" xmlns:xlink="http://www.w3.org/1999/xlink">
    <g id="Symbols" stroke="none" stroke-width="1" fill-rule="evenodd">
        <g id="icon/active/personal" transform="translate(-4.000000, -3.000000)" fill-rule="nonzero">
            <path fill="#000000" d="M14.1257607,14.5587607 L15.5557607,13.1287607 L21.9957607,19.5717607 L20.5687607,20.9987607 L14.1257607,14.5587607 Z M18.4187607,8.82876069 L21.2787607,5.96876069 C17.3287607,2.01876069 10.9287607,2.00876069 6.97876069,5.94876069 C10.9087607,4.64876069 15.2887607,5.69876069 18.4187607,8.82876069 Z M6.94876069,5.97876069 C3.00876069,9.92876069 3.01876069,16.3287607 6.96876069,20.2787607 L9.82876069,17.4187607 C6.69876069,14.2887607 5.64876069,9.90876069 6.94876069,5.97876069 Z M6.96876069,5.95876069 L6.95876069,5.96876069 C6.57876069,8.97876069 8.12876069,12.8487607 11.2587607,15.9887607 L16.9887607,10.2587607 C13.8587607,7.12876069 9.97876069,5.57876069 6.96876069,5.95876069 Z" id="Shape"></path>
        </g>
    </g>
</svg>