<svg xmlns="http://www.w3.org/2000/svg" width="17" height="17">
    <path fill-rule="evenodd" d="M13.645 8.535c-.074.244-.155.484-.219.731-.013.05.021.151.061.168.715.291.968.867 1.038 1.547.045.441-.033.875-.171 1.325l-5.128-1.384c.417-1.427 1.276-2.134 2.461-2.021.182-.595.369-1.194.549-1.795.629-2.108 1.257-4.217 1.883-6.325.112-.379.368-.613.772-.669a.867.867 0 0 1 .866.377c.17.239.167.498.086.768l-2.198 7.278zm-4.058-.371l.243-1.439h-.254c-.719 0-1.438-.003-2.157.003-.134.002-.214-.036-.286-.146-.332-.509-.672-1.012-1.031-1.55h5.852l-.501 2.777c-.67-.148-1.28-.023-1.866.355zm.879-4.002c-1.584 0-3.167-.003-4.751.004-.161 0-.249-.049-.333-.178-.423-.643-.854-1.281-1.289-1.917-.075-.111-.075-.19-.006-.304C4.832.55 6.693.398 7.65 1.472c.38.426.566.91.564 1.465v.212c.101-.113.167-.196.243-.269.437-.422.965-.522 1.54-.341.534.168.815.554.89 1.083.006.046.008.093.006.139-.007.371-.039.401-.427.401zM6.398 6.806c.664.184 1.058.881.876 1.522a1.348 1.348 0 0 1-1.559.938c-.697-.142-1.166-.785-1.06-1.444a.402.402 0 0 0-.048-.254 14.28 14.28 0 0 0-.483-.726c-.034-.048-.1-.11-.152-.111-.537-.009-1.074-.005-1.612-.006h-.236l1.482 8.552h1.208c.565 0 1.131-.004 1.697.005.068 0 .18.056.197.108.176.539.425 1.042.751 1.511.01.015.01.037.022.078H2.996c-.653 0-.964-.268-1.07-.886-.366-2.132-.741-4.261-1.111-6.392C.546 8.162.279 6.623.013 5.085c-.002-.013.004-.026.011-.062H2.88c-.193-.294-.357-.555-.535-.806-.027-.04-.121-.052-.184-.053-.355-.005-.71-.002-1.081-.002a1.372 1.372 0 0 1 .342-.971c.098-.116.09-.193.011-.312A64.33 64.33 0 0 1 .406 1.322C.084.814.287.232.842.038a.877.877 0 0 1 .9.218c.083.088.158.186.226.286 1.373 2.011 2.743 4.022 4.111 6.036a.526.526 0 0 0 .319.228zm2.67 4.948c1.683.456 3.363.917 5.066 1.382-.154.919.034 1.734.646 2.442.586.68 1.37 1.071 2.211 1.401h-.216c-2.478 0-4.957-.001-7.436.005a.47.47 0 0 1-.403-.188c-.633-.762-1.052-1.604-1.054-2.596-.004-.934.39-1.72 1.029-2.406.03-.032.111-.052.157-.04z"/>
</svg>
