<svg width="14px" height="14px" viewBox="0 0 14 14" version="1.1" xmlns="http://www.w3.org/2000/svg" xmlns:xlink="http://www.w3.org/1999/xlink">
    <g id="Symbols" stroke="none" stroke-width="1" fill-rule="evenodd">
        <path fill="#000000" d="M2.0373297,11.305462 L11.8476116,11.305462 L11.8476116,9.99101485 C11.3960977,9.90600242 11.2025525,9.72681674 11.1674573,9.37362778 C11.1298357,8.99525965 11.3031696,8.79869459 11.847337,8.60333351 L11.847337,4.64303158 C11.359245,4.51127279 11.1870095,4.34313244 11.1653702,3.98915827 C11.1427973,3.61942749 11.3140991,3.43134273 11.8481059,3.24069293 L11.8481059,1.95901539 L2.0373297,1.95901539 L2.0373297,11.305462 Z M10.7030916,14 L10.2637154,14 C9.56922636,13.7532336 9.81967079,13.1555816 9.74442762,12.6569188 L9.43153684,12.6569188 C7.78711649,12.6569188 6.14275106,12.6568664 4.49833072,12.6569188 C4.13150651,12.6569711 4.11810554,12.657704 4.13480183,13.0092702 C4.15429915,13.4187851 4.11865476,13.7929131 3.67307237,14 L3.23369617,14 C2.53970146,13.7530242 2.78943191,13.1549011 2.72072446,12.6945043 C2.67887387,12.6775961 2.66245219,12.6652944 2.64592066,12.6651373 C2.25289865,12.6615777 1.85987664,12.659065 1.46685463,12.6569188 C0.844258552,12.6535162 0.617375667,12.4428696 0.617210901,11.8584092 C0.616332149,8.38959844 0.619792237,4.92084006 0.612212997,1.45208167 C0.611389167,1.070468 0.713269523,0.771982237 1.0917372,0.599025915 L12.7901285,0.599025915 C13.1744179,0.765020012 13.2929396,1.05947501 13.2820651,1.44543353 C13.2650393,2.04596468 13.2775615,2.6473334 13.2775615,3.26000918 C13.6901357,3.31680628 13.9510703,3.50981171 13.9760049,3.91655221 C13.9983032,4.28000129 13.8360636,4.45421395 13.296235,4.66072506 L13.296235,8.62416784 C13.7627426,8.72734487 13.9587594,8.91925101 13.9769385,9.27558081 C13.9958317,9.64677732 13.8211248,9.83606608 13.2773967,10.0221616 C13.2773967,10.6616917 13.2822299,11.3065613 13.2757491,11.9513784 C13.2711905,12.4068545 13.0217896,12.6449312 12.5473732,12.6548772 C12.2088887,12.6620488 11.8701297,12.6567094 11.5315354,12.6570235 C11.1618003,12.6573376 11.1495527,12.657861 11.1646563,13.0077521 C11.1822313,13.4162201 11.1516947,13.7933842 10.7030916,14 Z" id="Fill-1"></path>
        <path fill="#000000" d="M6.49697871,5.25529579 C5.80178475,5.25641977 5.23574849,5.82559491 5.24390943,6.51528055 C5.25187488,7.1922603 5.82182056,7.756011 6.49820041,7.75610874 C7.18914287,7.75615761 7.75029234,7.18590736 7.74433046,6.48986877 C7.73841745,5.80062294 7.18630854,5.2541718 6.49697871,5.25529579 M6.50743643,8.9999668 C5.12696867,9.00700391 4.00652672,7.89460297 4.00002729,6.51073575 C3.99362561,5.13214636 5.1141653,4.00195718 6.48920872,4.00000243 C7.86664668,3.99809654 8.99608031,5.11944047 8.99998974,6.49284976 C9.00389917,7.87256314 7.89000551,8.99297855 6.50743643,8.9999668" id="Fill-8"></path>
    </g>
</svg>