<svg xmlns="http://www.w3.org/2000/svg" width="16" height="16" viewBox="0 0 16 16">
    <g fill-rule="evenodd">
        <path d="M3.037 12.305h9.81v-1.314c-.45-.085-.644-.264-.68-.617-.037-.379.136-.575.68-.77V5.642c-.488-.132-.66-.3-.682-.654-.022-.37.15-.558.683-.748V2.959h-9.81v9.346zM11.703 15h-.44c-.694-.247-.443-.844-.519-1.343H5.498c-.366 0-.38 0-.363.352.02.41-.016.784-.462.991h-.44c-.693-.247-.444-.845-.512-1.305-.042-.017-.059-.03-.075-.03l-1.18-.008c-.622-.003-.849-.214-.849-.799 0-3.468.003-6.937-.005-10.406 0-.382.101-.68.48-.853H13.79c.384.166.503.46.492.846-.017.601-.004 1.202-.004 1.815.412.057.673.25.698.657.022.363-.14.537-.68.744v3.963c.467.103.663.295.68.652.02.37-.155.56-.699.746 0 .64.005 1.285-.001 1.93-.005.455-.254.693-.729.703-.338.007-.677.002-1.015.002-.37 0-.382 0-.367.35.017.41-.013.786-.462.993zM7.497 6.255a1.254 1.254 0 0 0-1.253 1.26 1.27 1.27 0 0 0 1.254 1.241c.691 0 1.252-.57 1.246-1.266a1.239 1.239 0 0 0-1.247-1.235M7.507 10A2.495 2.495 0 0 1 5 7.51 2.502 2.502 0 0 1 7.49 5 2.511 2.511 0 0 1 10 7.493 2.501 2.501 0 0 1 7.507 10"/>
    </g>
</svg>
