<svg xmlns="http://www.w3.org/2000/svg" width="24" height="24" viewBox="0 0 24 24">
    <g fill-rule="evenodd">
        <path d="M12.419 19.991c-1.969 0-3.938-.043-5.907.008-2.637.072-4.42-2.706-3.024-5.042C5.517 11.569 7.5 8.145 9.536 4.742c1.375-2.307 4.51-2.329 5.9-.029A752.25 752.25 0 0 1 21.527 15c1.1 1.886.2 4.164-1.887 4.832-.38.123-.803.16-1.204.16-2.006.014-4.012 0-6.018 0zm.052-1.509c2.028 0 4.057.015 6.085-.007 1.508-.014 2.377-1.458 1.634-2.742a2075.788 2075.788 0 0 0-6.077-10.28c-.765-1.284-2.467-1.284-3.232.007a2884.585 2884.585 0 0 0-6.078 10.287 1.902 1.902 0 0 0-.252.711c-.134 1.132.661 2.01 1.835 2.024 2.028.008 4.057 0 6.085 0z"/>
        <path d="M13.448 9.485c-.074 1.35-.141 2.699-.215 4.048-.023.443-.327.747-.736.755-.43.007-.706-.269-.736-.74-.081-1.35-.163-2.699-.237-4.048-.045-.777.312-1.263.921-1.27.684-.007 1.04.443 1.003 1.255zM13.455 15.925c-.008.508-.468.95-.981.936-.52-.015-.958-.464-.944-.972.008-.515.461-.936.989-.929a.937.937 0 0 1 .936.965z"/>
    </g>
</svg>
