<svg width="19px" height="17px" viewBox="0 0 19 17" version="1.1" xmlns="http://www.w3.org/2000/svg" xmlns:xlink="http://www.w3.org/1999/xlink">
    <g id="Symbols" stroke="none" stroke-width="1" fill-rule="evenodd">
        <g id="icon/default/inform" transform="translate(-3.000000, -3.000000)">
            <g id="Group" transform="translate(3.000000, 3.000000)"  fill-rule="nonzero">
                <g id="Vector">
                    <path fill="#000000" d="M9.41892,16.9914 C7.45004,16.9914 5.48115,16.9478 3.51226,16.9986 C0.8747,17.0712 -0.908442,14.2926 0.488353,11.9566 C2.51668,8.5687 4.50042,5.14451 6.53618,1.74208 C7.91068,-0.564903 11.046,-0.586668 12.4354,1.71306 C14.4935,5.12274 16.5218,8.55419 18.5278,12.0002 C19.6274,13.8864 18.7284,16.1643 16.6407,16.8318 C16.2617,16.9551 15.8382,16.9914 15.437,16.9914 C13.431,17.0059 11.425,16.9914 9.41892,16.9914 Z M9.47093,15.4824 C11.4993,15.4824 13.5276,15.4969 15.5559,15.4751 C17.0641,15.4606 17.9334,14.0169 17.1905,12.7329 C15.177,9.30142 13.1487,5.87723 11.1129,2.45303 C10.3476,1.16896 8.64623,1.16896 7.88096,2.46029 C5.84521,5.88448 3.82431,9.31593 1.80342,12.7474 C1.67711,12.965 1.58053,13.2117 1.55081,13.4583 C1.41707,14.5901 2.21206,15.4679 3.38596,15.4824 C5.41428,15.4896 7.44261,15.4824 9.47093,15.4824 Z" id="path0_fill"></path>
                </g>
                <g id="Vector" transform="translate(8.520000, 5.230000)">
                    <path fill="#000000" d="M1.92805,1.25514 C1.85375,2.60451 1.78688,3.95387 1.71259,5.30324 C1.6903,5.74577 1.38568,6.05047 0.977039,6.05772 C0.546113,6.06498 0.271212,5.7893 0.241493,5.31775 C0.159766,3.96838 0.0780386,2.61902 0.00374099,1.26965 C-0.0408376,0.493403 0.31579,0.00734095 0.925031,8.63014e-05 C1.60857,-0.00716835 1.9652,0.44262 1.92805,1.25514 Z" id="path1_fill"></path>
                </g>
                <g id="Vector" transform="translate(8.530000, 11.960000)">
                    <path fill="#000000" d="M1.92467,0.964962 C1.91725,1.47279 1.4566,1.91532 0.943947,1.90081 C0.423863,1.8863 -0.0144922,1.43651 0.000367278,0.928688 C0.00779704,0.413608 0.461013,-0.00716201 0.988526,9.26457e-05 C1.52347,0.0073473 1.9321,0.428117 1.92467,0.964962 Z" id="path2_fill"></path>
                </g>
            </g>
        </g>
    </g>
</svg>