<svg xmlns="http://www.w3.org/2000/svg" width="16" height="16" viewBox="0 0 16 16">
    <g fill-rule="evenodd">
        <path d="M6.547 9.589l1.037-5.483h1.582l-1.71 7.705H5.86L4.604 6.657 3.35 11.81H1.752L.042 4.106h1.583l1.042 5.472 1.27-5.472h1.345l1.265 5.483zm9.442-.344c-.06.829-.366 1.482-.918 1.958s-1.28.714-2.183.714c-.988 0-1.765-.332-2.331-.997-.566-.665-.85-1.578-.85-2.74v-.47c0-.741.131-1.394.392-1.958.261-.565.634-.998 1.12-1.3.485-.301 1.048-.452 1.69-.452.89 0 1.606.238 2.149.714.543.477.857 1.145.942 2.006h-1.588c-.039-.497-.177-.858-.415-1.082-.238-.224-.6-.336-1.088-.336-.529 0-.925.19-1.188.569-.263.38-.398.967-.405 1.765v.582c0 .833.126 1.441.379 1.826.252.384.65.577 1.193.577.49 0 .857-.112 1.098-.336.242-.224.38-.571.416-1.04h1.587z"/>
    </g>
</svg>
