<svg width="16px" height="10px" viewBox="0 0 16 10" version="1.1" xmlns="http://www.w3.org/2000/svg" xmlns:xlink="http://www.w3.org/1999/xlink">
    <defs></defs>
    <g id="Symbols" stroke="none" stroke-width="1" fill="none" fill-rule="evenodd">
        <g id="icon/services/room/wi-fi" transform="translate(0.000000, -3.000000)">
            <g>
                <polygon id="Shape" points="1 1 15 1 15 15 1 15"></polygon>
                <g id="view" transform="translate(0.000000, 3.000000)" fill="#000000" fill-rule="nonzero">
                    <path d="M8.09031284,0 C11.0485793,0.0534407338 13.4584301,1.07950342 15.3839643,3.06215595 C15.6815294,3.37210961 15.6815294,3.73016262 15.3839643,3.99202192 C15.1038905,4.23785309 14.6779137,4.21113123 14.3803486,3.90117757 C13.5342612,3.01405659 12.5423242,2.31398368 11.3578764,1.85973694 C9.23977806,1.04209281 7.10418846,1.03674844 4.98028817,1.83836444 C3.78412976,2.28726681 2.76885147,2.98199535 1.92279067,3.87980008 C1.62520957,4.19509811 1.21092747,4.24319747 0.91918355,4.01874378 C0.598262779,3.76222886 0.59242773,3.38279835 0.913348501,3.04612283 C2.83303594,1.05278156 5.25452801,0.0587846072 8.09031284,0 Z M13.5219426,5.05758198 C13.4985854,5.3942625 13.3760397,5.59733369 13.1076445,5.70421616 C12.8275707,5.816443 12.5708541,5.75765989 12.3549328,5.57061682 C12.1565561,5.39960687 11.9756706,5.2125638 11.7772939,5.04155386 C9.55419452,3.1657838 5.99488387,3.35816624 4.02851177,5.46373435 C3.71926269,5.78972113 3.3049806,5.85385361 3.00740216,5.61871118 C2.68648139,5.36754063 2.68648139,4.98811012 3.00156711,4.6514346 C5.72063869,1.77632172 10.6336413,1.79769921 13.3176999,4.70487333 C13.4227543,4.81710017 13.4752281,4.97742138 13.5219426,5.05758198 Z M8.12455416,5.00441313 C9.37906306,5.03113353 10.405988,5.4693477 11.2287182,6.30302594 C11.4913007,6.57022961 11.4854881,6.91759388 11.2345842,7.16876443 C10.9894929,7.41459061 10.5985521,7.42527935 10.2893083,7.19014192 C10.0209078,6.98706574 9.77000389,6.74658393 9.47242278,6.59160211 C8.38129205,6.02513353 7.13845645,6.18545473 6.22237186,6.97637699 C6.13484612,7.05119322 6.05899368,7.13135382 5.97146795,7.1954863 C5.67389217,7.41459061 5.29461931,7.40390186 5.04955258,7.16876443 C4.79281628,6.92293826 4.78114672,6.57022961 5.03788301,6.30302594 C5.86644026,5.45865945 6.90505981,5.0257894 8.12455416,5.00441313 Z M6.78167484,8.74398473 C6.77000498,8.05994494 7.36516586,7.50950283 8.11787227,7.50415874 C8.89391461,7.49881468 9.48907683,8.04391182 9.49491081,8.7707066 C9.49491081,9.43871327 8.90558791,9.98915373 8.16454947,9.99984247 C7.38267314,10.0105312 6.78750976,9.47612388 6.78167484,8.74398473 Z" id="Combined-Shape"></path>
                </g>
            </g>
        </g>
    </g>
</svg>