<svg xmlns="http://www.w3.org/2000/svg" width="16" height="16" viewBox="0 0 16 16">
    <g fill-rule="evenodd">
        <path fill-rule="nonzero" d="M8.09 3c2.959.053 5.368 1.08 7.294 3.062.298.31.298.668 0 .93-.28.246-.706.22-1.004-.09-.846-.888-1.838-1.588-3.022-2.042-2.118-.818-4.254-.823-6.378-.022A8.041 8.041 0 0 0 1.923 6.88c-.298.315-.712.363-1.004.139-.32-.257-.327-.636-.006-.973C2.833 4.053 5.255 3.06 8.09 3zm5.432 5.058c-.023.336-.146.54-.414.646a.694.694 0 0 1-.753-.133c-.198-.171-.38-.358-.578-.53-2.223-1.875-5.782-1.683-7.748.423-.31.326-.724.39-1.022.155-.32-.251-.32-.63-.005-.968 2.719-2.875 7.632-2.853 10.316.054.105.112.157.272.204.353zm-5.397-.054c1.254.027 2.281.465 3.104 1.299.262.267.256.615.006.866-.246.246-.636.256-.946.021-.268-.203-.519-.443-.817-.598-1.09-.567-2.334-.407-3.25.384-.087.075-.163.155-.25.22-.298.219-.677.208-.922-.027-.257-.246-.269-.599-.012-.866.828-.844 1.867-1.277 3.087-1.299zm-1.343 3.74c-.012-.684.583-1.234 1.336-1.24.776-.005 1.371.54 1.377 1.267 0 .668-.59 1.218-1.33 1.229-.782.01-1.377-.524-1.383-1.256z"/>
    </g>
</svg>
