<svg xmlns="http://www.w3.org/2000/svg" width="16" height="16" viewBox="0 0 16 16">
    <g fill-rule="evenodd">
        <path d="M7.83 13.642c-1.577 0-3.164-.02-4.741.01-.482.01-.661-.12-.661-.658.018-3.37.018-6.749 0-10.128 0-.539.17-.668.651-.668 3.184.02 6.367.02 9.54 0 .539 0 .671.19.662.727-.02 3.34-.02 6.68 0 10.01 0 .538-.132.737-.661.727-1.587-.03-3.193-.01-4.79-.02 0 .01 0 .01 0 0zm4.903-5.493H8.445c-.331 0-.35.2-.35.469.01.937 0 1.864 0 2.801v1.635h4.628c.01-1.645.01-3.23.01-4.905zm-9.748 4.915h4.534V8.18H2.985v4.885zm0-10.278V7.55h4.534V2.786H2.985zm5.148.01V7.55h4.581V2.796H8.133z"/>
        <path d="M12.668 13.6h-.047c-1.152-.02-2.314-.02-3.448-.02H6.51c-1.125 0-2.286-.01-3.42.01-.227 0-.491-.02-.661-.195-.132-.136-.189-.341-.189-.653.019-3.227.019-6.56 0-9.894 0-.214.019-.478.189-.653.17-.176.434-.195.661-.195 3.363.02 6.48.02 9.54 0 .322 0 .52.058.662.205.18.185.198.458.198.702-.019 3.275-.019 6.57 0 9.786 0 .244-.019.527-.198.712-.142.136-.331.195-.624.195zm-2.153-.41c.708 0 1.416 0 2.115.02.199.01.322-.02.388-.078.056-.059.085-.195.085-.43a846.28 846.28 0 0 1 0-9.795c0-.234-.029-.361-.085-.43-.057-.058-.19-.087-.388-.087-3.06.02-6.187.02-9.55 0-.207 0-.33.03-.387.088-.047.048-.075.175-.075.37.019 3.334.019 6.667 0 9.913 0 .195.028.312.075.37.057.06.18.079.388.079 1.143-.02 2.304-.02 3.429-.01h2.654c.453-.01.907-.01 1.35-.01zm-2.806-.175H2.797V7.849H7.71v5.166zm-4.534-.39h4.156V8.239H3.175v4.386zm9.748.37H7.908V10.5 8.463c0-.186.009-.37.141-.507.095-.098.227-.137.397-.137 1.03.01 2.03.01 3.098 0H12.914v5.176h.01zm-4.638-.39h4.251V8.21h-4.1c-.075 0-.113.01-.132.03-.019.029-.019.175-.019.224V12.605zm-.576-4.98H2.797v-5.05H7.71v5.05zm-4.534-.39h4.156v-4.27H3.175v4.27zm9.73.39h-4.96v-5.04h4.96v5.04zm-4.582-.39h4.204v-4.26H8.323v4.26z"/>
    </g>
</svg>
