<svg width="12px" height="12px" viewBox="0 0 12 12" version="1.1" xmlns="http://www.w3.org/2000/svg" xmlns:xlink="http://www.w3.org/1999/xlink">
    <g id="Symbols" stroke="none" stroke-width="1" fill-rule="evenodd">
        <g id="view" transform="translate(0.240000, 0.000000)" fill-rule="nonzero">
            <path d="M5.5905225,11.6423645 C4.01307,11.6423645 2.4261675,11.622434 0.848709,11.6523297 C0.36697125,11.6622949 0.1875,11.5326681 0.1875,10.9943889 C0.206391675,7.62477355 0.206391675,4.24521674 0.1875,0.86565835 C0.1875,0.327322175 0.357525,0.197722315 0.8392635,0.197722315 C4.0225125,0.217660713 7.20576,0.217660713 10.37955,0.197722315 C10.917975,0.197722315 11.0502,0.38713713 11.04075,0.925473305 C11.02185,4.26515506 11.02185,7.60483523 11.04075,10.9345186 C11.04075,11.4728769 10.908525,11.6722601 10.37955,11.6622949 C8.7927,11.6323993 7.1868675,11.6523297 5.5905225,11.6423645 C5.5905225,11.6523297 5.5905225,11.6523297 5.5905225,11.6423645 Z M10.49295,6.14933009 C9.01935,6.14933009 7.61193,6.14933009 6.2045025,6.14933009 C5.873895,6.14933009 5.85501,6.34871327 5.85501,6.61788452 C5.8644525,7.55498548 5.85501,8.48212915 5.85501,9.41925383 C5.85501,9.96749827 5.85501,10.5158218 5.85501,11.0541801 C7.451355,11.0541801 8.962725,11.0541801 10.4835,11.0541801 C10.49295,9.40928863 10.49295,7.82415673 10.49295,6.14933009 Z M0.74480475,11.0641453 C2.2844775,11.0641453 3.7769175,11.0641453 5.2788075,11.0641453 C5.2788075,9.41925383 5.2788075,7.80421842 5.2788075,6.17924152 C3.7485825,6.17924152 2.265585,6.17924152 0.74480475,6.17924152 C0.74480475,7.81418362 0.74480475,9.42921904 0.74480475,11.0641453 Z M0.74480475,0.785905077 C0.74480475,2.42084876 0.74480475,3.97604549 0.74480475,5.55118054 C2.2844775,5.55118054 3.7769175,5.55118054 5.2788075,5.55118054 C5.2788075,3.93616885 5.2788075,2.37100692 5.2788075,0.785905077 C3.7485825,0.785905077 2.275035,0.785905077 0.74480475,0.785905077 Z M5.8927875,0.795874236 C5.8927875,2.42084876 5.8927875,3.97604549 5.8927875,5.55118054 C7.441905,5.55118054 8.953275,5.55118054 10.47405,5.55118054 C10.47405,3.94614197 10.47405,2.38097212 10.47405,0.795874236 C8.943825,0.795874236 7.441905,0.795874236 5.8927875,0.795874236 Z" id="path0_fill"></path>
            <path d="M10.428225,11.5997092 C10.409325,11.5997092 10.399875,11.5997092 10.380975,11.5997092 C9.2286,11.5802216 8.066775,11.5802216 6.9332475,11.5802216 C6.47985,11.5802216 6.035895,11.5802216 5.5824975,11.5802216 L5.39358,11.5802216 C5.015745,11.5802216 4.63791,11.5802216 4.269525,11.5802216 C3.1454625,11.5802216 1.98363,11.5704779 0.850125,11.5899654 C0.6234255,11.5899654 0.35894175,11.5704779 0.18891675,11.395013 C0.0566751,11.258523 6.711675e-16,11.0538268 6.711675e-16,10.7419493 C0.018891675,7.51544383 0.018891675,4.18174155 0,0.848047004 C0,0.633597767 0.018891675,0.370411193 0.18891675,0.194953219 C0.35894175,0.0194953219 0.6234255,0 0.850125,0 C4.2128475,0.0194953219 7.329975,0.0194953219 10.390425,0 C10.711575,0 10.90995,0.0584858883 11.051625,0.204700841 C11.2311,0.389906437 11.25,0.662840634 11.25,0.906532737 C11.2311,4.18174155 11.2311,7.47645334 11.25,10.6931532 C11.25,10.9369018 11.2311,11.219548 11.051625,11.4047567 C10.90995,11.5412466 10.721025,11.5997092 10.428225,11.5997092 Z M8.274525,11.1903168 C8.982975,11.1903168 9.691425,11.1903168 10.390425,11.2098043 C10.5888,11.219548 10.711575,11.1903168 10.777725,11.1318542 C10.83435,11.0733144 10.8627,10.9369018 10.8627,10.702897 C10.8438,7.47645334 10.8438,4.18174155 10.8627,0.906532737 C10.8627,0.672588256 10.83435,0.545868393 10.777725,0.477635038 C10.721025,0.419149304 10.5888,0.389906437 10.390425,0.389906437 C7.329975,0.409401682 4.2033975,0.409401682 0.8406825,0.389906437 C0.63287175,0.389906437 0.51007575,0.419149304 0.4534005,0.477635038 C0.4061715,0.526373149 0.3778335,0.653093012 0.3778335,0.848047004 C0.39672525,4.18174155 0.39672525,7.51544383 0.3778335,10.7614368 C0.3778335,10.9563893 0.4061715,11.0733144 0.4534005,11.1318542 C0.51007575,11.1903168 0.63287175,11.2098043 0.8406825,11.2098043 C1.98363,11.1903168 3.1454625,11.1903168 4.269525,11.2000605 C4.70403,11.2000605 5.147985,11.2000605 5.5824975,11.2000605 L5.7714075,11.2000605 C6.1586925,11.2000605 6.54597,11.2000605 6.923805,11.2000605 C7.3772025,11.1903168 7.8306,11.1903168 8.274525,11.1903168 Z M5.4691425,11.0148518 L0.55730475,11.0148518 L0.55730475,5.84858883 L5.4691425,5.84858883 L5.4691425,11.0148518 Z M0.9351375,10.6249469 L5.0913075,10.6249469 L5.0913075,6.23850145 L0.9351375,6.23850145 L0.9351375,10.6249469 Z M10.683225,10.9953643 L5.6675025,10.9953643 L5.6675025,8.49995755 C5.6675025,7.81758532 5.6675025,7.14503419 5.6675025,6.46269289 C5.6675025,6.27749194 5.6769525,6.09228325 5.8091925,5.95581654 C5.903655,5.85834031 6.035895,5.81934982 6.20592,5.81934982 C7.23552,5.82910131 8.2368,5.82910131 9.304125,5.81934982 C9.691425,5.81934982 10.088175,5.81934982 10.48485,5.81934982 L10.673775,5.81934982 L10.673775,10.9953643 L10.683225,10.9953643 Z M6.0453375,10.6054594 L10.296,10.6054594 L10.296,6.20925472 C9.9654,6.20925472 9.634725,6.20925472 9.304125,6.20925472 C8.2368,6.20925472 7.22607,6.20925472 6.19647,6.20925472 C6.1209075,6.20925472 6.0831225,6.2190062 6.06423,6.23850145 C6.0453375,6.26774045 6.0453375,6.41395865 6.0453375,6.46269289 C6.0453375,7.14503419 6.0453375,7.81758532 6.0453375,8.49995755 L6.0453375,10.6054594 Z M5.4691425,5.62439738 L0.55730475,5.62439738 L0.55730475,0.57511126 L5.4691425,0.57511126 L5.4691425,5.62439738 Z M0.9351375,5.23449249 L5.0913075,5.23449249 L5.0913075,0.965018471 L0.9351375,0.965018471 L0.9351375,5.23449249 Z M10.664325,5.62439738 L5.7052875,5.62439738 L5.7052875,0.584859656 L10.664325,0.584859656 L10.664325,5.62439738 Z M6.0831225,5.23449249 L10.28655,5.23449249 L10.28655,0.974762226 L6.0831225,0.974762226 L6.0831225,5.23449249 Z" id="path1_fill"></path>
        </g>
    </g>
</svg>