<?xml version="1.0" encoding="UTF-8" standalone="no"?>
<svg width="110px" height="87px" viewBox="0 0 110 87" version="1.1" xmlns="http://www.w3.org/2000/svg" xmlns:xlink="http://www.w3.org/1999/xlink" style="background: #FFFFFF;">
    <!-- Generator: Sketch 39.1 (31720) - http://www.bohemiancoding.com/sketch -->
    <title>Axure Components_icon</title>
    <desc>Created with Sketch.</desc>
    <defs></defs>
    <g id="Page-1" stroke="none" stroke-width="1" fill="none" fill-rule="evenodd">
        <g id="Axure-Components_icon">
            <g id="sitemap">
                <g id="Group">
                    <path d="M87.2413867,49.517832 L56.8966406,49.517832 L56.8966406,41.9316992 L53.1035742,41.9316992 L53.1035742,49.517832 L22.7586133,49.517832 C21.71125,49.517832 20.8619727,50.3671094 20.8619727,51.4144727 L20.8619727,60.8972461 L24.6550391,60.8972461 L24.6550391,53.3111133 L53.1033594,53.3111133 L53.1033594,60.8972461 L56.8964258,60.8972461 L56.8964258,53.3111133 L85.3447461,53.3111133 L85.3447461,60.8972461 L89.1378125,60.8972461 L89.1378125,51.4142578 C89.1380273,50.3668945 88.28875,49.517832 87.2413867,49.517832 L87.2413867,49.517832 Z" id="Shape" fill="#DEEBFD"></path>
                    <path d="M104.310293,0 L5.68970703,0 C2.54740234,0 0,2.54014599 0,5.673764 L0,81.3260218 C0,84.4596398 2.54740234,87 5.68970703,87 L104.310293,87 C107.452598,87 110,84.4596398 110,81.3260218 L110,5.673764 C110,2.54014599 107.452598,0 104.310293,0 L104.310293,0 Z M106.206934,81.5516797 C106.206934,82.599043 105.357656,83.4483203 104.310293,83.4483203 L5.68970703,83.4483203 C4.64234375,83.4483203 3.79306641,82.599043 3.79306641,81.5516797 L3.79306641,13.2758398 C3.79306641,12.2284766 4.64234375,11.3791992 5.68970703,11.3791992 L104.310293,11.3791992 C105.357656,11.3791992 106.206934,12.2284766 106.206934,13.2758398 L106.206934,81.5516797 L106.206934,81.5516797 Z" id="Shape" fill="#F2F8FE"></path>
                </g>
                <circle id="Oval" fill="#DDEAFC" cx="5.68970703" cy="5.89703125" r="1.89664062"></circle>
                <circle id="Oval" fill="#DDEAFC" cx="11.3794141" cy="5.89703125" r="1.89664062"></circle>
                <circle id="Oval" fill="#DDEAFC" cx="17.0689062" cy="5.89703125" r="1.89664062"></circle>
                <path d="M34.2899219,43.828125 C33.1585547,43.828125 32.2413867,42.910957 32.2413867,41.7795898 L32.2413867,19.3249805 C32.2413867,18.1936133 33.1585547,17.2764453 34.2899219,17.2764453 L75.7100781,17.2764453 C76.8414453,17.2764453 77.7586133,18.1936133 77.7586133,19.3249805 L77.7586133,41.7795898 C77.7586133,42.910957 76.8414453,43.828125 75.7100781,43.828125 L34.2899219,43.828125 Z" id="Shape" fill="#20A0FF"></path>
                <path d="M66.9534766,77.9661523 L43.0465234,77.9661523 C42.3162695,77.9661523 41.7241602,77.3742578 41.7241602,76.6437891 L41.7241602,60.3227539 C41.7241602,59.5922852 42.3160547,59.0003906 43.0465234,59.0003906 L66.9536914,59.0003906 C67.6841602,59.0003906 68.2760547,59.5922852 68.2760547,60.3227539 L68.2760547,76.6437891 C68.2758398,77.374043 67.6839453,77.9661523 66.9534766,77.9661523 L66.9534766,77.9661523 Z" id="Shape" fill="#FFD6D2"></path>
                <g id="Group" transform="translate(35.878906, 21.054688)" fill="#2198F0">
                    <path d="M36.19,11.3940234 L2.0521875,11.3940234 C1.00482422,11.3940234 0.155546875,10.5447461 0.155546875,9.49738281 L0.155546875,9.49738281 C0.155546875,8.45001953 1.00482422,7.60074219 2.0521875,7.60074219 L36.1902148,7.60074219 C37.2375781,7.60074219 38.0868555,8.45001953 38.0868555,9.49738281 L38.0868555,9.49738281 C38.0866406,10.5449609 37.2373633,11.3940234 36.19,11.3940234 L36.19,11.3940234 Z" id="Shape"></path>
                    <path d="M32.3969336,3.80789063 L5.84525391,3.80789063 C4.79789062,3.80789063 3.94861328,2.95861328 3.94861328,1.91125 L3.94861328,1.91125 C3.94861328,0.863886719 4.79789062,0.014609375 5.84525391,0.014609375 L32.3969336,0.014609375 C33.4442969,0.014609375 34.2935742,0.863886719 34.2935742,1.91125 L34.2935742,1.91125 C34.2935742,2.95882813 33.4442969,3.80789063 32.3969336,3.80789063 L32.3969336,3.80789063 Z" id="Shape"></path>
                    <path d="M24.8108008,18.9803711 L13.4313867,18.9803711 C12.3840234,18.9803711 11.5347461,18.1310938 11.5347461,17.0837305 L11.5347461,17.0837305 C11.5347461,16.0363672 12.3840234,15.1870898 13.4313867,15.1870898 L24.8108008,15.1870898 C25.8581641,15.1870898 26.7074414,16.0363672 26.7074414,17.0837305 L26.7074414,17.0837305 C26.7072266,18.1310938 25.8581641,18.9803711 24.8108008,18.9803711 L24.8108008,18.9803711 Z" id="Shape"></path>
                </g>
                <g id="Group" transform="translate(45.332031, 62.734375)" fill="#FFACAD">
                    <path d="M13.4610352,11.4384961 L5.87490234,11.4384961 C4.82753906,11.4384961 3.97826172,10.5892188 3.97826172,9.54185547 L3.97826172,9.54185547 C3.97826172,8.49449219 4.82753906,7.64521484 5.87490234,7.64521484 L13.4610352,7.64521484 C14.5083984,7.64521484 15.3576758,8.49449219 15.3576758,9.54185547 L15.3576758,9.54185547 C15.3576758,10.5894336 14.5083984,11.4384961 13.4610352,11.4384961 L13.4610352,11.4384961 Z" id="Shape"></path>
                    <path d="M17.2541016,3.85236328 L2.08183594,3.85236328 C1.03447266,3.85236328 0.185195313,3.00308594 0.185195313,1.95572266 L0.185195313,1.95572266 C0.185195313,0.908359375 1.03447266,0.0590820312 2.08183594,0.0590820312 L17.2543164,0.0590820312 C18.3016797,0.0590820312 19.150957,0.908359375 19.150957,1.95572266 L19.150957,1.95572266 C19.1507422,3.00308594 18.3014648,3.85236328 17.2541016,3.85236328 L17.2541016,3.85236328 Z" id="Shape"></path>
                </g>
                <path d="M99.1948633,77.9661523 L75.2879102,77.9661523 C74.5574414,77.9661523 73.9655469,77.3742578 73.9655469,76.6437891 L73.9655469,60.3227539 C73.9655469,59.5922852 74.5574414,59.0003906 75.2879102,59.0003906 L99.1950781,59.0003906 C99.9255469,59.0003906 100.517441,59.5922852 100.517441,60.3227539 L100.517441,76.6437891 C100.517227,77.374043 99.925332,77.9661523 99.1948633,77.9661523 L99.1948633,77.9661523 Z" id="Shape" fill="#F2F8FE"></path>
                <g id="Group" transform="translate(77.558594, 62.734375)" fill="#DEEBF8">
                    <path d="M13.4758594,11.4384961 L5.88972656,11.4384961 C4.84236328,11.4384961 3.99308594,10.5892188 3.99308594,9.54185547 L3.99308594,9.54185547 C3.99308594,8.49449219 4.84236328,7.64521484 5.88972656,7.64521484 L13.4758594,7.64521484 C14.5232227,7.64521484 15.3725,8.49449219 15.3725,9.54185547 L15.3725,9.54185547 C15.3725,10.5894336 14.5232227,11.4384961 13.4758594,11.4384961 L13.4758594,11.4384961 Z" id="Shape"></path>
                    <path d="M17.2689258,3.85236328 L2.09644531,3.85236328 C1.04908203,3.85236328 0.199804688,3.00308594 0.199804688,1.95572266 L0.199804688,1.95572266 C0.199804688,0.908359375 1.04908203,0.0590820312 2.09644531,0.0590820312 L17.2689258,0.0590820312 C18.3162891,0.0590820312 19.1655664,0.908359375 19.1655664,1.95572266 L19.1655664,1.95572266 C19.1655664,3.00308594 18.3162891,3.85236328 17.2689258,3.85236328 L17.2689258,3.85236328 Z" id="Shape"></path>
                </g>
                <path d="M34.7120898,77.9661523 L10.8051367,77.9661523 C10.0748828,77.9661523 9.48277344,77.3742578 9.48277344,76.6437891 L9.48277344,60.3227539 C9.48277344,59.5922852 10.074668,59.0003906 10.8051367,59.0003906 L34.7123047,59.0003906 C35.4425586,59.0003906 36.034668,59.5922852 36.034668,60.3227539 L36.034668,76.6437891 C36.0344531,77.374043 35.4425586,77.9661523 34.7120898,77.9661523 L34.7120898,77.9661523 Z" id="Shape" fill="#80A8E1"></path>
                <g id="Group" transform="translate(13.105469, 62.734375)" fill="#6496DC">
                    <path d="M13.4462109,11.4384961 L5.86007813,11.4384961 C4.81271484,11.4384961 3.9634375,10.5892188 3.9634375,9.54185547 L3.9634375,9.54185547 C3.9634375,8.49449219 4.81271484,7.64521484 5.86007813,7.64521484 L13.4462109,7.64521484 C14.4935742,7.64521484 15.3428516,8.49449219 15.3428516,9.54185547 L15.3428516,9.54185547 C15.3428516,10.5894336 14.4935742,11.4384961 13.4462109,11.4384961 L13.4462109,11.4384961 Z" id="Shape"></path>
                    <path d="M17.2392773,3.85236328 L2.06701172,3.85236328 C1.01964844,3.85236328 0.170371094,3.00308594 0.170371094,1.95572266 L0.170371094,1.95572266 C0.170371094,0.908359375 1.01964844,0.0590820312 2.06701172,0.0590820312 L17.2394922,0.0590820312 C18.2868555,0.0590820312 19.1361328,0.908359375 19.1361328,1.95572266 L19.1361328,1.95572266 C19.135918,3.00308594 18.2866406,3.85236328 17.2392773,3.85236328 L17.2392773,3.85236328 Z" id="Shape"></path>
                </g>
            </g>
        </g>
    </g>
</svg>