<?xml version="1.0" encoding="UTF-8" standalone="no"?>
<svg width="568px" height="507px" viewBox="0 0 568 507" version="1.1" xmlns="http://www.w3.org/2000/svg" xmlns:xlink="http://www.w3.org/1999/xlink">
    <!-- Generator: Sketch 39.1 (31720) - http://www.bohemiancoding.com/sketch -->
    <title>landingpage_illustration</title>
    <desc>Created with Sketch.</desc>
    <defs>
        <path d="M0.172590677,23.6485671 L0.42612487,5.77688935 L16.8540329,0.0294293998 C16.8540329,0.0294293998 15.177854,1.93690856 14.7900681,3.04976293 C12.4344075,9.8099545 8.62369332,23.6485672 8.62369332,23.6485672 L12.4503267,50.5104432 L6.77057777,52.869339 L0.172590677,23.6485671 Z" id="path-1"></path>
        <path d="M0.50165759,9.70533955 C0.50165759,6.98052183 2.76494799,3.85642502 4.24369921,2.10604949 C4.96116228,1.25679927 6.79457103,1.34458247 6.79457103,1.34458247 C6.79457103,1.34458247 14.3103209,-0.421861028 18.1620961,0.730924858 C22.8270631,2.12708837 31.0441705,8.37777304 31.0441705,8.37777304 L31.0441705,12.3253024 L32.4964571,25.8307437 C32.555656,26.3812599 32.1792224,26.7158395 31.6448531,26.5752017 L19.8473817,23.4702876 L3.10426007,18.5661795 C3.10426007,18.5661795 0.50165759,13.752189 0.50165759,9.70533955 Z" id="path-3"></path>
        <filter x="-50%" y="-50%" width="200%" height="200%" filterUnits="objectBoundingBox" id="filter-5">
            <feOffset dx="0" dy="1" in="SourceAlpha" result="shadowOffsetOuter1"></feOffset>
            <feColorMatrix values="0 0 0 0 0.0431372549   0 0 0 0 0.325490196   0 0 0 0 0.654901961  0 0 0 0.5 0" type="matrix" in="shadowOffsetOuter1"></feColorMatrix>
        </filter>
        <path d="M2.19875271,28.4418279 L3.86287255,27.3843007 L6.00303843,26.0242524 L12.3564954,21.9867108 C12.8199515,21.6921903 13.2299841,21.0067545 13.2727227,20.4506211 L14.6860304,2.06005034 C14.7706085,0.959484285 15.6971156,0.305616758 16.7589871,0.600581073 L22.4471523,2.18062709 C22.4471523,2.18062709 19.490047,15.5881641 17.4849039,21.8866814 C17.1024344,23.0880871 10.8227555,24.3985444 10.8227555,24.3985444 C10.2887808,24.518499 10.3004206,24.5815937 10.8442251,24.5911455 C10.8442251,24.5911455 11.4579499,24.2941008 15.9345701,25.5864254 C20.4111904,26.8787501 23.0420277,28.6605191 23.0420277,28.6605191 C23.5152035,28.9490808 23.617099,28.8328455 23.2761666,28.3987505 C23.2761666,28.3987505 19.3560675,23.6520346 20.0569902,22.4715851 C20.8897111,21.0691694 21.9010058,19.2755192 22.9498965,17.3732235 C26.1042698,11.652369 29.5986652,4.94891231 29.5986652,4.94891231 C29.5986652,4.94891231 29.7107135,4.94887078 29.9094828,4.95967229 C30.9942045,5.01861815 34.6615557,5.40047936 36.7953331,7.87421481 C39.3201135,10.8012488 38.2266685,14.5788175 38.2266685,14.5788175 C38.2266685,14.5788175 42.5812294,18.9778511 40.2515442,23.8137714 C37.921859,28.6496917 33.2744095,26.6149704 33.2744095,26.6149704 C33.2744095,26.6149704 30.9601231,25.2560818 29.852942,26.6149701 C28.9073415,27.775544 28.470517,27.5861458 28.4060007,29.1830071 C28.2854326,32.1672236 28.3770127,36.7431881 28.3770127,36.7431881 C28.3930228,37.8450485 27.6523336,38.2394478 26.7260907,37.6446122 C26.7260907,37.6446122 18.8318554,32.2240559 11.6465746,30.2807614 C4.4612938,28.3374669 1.23580654,29.7833552 1.23580654,29.7833552 C0.169460637,30.0580646 0.0653116146,29.7976027 0.988314829,29.2110458 L2.19875271,28.4418279 Z" id="path-6"></path>
        <path d="M30.7057243,18.9325412 L38.1357241,18.9325412 L38.1357241,27.8766294 C38.1357241,27.8766294 38.5162616,29.2690566 35.2086449,29.8766291 C31.9010282,30.4842017 31.6674262,30.0990066 31.6674262,30.0990066 C31.1362929,29.9761909 30.7057243,29.4340532 30.7057243,28.8666523 L30.7057243,18.9325412 Z" id="path-8"></path>
        <filter x="-50%" y="-50%" width="200%" height="200%" filterUnits="objectBoundingBox" id="filter-9">
            <feOffset dx="0" dy="0.5" in="SourceAlpha" result="shadowOffsetOuter1"></feOffset>
            <feColorMatrix values="0 0 0 0 0.996078431   0 0 0 0 1   0 0 0 0 1  0 0 0 1 0" type="matrix" in="shadowOffsetOuter1"></feColorMatrix>
        </filter>
        <linearGradient x1="64.8554444%" y1="50%" x2="64.8554466%" y2="100%" id="linearGradient-10">
            <stop stop-color="#1D5A90" offset="0%"></stop>
            <stop stop-color="#0D4372" offset="100%"></stop>
        </linearGradient>
        <polygon id="path-11" points="61 21 335.540789 102.890039 335.540802 506.637756 61 424.528974"></polygon>
        <filter x="-50%" y="-50%" width="200%" height="200%" filterUnits="objectBoundingBox" id="filter-12">
            <feOffset dx="0" dy="1" in="SourceAlpha" result="shadowOffsetOuter1"></feOffset>
            <feColorMatrix values="0 0 0 0 0.870588235   0 0 0 0 0.898039216   0 0 0 0 0.956862745  0 0 0 1 0" type="matrix" in="shadowOffsetOuter1"></feColorMatrix>
        </filter>
        <path d="M29.0542967,11.0272067 L29.0542967,9.08490097 C29.0542967,7.42437133 28.1752971,4.85294284 26.2967897,4.29647933 L15.2667615,1.03035754 C14.9194148,0.922254756 14.6039673,0.915166049 14.2513042,1.00731924 L2.5,3.82862466 L3.01570344,3.9703988 L14.0457317,7.23652059 C15.9260112,7.7929841 16.8032387,10.3661848 16.8032387,12.0249422 L16.8032387,27.912507 C16.8032387,29.546454 16.0412027,31.6588887 14.0457317,31.0687538 L15.061189,31.0917921 L27.2590817,28.1623839 C27.5018699,28.0968134 27.6719989,28.0188376 27.8350391,27.9071905" id="path-13"></path>
        <filter x="-50%" y="-50%" width="200%" height="200%" filterUnits="objectBoundingBox" id="filter-14">
            <feOffset dx="0.5" dy="0" in="SourceAlpha" result="shadowOffsetOuter1"></feOffset>
            <feColorMatrix values="0 0 0 0 0.596078431   0 0 0 0 0.741176471   0 0 0 0 0.952941176  0 0 0 1 0" type="matrix" in="shadowOffsetOuter1"></feColorMatrix>
        </filter>
        <path d="M29.0542967,11.0272067 L29.0542967,9.08490097 C29.0542967,7.42437133 28.1752971,4.85294284 26.2967897,4.29647933 L15.2667615,1.03035754 C14.9194148,0.922254756 14.6039673,0.915166049 14.2513042,1.00731924 L2.5,3.82862466 L3.01570344,3.9703988 L14.0457317,7.23652059 C15.9260112,7.7929841 16.8032387,10.3661848 16.8032387,12.0249422 L16.8032387,27.912507 C16.8032387,29.546454 16.0412027,31.6588887 14.0457317,31.0687538 L15.061189,31.0917921 L27.2590817,28.1623839 L27.312247,28.1482065 C27.5018699,28.0968134 27.6719989,28.0188376 27.8350391,27.9071905" id="path-15"></path>
        <filter x="-50%" y="-50%" width="200%" height="200%" filterUnits="objectBoundingBox" id="filter-16">
            <feOffset dx="0.5" dy="0" in="SourceAlpha" result="shadowOffsetOuter1"></feOffset>
            <feColorMatrix values="0 0 0 0 0.4   0 0 0 0 0.607843137   0 0 0 0 0.91372549  0 0 0 1 0" type="matrix" in="shadowOffsetOuter1"></feColorMatrix>
        </filter>
        <path d="M54.5141339,50.0541547 L67.0333492,47.095196 C68.4702488,46.7083104 68.8758546,45.0174768 68.8758546,43.8693579 L68.8758546,19.7839357 C68.8758546,18.1056402 67.9736999,15.5067001 66.0457081,14.944283 L15.1012506,0.0885908995 C14.744754,-0.0224596079 14.4209968,-0.0278330196 14.0590436,0.0653061157 L2,2.91679656 L2.52928834,3.06008754 L53.1967468,18.0347958 C55.0508728,18.571516 55.929142,21.0423924 55.929142,22.7188969 L55.929142,46.8712959 C55.929142,48.5209333 55.5199636,50.6291097 53.471927,50.0308699" id="path-17"></path>
        <filter x="-50%" y="-50%" width="200%" height="200%" filterUnits="objectBoundingBox" id="filter-18">
            <feOffset dx="0.5" dy="0" in="SourceAlpha" result="shadowOffsetOuter1"></feOffset>
            <feColorMatrix values="0 0 0 0 0.0194380412   0 0 0 0 0.303028282   0 0 0 0 0.561410502  0 0 0 1 0" type="matrix" in="shadowOffsetOuter1"></feColorMatrix>
        </filter>
        <path d="M54.5141339,50.0541547 L67.0333492,47.095196 L67.0860961,47.0808669 C68.4702488,46.7083104 68.8758546,45.0174768 68.8758546,43.8693579 L68.8758546,19.7839357 C68.8758546,18.1056402 67.9736999,15.5067001 66.0457081,14.944283 L15.1012506,0.0885908995 C14.744754,-0.0224596079 14.4209968,-0.0278330196 14.0590436,0.0653061157 L2,2.91679656 L2.52928834,3.06008754 L53.471927,17.9157796 C55.4017377,18.4781967 56.3020736,21.0789279 56.3020736,22.7554324 L56.3020736,46.8426457 C56.3020736,48.492283 55.5199636,50.6291097 53.471927,50.0308699" id="path-19"></path>
        <filter x="-50%" y="-50%" width="200%" height="200%" filterUnits="objectBoundingBox" id="filter-20">
            <feOffset dx="0.5" dy="0" in="SourceAlpha" result="shadowOffsetOuter1"></feOffset>
            <feColorMatrix values="0 0 0 0 0.4   0 0 0 0 0.607843137   0 0 0 0 0.91372549  0 0 0 1 0" type="matrix" in="shadowOffsetOuter1"></feColorMatrix>
        </filter>
        <path d="M6.98591477,5.788899 C3.14429572,8.41812349 1.01086715,13.3604908 1.00181953,17.8179602 L1.00181953,25.9085725 C1.08686715,27.0723276 1.3872481,28.0924092 1.94096239,29.0999194 C2.02239096,29.2489806 1.99886715,29.4303684 1.88667667,29.5596745 C1.43791477,30.0679194 1.15743858,30.6192663 0.99639096,31.2999194 L1.00181953,46.0336337 C1.08686715,47.1973888 1.3872481,48.2174704 1.94096239,49.2267766 C1.43791477,50.1929806 1.15743858,50.7443276 0.99639096,51.4249806 L1.00181953,66.1586949 C1.08686715,67.32245 1.3872481,68.3443276 1.94096239,69.3518378 C1.43791477,70.3180419 1.15743858,70.8693888 0.99639096,71.5500419 L1.00181953,86.2837561 C1.08686715,87.4475112 1.3872481,88.4693888 1.94096239,89.476899 C1.43791477,90.4431031 1.15743858,90.99445 0.99639096,91.676899 L1.00181953,106.408817 C1.08686715,107.572572 1.3872481,108.59445 1.94096239,109.60196 C2.02239096,109.751021 1.99886715,109.932409 1.88667667,110.061715 C1.43791477,110.56996 1.15743858,111.121307 0.99639096,111.80196 L1.00181953,126.535675 C1.08686715,127.69943 1.3872481,128.719511 1.94096239,129.728817 C1.43791477,130.695021 1.15743858,131.246368 0.99639096,131.927021 L1.00181953,146.660736 C1.08686715,147.824491 1.3872481,148.846368 1.94096239,149.853879 C1.43791477,150.820083 1.15743858,151.37143 0.99639096,152.052083 L1.00181953,170.442287 C1.00181953,172.554287 2.42772429,174.529797 4.52315286,174.894368 C4.93210525,174.966205 5.33201001,174.973389 5.74458144,174.915919 C7.91058144,174.619593 9.41791477,172.599185 9.41791477,170.427919 L9.41791477,17.8179602 C9.42877191,16.0992663 10.4041052,12.9186949 12.4452481,12.3386133 C12.4452481,12.3368174 28.9408672,8.40734798 28.9408672,8.40734798 C29.6284862,8.24391941 29.8094386,9.17959288 29.8962957,9.75787859 C29.9198195,9.91591941 29.8962952,10.3005438 29.8962952,10.3005438 L38.420963,12.8788443 L38.4209624,10.9072663 C38.4535338,4.556899 33.8464862,-1.3875908 26.9757243,0.286205122 L10.4819148,4.21567451" id="path-21"></path>
        <filter x="-50%" y="-50%" width="200%" height="200%" filterUnits="objectBoundingBox" id="filter-23">
            <feOffset dx="0.5" dy="0" in="SourceAlpha" result="shadowOffsetOuter1"></feOffset>
            <feColorMatrix values="0 0 0 0 0.399626285   0 0 0 0 0.609381731   0 0 0 0 0.91236182  0 0 0 1 0" type="matrix" in="shadowOffsetOuter1"></feColorMatrix>
        </filter>
        <path d="M0.00542857143,23.7750868 L0.00542857143,17.8179602 C0.0144761905,13.3604908 2.14790476,8.41812349 5.98952381,5.788899 L9.48552381,4.21567451 L25.9793333,0.286205122 C32.8500952,-1.3875908 37.4571429,4.556899 37.4245714,10.9072663 L37.424572,13.2903538 L28.8999043,10.7727194 C28.8999043,10.7727194 28.9234286,9.91591941 28.8999048,9.75787859 C28.8130476,9.17959288 28.6320952,8.24391941 27.9444762,8.40734798 C27.9444762,8.40734798 11.4488571,12.3368174 11.4488571,12.3386133 C9.40771429,12.9186949 8.43238095,16.0992663 8.42152381,17.8179602 L8.42152381,170.427919 C8.42152381,172.599185 6.91419048,174.619593 4.74819048,174.915919 C4.33561905,174.973389 3.93571429,174.966205 3.5267619,174.894368 C1.43133333,174.529797 0.00542857143,172.554287 0.00542857143,170.442287 L0.000803798701,154.775087 L0,154.775087 L0,23.7750868 L0.00542857143,23.7750868 Z" id="path-24"></path>
        <path d="M5.81302995,0.0958621923 C3.27469714,0.704733855 1.63734857,2.10832464 0,3.980959 C1.09038564,5.87483306 2.15244958,7.32975314 4.44473758,7.97756427 L37,17.7389806 L37,16.2489125 C37.4278984,14.8780038 37.8905449,14.8246209 38.0144234,14.2293021 C37.4464569,13.206125 37.3033371,12.7071263 37,11.1946294 L37,9.15459816 L6.78835867,0.0586927013 C6.45557864,-0.0262661355 6.14403988,-0.00679640204 5.81302995,0.0958621923 Z" id="path-26"></path>
        <filter x="-50%" y="-50%" width="200%" height="200%" filterUnits="objectBoundingBox" id="filter-28">
            <feOffset dx="0.5" dy="0" in="SourceAlpha" result="shadowOffsetOuter1"></feOffset>
            <feColorMatrix values="0 0 0 0 0.494117647   0 0 0 0 0.670588235   0 0 0 0 0.929411765  0 0 0 1 0" type="matrix" in="shadowOffsetOuter1"></feColorMatrix>
        </filter>
        <path d="M5.81302995,0.0958621923 C3.27469714,0.704733855 1.63734857,2.10832464 0,3.980959 C1.09038564,5.87483306 2.15244958,7.32975314 4.44473758,7.97756427 L37,17.7389806 L37,16.2489125 C37.4278984,14.8780038 37.8905449,14.8246209 38.0144234,14.2293021 C37.4464569,13.206125 37.3033371,12.7071263 37,11.1946294 L37,9.15459816 L6.78835867,0.0586927013 C6.45557864,-0.0262661355 6.14403988,-0.00679640204 5.81302995,0.0958621923 Z" id="path-29"></path>
        <filter x="-50%" y="-50%" width="200%" height="200%" filterUnits="objectBoundingBox" id="filter-31">
            <feOffset dx="0.5" dy="0" in="SourceAlpha" result="shadowOffsetOuter1"></feOffset>
            <feColorMatrix values="0 0 0 0 0.494117647   0 0 0 0 0.670588235   0 0 0 0 0.929411765  0 0 0 1 0" type="matrix" in="shadowOffsetOuter1"></feColorMatrix>
        </filter>
        <path d="M5.81302995,0.0958621923 C3.27469714,0.704733855 1.63734857,2.10832464 0,3.980959 C1.09038564,5.87483306 2.15244958,7.32975314 4.44473758,7.97756427 L37,17.7389806 L37,16.2489125 C37.4278984,14.8780038 37.8905449,14.8246209 38.0144234,14.2293021 C37.4464569,13.206125 37.3033371,12.7071263 37,11.1946294 L37,9.15459816 L6.78835867,0.0586927013 C6.45557864,-0.0262661355 6.14403988,-0.00679640204 5.81302995,0.0958621923 Z" id="path-32"></path>
        <filter x="-50%" y="-50%" width="200%" height="200%" filterUnits="objectBoundingBox" id="filter-34">
            <feOffset dx="0.5" dy="0" in="SourceAlpha" result="shadowOffsetOuter1"></feOffset>
            <feColorMatrix values="0 0 0 0 0.494117647   0 0 0 0 0.670588235   0 0 0 0 0.929411765  0 0 0 1 0" type="matrix" in="shadowOffsetOuter1"></feColorMatrix>
        </filter>
        <path d="M5.81302995,0.0958621923 C3.27469714,0.704733855 1.63734857,2.10832464 0,3.980959 C1.09038564,5.87483306 2.15244958,7.32975314 4.44473758,7.97756427 L37,17.7389806 L37,16.2489125 C37.4278984,14.8780038 37.8905449,14.8246209 38.0144234,14.2293021 C37.4464569,13.206125 37.3033371,12.7071263 37,11.1946294 L37,9.15459816 L6.78835867,0.0586927013 C6.45557864,-0.0262661355 6.14403988,-0.00679640204 5.81302995,0.0958621923 Z" id="path-35"></path>
        <filter x="-50%" y="-50%" width="200%" height="200%" filterUnits="objectBoundingBox" id="filter-37">
            <feOffset dx="0.5" dy="0" in="SourceAlpha" result="shadowOffsetOuter1"></feOffset>
            <feColorMatrix values="0 0 0 0 0.494117647   0 0 0 0 0.670588235   0 0 0 0 0.929411765  0 0 0 1 0" type="matrix" in="shadowOffsetOuter1"></feColorMatrix>
        </filter>
        <path d="M5.81302995,0.0958621923 C3.27469714,0.704733855 1.63734857,2.10832464 0,3.980959 C1.09038564,5.87483306 2.15244958,7.32975314 4.44473758,7.97756427 L37,17.7389806 L37,16.2489125 C37.4278984,14.8780038 37.8905449,14.8246209 38.0144234,14.2293021 C37.4464569,13.206125 37.3033371,12.7071263 37,11.1946294 L37,9.15459816 L6.78835867,0.0586927013 C6.45557864,-0.0262661355 6.14403988,-0.00679640204 5.81302995,0.0958621923 Z" id="path-38"></path>
        <filter x="-50%" y="-50%" width="200%" height="200%" filterUnits="objectBoundingBox" id="filter-40">
            <feOffset dx="0.5" dy="0" in="SourceAlpha" result="shadowOffsetOuter1"></feOffset>
            <feColorMatrix values="0 0 0 0 0.494117647   0 0 0 0 0.670588235   0 0 0 0 0.929411765  0 0 0 1 0" type="matrix" in="shadowOffsetOuter1"></feColorMatrix>
        </filter>
        <path d="M5.81302995,0.0958621923 C3.27469714,0.704733855 1.63734857,2.10832464 0,3.980959 C1.09038564,5.87483306 2.15244958,7.32975314 4.44473758,7.97756427 L37,17.7389806 L37,16.2489125 C37.4278984,14.8780038 37.8905449,14.8246209 38.0144234,14.2293021 C37.4464569,13.206125 37.3033371,12.7071263 37,11.1946294 L37,9.15459816 L6.78835867,0.0586927013 C6.45557864,-0.0262661355 6.14403988,-0.00679640204 5.81302995,0.0958621923 Z" id="path-41"></path>
        <filter x="-50%" y="-50%" width="200%" height="200%" filterUnits="objectBoundingBox" id="filter-43">
            <feOffset dx="0.5" dy="0" in="SourceAlpha" result="shadowOffsetOuter1"></feOffset>
            <feColorMatrix values="0 0 0 0 0.494117647   0 0 0 0 0.670588235   0 0 0 0 0.929411765  0 0 0 1 0" type="matrix" in="shadowOffsetOuter1"></feColorMatrix>
        </filter>
        <path d="M5.81302995,0.0958621923 C3.27469714,0.704733855 1.63734857,2.10832464 0,3.980959 C1.09038564,5.87483306 2.15244958,7.32975314 4.44473758,7.97756427 L37,17.7389806 L37,16.2489125 C37.4278984,14.8780038 37.8905449,14.8246209 38.0144234,14.2293021 C37.4464569,13.206125 37.3033371,12.7071263 37,11.1946294 L37,9.15459816 L6.78835867,0.0586927013 C6.45557864,-0.0262661355 6.14403988,-0.00679640204 5.81302995,0.0958621923 Z" id="path-44"></path>
        <filter x="-50%" y="-50%" width="200%" height="200%" filterUnits="objectBoundingBox" id="filter-46">
            <feOffset dx="0.5" dy="0" in="SourceAlpha" result="shadowOffsetOuter1"></feOffset>
            <feColorMatrix values="0 0 0 0 0.494117647   0 0 0 0 0.670588235   0 0 0 0 0.929411765  0 0 0 1 0" type="matrix" in="shadowOffsetOuter1"></feColorMatrix>
        </filter>
        <polygon id="path-47" points="68 22.9128354 80.3746586 20 80.3746586 44.1524906 68 47.0336895"></polygon>
        <filter x="-50%" y="-50%" width="200%" height="200%" filterUnits="objectBoundingBox" id="filter-48">
            <feOffset dx="0.5" dy="0" in="SourceAlpha" result="shadowOffsetOuter1"></feOffset>
            <feColorMatrix values="0 0 0 0 0.399626285   0 0 0 0 0.609381731   0 0 0 0 0.91236182  0 0 0 1 0" type="matrix" in="shadowOffsetOuter1"></feColorMatrix>
        </filter>
        <polygon id="path-49" points="12.4473333 0 79.6014995 19.7749632 67.2320537 22.9228152 0.0375349481 2.96624446"></polygon>
        <filter x="-50%" y="-50%" width="200%" height="200%" filterUnits="objectBoundingBox" id="filter-50">
            <feOffset dx="0.5" dy="0" in="SourceAlpha" result="shadowOffsetOuter1"></feOffset>
            <feColorMatrix values="0 0 0 0 0.4   0 0 0 0 0.607843137   0 0 0 0 0.91372549  0 0 0 1 0" type="matrix" in="shadowOffsetOuter1"></feColorMatrix>
        </filter>
        <polygon id="path-51" points="67.155153 22.89922 79.5298116 19.9863847 79.5298116 44.1388753 67.155153 47.0200742"></polygon>
        <filter x="-50%" y="-50%" width="200%" height="200%" filterUnits="objectBoundingBox" id="filter-52">
            <feOffset dx="0.5" dy="0" in="SourceAlpha" result="shadowOffsetOuter1"></feOffset>
            <feColorMatrix values="0 0 0 0 0.399626285   0 0 0 0 0.609381731   0 0 0 0 0.91236182  0 0 0 1 0" type="matrix" in="shadowOffsetOuter1"></feColorMatrix>
        </filter>
        <polygon id="path-53" points="12.4473333 0 79.6014995 19.7749632 67.2320537 22.9228152 0.0375349481 2.96624446"></polygon>
        <filter x="-50%" y="-50%" width="200%" height="200%" filterUnits="objectBoundingBox" id="filter-54">
            <feOffset dx="0.5" dy="0" in="SourceAlpha" result="shadowOffsetOuter1"></feOffset>
            <feColorMatrix values="0 0 0 0 0.4   0 0 0 0 0.607843137   0 0 0 0 0.91372549  0 0 0 1 0" type="matrix" in="shadowOffsetOuter1"></feColorMatrix>
        </filter>
        <path d="M29.0542967,11.0272067 L29.0542967,9.08490097 C29.0542967,7.42437133 28.1752971,4.85294284 26.2967897,4.29647933 L15.2667615,1.03035754 C14.9194148,0.922254756 14.6039673,0.915166049 14.2513042,1.00731924 L2.5,3.82862466 L3.01570344,3.9703988 L14.0457317,7.23652059 C15.9260112,7.7929841 16.8032387,10.3661848 16.8032387,12.0249422 L16.8032387,27.912507 C16.8032387,29.546454 16.0412027,31.6588887 14.0457317,31.0687538 L15.061189,31.0917921 L27.2590817,28.1623839 L27.312247,28.1482065 C27.5018699,28.0968134 27.6719989,28.0188376 27.8350391,27.9071905" id="path-55"></path>
        <filter x="-50%" y="-50%" width="200%" height="200%" filterUnits="objectBoundingBox" id="filter-56">
            <feOffset dx="0.5" dy="0" in="SourceAlpha" result="shadowOffsetOuter1"></feOffset>
            <feColorMatrix values="0 0 0 0 0.4   0 0 0 0 0.607843137   0 0 0 0 0.91372549  0 0 0 1 0" type="matrix" in="shadowOffsetOuter1"></feColorMatrix>
        </filter>
        <path d="M29.0542967,11.0272067 L29.0542967,9.08490097 C29.0542967,7.42437133 28.1752971,4.85294284 26.2967897,4.29647933 L15.2667615,1.03035754 C14.9194148,0.922254756 14.6039673,0.915166049 14.2513042,1.00731924 L2.5,3.82862466 L3.01570344,3.9703988 L14.0457317,7.23652059 C15.9260112,7.7929841 16.8032387,10.3661848 16.8032387,12.0249422 L16.8032387,27.912507 C16.8032387,29.546454 16.0412027,31.6588887 14.0457317,31.0687538 L15.061189,31.0917921 L27.2590817,28.1623839 L27.312247,28.1482065 C27.5018699,28.0968134 27.6719989,28.0188376 27.8350391,27.9071905" id="path-57"></path>
        <filter x="-50%" y="-50%" width="200%" height="200%" filterUnits="objectBoundingBox" id="filter-58">
            <feOffset dx="0.5" dy="0" in="SourceAlpha" result="shadowOffsetOuter1"></feOffset>
            <feColorMatrix values="0 0 0 0 0.4   0 0 0 0 0.607843137   0 0 0 0 0.91372549  0 0 0 1 0" type="matrix" in="shadowOffsetOuter1"></feColorMatrix>
        </filter>
        <polygon id="path-59" points="67.155153 22.89922 79.5298116 19.9863847 79.5298116 44.1388753 67.155153 47.0200742"></polygon>
        <filter x="-50%" y="-50%" width="200%" height="200%" filterUnits="objectBoundingBox" id="filter-60">
            <feOffset dx="0.5" dy="0" in="SourceAlpha" result="shadowOffsetOuter1"></feOffset>
            <feColorMatrix values="0 0 0 0 0.399626285   0 0 0 0 0.609381731   0 0 0 0 0.91236182  0 0 0 1 0" type="matrix" in="shadowOffsetOuter1"></feColorMatrix>
        </filter>
        <polygon id="path-61" points="12.4473333 0 79.6014995 19.7749632 67.2320537 22.9228152 0.0375349481 2.96624446"></polygon>
        <filter x="-50%" y="-50%" width="200%" height="200%" filterUnits="objectBoundingBox" id="filter-62">
            <feOffset dx="0.5" dy="0" in="SourceAlpha" result="shadowOffsetOuter1"></feOffset>
            <feColorMatrix values="0 0 0 0 0.4   0 0 0 0 0.607843137   0 0 0 0 0.91372549  0 0 0 1 0" type="matrix" in="shadowOffsetOuter1"></feColorMatrix>
        </filter>
        <polygon id="path-63" points="67.155153 22.89922 79.5298116 19.9863847 79.5298116 44.1388753 67.155153 47.0200742"></polygon>
        <filter x="-50%" y="-50%" width="200%" height="200%" filterUnits="objectBoundingBox" id="filter-64">
            <feOffset dx="0.5" dy="0" in="SourceAlpha" result="shadowOffsetOuter1"></feOffset>
            <feColorMatrix values="0 0 0 0 0.399626285   0 0 0 0 0.609381731   0 0 0 0 0.91236182  0 0 0 1 0" type="matrix" in="shadowOffsetOuter1"></feColorMatrix>
        </filter>
        <polygon id="path-65" points="12.4473333 0 79.6014995 19.7749632 67.2320537 22.9228152 0.0375349481 2.96624446"></polygon>
        <filter x="-50%" y="-50%" width="200%" height="200%" filterUnits="objectBoundingBox" id="filter-66">
            <feOffset dx="0.5" dy="0" in="SourceAlpha" result="shadowOffsetOuter1"></feOffset>
            <feColorMatrix values="0 0 0 0 0.596078431   0 0 0 0 0.741176471   0 0 0 0 0.952941176  0 0 0 1 0" type="matrix" in="shadowOffsetOuter1"></feColorMatrix>
        </filter>
        <polygon id="path-67" points="74 426.153107 74 22.0126982 86.2405882 19.0151402 86.2405882 423.355225"></polygon>
        <filter x="-50%" y="-50%" width="200%" height="200%" filterUnits="objectBoundingBox" id="filter-68">
            <feOffset dx="1" dy="0" in="SourceAlpha" result="shadowOffsetOuter1"></feOffset>
            <feColorMatrix values="0 0 0 0 0.0258801644   0 0 0 0 0.257757552   0 0 0 0 0.46917517  0 0 0 1 0" type="matrix" in="shadowOffsetOuter1"></feColorMatrix>
        </filter>
        <path d="M11.5087093,3.23523138 L23.4218148,0.533037899 C25.5812324,0.0619139855 27.5285302,0.130506739 29.645906,0.749646594 C39.8276555,3.59805094 45.5434236,15.6577401 46.9843093,24.1524111 C47.8518984,29.257156 47.7926577,33.9611749 46.1148093,38.9684459 C44.5898401,43.5208386 41.3468918,48.2699843 35.8699973,49.5118741 L23.0052192,52.4306763" id="path-69"></path>
        <filter x="-50%" y="-50%" width="200%" height="200%" filterUnits="objectBoundingBox" id="filter-70">
            <feOffset dx="1" dy="0" in="SourceAlpha" result="shadowOffsetOuter1"></feOffset>
            <feColorMatrix values="0 0 0 0 0.0431372549   0 0 0 0 0.309803922   0 0 0 0 0.552941176  0 0 0 1 0" type="matrix" in="shadowOffsetOuter1"></feColorMatrix>
        </filter>
        <path d="M11.5087093,3.23523138 L23.4218148,0.533037899 C25.5812324,0.0619139855 27.5285302,0.130506739 29.645906,0.749646594 C39.8276555,3.59805094 45.5434236,15.6577401 46.9843093,24.1524111 C47.8518984,29.257156 47.7926577,33.9611749 46.1148093,38.9684459 C44.5898401,43.5208386 41.3468918,48.2699843 35.8699973,49.5118741 L23.0052192,52.4306763" id="path-71"></path>
        <filter x="-50%" y="-50%" width="200%" height="200%" filterUnits="objectBoundingBox" id="filter-72">
            <feOffset dx="1" dy="0" in="SourceAlpha" result="shadowOffsetOuter1"></feOffset>
            <feColorMatrix values="0 0 0 0 0.0431372549   0 0 0 0 0.309803922   0 0 0 0 0.552941176  0 0 0 1 0" type="matrix" in="shadowOffsetOuter1"></feColorMatrix>
        </filter>
        <path d="M0.502950308,30.6485671 C-0.480505421,23.1596051 0.502950301,0 0.502950301,0 L16.2911244,8.0660162 C16.2911244,8.0660162 13.5620575,9.19587032 13.4729521,9.76633142 C13.184641,11.6121269 12.4980011,16.0662639 11.8537478,20.6838739 C11.3498755,24.2953196 10.8719305,28.0067592 10.6307512,30.6485671 C9.9858933,37.7121522 14.3060851,59.0973612 14.3060851,59.0973612 C14.3060851,59.0973612 14.9984979,60.9080209 11.2756091,61.5152334 C7.55272035,62.1224458 6.54182177,59.9181579 6.54182177,59.9181579 C6.54182177,59.9181579 1.48640604,38.137529 0.502950308,30.6485671 Z" id="path-73"></path>
        <path d="M16.0400649,4.52725302 C9.49659066,2.50714082 2.45854027,1.08555158 2.1308986,0.873127833 C1.29884527,0.333672988 1.45520269,1.46410902 1.24327259,2.65039743 C1.05123062,3.72536106 0.436776451,4.83437071 0.730498906,5.0068793 C1.02138597,5.17772262 8.71912312,7.27225564 15.414447,9.17594001 C22.9404305,11.3158062 27.6226195,12.8946482 28.9166224,13.1268049 C30.2106254,13.3589615 30.7998202,12.0568691 30.7998202,12.0568691 L30.7998202,8.07228044 C30.7998202,8.07228044 30.7387912,9.03862894 29.8405669,9.17594007 C29.4520991,9.23532496 28.844309,9.00429748 28.1212226,8.69753354 C26.9997129,8.22174154 21.8025217,6.3062482 16.0400649,4.52725302 Z" id="path-75"></path>
        <filter x="-50%" y="-50%" width="200%" height="200%" filterUnits="objectBoundingBox" id="filter-77">
            <feOffset dx="0" dy="0.5" in="SourceAlpha" result="shadowOffsetOuter1"></feOffset>
            <feColorMatrix values="0 0 0 0 0.208583872   0 0 0 0 0.318645032   0 0 0 0 0.451477466  0 0 0 1 0" type="matrix" in="shadowOffsetOuter1"></feColorMatrix>
        </filter>
        <path d="M6.99999981,19.2232717 C6.99999981,19.2232717 5.06975199,19.0511389 3.35874473,18.6378029 C2.11803891,18.3380799 0.700774671,18.6378029 0.728358772,16.3886121 C0.735315134,15.8213947 1.28019993,9.67917315 2.83395758,5.56866066 C4.06722125,2.3060246 6.44561296,1.2310278 6.44561296,1.2310278 C7.36973909,0.624436813 8.99503694,0.299150142 10.0867942,0.506565091 L17.0861493,1.83632126 L20.6771876,2.84615544 L24.5986652,3.94891231 L36.852942,7.3949317 L36.8529415,42.8282355 C36.8529415,43.9324216 35.9930002,44.5609098 34.9449571,44.2380744 C34.9449571,44.2380744 26.8215033,41.6983288 19.6362225,39.7550343 C12.4509417,37.8117398 8.40552583,37.201245 8.40552583,37.201245 C7.31979847,37.0100499 6.46820112,35.9564527 6.50337708,34.8496321 L6.99999981,19.2232717 Z" id="path-78"></path>
        <path d="M36.9899902,15 L44.4199901,15 L44.4199901,23.9440883 C44.4199901,23.9440883 44.8005276,25.3365154 41.4929109,25.944088 C38.1852942,26.5516605 37.9516921,26.1664655 37.9516921,26.1664655 C37.4205588,26.0436498 36.9899902,25.5015121 36.9899902,24.9341111 L36.9899902,15 Z" id="path-80"></path>
        <filter x="-50%" y="-50%" width="200%" height="200%" filterUnits="objectBoundingBox" id="filter-81">
            <feOffset dx="0" dy="1" in="SourceAlpha" result="shadowOffsetOuter1"></feOffset>
            <feColorMatrix values="0 0 0 0 0.996078431   0 0 0 0 1   0 0 0 0 1  0 0 0 1 0" type="matrix" in="shadowOffsetOuter1"></feColorMatrix>
        </filter>
    </defs>
    <g id="Page-1" stroke="none" stroke-width="1" fill="none" fill-rule="evenodd">
        <g id="landingpage_illustration">
            <g id="轮子" transform="translate(14.000000, 380.000000)">
                <path d="M50.6255266,60.8301496 C62.7757911,60.8301496 72.6255266,57.3668702 72.6255266,53.0946984 C72.6255266,48.8225267 62.7757911,45.3592472 50.6255266,45.3592472 C38.4752621,45.3592472 28.6255266,48.8225267 28.6255266,53.0946984 C28.6255266,57.3668702 38.4752621,60.8301496 50.6255266,60.8301496 Z" id="Oval" fill="#E2ECFA" opacity="0.550839552" transform="translate(50.625527, 53.094698) rotate(-10.000000) translate(-50.625527, -53.094698) "></path>
                <path d="M10.998595,8.9991166 L22.9120756,6.29683803 C25.0715612,5.82569928 27.4583747,5.67767867 29.5758172,6.29683802 C39.7578873,9.14533206 44.9668086,20.7147518 46.4753121,29.916955 C47.3138222,35.032051 47.1205701,38.9292082 45.4426689,43.9366369 C43.9176517,48.489173 40.5736382,53.2647085 35.2620696,54.7021088 L22.4954669,58.1961107" id="Stroke-3" fill="#CCE7FF" transform="translate(28.979037, 32.041110) rotate(-150.000000) translate(-28.979037, -32.041110) "></path>
                <path d="M21.4710018,39.0199931 C20.9910513,45.1728716 21.6331472,50.2815336 25.2803384,55.5804462 C28.7610603,60.6393836 34.2372519,63.0672411 40.3317581,61.6036084 C51.8030067,58.8492981 58.3839492,45.3739319 59.1925144,35.0052722 C59.6724648,28.8523937 59.0303689,23.7415698 55.3831778,18.4448191 C51.9024559,13.3858817 46.4262643,10.9580242 40.3317581,12.4216569 C28.8605094,15.1759672 22.279567,28.6513334 21.4710018,39.0199931 Z" id="Page-1-Copy" fill="#80A8E1"></path>
                <path d="M43,16.9550856 C33.3400012,19.2745048 27.7981549,30.6221816 27.1172579,39.3536845 C26.713089,44.5350559 27.2538014,48.837087 30.3251203,53.2993292 C33.2562545,57.559487 37.8677843,59.6039986 43,58.3714658 C52.6599988,56.0520466 58.2018451,44.7043698 58.8827421,35.9728669 C59.286911,30.7914955 58.7461986,26.4876438 55.6748797,22.0272222 C52.7437455,17.7670644 48.1322157,15.7225528 43,16.9550856 L43,16.9550856 Z" id="Page-1" fill="#9BBBE8"></path>
                <path d="M48.1057253,16.8410994 L46.8257889,16.4738938 C44.6950385,15.8780845 42.7500553,15.845684 40.6007281,16.3676921 C31.7860718,18.4197239 26.2836457,27.8212696 24.806796,35.4875884 C23.3299464,43.1539072 24.9721289,54.5138832 34.3756674,57.212125 L37.2662059,58.0419379 L37.5578605,58.1265392 C37.3877757,58.0825026 37.219039,58.0346482 37.0517099,57.9830279 C34.4831595,57.1906417 32.2462824,55.5108923 30.5562926,53.1314618 C27.4242567,48.7213935 26.8725279,44.4661275 27.2849312,39.3432481 C27.9778431,30.7103144 33.634456,19.4907405 43.4912666,17.197505 C45.3693736,16.7600982 47.1806043,16.7402979 48.867371,17.0895033" id="Page-1" fill="#C0DBF8"></path>
            </g>
            <g id="lady" transform="translate(0.000000, 318.000000)">
                <g id="鞋子" transform="translate(0.000000, 122.000000)">
                    <path d="M22.5665213,1.52463221 L28.4753678,2.56652127 L27.2451873,9.54322165 C27.2451873,9.54322165 26.2284251,10.9035575 24.0274738,10.5154704 C21.8265224,10.1273833 21.3363408,8.50133258 21.3363408,8.50133258 L22.5665213,1.52463221 Z" id="Combined-Shape" fill="#FFCFC7"></path>
                    <path d="M3.56652127,0.524632208 L9.47536779,1.56652127 L8.24518728,8.54322165 C8.24518728,8.54322165 7.22842512,9.90355751 5.02747376,9.5154704 C2.82652239,9.12738329 2.29245931,7.75019664 2.29245931,7.75019664 L3.56652127,0.524632208 Z" id="Combined-Shape" fill="#FFBFBA"></path>
                    <path d="M23.1902933,17.4944426 C22.8936345,17.9555283 23.0418011,18.5447066 23.5473145,18.7725944 C23.5473145,18.7725944 26.5428133,20.8326334 28.7814677,17.319668 C29.8973272,15.5686269 35.1843376,13.6808502 36.6471005,12.8126659 C38.1189549,11.9390857 38.6198239,10.7291535 38.921474,9.67606089 C39.522911,7.57638057 37.2657576,7.62931993 37.2657576,7.62931993 L33.0163855,8.51218889 C33.0163855,8.51218889 33.5978086,11.1422851 32.0651911,11.865543 C30.5325736,12.5888008 28.4769108,12.4323038 28.4769108,12.4323038 L26.399411,13.4531312 C25.9076031,13.6947923 25.2654328,14.2691311 24.9717658,14.7255668 L23.1902933,17.4944426 Z" id="Path-3" fill="#EFF5FD" transform="translate(31.030938, 13.500993) rotate(7.000000) translate(-31.030938, -13.500993) "></path>
                    <path d="M4.19029329,15.4944426 C3.89363446,15.9555283 4.04180112,16.5447066 4.54731452,16.7725944 C4.54731452,16.7725944 7.54281334,18.8326334 9.78146771,15.319668 C10.8973272,13.5686269 16.1843376,11.6808502 17.6471005,10.8126659 C19.1189549,9.93908573 19.6198239,8.72915347 19.921474,7.67606089 C20.522911,5.57638057 18.2657576,5.62931993 18.2657576,5.62931993 L14.0163855,6.51218889 C14.0163855,6.51218889 14.5978086,9.14228512 13.0651911,9.86554297 C11.5325736,10.5888008 9.47691082,10.4323038 9.47691082,10.4323038 L7.39941096,11.4531312 C6.90760311,11.6947923 6.26543281,12.2691311 5.97176575,12.7255668 L4.19029329,15.4944426 Z" id="Path-3-Copy" fill="#EFF5FD" transform="translate(12.030938, 11.500993) rotate(7.000000) translate(-12.030938, -11.500993) "></path>
                    <path d="M1.1086333,14.1724794 C1.1086333,14.7243742 1.49150785,15.3865823 1.99143197,15.6177232 C1.99143197,15.6177232 5.09755,17.7503653 7.33620438,14.2373998 C8.45206387,12.4863587 10.8833052,11.9567362 12.3460681,11.088552 C13.8179225,10.2149718 14.3187914,9.00503952 14.6204416,7.95194694 C15.2218786,5.85226663 12.9647252,5.90520598 12.9647252,5.90520598 L8.66936645,6.93947384 C8.66936645,6.93947384 9.29677619,9.41817118 7.76415869,10.141429 C6.97610138,10.5133213 5.80520989,11.2353857 4.04659154,11.0885519 C2.28797318,10.941718 1.89416703,10.335851 1.89416703,10.335851 C1.46032873,9.9976692 1.1086333,10.1693722 1.1086333,10.7228126 L1.1086333,14.1724794 Z" id="Path-3" fill="#3E0F3F" transform="translate(7.915491, 11.082045) rotate(9.000000) translate(-7.915491, -11.082045) "></path>
                    <path d="M20.218804,16.2536191 C20.218804,16.8070611 20.6074601,17.4711091 21.1129735,17.6989969 C21.1129735,17.6989969 24.1084723,19.7590359 26.3471267,16.2460704 C27.4629862,14.4950293 29.8942275,13.9654068 31.3569904,13.0972226 C32.8288448,12.2236424 33.3297138,11.0137101 33.6313639,9.96061756 C34.2328009,7.86093724 31.9756475,7.9138766 31.9756475,7.9138766 L27.7262754,8.79674556 C27.7262754,8.79674556 28.3076985,11.4268418 26.775081,12.1500996 C25.2424635,12.8733575 23.1868007,12.7168604 23.1868007,12.7168604 L21.1578967,11.937941 C20.6392501,11.7388266 20.218804,12.0229793 20.218804,12.579508 L20.218804,16.2536191 Z" id="Path-3" fill="#613F62" transform="translate(26.976037, 13.016990) rotate(9.000000) translate(-26.976037, -13.016990) "></path>
                </g>
                <g id="下半身" transform="translate(2.000000, 52.000000)">
                    <polygon id="Rectangle-16" fill="#FFBFBA" transform="translate(9.171588, 43.673843) scale(-1, 1) translate(-9.171588, -43.673843) " points="4.91415179 42.0699344 1.32755844 15.336998 14.6157168 18.0169454 12.3098542 42.0699351 14.6770872 57.4907494 17.0156182 72.0106888 10.908393 71.6553877"></polygon>
                    <g id="Path-10" transform="translate(16.000000, 21.000000)">
                        <g id="Oval-3">
                            <mask id="mask-2" fill="white">
                                <use xlink:href="#path-1"></use>
                            </mask>
                            <use id="Mask" fill="#FFCFC7" transform="translate(8.513312, 26.449384) scale(-1, 1) translate(-8.513312, -26.449384) " xlink:href="#path-1"></use>
                            <circle fill="#FFBFBA" mask="url(#mask-2)" transform="translate(17.067321, 24.067321) rotate(4.000000) translate(-17.067321, -24.067321) " cx="17.0673205" cy="24.0673205" r="2"></circle>
                        </g>
                    </g>
                    <g id="Rectangle-14">
                        <mask id="mask-4" fill="white">
                            <use xlink:href="#path-3"></use>
                        </mask>
                        <g id="Mask">
                            <use fill="black" fill-opacity="1" filter="url(#filter-5)" xlink:href="#path-3"></use>
                            <use fill="#095DBF" fill-rule="evenodd" xlink:href="#path-3"></use>
                        </g>
                        <path d="M27.8203145,12.2265229 C27.4718612,8.86521816 31.3954126,8 31.3954126,8 L35,8 L35,29 L30.3264726,29 C30.3264726,29 28.1687678,15.5878277 27.8203145,12.2265229 Z" fill="#0B53A7" mask="url(#mask-4)"></path>
                    </g>
                    <path d="M14.5206212,18.6286037 C10.0060034,15.9131904 10.355923,10.6424186 10.355923,10.6424186 C10.355923,10.6424186 8.08724277,16.5302784 12.9309762,19.6571971 C14.3818233,20.5938053 16.7489087,21.734256 20.5422216,20.9799039 C21.8363554,20.7225478 18.2337334,20.8619342 14.5206212,18.6286037 Z" id="Path-11" fill="#0A52A7" transform="translate(15.318103, 15.933838) rotate(27.000000) translate(-15.318103, -15.933838) "></path>
                </g>
                <g id="上半身" transform="translate(5.000000, 25.000000)">
                    <path d="M28.6940497,37.2134314 C27.8012851,36.5593758 26.8072481,35.1783277 26.4691422,34.1140947 L21.7737477,19.3347221 C21.7737477,19.3347221 19.5151125,17.526373 23.264109,17.526373 C27.0131056,17.526373 27.6481859,16.2145894 27.6481859,16.2145894 L31.7944171,32.7133975 L43.3922272,44.2009182 C43.3922272,44.2009182 42.1197446,44.386172 41.4292954,44.594951 C40.902138,44.7543536 39.7394074,45.3054631 39.7394074,45.3054631 L28.6940497,37.2134314 Z" id="Rectangle-1459" fill="#FFCFC7" transform="translate(32.245739, 30.760026) rotate(10.000000) translate(-32.245739, -30.760026) "></path>
                    <path d="M13.2871095,21.7578122 C15.5668959,18.5509753 18.1942608,10.9301248 18.1942608,10.9301248 L29.8281309,9.34344457 L27.1421856,28.0117575 C27.0636587,28.5575487 26.6134616,29.2125942 26.1184633,29.4848409 L24.8925522,30.159086 L8.88530077,25.6469678 C8.35461119,25.4973772 8.32190919,25.1652874 8.79641286,24.9063039 C8.79641286,24.9063039 12.3374689,23.0936139 13.2871095,21.7578122 Z" id="Rectangle-2" fill="#FFCFC7"></path>
                    <g id="Path-4">
                        <mask id="mask-7" fill="white">
                            <use xlink:href="#path-6"></use>
                        </mask>
                        <use id="Mask" fill="#FFFFFF" xlink:href="#path-6"></use>
                        <path d="M30.3221331,24.6612154 C29.7330509,23.7698271 29.3694036,22.4870451 29.3694036,22.4870451 L29.6520908,25.2753153 L30.3221331,27.1764032 L32.1810322,26.7415488 C32.1810322,26.7415488 30.9112154,25.5526036 30.3221331,24.6612154 Z" fill="#EFF5FD" mask="url(#mask-7)"></path>
                    </g>
                    <path d="M36.5653995,36.1204839 C35.687644,35.4474586 34.7057742,34.0510326 34.3676683,32.9867995 L29.6722738,18.2074269 C29.6722738,18.2074269 27.4136386,16.3990778 31.1626351,16.3990778 C34.9116317,16.3990778 35.546712,15.0872942 35.546712,15.0872942 L39.6929432,31.5861024 L51.2907533,43.073623 L48.5984304,45.3468977 L36.5653995,36.1204839 Z" id="Rectangle-1459" fill="#FFCFC7" transform="translate(40.144266, 30.217096) rotate(10.000000) translate(-40.144266, -30.217096) "></path>
                    <path d="M54.9584948,47.5716106 L53.8492328,48.6876421 C53.5604399,48.9778812 53.2125017,48.9784671 53.0093922,48.7372037 C52.8747397,48.5774047 52.9279322,48.0844166 52.965611,47.7716312 L53.5219297,43.1685118 C53.5716138,42.7573062 53.2805595,42.3599765 52.8718132,42.3100299 C52.4631998,42.2600163 52.0916168,42.5762666 52.041916,42.9874052 L51.4282478,46.6028913 C51.396156,46.6928086 51.3273831,46.7083583 51.3196511,46.5873416 L51.1257341,42.0584408 C51.1257341,41.6441721 50.7771003,41.1380261 50.3653609,41.1380261 C49.9536215,41.1380261 49.6199001,41.4737762 49.6199001,41.8880449 L49.6052177,46.6224415 C49.6090587,46.6771082 49.5625506,46.6927416 49.5541036,46.6303586 L48.7664344,43.2012683 C48.6932385,42.7936111 48.4299763,42.2328671 48.0248548,42.3064981 C47.6196834,42.3801124 47.3505946,42.7937283 47.4237239,43.2012683 L48.0142795,47.5259155 C48.0148614,47.6029443 47.9892712,47.6468819 47.9528894,47.5482107 L47.0718782,45.1772212 C46.9340497,44.7868713 46.5078275,44.5594168 46.1198659,44.6980253 C45.7319709,44.8367007 45.5291774,45.2889482 45.6669559,45.6792312 L47.211386,50.7584667 C47.2194505,50.7865198 47.227964,50.8143051 47.2367269,50.8419565 C47.6686026,52.180036 48.9057496,53.1380261 50.3653609,53.1380261 C51.2998307,53.1380261 52.2704163,52.8064605 53.0092592,52.2361255 C53.8073305,51.7524939 56.363999,48.9856645 56.363999,48.9856645 C56.7520935,48.5951974 56.6941454,47.9972612 56.3059345,47.6067272 C55.9178399,47.216327 55.3465727,47.1811435 54.9584948,47.5716106 Z" id="iconfont-shou" fill="#FFCFC7" transform="translate(51.125734, 47.138026) scale(1, -1) rotate(44.000000) translate(-51.125734, -47.138026) "></path>
                    <path d="M22.7543392,13.0730385 C21.4492879,15.9068643 20.7248905,19.4136168 19.9677507,20.9096016 C18.2408987,24.3215796 17.3529984,24.8604759 17.3529984,24.8604759" id="Path-12" stroke="#FFBFBA" stroke-width="0.5" stroke-linecap="round" stroke-linejoin="round" transform="translate(20.053669, 18.966757) rotate(7.000000) translate(-20.053669, -18.966757) "></path>
                </g>
                <g id="Rectangle-1456" transform="translate(34.427382, 24.575974) scale(-1, 1) rotate(-20.000000) translate(-34.427382, -24.575974) ">
                    <use fill="black" fill-opacity="1" filter="url(#filter-9)" xlink:href="#path-8"></use>
                    <use fill="#FFBFBA" fill-rule="evenodd" xlink:href="#path-8"></use>
                </g>
                <g id="头" transform="translate(29.718434, 26.425748) rotate(26.000000) translate(-29.718434, -26.425748) translate(16.718434, 3.425748)">
                    <path d="M10,8.83136671 C10,4.50622231 13.5121654,1 17.8249998,1 L17.8249998,1 C22.1466279,1 25.6499996,4.50396035 25.6499996,8.83113908 L25.6499996,10.2335106 L25.6499996,12.6313763 C25.6499996,16.9554964 22.1378342,20.4608884 17.8249998,20.4608884 L17.8249998,20.4608884 C13.5033717,20.4608884 10,16.9591955 10,12.6295217 L10,8.83136671 Z" id="Mask" fill="#FFCFC7"></path>
                    <path d="M8.12616287,6.19131478 L23.3177958,7.57739004 L16.367781,42.5447082 C15.9369056,44.7125533 13.8929387,45.8788479 11.8080253,45.1516434 L3.67107574,42.3135275 C1.58366754,41.5854529 0.305490956,39.2454486 0.812141041,37.1040879 L8.12616287,6.19131478 Z" id="Rectangle-648" fill="url(#linearGradient-10)"></path>
                    <path d="M11.6812421,18.7463612 C16.6800594,18.7937594 23.7179263,10.3822989 24.7383933,6.77450066 C25.7588603,3.1667024 21.6815672,0.0320439684 16.297012,0.0320439684 C10.9124568,0.0320439684 7.85562995,4.59606619 7.85562995,7.99223472 C7.85562995,8.53856826 9.29379502,18.7237237 11.6812421,18.7463612 Z" id="Oval-24" fill="#1D5A90"></path>
                    <path d="M20,16 C21.1045695,16 20.3236227,15.9542812 20.3236227,14.5357995 C20.3236227,13.1173178 21.1045695,11 20,11 C18.8954305,11 18,12.1192881 18,13.5 C18,14.8807119 18.8954305,16 20,16 Z" id="Oval-2" fill="#FFBFBA"></path>
                </g>
            </g>
            <g id="白色背景墙" transform="translate(118.000000, 0.000000)">
                <g id="Rectangle-291">
                    <use fill="black" fill-opacity="1" filter="url(#filter-12)" xlink:href="#path-11"></use>
                    <use fill="#FEFFFF" fill-rule="evenodd" xlink:href="#path-11"></use>
                </g>
                <path d="M217.324845,66.6102349 C210.394808,69.0648935 212.014476,72.5604878 212.005429,77.0179572 L220.421524,77.0179572 C220.432381,75.2992633 219.347234,71.4116926 223.232513,70.4599518 C219.347234,71.4116926 236.356324,66.0319491 236.443181,66.6102349 C236.466705,66.7682757 226.036481,63.9019464 226.036481,63.9019464" id="Combined-Shape" fill-opacity="0.200000018" fill="#BCC4D1"></path>
                <path d="M256.324845,78.6102349 C250.384193,79.4679693 251.014476,84.5604878 251.005429,89.0179572 L259.421524,89.0179572 C259.432381,87.2992633 259.063665,83.5528001 261.920947,82.1573828 C258.035667,83.1091237 275.356324,78.0319491 275.443181,78.6102349 C275.466705,78.7682757 265.036481,75.9019464 265.036481,75.9019464" id="Combined-Shape" fill-opacity="0.200000018" fill="#BCC4D1"></path>
                <g id="Group-21" transform="translate(95.000000, 133.000000)">
                    <polygon id="Rectangle-3" fill="#BDCEEB" opacity="0.300000012" points="3 1 71 21 71 44 3 24"></polygon>
                    <polygon id="Rectangle-3-Copy" fill="#C0DBF8" opacity="0.639458955" points="3.37286438 24 71 43.9434662 71 45.7272129 0 24.8664486"></polygon>
                    <polygon id="Rectangle-4" fill="#CCE7FF" points="0 0 3.4625074 1.0179419 3.4625074 24.0179419 0 24.9070677"></polygon>
                </g>
                <polygon id="Rectangle-1553" fill="#E2E9F5" points="11.9000244 0 347.343201 100 335.267925 103 0 2.84565806"></polygon>
                <polygon id="Combined-Shape" fill="#C3D2EB" points="335 102.866152 347.339966 100 347.341035 503.283905 335 506.174164"></polygon>
                <polygon id="shadow" fill="#E2ECFA" opacity="0.550839552" points="347 432.887124 449.782707 462.038067 347 502.380069"></polygon>
            </g>
            <g id="shadow" transform="translate(211.000000, 226.000000)" fill-opacity="0.200000018">
                <polygon id="Rectangle-6" fill="#BCC4D1" points="28 7.10542736e-15 95 20.0580158 95 44.2405205 28 24.3199844"></polygon>
                <polygon id="Rectangle-6" fill="#BBC4D0" points="28 40 95 60.0580158 95 84.2405205 28 64.3199844"></polygon>
                <polygon id="Rectangle-6" fill="#BCC4D1" points="144 32 211 52.0580158 211 76.2405205 144 56.3199844"></polygon>
                <polygon id="Rectangle-6" fill="#BCC4D1" points="114 33 134 38.0580158 134 53.2405205 114 48.3199844"></polygon>
                <polygon id="Rectangle-6" fill="#BCC4D1" points="114 73 134 78.0580158 134 93.2405205 114 88.3199844"></polygon>
                <polygon id="Rectangle-6" fill="#BCC4D1" points="0 2 18 6.05801582 18 21.2405205 0 15.9945803"></polygon>
                <polygon id="Rectangle-6" fill="#BCC4D1" points="0 42 18 48.0580158 18 61.5267487 0 56.4029055"></polygon>
                <polygon id="Rectangle-6" fill="#BBC4D0" points="145 72 212 92.0580158 212 116.24052 145 96.3199844"></polygon>
                <path d="M55.2,120.028239 C57.107455,120.593277 58,123.206131 58,124.89045 L58,149.089935 C58,150.747262 57.2262211,152.892249 55.2,152.29302 L4.8,137.368085 C2.8907455,136.803046 2,134.190192 2,132.505874 L2,108.306388 C2,106.649061 2.77377892,104.502275 4.8,105.103303 L55.2,120.028239" id="Page-1" fill="#BBC4D0"></path>
                <path d="M121.2,140.028239 C123.107455,140.593277 124,143.206131 124,144.89045 L124,169.089935 C124,170.747262 123.226221,172.892249 121.2,172.29302 L70.8,157.368085 C68.8907455,156.803046 68,154.190192 68,152.505874 L68,128.306388 C68,126.649061 68.7737789,124.502275 70.8,125.103303 L121.2,140.028239" id="Page-1" fill="#BBC4D0"></path>
            </g>
            <g id="checkbox1-1" transform="translate(200.000000, 207.000000)">
                <g id="Page-1">
                    <use fill="black" fill-opacity="1" filter="url(#filter-14)" xlink:href="#path-13"></use>
                    <use fill="#C9E2FB" fill-rule="evenodd" xlink:href="#path-13"></use>
                </g>
                <path d="M16.5564897,28.0604791 L16.5564897,12.161922 C16.5564897,10.5002434 15.6768818,7.92703578 13.7970747,7.37018727 L2.75941494,4.10180569 C0.762563256,3.50948911 0,5.62515879 0,7.25846288 L0,23.1570201 C0,24.8186986 0.879607848,27.3919062 2.75941494,27.9487548 L13.7970747,31.2171363 C15.7939264,31.8094529 16.5564897,29.6955566 16.5564897,28.0604791 L16.5564897,28.0604791 Z" id="Page-1" fill="#DAEDFE"></path>
            </g>
            <g id="checkbox3-1" transform="translate(200.000000, 248.000000)">
                <g id="Page-1">
                    <use fill="black" fill-opacity="1" filter="url(#filter-16)" xlink:href="#path-15"></use>
                    <use fill="#C9E2FB" fill-rule="evenodd" xlink:href="#path-15"></use>
                </g>
                <path d="M16.5564897,28.0604791 L16.5564897,12.161922 C16.5564897,10.5002434 15.6768818,7.92703578 13.7970747,7.37018727 L2.75941494,4.10180569 C0.762563256,3.50948911 0,5.62515879 0,7.25846288 L0,23.1570201 C0,24.8186986 0.879607848,27.3919062 2.75941494,27.9487548 L13.7970747,31.2171363 C15.7939264,31.8094529 16.5564897,29.6955566 16.5564897,28.0604791 L16.5564897,28.0604791 Z" id="Page-1" fill="#D9EDFE"></path>
            </g>
            <g id="confirmbutton" transform="translate(200.000000, 320.000000)">
                <g id="Page-1">
                    <use fill="black" fill-opacity="1" filter="url(#filter-18)" xlink:href="#path-17"></use>
                    <use fill="#0B66B8" fill-rule="evenodd" xlink:href="#path-17"></use>
                </g>
                <path d="M56,22.8904496 L56,47.0899354 C56,48.7472619 55.2262211,50.892249 53.2,50.2930203 L2.8,35.3680845 C0.890745501,34.803046 0,32.1901925 0,30.5058737 L0,6.30638786 C0,4.64906138 0.77377892,2.50227475 2.8,3.10330303 L53.2,18.0282388 C55.107455,18.5932773 56,21.2061308 56,22.8904496 Z" id="Page-1" fill="#157AD6"></path>
            </g>
            <g id="cancelbutton" transform="translate(266.000000, 340.000000)">
                <g id="Page-1">
                    <use fill="black" fill-opacity="1" filter="url(#filter-20)" xlink:href="#path-19"></use>
                    <use fill="#C9E2FB" fill-rule="evenodd" xlink:href="#path-19"></use>
                </g>
                <path d="M53.2,18.0282388 C55.107455,18.5932773 56,21.2061308 56,22.8904496 L56,47.0899354 C56,48.7472619 55.2262211,50.892249 53.2,50.2930203 L2.8,35.3680845 C0.890745501,34.803046 0,32.1901925 0,30.5058737 L0,6.30638786 C0,4.64906138 0.77377892,2.50227475 2.8,3.10330303 L53.2,18.0282388" id="Page-1" fill="#DAEDFE"></path>
            </g>
            <g id="梯子" transform="translate(315.000000, 53.000000)">
                <path d="M54.0848059,44.7867802 C54.0577014,44.6570069 54.0296142,44.5190045 54,44.3713422 L54,42.331311 L23.7883587,33.2354055 C23.6638166,33.2036099 23.5422496,33.1864407 23.4215236,33.1827845 L23.4215238,24 L15.0054286,24 L15.0054286,28.1820398 L15,28.1820398 L15,164.18204 L15.0017558,164.18204 L15.0054286,176.624327 C15.0054286,178.736327 16.4313333,180.711837 18.5267619,181.076408 C18.9357143,181.148245 19.335619,181.155429 19.7481905,181.097959 C21.9141905,180.801633 23.4215238,178.781224 23.4215238,176.609959 L23.4215238,162.752326 L54,171.92102 L54,170.430952 L54.0054286,188.624327 C54.0054286,190.736327 55.4313333,192.711837 57.5267619,193.076408 C57.9357143,193.148245 58.335619,193.155429 58.7481905,193.097959 C60.9141905,192.801633 62.4215238,190.781224 62.4215238,188.609959 L62.4215238,36 L54.0054286,36 L54.0054286,44.0906122 C54.022798,44.3282887 54.0491493,44.5599724 54.0848059,44.7867802 Z M54.5064352,46.3500296 C54.5640446,46.5006767 54.6278024,46.6488138 54.7009815,46.8030432 C54.6307598,46.6529087 54.565952,46.5020457 54.5064352,46.3500296 Z M54.9922085,47.4954176 C54.9639742,47.59234 54.9255935,47.6751334 54.8791834,47.7543362 C54.8828727,47.7501259 54.8865734,47.7459186 54.8902857,47.7417143 C54.9519257,47.6706706 54.9868003,47.5839053 54.9922085,47.4954176 Z M54.0829305,49.176864 C54.0552095,49.2546599 54.0275328,49.3374152 54,49.4256254 L54,50.9156935 L23.4215238,41.7469995 L23.4215238,53.1827873 C23.5422496,53.1864407 23.6638166,53.2036099 23.7883587,53.2354055 L54,62.331311 L54,64.3713422 C54.0124132,64.4332368 54.0245581,64.4934341 54.0364747,64.5520395 C54.0240563,64.4412008 54.0137193,64.3291198 54.0054286,64.2156735 L54,49.4819592 C54.0247611,49.3773085 54.0523454,49.2757146 54.0829305,49.176864 Z M54.4527177,68.3795845 C54.3086063,68.6174614 54.1521077,68.9382999 54,69.4256254 L54,70.9156935 L23.4215238,61.7469995 L23.4215238,73.1827873 C23.5422496,73.1864407 23.6638166,73.2036099 23.7883587,73.2354055 L54,82.331311 L54,84.3713422 C54.0043085,84.3928252 54.0085847,84.4141038 54.0128302,84.4351822 C54.0102039,84.4038025 54.0077369,84.3723209 54.0054286,84.3407347 L54,69.6070204 C54.0984366,69.190987 54.2414915,68.8232622 54.4527177,68.3795845 Z M54.6837009,88.0385738 C54.4882145,88.3061196 54.2387006,88.660872 54,89.4256254 L54,90.9156935 L23.4215238,81.7469995 L23.4215238,93.1827873 C23.5422496,93.1864407 23.6638166,93.2036099 23.7883587,93.2354055 L54,102.331311 L54,104.371342 C54.0018069,104.380352 54.0036081,104.389325 54.0054037,104.398263 L54,89.7320816 C54.1307623,89.1794268 54.340259,88.7120182 54.6837009,88.0385738 Z M54.9366579,107.644507 C54.7519518,108.047312 54.3634419,108.261223 54,109.425625 L54,110.915693 L23.4215238,101.747 L23.4215238,113.182787 C23.5422496,113.186441 23.6638166,113.20361 23.7883587,113.235406 L54,122.331311 L54,124.371342 C54.0017914,124.380274 54.0035772,124.389171 54.0053575,124.398033 L54,109.858939 C54.1610476,109.17649 54.4415238,108.625143 54.9445714,107.658939 C54.9419278,107.654129 54.93929,107.649318 54.9366579,107.644507 Z M54.9042222,127.709721 C54.7091069,128.073845 54.3433659,128.325543 54,129.425625 L54,130.915693 L23.4215238,121.747 L23.4215238,133.182787 C23.5422496,133.186441 23.6638166,133.20361 23.7883587,133.235406 L54,142.331311 L54,144.371342 C54.0017757,144.380196 54.0035459,144.389015 54.0053107,144.3978 L54,129.984 C54.1610476,129.303347 54.4415238,128.752 54.8902857,128.243755 C55.0024762,128.114449 55.026,127.933061 54.9445714,127.784 C54.930969,127.75925 54.9175194,127.734491 54.9042222,127.709721 Z M54.8693965,147.770793 C54.6676741,148.105139 54.3238831,148.387963 54,149.425625 L54,150.915693 L23.4215238,141.747 L23.4215238,154.188114 C23.5422496,154.191768 23.6638166,154.208937 23.7883587,154.240732 L54,163.336638 L54,165.376669 C54.2776696,166.761183 54.421089,167.296461 54.8790159,168.161935 C54.9004369,168.120712 54.9222858,168.078722 54.9445714,168.035918 C54.3908571,167.028408 54.0904762,166.006531 54.0054286,164.842776 L54,150.109061 C54.1610476,149.428408 54.4415238,148.877061 54.9445714,147.910857 C54.9189729,147.864196 54.8939159,147.817513 54.8693965,147.770793 Z" id="Combined-Shape" fill-opacity="0.200000018" fill="#BCC4D1"></path>
                <g id="Stroke-1" transform="translate(38.000000, 12.000000)">
                    <mask id="mask-22" fill="white">
                        <use xlink:href="#path-21"></use>
                    </mask>
                    <g id="Mask">
                        <use fill="black" fill-opacity="1" filter="url(#filter-23)" xlink:href="#path-21"></use>
                        <use fill="#DEEFFF" fill-rule="evenodd" xlink:href="#path-21"></use>
                    </g>
                    <path d="M6.66528399,174.019592 C6.91349293,173.22654 7,171.373639 7,171.373639 L7,16.9987958 C7,13.1334676 10.0413722,9.25563755 13.7926382,8.3375317 L27.3522011,5.01888842 C30.569845,4.23138424 33.1782608,6.28199491 33.1782608,9.58720263 L33.1782608,176.999999 L5.23906441,177 C5.23906441,177 6.3265144,175.101994 6.66528399,174.019592 Z" id="Rectangle-18" fill="#C7DAF5" mask="url(#mask-22)"></path>
                </g>
                <g id="Rectangle-18">
                    <mask id="mask-25" fill="white">
                        <use xlink:href="#path-24"></use>
                    </mask>
                    <use id="Mask" stroke="#89B3EF" stroke-width="0.25" stroke-linecap="round" stroke-linejoin="round" fill="#D9EDFE" xlink:href="#path-24"></use>
                    <path d="M5.42621958,174.169083 C5.67442852,173.376031 5.76093559,171.523129 5.76093559,171.523129 L5.76093559,17.1482867 C5.76093559,13.2829584 8.80230779,9.40512837 12.5535738,8.48702253 L26.1131367,5.16837924 C29.3307806,4.38087506 31.9391964,6.43148573 31.9391964,9.73669345 L31.9391964,177.14949 L4,177.14949 C4,177.14949 5.08744999,175.251485 5.42621958,174.169083 Z" fill="#AFCAF1" opacity="0.550314832" mask="url(#mask-25)"></path>
                </g>
                <g id="Rectangle-19" transform="translate(2.000000, 27.000000)">
                    <mask id="mask-27" fill="white">
                        <use xlink:href="#path-26"></use>
                    </mask>
                    <g id="Mask">
                        <use fill="black" fill-opacity="1" filter="url(#filter-28)" xlink:href="#path-26"></use>
                        <use fill="#CCE7FF" fill-rule="evenodd" xlink:href="#path-26"></use>
                    </g>
                    <polygon fill="#C7DAF5" mask="url(#mask-27)" points="-1 3.74733444 39.3323936 15.4525213 39.3323936 19.3000011 -1 7.38941574"></polygon>
                </g>
                <g id="Rectangle-19" transform="translate(2.000000, 47.000000)">
                    <mask id="mask-30" fill="white">
                        <use xlink:href="#path-29"></use>
                    </mask>
                    <g id="Mask">
                        <use fill="black" fill-opacity="1" filter="url(#filter-31)" xlink:href="#path-29"></use>
                        <use fill="#CCE7FF" fill-rule="evenodd" xlink:href="#path-29"></use>
                    </g>
                    <polygon fill="#C7DAF5" mask="url(#mask-30)" points="0 4 40.3323936 15.7051868 40.3323936 19.5526667 0 7.6420813"></polygon>
                </g>
                <g id="Rectangle-19" transform="translate(2.000000, 67.000000)">
                    <mask id="mask-33" fill="white">
                        <use xlink:href="#path-32"></use>
                    </mask>
                    <g id="Mask">
                        <use fill="black" fill-opacity="1" filter="url(#filter-34)" xlink:href="#path-32"></use>
                        <use fill="#CCE7FF" fill-rule="evenodd" xlink:href="#path-32"></use>
                    </g>
                    <polygon fill="#C7DAF5" mask="url(#mask-33)" points="-2 3 38.3323936 14.7051868 38.3323936 18.5526667 -2 6.6420813"></polygon>
                </g>
                <g id="Rectangle-19" transform="translate(2.000000, 87.000000)">
                    <mask id="mask-36" fill="white">
                        <use xlink:href="#path-35"></use>
                    </mask>
                    <g id="Mask">
                        <use fill="black" fill-opacity="1" filter="url(#filter-37)" xlink:href="#path-35"></use>
                        <use fill="#CCE7FF" fill-rule="evenodd" xlink:href="#path-35"></use>
                    </g>
                    <polygon fill="#C7DAF5" mask="url(#mask-36)" points="-2 3 38.3323936 14.7051868 38.3323936 18.5526667 -2 6.6420813"></polygon>
                </g>
                <g id="Rectangle-19" transform="translate(2.000000, 107.000000)">
                    <mask id="mask-39" fill="white">
                        <use xlink:href="#path-38"></use>
                    </mask>
                    <g id="Mask">
                        <use fill="black" fill-opacity="1" filter="url(#filter-40)" xlink:href="#path-38"></use>
                        <use fill="#CCE7FF" fill-rule="evenodd" xlink:href="#path-38"></use>
                    </g>
                    <polygon fill="#C7DAF5" mask="url(#mask-39)" points="-2 3 38.3323936 14.7051868 38.3323936 18.5526667 -2 6.6420813"></polygon>
                </g>
                <g id="Rectangle-19" transform="translate(2.000000, 127.000000)">
                    <mask id="mask-42" fill="white">
                        <use xlink:href="#path-41"></use>
                    </mask>
                    <g id="Mask">
                        <use fill="black" fill-opacity="1" filter="url(#filter-43)" xlink:href="#path-41"></use>
                        <use fill="#CCE7FF" fill-rule="evenodd" xlink:href="#path-41"></use>
                    </g>
                    <polygon fill="#C7DAF5" mask="url(#mask-42)" points="-2 3 38.3323936 14.7051868 38.3323936 18.5526667 -2 6.6420813"></polygon>
                </g>
                <g id="Rectangle-19" transform="translate(2.000000, 148.000000)">
                    <mask id="mask-45" fill="white">
                        <use xlink:href="#path-44"></use>
                    </mask>
                    <g id="Mask">
                        <use fill="black" fill-opacity="1" filter="url(#filter-46)" xlink:href="#path-44"></use>
                        <use fill="#CCE7FF" fill-rule="evenodd" xlink:href="#path-44"></use>
                    </g>
                    <polygon fill="#C7DAF5" mask="url(#mask-45)" points="-2 3 38.3323936 14.7051868 38.3323936 18.5526667 -2 6.6420813"></polygon>
                </g>
            </g>
            <g id="checkbox1" transform="translate(226.000000, 215.000000)">
                <g id="Rectangle-3">
                    <use fill="black" fill-opacity="1" filter="url(#filter-48)" xlink:href="#path-47"></use>
                    <use fill="#AFCAF1" fill-rule="evenodd" xlink:href="#path-47"></use>
                </g>
                <polygon id="Rectangle-6" fill="#DAEDFE" points="0 2.97608068 67.157901 22.9491399 67.157901 47.1316446 0 27.2960651"></polygon>
                <g id="Rectangle-6">
                    <use fill="black" fill-opacity="1" filter="url(#filter-50)" xlink:href="#path-49"></use>
                    <use fill="#C9E2FB" fill-rule="evenodd" xlink:href="#path-49"></use>
                </g>
            </g>
            <g id="checkbox3" transform="translate(226.000000, 255.000000)">
                <g id="Rectangle-3">
                    <use fill="black" fill-opacity="1" filter="url(#filter-52)" xlink:href="#path-51"></use>
                    <use fill="#AFCAF1" fill-rule="evenodd" xlink:href="#path-51"></use>
                </g>
                <polygon id="Rectangle-6" fill="#DAEDFE" points="0 2.97608068 67.157901 22.9491399 67.157901 47.1316446 0 27.2960651"></polygon>
                <g id="Rectangle-6">
                    <use fill="black" fill-opacity="1" filter="url(#filter-54)" xlink:href="#path-53"></use>
                    <use fill="#C9E2FB" fill-rule="evenodd" xlink:href="#path-53"></use>
                </g>
            </g>
            <g id="checkbox2-1" transform="translate(315.000000, 241.000000)">
                <g id="Page-1">
                    <use fill="black" fill-opacity="1" filter="url(#filter-56)" xlink:href="#path-55"></use>
                    <use fill="#C9E2FB" fill-rule="evenodd" xlink:href="#path-55"></use>
                </g>
                <path d="M16.5564897,28.0604791 L16.5564897,12.161922 C16.5564897,10.5002434 15.6768818,7.92703578 13.7970747,7.37018727 L2.75941494,4.10180569 C0.762563256,3.50948911 0,5.62515879 0,7.25846288 L0,23.1570201 C0,24.8186986 0.879607848,27.3919062 2.75941494,27.9487548 L13.7970747,31.2171363 C15.7939264,31.8094529 16.5564897,29.6955566 16.5564897,28.0604791 L16.5564897,28.0604791 Z" id="Page-1" fill="#DAEDFE"></path>
            </g>
            <g id="checked·" transform="translate(197.000000, 218.000000)">
                <polygon id="Rectangle-1652" fill="#60ACF3" transform="translate(5.036130, 5.821554) rotate(54.000000) translate(-5.036130, -5.821554) " points="3.07150394 5.54011888 8.20628364 5.13832831 8.20628364 6.22543373 4.88010346 6.38887731 1.86597545 6.50478"></polygon>
                <path d="M4.24655456,10.2765387 L0.490921008,5.4976418 L2.64581298,3.64312744 L6.56137826,8.6085276 L18.3494265,0.114318847 L20.5877398,3.51043594 L6.79989774,13.7333834 L4.24440697,10.2780862 L4.24655456,10.2765387 Z" id="Combined-Shape" fill="#076CC8"></path>
                <polygon id="Rectangle-1654" fill="#0B4F8D" points="20.5585902 3.48939907 21.7298006 3.48939907 8.38340048 13.2209998 6.85243598 13.6752435"></polygon>
                <path d="M18.3115339,2.45578123 L21.6731061,0.125966083 L21.7389422,1.33108044 C21.7389422,1.33108044 19.5200657,2.79478353 18.3115339,3.52434255 L18.3115339,2.45578123 Z" id="Rectangle-1652" fill="#60ACF3" transform="translate(20.025238, 1.825154) rotate(90.000000) translate(-20.025238, -1.825154) "></path>
            </g>
            <g id="checkbox4-1" transform="translate(315.000000, 280.000000)">
                <g id="Page-1">
                    <use fill="black" fill-opacity="1" filter="url(#filter-58)" xlink:href="#path-57"></use>
                    <use fill="#C9E2FB" fill-rule="evenodd" xlink:href="#path-57"></use>
                </g>
                <path d="M16.5564897,28.0604791 L16.5564897,12.161922 C16.5564897,10.5002434 15.6768818,7.92703578 13.7970747,7.37018727 L2.75941494,4.10180569 C0.762563256,3.50948911 0,5.62515879 0,7.25846288 L0,23.1570201 C0,24.8186986 0.879607848,27.3919062 2.75941494,27.9487548 L13.7970747,31.2171363 C15.7939264,31.8094529 16.5564897,29.6955566 16.5564897,28.0604791 L16.5564897,28.0604791 Z" id="Page-1" fill="#DAEDFE"></path>
            </g>
            <g id="checkbox2" transform="translate(342.000000, 247.000000)">
                <g id="Rectangle-3">
                    <use fill="black" fill-opacity="1" filter="url(#filter-60)" xlink:href="#path-59"></use>
                    <use fill="#AFCAF1" fill-rule="evenodd" xlink:href="#path-59"></use>
                </g>
                <polygon id="Rectangle-6" fill="#DAEDFE" points="0 2.97608068 67.157901 22.9491399 67.157901 47.1316446 0 27.2960651"></polygon>
                <g id="Rectangle-6">
                    <use fill="black" fill-opacity="1" filter="url(#filter-62)" xlink:href="#path-61"></use>
                    <use fill="#C9E2FB" fill-rule="evenodd" xlink:href="#path-61"></use>
                </g>
            </g>
            <g id="checkbox4" transform="translate(343.000000, 287.000000)">
                <g id="Rectangle-3">
                    <use fill="black" fill-opacity="1" filter="url(#filter-64)" xlink:href="#path-63"></use>
                    <use fill="#AFCAF1" fill-rule="evenodd" xlink:href="#path-63"></use>
                </g>
                <polygon id="Rectangle-6" fill="#DAEDFE" points="0 2.97608068 67.157901 22.9491399 67.157901 47.1316446 0 27.2960651"></polygon>
                <g id="Rectangle-6">
                    <use fill="black" fill-opacity="1" filter="url(#filter-66)" xlink:href="#path-65"></use>
                    <use fill="#C9E2FB" fill-rule="evenodd" xlink:href="#path-65"></use>
                </g>
            </g>
            <g id="title" transform="translate(198.000000, 71.000000)">
                <g id="Group">
                    <polygon id="Rectangle-6" fill-opacity="0.200000018" fill="#BCC4D1" points="12 11 107.310913 39.2488499 107.310913 71.595787 12 43.3839226"></polygon>
                    <polygon id="Rectangle-3" fill="#AFCAF1" points="95 31.1094727 107.374659 28 107.374659 60.4360677 95 63.4540845"></polygon>
                    <polygon id="Rectangle-6" fill="#DAEDFE" points="0 3 95.3109131 31.2488499 95.3109131 63.595787 0 35.3839226"></polygon>
                    <polygon id="Rectangle-6" fill="#C9E1FB" points="12.370682 0 107 27.9739961 94.6952441 31 0 3.02147635"></polygon>
                </g>
            </g>
            <g id="sidebar" transform="translate(93.000000, 2.000000)">
                <g id="Path-22">
                    <use fill="black" fill-opacity="1" filter="url(#filter-68)" xlink:href="#path-67"></use>
                    <use fill="#0B4F8D" fill-rule="evenodd" xlink:href="#path-67"></use>
                </g>
                <path d="M12,3.81983503 L74.0416107,22.0342636 L74.0416107,426.169933 L12,407.258429 L12,3.81983503 Z M12,52 L18,54 L18,262 L12,261.898651 L12,52 Z" id="Combined-Shape" fill="#076CC8"></path>
                <polygon id="Rectangle-8" fill="#0660B3" points="15.1800817 53.0544141 18 54 18 263 15.1800817 262.147026"></polygon>
                <polygon id="Rectangle-3" fill="#0B4F8D" points="15.375 261 17.9528975 261.998988 17.9528975 263.729858 12 261.875"></polygon>
                <polygon id="Rectangle-3" fill="#C0DCF9" points="0.016992598 211.191724 9.40315488 209 15.1196044 210.629393 5.82774904 212.878718"></polygon>
                <polygon id="Rectangle-7" fill="#DAEDFE" points="0 211.185312 6 212.854036 6 261.264052 0 259.560964"></polygon>
                <polyline id="Rectangle-7" fill="#AFCAF1" points="15.1651854 210.60354 5.87419034 212.834552 5.7527486 261.297634 15.1651854 258.978624 15.1651854 210.60354"></polyline>
                <path d="M15,212.736487 C16.264979,212.752321 17.1587333,213.134102 18.0419314,214.040172 L18.0419314,213.797381 L18.0419314,226.281791 L18.0419314,225.46017 C17.2467012,226.682924 16.2948881,227.550288 15,228.222363" id="Page-1" fill="#CCE7FF"></path>
                <path d="M15,240.736487 C16.264979,240.752321 17.1587333,241.134102 18.0419314,242.040172 L18.0419314,241.797381 L18.0419314,254.281791 L18.0419314,253.46017 C17.2467012,254.682924 16.2948881,255.550288 15,256.222363" id="Page-1" fill="#CCE7FF"></path>
                <polygon id="Rectangle-3" fill="#60ACF3" points="25.0292358 0.841064453 86.2996979 19.0151405 74.0416107 22.1046448 12 3.79017687"></polygon>
                <g id="icon3" transform="translate(33.000000, 225.000000)">
                    <path d="M9.18493393,0.0443408139 C6.15016629,0.492401472 3.73393728,3.38098505 2.44598203,6.76562457 C0.474055685,11.9476834 0.968307898,16.8168137 1.34888466,21.5209195 C1.96400292,29.148681 7.51800337,39.667213 16.1503104,42.2235678 C21.0122524,43.6632691 22.8779302,40.5685516 25.2439966,36.4190848 C27.6720173,32.1619354 27.6505094,28.3533338 27.2714078,23.649228 C26.6548144,16.0199915 22.3451313,3.27788498 13.7128242,0.721530203 C12.279888,0.297214142 10.4531232,-0.142897818 9.18493393,0.0443408139 Z" id="Page-1-Copy-3" fill="#03437E" opacity="0.270000011"></path>
                    <path d="M10.8090772,0.0196748547 C-1.39550678,5.4102888 2.02272427,29.7952213 12.5781463,38.0567878 C14.9287853,39.8965967 17.6382768,42.197747 20.6031094,42.050499 C18.7107461,42.8983063 18.5096436,42.7489281 14.5053225,41.5383186 C12.6629209,40.9813132 10.9920776,40.0197943 9.49551677,38.775724 C3.80358874,34.044103 0.632722716,25.2252658 0.132785637,19.0291617 C-0.25713421,14.2052451 0.11132216,10.0216555 2.60108559,5.65741503 C4.01379078,3.1792618 5.91131063,1.1172399 8.31459427,0.283046871 C9.17926978,-0.0170867751 10.1934691,0.0141976558 11.1560701,0" id="Page-1" fill="#0B4F8D"></path>
                </g>
                <g id="icon1" transform="translate(17.000000, 61.000000)">
                    <g id="Group-5">
                        <g id="Stroke-3">
                            <use fill="black" fill-opacity="1" filter="url(#filter-70)" xlink:href="#path-69"></use>
                            <use fill="#A3C6EC" fill-rule="evenodd" xlink:href="#path-69"></use>
                        </g>
                        <path d="M3.12981112,9.80379482 C0.134395046,15.0557819 -0.309639901,20.0893912 0.15987246,25.8927824 C0.918735464,35.3030476 6.38000135,49.3101664 17.0295608,52.4639064 C23.0276722,54.2400462 28.0103267,51.2992246 30.9293105,46.180084 C33.9247266,40.9280968 34.3687615,35.8944876 33.901069,30.0910964 C33.1403862,20.6790114 27.6791203,6.6737124 17.0295608,3.51997239 C11.0314494,1.74383261 6.04879495,4.68465422 3.12981112,9.80379482 Z" id="Page-1" fill="#E2E9F7"></path>
                    </g>
                </g>
            </g>
            <g id="icon2" transform="translate(110.000000, 144.000000)">
                <g id="Group-5">
                    <g id="Stroke-3">
                        <use fill="black" fill-opacity="1" filter="url(#filter-72)" xlink:href="#path-71"></use>
                        <use fill="#A3C6EC" fill-rule="evenodd" xlink:href="#path-71"></use>
                    </g>
                    <path d="M3.12981112,9.80379482 C0.134395046,15.0557819 -0.309639901,20.0893912 0.15987246,25.8927824 C0.918735464,35.3030476 6.38000135,49.3101664 17.0295608,52.4639064 C23.0276722,54.2400462 28.0103267,51.2992246 30.9293105,46.180084 C33.9247266,40.9280968 34.3687615,35.8944876 33.901069,30.0910964 C33.1403862,20.6790114 27.6791203,6.6737124 17.0295608,3.51997239 C11.0314494,1.74383261 6.04879495,4.68465422 3.12981112,9.80379482 Z" id="Page-1" fill="#E2E9F7"></path>
                </g>
            </g>
            <g id="man" transform="translate(281.000000, 104.000000)">
                <g id="鞋子" transform="translate(21.000000, 124.000000)">
                    <path d="M22.7742091,2.98024586 L28.7742091,2.98024586 L28.7742091,10.0645731 C28.7742091,10.0645731 28.0091137,11.5808013 25.7742091,11.5808013 C23.5393046,11.5808013 22.7742091,10.0645731 22.7742091,10.0645731 L22.7742091,2.98024586 Z" id="Rectangle-17" fill="#FFACAD" transform="translate(25.774209, 7.280524) rotate(10.000000) translate(-25.774209, -7.280524) "></path>
                    <path d="M3.77420915,0.98024586 L9.77420915,0.98024586 L9.77420915,8.06457308 C9.77420915,8.06457308 9.00911373,9.58080128 6.77420915,9.58080128 C4.53930456,9.58080128 3.77420915,8.06457308 3.77420915,8.06457308 L3.77420915,0.98024586 Z" id="Rectangle-17" fill="#FFACAD" transform="translate(6.774209, 5.280524) rotate(10.000000) translate(-6.774209, -5.280524) "></path>
                    <path d="M23.7700189,18.4959565 C23.7261817,19.0499152 24.0706124,19.7164204 24.5812584,19.9419643 C24.5812584,19.9419643 27.0658469,21.8058508 29.3045013,18.2928854 C30.4203608,16.5418443 32.8516021,16.0122218 34.314365,15.1440376 C35.7862194,14.2704574 36.2870883,13.0605251 36.5887384,12.0074325 C37.1901754,9.90775222 34.9330221,9.96069158 34.9330221,9.96069158 L30.1129777,11.0236574 C30.1129777,11.0236574 30.1948285,11.5007361 30.3320226,12.3101532 C30.3842407,12.6182289 29.8680036,13.2673156 29.0084362,13.8393364 C27.6370402,14.7519664 25.59562,14.1544363 25.59562,14.1544363 C25.59562,14.1544363 25.0759987,14.6130603 24.7061251,14.2128342 C24.3362515,13.812608 24.102315,14.2968164 24.102315,14.2968164 L23.7700189,18.4959565 Z" id="Path-3" fill="#C7DAF5" transform="translate(30.228455, 15.198282) rotate(19.000000) translate(-30.228455, -15.198282) "></path>
                    <path d="M1.70635126,14.4875264 C1.69860524,15.0405926 2.07229351,15.7063744 2.58293949,15.9319182 C2.58293949,15.9319182 5.06752802,17.7958048 7.30618239,14.2828394 C8.42204189,12.5317983 10.8532832,12.0021758 12.3160461,11.1339915 C13.7879005,10.2604113 14.2887695,9.05047906 14.5904196,7.99738648 C15.1918566,5.89770617 12.9347032,5.95064553 12.9347032,5.95064553 L8.10114981,7.16653886 C8.10114981,7.16653886 8.39708186,9.17988268 6.83873774,9.93129268 C5.28039361,10.6827027 3.530486,10.1119463 3.530486,10.1119463 C3.530486,10.1119463 2.69022362,9.56452146 2.45515389,9.34125176 C2.22008417,9.11798206 2.45515389,9.34125176 2.45515389,9.34125176 C2.08140847,9.34125177 1.77223568,9.78337845 1.76440251,10.3426667 L1.70635126,14.4875264 Z" id="Path-3" fill="#3E0F3F" transform="translate(8.199279, 11.188236) rotate(19.000000) translate(-8.199279, -11.188236) "></path>
                    <path d="M20.6927047,16.4798039 C20.6927047,17.0358848 21.0726724,17.7041105 21.5833183,17.9296544 C21.5833183,17.9296544 24.0679069,19.7935409 26.3065612,16.2805755 C27.4224207,14.5295344 29.853662,13.9999119 31.316425,13.1317277 C32.7882793,12.2581475 33.2891483,11.0482152 33.5907984,9.99512261 C34.1922354,7.8954423 31.9350821,7.94838166 31.9350821,7.94838166 L27.1150377,9.01134748 C27.1150377,9.01134748 27.1968885,9.48842615 27.3340826,10.2978433 C27.3863007,10.605919 26.8700635,11.2550057 26.0104961,11.8270264 C24.6391001,12.7396564 22.59768,12.1421264 22.59768,12.1421264 C22.59768,12.1421264 21.7524905,11.6552318 21.3826169,11.2550057 C21.0127434,10.8547795 20.6927047,11.5511954 20.6927047,11.5511954 L20.6927047,16.4798039 Z" id="Path-3" fill="#613F62" transform="translate(27.192705, 13.185972) rotate(19.000000) translate(-27.192705, -13.185972) "></path>
                </g>
                <g id="下半身" transform="translate(24.000000, 61.000000)">
                    <path d="M3.97348091,35.8497366 C2.34956432,26.400557 0,7.00925805 0,7.00925805 L13.0321022,11.6503649 C13.0321022,11.6503649 13.7391421,26.8058403 14.1860792,35.2425241 C14.734544,45.595712 17.1722848,65.7984672 17.1722848,65.7984672 C17.1722848,65.7984672 16.4231357,68.2344309 13.444825,68.2344309 C11.2466274,68.2344309 9.91577321,66.9074514 9.36940221,66.2122961 C9.17550188,65.965594 9.08040349,65.7984672 9.08040349,65.7984672 C9.08040349,65.7984672 5.71789227,46.0000461 3.97348091,35.8497366 Z" id="Rectangle-16" fill="#004183" transform="translate(8.586142, 37.621844) scale(-1, 1) translate(-8.586142, -37.621844) "></path>
                    <path d="M1,5.10374928 C1,1.05689979 2.75070465,0 2.75070465,0 L32.6036467,8.3949317 L31.8340797,20.4593716 L4,11.7047234 C4,11.7047234 1,9.15059876 1,5.10374928 Z" id="Rectangle-14-Copy" fill="#095DBF"></path>
                    <path d="M14.9038787,6 C14.9038787,6 13.8032567,8.02548415 14.0310389,10.2576733 C14.1250765,11.1792104 14.4455233,12.1359777 15.1632932,13" id="Path-2" stroke="#267BDE" stroke-width="0.5" stroke-linecap="round" stroke-linejoin="round"></path>
                    <g id="Path-10" transform="translate(17.000000, 7.000000)">
                        <mask id="mask-74" fill="white">
                            <use xlink:href="#path-73"></use>
                        </mask>
                        <use id="Mask" fill="#095DBF" transform="translate(8.178492, 30.810524) scale(-1, 1) translate(-8.178492, -30.810524) " xlink:href="#path-73"></use>
                        <polygon id="Rectangle-5" fill="#0A57B2" mask="url(#mask-74)" points="13.5496529 28.1789711 13.5496529 -1 16.4824928 -0.0527771115 16.4824931 28.7343892 10.4490563 60.4088554 7.75643292 62.2039375"></polygon>
                        <polyline stroke="#267BDE" stroke-width="0.5" stroke-linecap="round" stroke-linejoin="round" mask="url(#mask-74)" points="13.4135465 0.875698903 13.597349 28.1937288 7.48305925 61.9805001"></polyline>
                    </g>
                </g>
                <g id="上半身" transform="translate(0.000000, 21.000000)">
                    <path d="M12.0410227,37.9552057 L22.59781,27.4988081 L26.7440413,11 C26.7440413,11 27.3791216,12.3117836 31.1281182,12.3117836 C34.8771147,12.3117836 34.2606313,12.3117836 34.2606313,12.3117836 L28.6320548,29.3399718 C28.2844569,30.3915632 27.2684431,31.7562232 26.3617752,32.3908971 L14.0131704,41.035008 C14.02288,41.7415503 13.8050846,42.4449476 13.3784498,43.0297345 C13.3779697,43.0304122 13.3776123,43.0311446 13.377078,43.0318616 L13.3705205,43.0406338 C13.3533007,43.0639762 13.3358261,43.0871956 13.3178708,43.1102091 L10.1164762,47.345179 C9.88171485,47.6860467 9.39663987,47.7878077 9.05645015,47.5555054 C8.7162755,47.32311 8.64976284,46.8445946 8.88454903,46.5036471 L10.2848744,44.3972614 C10.3433165,44.3098304 10.2927286,44.3149533 10.230753,44.3607006 L7.0791598,47.3804338 C6.79243741,47.6791427 6.29964865,47.7045626 6.00193968,47.4200415 C5.70424649,47.1355705 5.71437052,46.6489148 6.0011486,46.3500832 L8.60114638,43.6413518 C8.6466503,43.5978502 8.60666579,43.5694134 8.56469718,43.6046532 L4.72585979,46.3755833 C4.39070937,46.6190844 3.92292529,46.5464471 3.68091095,46.2133429 C3.43889662,45.8802388 3.51436766,45.4129035 3.84951808,45.1694025 L7.52858211,42.2382786 C7.62194192,42.1608915 7.56893825,42.1143929 7.4773306,42.1412822 L4.19163573,43.7699435 C3.82980422,43.971396 3.35554137,43.8566662 3.15582627,43.4966939 C2.95597881,43.1366533 3.10634789,42.6676409 3.46822379,42.4661355 L7.51922159,40.2105611 C7.79441733,40.0571932 8.2245189,39.8104558 8.27465218,39.6075921 C8.35045361,39.3014621 8.1454667,39.0203185 7.74091008,38.9572784 L6.18601378,38.7158534 C5.6420128,38.6314026 5.33469446,38.1485574 5.42241854,37.6051108 C5.51018254,37.0614914 5.95986202,36.6631523 6.50387277,36.7476166 C6.50387277,36.7476166 10.2450569,37.1897033 11.1053243,37.5510707 L11.1054176,37.5510851 C11.4283192,37.6457185 11.7438189,37.7829579 12.0410227,37.9552057 Z" id="Combined-Shape" fill="#F0F3F6"></path>
                    <path d="M9.0410227,32.9552057 L19.59781,22.4988081 L23.7440413,6 C23.7440413,6 24.3791216,7.31178355 28.1281182,7.31178355 C31.8771147,7.31178355 31.2606313,7.31178355 31.2606313,7.31178355 L25.6320548,24.3399718 C25.2844569,25.3915632 24.2684431,26.7562232 23.3617752,27.3908971 L11.0131704,36.035008 C11.02288,36.7415503 10.8050846,37.4449476 10.3784498,38.0297345 C10.3779697,38.0304122 10.3776123,38.0311446 10.377078,38.0318616 L10.3705205,38.0406338 C10.3533007,38.0639762 10.3358261,38.0871956 10.3178708,38.1102091 L7.11647619,42.345179 C6.88171485,42.6860467 6.39663987,42.7878077 6.05645015,42.5555054 C5.7162755,42.32311 5.64976284,41.8445946 5.88454903,41.5036471 L7.28487442,39.3972614 C7.34331648,39.3098304 7.29272862,39.3149533 7.23075303,39.3607006 L4.0791598,42.3804338 C3.79243741,42.6791427 3.29964865,42.7045626 3.00193968,42.4200415 C2.70424649,42.1355705 2.71437052,41.6489148 3.0011486,41.3500832 L5.60114638,38.6413518 C5.6466503,38.5978502 5.60666579,38.5694134 5.56469718,38.6046532 L1.72585979,41.3755833 C1.39070937,41.6190844 0.922925291,41.5464471 0.680910954,41.2133429 C0.438896616,40.8802388 0.51436766,40.4129035 0.849518076,40.1694025 L4.52858211,37.2382786 C4.62194192,37.1608915 4.56893825,37.1143929 4.4773306,37.1412822 L1.19163573,38.7699435 C0.829804215,38.971396 0.35554137,38.8566662 0.155826269,38.4966939 C-0.0440211873,38.1366533 0.106347885,37.6676409 0.468223791,37.4661355 L4.51922159,35.2105611 C4.79441733,35.0571932 5.2245189,34.8104558 5.27465218,34.6075921 C5.35045361,34.3014621 5.1454667,34.0203185 4.74091008,33.9572784 L3.18601378,33.7158534 C2.6420128,33.6314026 2.33469446,33.1485574 2.42241854,32.6051108 C2.51018254,32.0614914 2.95986202,31.6631523 3.50387277,31.7476166 C3.50387277,31.7476166 7.24505686,32.1897033 8.10532429,32.5510707 L8.10541755,32.5510851 C8.42831921,32.6457185 8.74381894,32.7829579 9.0410227,32.9552057 Z" id="Combined-Shape" fill="#FFADAE"></path>
                    <path d="M79.4187854,11.1021761 L70.8109823,17.3392678 L55.6891321,8.07840842 C55.6891321,8.07840842 55.6398194,8.35807478 54.988813,12.0501156 C54.3378066,15.7421565 53,15.7749743 53,15.7749743 L69.7515272,24.0468342 C70.749787,24.5397723 72.2097055,24.3308544 73.0275442,23.5877077 L82.2493049,15.2081571 C82.2822299,15.2211727 82.3013513,15.2275772 82.3040585,15.2271986 L85.023687,14.2190485 C85.9534804,13.6023712 85.9548168,12.5081181 86.0063196,12.4893921 C86.0063196,12.4893921 86.4107684,10.4982602 85.4152023,9.19157971 C84.4196362,7.88489923 83.7525736,8.03309232 83.7525736,8.03309232 C83.7111586,8.05784814 82.4416163,8.74158976 82.2716101,8.69245976 C81.968593,8.60504069 82.1239261,8.41965901 82.2716101,8.03778267 L82.6614408,7.60665972 C82.8603047,7.09331563 82.8483335,6.52143335 82.333833,6.32568137 C81.8191628,6.12987753 80.7103216,7.10907907 79.9877071,7.97895643 C79.456529,8.61838422 79.5793333,9.95405986 79.5296549,10.346326 C79.4699828,10.5917504 79.433186,10.8455661 79.4187854,11.1021761 Z" id="Combined-Shape" fill="#FFACAD"></path>
                    <g id="Rectangle-15" transform="translate(26.000000, 35.000000)">
                        <mask id="mask-76" fill="white">
                            <use xlink:href="#path-75"></use>
                        </mask>
                        <g id="Mask">
                            <use fill="black" fill-opacity="1" filter="url(#filter-77)" xlink:href="#path-75"></use>
                            <use fill="#FEFFFF" fill-rule="evenodd" xlink:href="#path-75"></use>
                        </g>
                        <rect fill="#EAF1F1" mask="url(#mask-76)" x="28" y="7" width="4" height="8"></rect>
                    </g>
                    <g id="Rectangle-25" transform="translate(20.000000, 0.000000)">
                        <mask id="mask-79" fill="white">
                            <use xlink:href="#path-78"></use>
                        </mask>
                        <use id="Mask" fill="#7C8DA2" xlink:href="#path-78"></use>
                        <g id="Group-14" mask="url(#mask-79)" fill="#587397" opacity="0.392140858">
                            <g transform="translate(18.762683, 18.934256) rotate(9.000000) translate(-18.762683, -18.934256) translate(10.762683, 14.934256)">
                                <polygon id="Fill-1" points="12.43302 7.17390524 15.8898921 3.70061315 12.43302 0.227272727 11.3958333 1.26944564 13.8157753 3.70080649 11.3958333 6.13186122"></polygon>
                                <polygon id="Fill-2" points="3.45687208 0.227272727 3.69482223e-13 3.7005487 3.45687208 7.17382468 4.49405879 6.13171621 2.07411684 3.70035536 4.49405879 1.26936508"></polygon>
                                <polygon id="Fill-3" points="10.2916667 0.205618247 6.98740672 7.84705418 5.79166667 7.64150038 9.09595216 -3.49942297e-13"></polygon>
                            </g>
                        </g>
                        <path d="M34,15.0118886 C34,15.0118886 34.9849597,17.2821649 35.4304006,17.6551811 C35.9097756,18.0566141 36.7744477,18.416808 36.7744477,18.416808 L38,46 L34,46 L34,15.0118886 Z" fill="#6B819D" mask="url(#mask-79)"></path>
                    </g>
                    <path d="M54.3086113,6.80317972 C54.3086113,6.80317972 56.1500559,6.14752551 57.8128552,7.37989855 C59.4756544,8.6122716 65.0966039,12.5232687 65.0966039,12.5232687 C65.5498581,12.8391496 65.7408275,13.5048742 65.5216636,14.0136474 L62.5495905,20.9131017 C62.3310903,21.4203343 61.7718058,21.5928762 61.3029496,21.300081 L57.0695788,18.6563909 L54.3086113,15.089455 L54.3086113,6.80317972 Z" id="Path-9" fill="#7C8DA2"></path>
                </g>
                <g id="Rectangle-1456" transform="translate(40.711648, 20.643433) scale(-1, 1) translate(-40.711648, -20.643433) ">
                    <use fill="black" fill-opacity="1" filter="url(#filter-81)" xlink:href="#path-80"></use>
                    <use fill="#FF9EA2" fill-rule="evenodd" xlink:href="#path-80"></use>
                </g>
                <g id="头" transform="translate(38.988985, 11.083815) scale(-1, 1) translate(-38.988985, -11.083815) translate(28.988985, 0.583815)">
                    <path d="M1,8.83136671 C1,4.50622231 4.51216539,1 8.82499981,1 L8.82499981,1 C13.1466279,1 16.6499996,4.50396035 16.6499996,8.83113908 L16.6499996,10.2335106 L16.6499996,12.6313763 C16.6499996,16.9554964 13.1378342,20.4608884 8.82499981,20.4608884 L8.82499981,20.4608884 C4.50337175,20.4608884 1,16.9591955 1,12.6295217 L1,8.83136671 Z" id="Mask" fill="#FFACAD"></path>
                    <g id="眼镜" transform="translate(15.039748, 10.695366) rotate(-23.000000) translate(-15.039748, -10.695366) translate(11.039748, 8.195366)" stroke="#98B1CA" stroke-width="0.5">
                        <path d="M6.58972497,-7.54951657e-13 C6.58972497,-7.54951657e-13 7.71474038,0.581779033 7.71474041,2.39983903 C7.71474045,4.21789903 6.41996411,5.17627659 4.9640618,4.30360794" id="Path-5"></path>
                        <path d="M0.60663877,1.9140498 L7.61773793,2.50485608" id="Path-6" stroke-linecap="round" stroke-linejoin="bevel"></path>
                    </g>
                    <path d="M1,6.19138193 C1.30101,6.19138181 3.20160069,3.44330858 3.20160069,3.44330858 L2.23836866,3.20250057 L3.5026107,2.84128856 C3.5026107,2.84128856 7.11919843,-0.530023559 11.2084669,0.0719964876 C15.2977354,0.674016534 16.5619769,3.68411658 16.5619769,3.68411658 L16.7425829,2.48007655 C16.7425829,2.48007655 17.4650072,4.34633848 17.1037949,5.30957063 C16.9321934,5.76717453 16.3872486,6.56759978 14.8996878,7.02071905 C13.2560112,7.52139203 10.4834557,7.58324242 10.4834557,7.58324242 L10.4834561,5.0617077 C10.4834561,5.0617077 9.3498295,6.00075683 7.30296135,6.42217064 C5.25609319,6.84358445 2.23836868,6.6269598 2.23836868,6.6269598" id="Path-7" fill="#375576" transform="translate(9.102467, 3.791621) scale(-1, 1) translate(-9.102467, -3.791621) "></path>
                    <path d="M7.81226324,4.37166433 C8.92609023,4.60040207 11.3212223,6.31943394 11.3212223,6.31943394 L10.878032,11.1401147 L10.878032,17.2920207 L6.31204298,18.5299749 L5.8991225,17.4749221 L5.8991225,18.5299749 L4.32666901,18.981302 C4.32666901,18.981302 2.38678349,18.2311575 1.27866581,15.3333825 C0.42531037,13.1018217 0.218495667,8.95274544 0.826813149,6.85742976 C2.22505629,2.04125913 1.83665543,4.37166432 1.83665543,4.37166432 C1.83665543,4.37166432 5.76456794,3.95114553 7.81226324,4.37166433 Z" id="Path-8" fill="#375576"></path>
                    <path d="M11,16 C12.1045695,16 11.3236227,15.9542812 11.3236227,14.5357995 C11.3236227,13.1173178 12.1045695,11 11,11 C9.8954305,11 9,12.1192881 9,13.5 C9,14.8807119 9.8954305,16 11,16 Z" id="Oval-2" fill="#FF9EA2"></path>
                </g>
            </g>
        </g>
    </g>
</svg>