<?xml version="1.0" encoding="UTF-8"?>
<svg width="32px" height="32px" viewBox="0 0 32 32" version="1.1" xmlns="http://www.w3.org/2000/svg" xmlns:xlink="http://www.w3.org/1999/xlink">
    <title>品牌标识-钉钉</title>
    <g id="页面-1" stroke="none" stroke-width="1" fill="none" fill-rule="evenodd">
        <g id="首页" transform="translate(-1067.000000, -3078.000000)" fill="#9AA6C3" fill-rule="nonzero">
            <g id="编组-21" transform="translate(389.000000, 2919.000000)">
                <g id="编组-24" transform="translate(634.000000, 0.000000)">
                    <g id="品牌标识-钉钉" transform="translate(44.000000, 159.000000)">
                        <path d="M16,0 C7.16347056,0 0,7.16343498 0,16 C0,24.836565 7.16347056,32 16,32 C24.8365294,32 32,24.8365294 32,16 C32,7.16347056 24.836565,0 16,0 Z M23.4151376,13.8697983 C23.3817931,14.0100798 23.2998021,14.2156269 23.1847156,14.463842 L23.1872779,14.463842 L23.1740397,14.4868308 C22.5025956,15.9235248 20.7493961,18.7411846 20.7493961,18.7411846 C20.7493961,18.7411846 20.7470119,18.7346011 20.7402504,18.7235337 L20.2279131,19.6154 L22.6969685,19.6154 L17.9813438,25.886079 L19.0518894,21.6202665 L17.1090145,21.6202665 L17.7840528,18.7993683 C17.2378017,18.9311448 16.5924423,19.1121728 15.8277263,19.3580392 C15.8277263,19.3580392 14.7935144,19.9637908 12.8482907,18.1927982 C12.8482907,18.1927982 11.5364694,17.03713 12.297093,16.7482396 C12.620609,16.6254309 13.8675563,16.4695269 14.8487801,16.336932 C16.1747292,16.1576477 16.9904406,16.0627388 16.9904406,16.0627388 C16.9904406,16.0627388 12.9025244,16.1239474 11.9327595,15.9712818 C10.9628522,15.8188297 9.73255933,14.2005027 9.47053669,12.7779364 C9.47053669,12.7779364 9.06520762,11.9968862 10.3420476,12.3665933 C11.6188519,12.7363359 16.9044283,13.8058139 16.9044283,13.8058139 C16.9044283,13.8058139 10.0304531,11.6988145 9.57309668,11.184769 C9.11563355,10.6706879 8.22686328,8.37821223 8.34259024,6.96963146 C8.34259024,6.96963146 8.39276706,6.61850048 8.75286582,6.71251974 C8.75286582,6.71251974 13.8346745,9.0346745 17.3095082,10.3058562 C20.7843776,11.5770735 23.8054492,12.2237851 23.4151376,13.8698339 L23.4151376,13.8697983 Z" id="形状"></path>
                    </g>
                </g>
            </g>
        </g>
    </g>
</svg>