<svg width="98" height="150" viewBox="0 0 98 150" version="1.1" xmlns="http://www.w3.org/2000/svg" xmlns:xlink="http://www.w3.org/1999/xlink">
<title>duohui-element</title>
<desc>Created using Figma</desc>
<g id="Canvas" transform="translate(-2216 140)">
<clipPath id="clip-0" clip-rule="evenodd">
<path d="M 2216 -140L 2314 -140L 2314 10L 2216 10L 2216 -140Z" fill="#FFFFFF"/>
</clipPath>
<g id="duohui-element" clip-path="url(#clip-0)">
<path d="M 2216 -140L 2314 -140L 2314 10L 2216 10L 2216 -140Z" fill="#FFFFFF"/>
<g id="Duohui Icon 2">
<g id="Vector">
<use xlink:href="#path0_fill" transform="matrix(1.26636 0 0 1.21929 2230 -75.7038)" fill="#3A88FD"/>
</g>
<g id="Vector">
<use xlink:href="#path1_fill" transform="matrix(1.41534 0 0 1.21834 2226 -112)" fill="#35AFFB"/>
</g>
</g>
</g>
</g>
<defs>
<path id="path0_fill" fill-rule="evenodd" d="M 25.7722 1.00635C 26.2 0.374983 26.8949 -2.6613e-07 27.6349 -2.6613e-07C 28.3755 -2.6613e-07 29.0699 0.374983 29.4983 1.00635C 34.409 8.24964 47.798 27.9964 54.5986 38.0262C 55.3878 39.1901 55.4896 40.7162 54.8623 41.983C 54.235 43.2498 52.9833 44.0452 51.6178 44.0452C 39.6694 44.0452 15.601 44.0452 3.6521 44.0452C 2.28712 44.0452 1.03545 43.2498 0.408173 41.983C -0.219106 40.7162 -0.117353 39.1901 0.671804 38.0262C 7.47242 27.9964 20.8609 8.24964 25.7722 1.00635Z"/>
<path id="path1_fill" fill-rule="evenodd" d="M 24.9939 1.44703C 25.6137 0.533117 26.5572 -3.01614e-07 27.5551 -3.01614e-07C 28.5535 -3.01614e-07 29.497 0.533117 30.1168 1.44703C 35.4674 9.33854 47.8725 27.6342 54.4043 37.2681C 55.1825 38.4157 55.3299 39.982 54.7847 41.2999C 54.2389 42.6185 53.096 43.4556 51.8426 43.4556C 39.9023 43.4556 15.2084 43.4556 3.26811 43.4556C 2.01471 43.4556 0.871739 42.6185 0.325978 41.2999C -0.219783 39.982 -0.0717813 38.4157 0.70639 37.2681C 7.23818 27.6342 19.6433 9.33854 24.9939 1.44703Z"/>
</defs>
</svg>
