<?xml version="1.0" encoding="UTF-8" standalone="no"?>
<svg width="30px" height="30px" viewBox="0 0 38 48" version="1.1" xmlns="http://www.w3.org/2000/svg" xmlns:xlink="http://www.w3.org/1999/xlink">
    <!-- Generator: Sketch 40 (33762) - http://www.bohemiancoding.com/sketch -->
    <title>Shape Copy</title>
    <desc>Created with Sketch.</desc>
    <defs></defs>
    <g id="v2.2.0" stroke="none" stroke-width="1" fill="none" fill-rule="evenodd">
        <g id="首页-默认效果-copy-2" transform="translate(-70.000000, -19.000000)" fill="#409EFF">
            <path d="M212.135441,45.1578077 Z M103.416502,46.2175511 C103.407008,47.7945682 102.587841,48.1463474 102.587841,48.1463474 C102.587841,48.1463474 88.4520478,56.3145087 87.5329956,56.8262751 C86.622336,57.2171561 86.0136703,56.8262751 86.0136703,56.8262751 C86.0136703,56.8262751 71.2225706,48.2479572 70.6826962,47.8708444 C70.1426843,47.4937316 70.1301643,46.9063774 70.1301643,46.9063774 C70.1301643,46.9063774 70.1450232,29.9199174 70.1301643,29.1333364 C70.1153053,28.3466177 71.0969576,27.7555461 71.0969576,27.7555461 L85.8755373,19.2134387 C86.7853714,18.7332016 87.6711286,19.2134387 87.6711286,19.2134387 C87.6711286,19.2134387 100.726623,26.8020937 102.173442,27.6177257 C103.591507,28.2919577 103.416502,29.6843424 103.416502,29.6843424 C103.416502,29.6843424 103.425307,44.7519192 103.416502,46.2175511 L103.416502,46.2175511 Z M97.5160105,29.1691339 C94.4900173,27.4274483 87.3615842,23.2971063 87.3615842,23.2971063 C87.3615842,23.2971063 86.6661039,22.9212326 85.9517747,23.2971063 L74.3487406,29.98215 C74.3487406,29.98215 73.5780025,30.4449014 73.589697,31.0604805 C73.6013915,31.6760597 73.589697,44.9698708 73.589697,44.9698708 C73.589697,44.9698708 73.5994654,45.4295932 74.0234951,45.7246472 C74.4473873,46.0197011 86.0601898,52.7332451 86.0601898,52.7332451 C86.0601898,52.7332451 86.538152,53.0391759 87.2530315,52.7332451 C87.9746526,52.3327262 99.0730335,45.9402582 99.0730335,45.9402582 C99.0730335,45.9402582 99.7162325,45.6648929 99.7236619,44.4307056 C99.7257257,44.0747959 99.7265512,42.6932881 99.7266887,40.9575229 L86.6600502,48.8752394 L86.6600502,45.846221 C86.6600502,44.6021205 87.6231289,43.7809811 87.6231289,43.7809811 L99.1807607,36.8165793 C99.6168978,36.3611251 99.7068768,35.6315447 99.7254505,35.3556287 C99.7250378,34.0904627 99.7244874,32.9852841 99.7240747,32.2851678 L86.6600502,40.2012321 L86.6600502,37.034531 C86.6600502,35.7904305 87.4855462,35.2446564 87.4855462,35.2446564 L97.5160105,29.1691339 Z" id="Shape-Copy"></path>
        </g>
    </g>
</svg>