<?xml version="1.0" encoding="UTF-8"?>
<svg width="160px" height="30px" viewBox="0 0 160 30" version="1.1" xmlns="http://www.w3.org/2000/svg" xmlns:xlink="http://www.w3.org/1999/xlink">
    <title>编组 2</title>
    <g id="页面-1" stroke="none" stroke-width="1" fill="none" fill-rule="evenodd">
        <g id="首页" transform="translate(-24.000000, -18.000000)">
            <g id="编组-2" transform="translate(24.000000, 18.000000)">
                <path d="M49.3767746,23.9625585 L49.3767746,21.0175802 L38.597543,21.0175802 L38.597543,15.3185018 L48.3968445,15.3185018 L48.3968445,12.5371334 L38.597543,12.5371334 L38.597543,7.43795802 L49.1862327,7.43795802 L49.1862327,4.49297972 L35.1950078,4.49297972 L35.1950078,23.9625585 L49.3767746,23.9625585 Z M65.6272829,23.9625585 L65.6272829,21.0175802 L55.7463206,21.0175802 L55.7463206,4.49297972 L52.3437854,4.49297972 L52.3437854,23.9625585 L65.6272829,23.9625585 Z M82.149994,23.9625585 L82.149994,21.0175802 L71.3707624,21.0175802 L71.3707624,15.3185018 L81.1700638,15.3185018 L81.1700638,12.5371334 L71.3707624,12.5371334 L71.3707624,7.43795802 L81.959452,7.43795802 L81.959452,4.49297972 L67.9682271,4.49297972 L67.9682271,23.9625585 L82.149994,23.9625585 Z M88.3017777,23.9625585 L88.3017777,8.93771549 L88.3562182,8.93771549 L93.745834,23.9625585 L96.549523,23.9625585 L101.939139,8.93771549 L101.993579,8.93771549 L101.993579,23.9625585 L105.232793,23.9625585 L105.232793,4.49297972 L100.496464,4.49297972 L95.2701698,19.7359693 L95.2157292,19.7359693 L89.8533337,4.49297972 L85.0625641,4.49297972 L85.0625641,23.9625585 L88.3017777,23.9625585 Z M123.497602,23.9625585 L123.497602,21.0175802 L112.71837,21.0175802 L112.71837,15.3185018 L122.517672,15.3185018 L122.517672,12.5371334 L112.71837,12.5371334 L112.71837,7.43795802 L123.30706,7.43795802 L123.30706,4.49297972 L109.315835,4.49297972 L109.315835,23.9625585 L123.497602,23.9625585 Z M129.567725,23.9625585 L129.567725,9.64669175 L129.649386,9.64669175 L138.495977,23.9625585 L142.089055,23.9625585 L142.089055,4.49297972 L138.849841,4.49297972 L138.849841,18.8361148 L138.7954,18.8361148 L129.921589,4.49297972 L126.328511,4.49297972 L126.328511,23.9625585 L129.567725,23.9625585 Z M153.820996,23.9625585 L153.820996,7.43795802 L160,7.43795802 L160,4.49297972 L144.266677,4.49297972 L144.266677,7.43795802 L150.418461,7.43795802 L150.418461,23.9625585 L153.820996,23.9625585 Z" id="ELEMENT" fill="#006DFF" fill-rule="nonzero"></path>
                <g id="编组" transform="translate(14.187457, 14.559083) rotate(-30.000000) translate(-14.187457, -14.559083) translate(4.187457, 3.559083)">
                    <rect id="矩形" fill="#006DFF" x="0" y="0" width="19.9687988" height="3.74414977"></rect>
                    <rect id="矩形" fill="#006DFF" x="0" y="8.73634945" width="12.4804992" height="3.74414977"></rect>
                    <rect id="矩形" fill="#006DFF" x="0" y="17.4726989" width="19.9687988" height="3.74414977"></rect>
                    <circle id="椭圆形" fill="#E50A00" cx="17.4726989" cy="10.6084243" r="2.49609984"></circle>
                </g>
            </g>
        </g>
    </g>
</svg>