<?xml version="1.0" encoding="UTF-8" standalone="no"?>
<svg width="80px" height="80px" viewBox="0 0 80 80" version="1.1" xmlns="http://www.w3.org/2000/svg" xmlns:xlink="http://www.w3.org/1999/xlink">
    <!-- Generator: Sketch 39.1 (31720) - http://www.bohemiancoding.com/sketch -->
    <title>Controllability_icon</title>
    <desc>Created with Sketch.</desc>
    <defs></defs>
    <g id="Page-1" stroke="none" stroke-width="1" fill="none" fill-rule="evenodd">
        <g id="Controllability_icon">
            <g id="Group-24">
                <path d="M40,80 C62.09139,80 80,62.09139 80,40 C80,17.90861 62.09139,0 40,0 C17.90861,0 0,17.90861 0,40 C0,62.09139 17.90861,80 40,80 Z" id="Mask" fill="#EFF5FD"></path>
                <g id="controls" transform="translate(16.000000, 17.000000)">
                    <g id="Group" transform="translate(5.000000, 0.000000)" fill="#AFCAF1">
                        <path d="M0,1 L0,33 C0,33.553 0.448,34 1,34 C1.552,34 2,33.553 2,33 L2,1 C2,0.447 1.552,0 1,0 C0.448,0 0,0.447 0,1 Z" id="Shape"></path>
                        <path d="M37,12 C36.448,12 36,12.447 36,13 L36,45 C36,45.553 36.448,46 37,46 C37.552,46 38,45.553 38,45 L38,13 C38,12.447 37.552,12 37,12 L37,12 Z" id="Shape"></path>
                        <path d="M19,0 C18.448,0 18,0.447 18,1 L18,16 C18,16.553 18.448,17 19,17 C19.552,17 20,16.553 20,16 L20,1 C20,0.447 19.552,0 19,0 L19,0 Z" id="Shape"></path>
                        <path d="M19,27 C18.448,27 18,27.447 18,28 L18,45 C18,45.553 18.448,46 19,46 C19.552,46 20,45.553 20,45 L20,28 C20,27.447 19.552,27 19,27 L19,27 Z" id="Shape"></path>
                    </g>
                    <circle id="Oval" fill="#AFB6BB" cx="6" cy="41" r="6"></circle>
                    <circle id="Oval" fill="#AFB6BB" cx="42" cy="9" r="6"></circle>
                    <circle id="Oval" fill="#0077CE" cx="24" cy="24" r="6"></circle>
                    <circle id="Oval" fill="#E7ECED" cx="6" cy="39" r="6"></circle>
                    <circle id="Oval" fill="#E7ECED" cx="42" cy="7" r="6"></circle>
                    <circle id="Oval" fill="#20A0FF" cx="24" cy="22" r="6"></circle>
                </g>
            </g>
        </g>
    </g>
</svg>