<?xml version="1.0" encoding="UTF-8"?>
<svg width="424px" height="356px" viewBox="0 0 424 356" version="1.1" xmlns="http://www.w3.org/2000/svg" xmlns:xlink="http://www.w3.org/1999/xlink">
    <!-- Generator: Sketch 55.2 (78181) - https://sketchapp.com -->
    <title>编组</title>
    <desc>Created with Sketch.</desc>
    <g id="页面1" stroke="none" stroke-width="1" fill="none" fill-rule="evenodd">
        <g id="编组" transform="translate(0.000000, 0.000000)" fill-rule="nonzero">
            <path d="M34.132812,130.183594 C34.132812,115.105469 46.351562,102.882812 61.398438,102.882812 L361.855469,102.882812 C376.914062,102.882812 389.121094,115.078125 389.121094,130.183594 L389.121094,280.378906 C389.121094,295.457031 376.898438,307.683594 361.855469,307.683594 L61.398438,307.683594 C46.339844,307.683594 34.132812,295.484375 34.132812,280.378906 L34.132812,130.183594 Z" id="路径" fill="#0E65E5"></path>
            <path d="M361.851562,314.507812 L61.402344,314.507812 C42.601562,314.507812 27.308594,299.203125 27.308594,280.382812 L27.308594,130.179688 C27.308594,111.363281 42.601562,96.054688 61.402344,96.054688 L361.855469,96.054688 C380.65625,96.054688 395.949219,111.363281 395.949219,130.179688 L395.949219,280.382812 C395.945312,299.203125 380.652344,314.507812 361.851562,314.507812 L361.851562,314.507812 Z M61.402344,109.707031 C50.128906,109.707031 40.960938,118.894531 40.960938,130.179688 L40.960938,280.382812 C40.960938,291.667969 50.128906,300.855469 61.402344,300.855469 L361.855469,300.855469 C373.125,300.855469 382.296875,291.667969 382.296875,280.382812 L382.296875,130.179688 C382.296875,118.894531 373.125,109.707031 361.855469,109.707031 L61.402344,109.707031 Z" id="形状" fill="#0E65E5"></path>
            <polygon id="路径" fill="#D7E9FF" points="6.828125 130.1875 47.785156 130.1875 47.785156 212.109375 6.828125 212.109375"></polygon>
            <path d="M47.785156,218.933594 L6.828125,218.933594 C3.054688,218.933594 0,215.882812 0,212.109375 L0,130.1875 C0,126.414062 3.054688,123.363281 6.828125,123.363281 L47.785156,123.363281 C51.558594,123.363281 54.613281,126.414062 54.613281,130.1875 L54.613281,212.109375 C54.613281,215.882812 51.558594,218.933594 47.785156,218.933594 Z M13.652344,205.28125 L40.960938,205.28125 L40.960938,137.015625 L13.652344,137.015625 L13.652344,205.28125 Z" id="形状" fill="#0E65E5"></path>
            <polygon id="路径" fill="#94C1FF" points="177.492188 280.375 245.761719 280.375 245.761719 348.640625 177.492188 348.640625"></polygon>
            <path d="M245.761719,355.46875 L177.492188,355.46875 C173.722656,355.46875 170.667969,352.414062 170.667969,348.640625 L170.667969,280.375 C170.667969,276.601562 173.722656,273.546875 177.492188,273.546875 L245.761719,273.546875 C249.53125,273.546875 252.585938,276.601562 252.585938,280.375 L252.585938,348.640625 C252.585938,352.414062 249.53125,355.46875 245.761719,355.46875 Z M184.320312,341.816406 L238.933594,341.816406 L238.933594,287.203125 L184.320312,287.203125 L184.320312,341.816406 Z" id="形状" fill="#0E65E5"></path>
            <polygon id="路径" fill="#D7E9FF" points="375.464844 130.1875 416.425781 130.1875 416.425781 212.109375 375.464844 212.109375"></polygon>
            <path d="M416.425781,218.933594 L375.464844,218.933594 C371.695312,218.933594 368.640625,215.882812 368.640625,212.109375 L368.640625,130.1875 C368.640625,126.414062 371.695312,123.363281 375.464844,123.363281 L416.425781,123.363281 C420.195312,123.363281 423.253906,126.414062 423.253906,130.1875 L423.253906,212.109375 C423.253906,215.882812 420.195312,218.933594 416.425781,218.933594 Z M382.292969,205.28125 L409.601562,205.28125 L409.601562,137.015625 L382.292969,137.015625 L382.292969,205.28125 Z" id="形状" fill="#0E65E5"></path>
            <path d="M211.480468,82.226562 C207.710937,82.226562 204.652344,80.1039468 204.652344,77.4785355 L204.652344,25.2312138 C204.652344,22.6058019 207.710937,20.480469 211.480468,20.480469 C215.25,20.480469 218.308594,22.6058019 218.308594,25.2312138 L218.308594,77.4785355 C218.308594,80.1039468 215.25,82.226562 211.480468,82.226562 Z" id="路径" fill="#0E65E5"></path>
            <path d="M34.132812,109.703125 C34.132812,94.625 46.351562,82.402344 61.398438,82.402344 L361.855469,82.402344 C376.914062,82.402344 389.121094,94.597656 389.121094,109.703125 L389.121094,259.898438 C389.121094,274.980469 376.898438,287.203125 361.855469,287.203125 L61.398438,287.203125 C46.339844,287.203125 34.132812,275.003906 34.132812,259.898438 L34.132812,109.703125 Z" id="路径" fill="#D7E9FF"></path>
            <path d="M361.851562,294.027344 L61.402344,294.027344 C42.601562,294.027344 27.308594,278.722656 27.308594,259.902344 L27.308594,109.703125 C27.308594,90.882812 42.601562,75.574219 61.402344,75.574219 L361.855469,75.574219 C380.652344,75.574219 395.945312,90.882812 395.945312,109.703125 L395.945312,259.902344 C395.945312,278.722656 380.652344,294.027344 361.851562,294.027344 L361.851562,294.027344 Z M61.402344,89.226562 C50.128906,89.226562 40.960938,98.414062 40.960938,109.703125 L40.960938,259.902344 C40.960938,271.1875 50.128906,280.375 61.402344,280.375 L361.855469,280.375 C373.125,280.375 382.296875,271.1875 382.296875,259.902344 L382.296875,109.703125 C382.296875,98.414062 373.125,89.226562 361.855469,89.226562 L61.402344,89.226562 Z" id="形状" fill="#0E65E5"></path>
            <path d="M211.625,265.066406 C185.277344,265.066406 163.839844,243.628906 163.839844,217.28125 C163.839844,213.507812 166.898438,210.453125 170.667969,210.453125 C174.4375,210.453125 177.492188,213.507812 177.492188,217.28125 C177.492188,236.101562 192.808594,251.414062 211.625,251.414062 C230.445312,251.414062 245.761719,236.101562 245.761719,217.28125 C245.761719,213.507812 248.816406,210.453125 252.585938,210.453125 C256.355469,210.453125 259.414062,213.507812 259.414062,217.28125 C259.414062,243.628906 237.976562,265.066406 211.625,265.066406 L211.625,265.066406 Z" id="路径" fill="#0E65E5"></path>
            <path d="M225.132812,20.480469 C225.132812,28.023438 219.019531,34.136719 211.480468,34.136719 C203.941406,34.136719 197.828125,28.023438 197.828125,20.480469 C197.828125,12.941406 203.941406,6.828125 211.480468,6.828125 C219.019531,6.828125 225.132812,12.941406 225.132812,20.480469 Z" id="路径" fill="#D7E9FF"></path>
            <path d="M211.480468,40.960938 C200.1875,40.960938 191,31.773438 191,20.480469 C191,9.1875 200.1875,0 211.480468,0 C222.773437,0 231.960937,9.1875 231.960937,20.480469 C231.960937,31.773438 222.773437,40.960938 211.480468,40.960938 Z M211.480468,13.65625 C207.71875,13.65625 204.652344,16.714844 204.652344,20.480469 C204.652344,24.25 207.71875,27.308594 211.480468,27.308594 C215.242187,27.308594 218.308594,24.25 218.308594,20.480469 C218.308594,16.714844 215.242187,13.65625 211.480468,13.65625 Z" id="形状" fill="#0E65E5"></path>
            <path d="M143.359375,164.320312 C143.359375,179.402344 131.132812,191.628906 116.054688,191.628906 C100.972656,191.628906 88.746094,179.402344 88.746094,164.320312 C88.746094,149.242188 100.972656,137.015625 116.054688,137.015625 C131.132812,137.015625 143.359375,149.242188 143.359375,164.320312 Z" id="路径" fill="#2A8EE6"></path>
            <path d="M116.054688,198.453125 C97.234375,198.453125 81.921875,183.140625 81.921875,164.320312 C81.921875,145.503906 97.234375,130.1875 116.054688,130.1875 C134.871094,130.1875 150.1875,145.503906 150.1875,164.320312 C150.1875,183.140625 134.871094,198.453125 116.054688,198.453125 Z M116.054688,143.839844 C104.761719,143.839844 95.574219,153.027344 95.574219,164.320312 C95.574219,175.613281 104.761719,184.800781 116.054688,184.800781 C127.347656,184.800781 136.535156,175.613281 136.535156,164.320312 C136.535156,153.027344 127.347656,143.839844 116.054688,143.839844 Z" id="形状" fill="#0E65E5"></path>
            <path d="M334.507812,164.320312 C334.507812,179.402344 322.28125,191.628906 307.199219,191.628906 C292.117188,191.628906 279.894531,179.402344 279.894531,164.320312 C279.894531,149.242188 292.117188,137.015625 307.199219,137.015625 C322.28125,137.015625 334.507812,149.242188 334.507812,164.320312 Z" id="路径" fill="#2A8EE6"></path>
            <path d="M307.199219,198.453125 C288.378906,198.453125 273.066406,183.140625 273.066406,164.320312 C273.066406,145.503906 288.378906,130.1875 307.199219,130.1875 C326.019531,130.1875 341.332031,145.503906 341.332031,164.320312 C341.332031,183.140625 326.019531,198.453125 307.199219,198.453125 Z M307.199219,143.839844 C295.90625,143.839844 286.71875,153.027344 286.71875,164.320312 C286.71875,175.613281 295.90625,184.800781 307.199219,184.800781 C318.492188,184.800781 327.679688,175.613281 327.679688,164.320312 C327.679688,153.027344 318.492188,143.839844 307.199219,143.839844 L307.199219,143.839844 Z" id="形状" fill="#0E65E5"></path>
            <path d="M129.707031,109.707031 L61.441406,109.707031 C57.671875,109.707031 54.613281,106.65625 54.613281,102.882812 C54.613281,99.109375 57.671875,96.054688 61.441406,96.054688 L129.707031,96.054688 C133.476562,96.054688 136.535156,99.109375 136.535156,102.882812 C136.535156,106.65625 133.476562,109.707031 129.707031,109.707031 Z" id="路径" fill="#FFFFFF"></path>
            <path d="M330.263803,194 L96.7361967,194 C77.0020468,194 61,180.790415 61,164.5 C61,148.209585 77.0020468,135 96.7361967,135 L330.253579,135 C349.997953,135 366,148.209585 366,164.5 C366,180.790415 349.997953,194 330.263803,194 L330.263803,194 Z" id="路径" stroke="#0E65E5" stroke-width="17" fill="#D7E9FF"></path>
            <path d="M328.09375,164.652343 L259.828125,164.652343 C256.058594,164.652343 253,161.601562 253,157.828124 C253,154.054687 256.058594,151 259.828125,151 L328.09375,151 C331.863281,151 334.921875,154.054687 334.921875,157.828124 C334.921875,161.601562 331.863281,164.652343 328.09375,164.652343 Z" id="路径备份-3" fill="#FFFFFF"></path>
        </g>
    </g>
</svg>