<?xml version="1.0" encoding="UTF-8"?>
<svg width="138px" height="120px" viewBox="0 0 138 120" version="1.1" xmlns="http://www.w3.org/2000/svg" xmlns:xlink="http://www.w3.org/1999/xlink">
    <!-- Generator: Sketch 46.2 (44496) - http://www.bohemiancoding.com/sketch -->
    <title>整理中-icon</title>
    <desc>Created with Sketch.</desc>
    <defs></defs>
    <g id="Page-1" stroke="none" stroke-width="1" fill="none" fill-rule="evenodd">
        <g id="整理中" transform="translate(-358.000000, -341.000000)">
            <g id="整理中-icon" transform="translate(358.000000, 340.000000)">
                <rect id="Rectangle-4" fill="#98CAFD" transform="translate(65.506329, 38.430380) rotate(40.000000) translate(-65.506329, -38.430380) " x="44.5443038" y="11.3544304" width="41.9240506" height="54.1518987" rx="2"></rect>
                <polygon id="Rectangle-5" fill="#FFE59D" transform="translate(104.810127, 28.822785) rotate(20.000000) translate(-104.810127, -28.822785) " points="93.164557 11.3544304 116.455696 11.3544304 125.772152 23.3064624 105.619288 46.2911392 83.8481013 23.3064624"></polygon>
                <g id="Group" transform="translate(49.784810, 40.613924) rotate(-55.000000) translate(-49.784810, -40.613924) translate(27.075949, 3.493671)">
                    <path d="M3,0 L42.4177215,0 C44.0745758,-3.04359188e-16 45.4177215,1.34314575 45.4177215,3 L45.4177215,10.7986191 L0,10.7986191 L0,3 L-4.4408921e-16,3 C-6.46995335e-16,1.34314575 1.34314575,3.04359188e-16 3,0 L3,0 Z M39.2243959,8.09896433 C40.3645556,8.09896433 41.2888377,7.19245687 41.2888377,6.07422325 C41.2888377,4.95598962 40.3645556,4.04948216 39.2243959,4.04948216 C38.0842361,4.04948216 37.159954,4.95598962 37.159954,6.07422325 C37.159954,7.19245687 38.0842361,8.09896433 39.2243959,8.09896433 Z M30.9666283,8.09896433 C32.1067881,8.09896433 33.0310702,7.19245687 33.0310702,6.07422325 C33.0310702,4.95598962 32.1067881,4.04948216 30.9666283,4.04948216 C29.8264685,4.04948216 28.9021864,4.95598962 28.9021864,6.07422325 C28.9021864,7.19245687 29.8264685,8.09896433 30.9666283,8.09896433 Z M22.7088608,8.09896433 C23.8490205,8.09896433 24.7733026,7.19245687 24.7733026,6.07422325 C24.7733026,4.95598962 23.8490205,4.04948216 22.7088608,4.04948216 C21.568701,4.04948216 20.6444189,4.95598962 20.6444189,6.07422325 C20.6444189,7.19245687 21.568701,8.09896433 22.7088608,8.09896433 Z" id="Combined-Shape" fill="#FD9FA5"></path>
                    <rect id="Rectangle-3-Copy" fill="#FFEAEC" x="0" y="10.7986191" width="45.4177215" height="63.4418872"></rect>
                </g>
                <path d="M9.60759494,46.2911392 L128.392405,46.2911392 L128.392405,118.531646 L128.392405,118.531646 C128.392405,119.636215 127.496975,120.531646 126.392405,120.531646 L11.6075949,120.531646 L11.6075949,120.531646 C10.5030254,120.531646 9.60759494,119.636215 9.60759494,118.531646 L9.60759494,46.2911392 Z" id="Rectangle" fill="#DAEDFD"></path>
                <path d="M121.228807,112.318171 C121.228807,112.318171 121.328767,112.315471 121.518548,112.318171 C121.708329,112.320872 121.759999,112.47103 121.759999,112.47103 C121.759999,112.47103 122.140816,113.209593 122.242902,113.388183 C122.333784,113.547156 122.224841,113.544252 122.199778,113.541654 C122.20002,113.541297 122.194611,113.541042 122.194611,113.541042 C122.194611,113.541042 122.196688,113.541348 122.199778,113.541654 C122.198668,113.543284 122.091995,113.547004 120.987356,113.541042 C119.446897,113.32062 119.393778,111.859595 119.393778,111.859595 L119.393778,109.260995 L118.524554,109.260995 L118.524554,108.292889 C118.524554,108.160921 118.669425,108.14003 118.669425,108.14003 L119.393778,108.14003 L119.393778,107.171924 C119.393778,107.014021 119.538649,106.968113 119.538649,106.968113 C119.538649,106.968113 120.048497,106.814438 120.345144,106.724965 C120.466884,106.688279 120.504454,106.764301 120.504454,106.764301 C120.504454,106.764301 120.552744,106.737296 120.552744,106.853978 L120.552744,108.190983 L121.808289,108.190983 C121.930512,108.190983 121.95316,108.343842 121.95316,108.343842 L121.95316,109.311948 L120.552744,109.311948 L120.552744,111.553877 C120.552744,112.205515 121.228807,112.318171 121.228807,112.318171 L121.228807,112.318171 Z M117.51046,113.439136 L116.737816,113.439136 C116.586233,113.439136 116.592945,113.235324 116.592945,113.235324 L116.592945,109.464807 C116.592945,109.235773 116.303204,109.159089 116.303204,109.159089 L114.709627,109.159089 C114.471894,109.159089 114.468176,109.464807 114.468176,109.464807 L114.468176,113.286277 C114.468176,113.43613 114.323305,113.439136 114.323305,113.439136 L113.550661,113.439136 C113.380776,113.439136 113.405791,113.235324 113.405791,113.235324 L113.405791,108.496701 C113.405791,108.116082 113.840403,108.038124 113.840403,108.038124 L117.220718,108.038124 C117.558267,108.038124 117.65533,108.496701 117.65533,108.496701 L117.65533,113.184372 C117.65533,113.450906 117.51046,113.439136 117.51046,113.439136 L117.51046,113.439136 Z M112.005374,111.299113 L109.01138,111.299113 L109.01138,112.063407 C109.01138,112.338807 109.349412,112.420077 109.349412,112.420077 L111.763923,112.420077 C111.93574,112.420077 112.053664,112.572936 112.053664,112.572936 C112.053664,112.572936 112.264355,113.03513 112.343406,113.235324 C112.422457,113.435519 112.198535,113.439136 112.198535,113.439136 L108.576768,113.439136 C108.140611,113.439136 108.045576,112.878654 108.045576,112.878654 L108.045576,108.547654 C108.045576,108.298596 108.383607,108.190983 108.383607,108.190983 L112.005374,108.190983 C112.369338,108.190983 112.439986,108.64956 112.439986,108.64956 L112.439986,110.840536 C112.439986,111.2102 112.005374,111.299113 112.005374,111.299113 L112.005374,111.299113 Z M111.474182,109.464807 C111.474182,109.464807 111.443759,109.210042 111.232731,109.210042 L109.252831,109.210042 C109.252831,109.210042 109.01138,109.27837 109.01138,109.464807 L109.01138,110.025289 C109.01138,110.025289 109.018334,110.280054 109.252831,110.280054 L111.232731,110.280054 C111.232731,110.280054 111.474182,110.217127 111.474182,109.974336 L111.474182,109.464807 L111.474182,109.464807 Z M106.934901,113.439136 L106.162257,113.439136 C106.060316,113.439136 106.017387,113.286277 106.017387,113.286277 L106.017387,109.464807 C106.017387,109.227825 105.727645,109.159089 105.727645,109.159089 L105.003292,109.159089 C104.801197,109.159089 104.761841,109.464807 104.761841,109.464807 L104.761841,113.286277 C104.761841,113.413048 104.61697,113.439136 104.61697,113.439136 L103.844326,113.439136 C103.736881,113.439136 103.699456,113.286277 103.699456,113.286277 L103.699456,109.464807 C103.699456,109.222525 103.409715,109.159089 103.409715,109.159089 L102.685361,109.159089 C102.464337,109.159089 102.44391,109.464807 102.44391,109.464807 L102.44391,113.286277 C102.44391,113.449836 102.299039,113.439136 102.299039,113.439136 L101.526396,113.439136 C101.38167,113.439136 101.381525,113.286277 101.381525,113.286277 L101.381525,108.445748 C101.381525,108.165354 101.767847,108.038124 101.767847,108.038124 L106.596869,108.038124 C106.984495,108.038124 107.079772,108.547654 107.079772,108.547654 L107.079772,113.286277 C107.079772,113.462269 106.934901,113.439136 106.934901,113.439136 L106.934901,113.439136 Z M99.9328184,111.299113 L96.9388246,111.299113 L96.9388246,112.063407 C96.9388246,112.338807 97.2768561,112.420077 97.2768561,112.420077 L99.6913674,112.420077 C99.8631838,112.420077 99.9811086,112.572936 99.9811086,112.572936 C99.9811086,112.572936 100.191751,113.03513 100.27085,113.235324 C100.349901,113.435519 100.125979,113.439136 100.125979,113.439136 L96.5042124,113.439136 C96.0680553,113.439136 95.9730202,112.878654 95.9730202,112.878654 L95.9730202,108.547654 C95.9730202,108.298596 96.3110516,108.190983 96.3110516,108.190983 L99.9328184,108.190983 C100.296782,108.190983 100.367431,108.64956 100.367431,108.64956 L100.367431,110.840536 C100.367431,111.2102 99.9328184,111.299113 99.9328184,111.299113 L99.9328184,111.299113 Z M99.4016261,109.464807 C99.4016261,109.464807 99.3712033,109.210042 99.1601748,109.210042 L97.1802756,109.210042 C97.1802756,109.210042 96.9388246,109.27837 96.9388246,109.464807 L96.9388246,110.025289 C96.9388246,110.025289 96.9457783,110.280054 97.1802756,110.280054 L99.1601748,110.280054 C99.1601748,110.280054 99.4016261,110.217127 99.4016261,109.974336 L99.4016261,109.464807 L99.4016261,109.464807 Z M95.2486667,113.439136 L93.4136382,113.439136 C93.4136382,113.439136 92.0707837,113.372286 91.9649317,111.961501 C91.9606821,110.512654 91.9649317,106.000007 91.9649317,106.000007 L92.8341557,106.000007 C92.8341557,106.000007 93.123897,105.994453 93.123897,106.305724 L93.123897,111.655783 C93.123897,111.655783 93.2248718,112.09836 93.7999602,112.267219 C94.4497533,112.263754 94.5726035,112.267219 94.5726035,112.267219 C94.5726035,112.267219 94.8244373,112.182127 95.0072157,112.521983 C95.1899941,112.861839 95.3935373,113.235324 95.3935373,113.235324 C95.3935373,113.235324 95.422608,113.439136 95.2486667,113.439136 L95.2486667,113.439136 Z M85.9286536,113.133419 L85.9286536,106.40763 C85.9286536,106.109403 86.1701047,106.05096 86.1701047,106.05096 L90.7093857,106.05096 C90.9632474,106.05096 90.8542563,106.356677 90.8542563,106.356677 C90.8542563,106.356677 90.7127662,106.770109 90.6128053,106.968113 C90.5128444,107.166116 90.323064,107.171924 90.323064,107.171924 L87.3773605,107.171924 C87.1030718,107.171924 87.0876189,107.426689 87.0876189,107.426689 L87.0876189,109.108136 L90.4196445,109.108136 C90.6151232,109.108136 90.5162249,109.362901 90.5162249,109.362901 C90.5162249,109.362901 90.2666611,109.924198 90.1781934,110.076242 C90.0897255,110.228286 89.8884519,110.229101 89.8884519,110.229101 L87.0876189,110.229101 L87.0876189,112.012454 C87.0876189,112.255499 87.3290703,112.318171 87.3290703,112.318171 L90.4196445,112.318171 C90.6437594,112.318171 90.7093857,112.47103 90.7093857,112.47103 C90.7093857,112.47103 91.0154494,112.974904 91.1439979,113.184372 C91.2725947,113.393839 91.0957077,113.439136 91.0957077,113.439136 L86.2183949,113.439136 C86.0169764,113.439136 85.9286536,113.133419 85.9286536,113.133419 Z" id="Shape" fill="#A6CDEE" fill-rule="nonzero"></path>
                <rect id="Rectangle-2" fill="#FFFFFF" x="41.9240506" y="59.3924051" width="54.1518987" height="8.73417722" rx="4.36708861"></rect>
                <rect id="Rectangle-Copy" fill="#20A0FF" x="0" y="31.443038" width="138" height="14.8481013" rx="3"></rect>
            </g>
        </g>
    </g>
</svg>