<?xml version="1.0" encoding="UTF-8" standalone="no"?>
<svg width="88px" height="77px" viewBox="0 0 88 77" version="1.1" xmlns="http://www.w3.org/2000/svg" xmlns:xlink="http://www.w3.org/1999/xlink">
    <!-- Generator: Sketch 39.1 (31720) - http://www.bohemiancoding.com/sketch -->
    <title>Sketch Template_icon</title>
    <desc>Created with Sketch.</desc>
    <defs></defs>
    <g id="Page-1" stroke="none" stroke-width="1" fill="none" fill-rule="evenodd">
        <g id="Sketch-Template_icon">
            <g id="Group-25">
                <g id="browser">
                    <g id="Group" transform="translate(0.042735, 6.772269)" fill="#C9E1FB" opacity="0.23880597">
                        <path d="M3.20088476,28.5057337 L44.1701391,28.5057337 C45.9105265,28.5057337 47.3217575,27.1026312 47.3217575,25.3722682 L47.3217575,0.305608725 C47.3217575,2.03597172 45.9105265,3.43907426 44.1701391,3.43907426 L3.20088476,3.43907426 C1.46049739,3.43907426 0.0492663503,2.03597172 0.0492663503,0.305608725 L0.0492663503,25.3722682 C0.0492663503,27.1029861 1.46014038,28.5057337 3.20088476,28.5057337 L3.20088476,28.5057337 Z" id="Shape"></path>
                        <path d="M59.9271601,28.5057337 L78.8361566,28.5057337 C80.576544,28.5057337 81.987775,27.1026312 81.987775,25.3722682 L81.987775,0.305608725 C81.987775,2.03597172 80.576544,3.43907426 78.8361566,3.43907426 L59.9271601,3.43907426 C58.1867728,3.43907426 56.7755417,2.03597172 56.7755417,0.305608725 L56.7755417,25.3722682 C56.7755417,27.1029861 58.1867728,28.5057337 59.9271601,28.5057337 L59.9271601,28.5057337 Z" id="Shape"></path>
                    </g>
                    <path d="M3.24361929,10.2116986 L44.2128736,10.2116986 C45.953261,10.2116986 47.364492,8.80859603 47.364492,7.07823304 L47.364492,3.94476751 C47.364492,2.21440451 45.953261,0.811301969 44.2128736,0.811301969 L3.24361929,0.811301969 C1.50323191,0.811301969 0.0920008764,2.21440451 0.0920008764,3.94476751 L0.0920008764,7.07823304 C0.0920008764,8.80859603 1.50287491,10.2116986 3.24361929,10.2116986 L3.24361929,10.2116986 Z" id="Shape" fill="#FFD6D2"></path>
                    <path d="M59.9698947,10.2116986 L78.8788911,10.2116986 C80.6192785,10.2116986 82.0305096,8.80859603 82.0305096,7.07823304 L82.0305096,3.94476751 C82.0305096,2.21440451 80.6192785,0.811301969 78.8788911,0.811301969 L59.9698947,0.811301969 C58.2295073,0.811301969 56.8182763,2.21440451 56.8182763,3.94476751 L56.8182763,7.07823304 C56.8182763,8.80859603 58.2295073,10.2116986 59.9698947,10.2116986 L59.9698947,10.2116986 Z" id="Shape" fill="#20A0FF"></path>
                    <g id="Group" transform="translate(6.111778, 44.396572)" fill="#C9E1FB" opacity="0.23880597">
                        <path d="M3.63949659,28.4815974 C3.63949659,30.2119604 2.13657137,31.6150629 0.283103013,31.6150629 L62.5667088,31.6150629 C64.4201772,31.6150629 65.9231024,30.2119604 65.9231024,28.4815974 L65.9231024,3.41493792 C65.9231024,1.68457492 64.4201772,0.28147238 62.5667088,0.28147238 L0.283103013,0.28147238 C2.13657137,0.28147238 3.63949659,1.68457492 3.63949659,3.41493792 L3.63949659,28.4815974 Z" id="Shape"></path>
                    </g>
                    <path d="M3.24361929,76.0112803 L6.3952377,76.0112803 C8.13562508,76.0112803 9.54685611,74.6081778 9.54685611,72.8778148 L9.54685611,47.8111553 C9.54685611,46.265021 8.42013066,44.9801712 6.93862628,44.7241059 C6.76209851,44.6935946 6.58053368,44.6776898 6.3952377,44.6776898 L3.24361929,44.6776898 C1.50323191,44.6776898 0.0920008764,46.0807923 0.0920008764,47.8111553 L0.0920008764,72.8778148 C0.0920008764,74.6081778 1.50287491,76.0112803 3.24361929,76.0112803 L3.24361929,76.0112803 Z" id="Shape" fill="#20A0FF"></path>
                </g>
                <g id="diamond" transform="translate(53.000000, 45.000000)">
                    <polygon id="Shape" fill="#AFC8EB" points="24.1753264 8.86069795 17.1851852 28.8357025 34.3703704 8.86069795"></polygon>
                    <g id="Group">
                        <polygon id="Shape" fill="#80A8E1" points="7.1111088 0.0481841797 0 8.86069795 10.195044 8.86069795"></polygon>
                        <polygon id="Shape" fill="#80A8E1" points="24.1753264 8.86069795 34.3703704 8.86069795 27.2592616 0.0481841797"></polygon>
                        <polygon id="Shape" fill="#AFC8EA" points="24.1753264 8.86069795 17.1851852 0.0481841797 10.195044 8.86069795"></polygon>
                    </g>
                    <polygon id="Shape" fill="#6496DC" points="17.1851852 0.0481841797 7.1111088 0.0481841797 10.195044 8.86069795"></polygon>
                    <polygon id="Shape" fill="#93B8EE" points="27.2592616 0.0481841797 17.1851852 0.0481841797 24.1753264 8.86069795"></polygon>
                    <polygon id="Shape" fill="#80A8E1" points="10.195044 8.86069795 17.1851852 28.8357025 24.1753264 8.86069795"></polygon>
                    <polygon id="Shape" fill="#6496DC" points="0 8.86069795 17.1851852 28.8357025 10.195044 8.86069795"></polygon>
                </g>
            </g>
        </g>
    </g>
</svg>