<svg xmlns="http://www.w3.org/2000/svg" viewBox="0 0 320 240"><defs><style>.cls-1{fill:none;}.cls-2{fill:#eff5fd;}.cls-3{fill:#fff;}.cls-4{fill:#26a1ff;}.cls-5{fill:snow;}.cls-6{fill:#fdaca9;}.cls-7{fill:#fd9da0;}.cls-8{fill:#fed5d0;}.cls-9{fill:#ffe8e6;}</style></defs><title>资源 104</title><g id="图层_2" data-name="图层 2"><g id="图层_1-2" data-name="图层 1"><rect class="cls-1" width="320" height="240"/><circle class="cls-2" cx="160" cy="120" r="120"/><path class="cls-3" d="M160,55H105.64A20.64,20.64,0,0,0,85,75.64V200a5,5,0,0,0,5,5h70Z"/><rect class="cls-4" x="95" y="145" width="130" height="40" rx="5"/><path class="cls-5" d="M230,55H160V205h70a5,5,0,0,0,5-5V60A5,5,0,0,0,230,55Z"/><path class="cls-6" d="M220,145H160v40h60a5,5,0,0,0,5-5V150A5,5,0,0,0,220,145Z"/><path class="cls-6" d="M160,99.78a2.5,2.5,0,0,1,0-5c48.71,0,62.17-28.57,62.72-29.79a2.5,2.5,0,1,1,4.56,2C226.69,68.36,212.13,99.78,160,99.78Z"/><path class="cls-2" d="M124.26,171.58V154.4h6.44a7.91,7.91,0,0,1,3.16.52,4,4,0,0,1,1.86,1.6,4.26,4.26,0,0,1,.68,2.27,3.89,3.89,0,0,1-.6,2.08,4.36,4.36,0,0,1-1.8,1.57,4.45,4.45,0,0,1,2.39,1.56,4.15,4.15,0,0,1,.84,2.6,5,5,0,0,1-.51,2.24,4.32,4.32,0,0,1-1.26,1.6,5.18,5.18,0,0,1-1.88.85,11.48,11.48,0,0,1-2.77.29Zm2.27-10h3.72a8.34,8.34,0,0,0,2.16-.2,2.39,2.39,0,0,0,1.31-.86,2.49,2.49,0,0,0,.44-1.5,2.76,2.76,0,0,0-.41-1.5,2,2,0,0,0-1.17-.89,9.84,9.84,0,0,0-2.62-.24h-3.43Zm0,7.93h4.28a10.68,10.68,0,0,0,1.55-.08,3.81,3.81,0,0,0,1.31-.47,2.44,2.44,0,0,0,.86-1,2.92,2.92,0,0,0,.34-1.44,2.84,2.84,0,0,0-.49-1.67,2.56,2.56,0,0,0-1.36-1,8.51,8.51,0,0,0-2.52-.29h-4Z"/><path class="cls-2" d="M148.25,171.58v-1.83a4.55,4.55,0,0,1-3.95,2.11,5.06,5.06,0,0,1-2.06-.42,3.42,3.42,0,0,1-1.42-1.06,4.06,4.06,0,0,1-.65-1.57,11.22,11.22,0,0,1-.13-2v-7.71h2.11V166a11.86,11.86,0,0,0,.13,2.23,2.18,2.18,0,0,0,.84,1.31,2.68,2.68,0,0,0,1.6.47,3.52,3.52,0,0,0,1.78-.48,2.76,2.76,0,0,0,1.18-1.33,6.68,6.68,0,0,0,.34-2.43v-6.67h2.11v12.45Z"/><path class="cls-2" d="M158,169.69l.31,1.86a7.59,7.59,0,0,1-1.6.19,3.64,3.64,0,0,1-1.78-.36,2,2,0,0,1-.89-1,7.55,7.55,0,0,1-.26-2.49v-7.16h-1.54v-1.64h1.54v-3.08l2.1-1.27v4.35H158v1.64h-2.12v7.28a3.83,3.83,0,0,0,.11,1.16.92.92,0,0,0,.37.41,1.38,1.38,0,0,0,.72.15A6,6,0,0,0,158,169.69Z"/><path class="cls-5" d="M167.69,169.69l.3,1.86a7.43,7.43,0,0,1-1.59.19,3.61,3.61,0,0,1-1.78-.36,2,2,0,0,1-.89-1,7.28,7.28,0,0,1-.26-2.49v-7.16h-1.55v-1.64h1.55v-3.08l2.1-1.27v4.35h2.12v1.64h-2.12v7.28a3.51,3.51,0,0,0,.11,1.16.84.84,0,0,0,.36.41,1.43,1.43,0,0,0,.72.15A6.1,6.1,0,0,0,167.69,169.69Z"/><path class="cls-5" d="M169,165.35a6.43,6.43,0,0,1,1.93-5.12,5.79,5.79,0,0,1,3.91-1.38,5.6,5.6,0,0,1,4.2,1.68,6.42,6.42,0,0,1,1.62,4.65,8.25,8.25,0,0,1-.72,3.78,5.13,5.13,0,0,1-2.09,2.14,6.2,6.2,0,0,1-3,.76,5.57,5.57,0,0,1-4.22-1.68A6.65,6.65,0,0,1,169,165.35Zm2.17,0a5.26,5.26,0,0,0,1.05,3.58,3.47,3.47,0,0,0,5.23,0,5.41,5.41,0,0,0,1.05-3.65,5.13,5.13,0,0,0-1.05-3.49,3.48,3.48,0,0,0-5.23,0A5.25,5.25,0,0,0,171.13,165.35Z"/><path class="cls-5" d="M183.1,171.58V159.13H185v1.77a4.46,4.46,0,0,1,4-2.05,5.2,5.2,0,0,1,2.07.41,3.25,3.25,0,0,1,1.41,1.06,4,4,0,0,1,.65,1.55,11.89,11.89,0,0,1,.12,2.06v7.65H191.1V164a5.85,5.85,0,0,0-.24-1.93,2,2,0,0,0-.88-1,2.82,2.82,0,0,0-1.47-.38,3.39,3.39,0,0,0-2.32.85c-.66.57-1,1.66-1,3.25v6.8Z"/><circle class="cls-4" cx="71.9" cy="76.81" r="30"/><path class="cls-3" d="M62.69,68.35h4.89v2.5H59.25V62.53h2.5v3.23a15,15,0,0,1,25.15,11H84.4A12.5,12.5,0,0,0,63.06,68C62.93,68.09,62.81,68.22,62.69,68.35Zm19.36,19.5a15,15,0,0,1-25.15-11h2.5a12.51,12.51,0,0,0,21.34,8.85l.37-.39H76.22v-2.5h8.33v8.32h-2.5Z"/><path class="cls-7" d="M46.94,47.79a2.92,2.92,0,0,1-2.25-1l-7-8.38a2.93,2.93,0,1,1,4.48-3.77L49.17,43a2.92,2.92,0,0,1-.35,4.12A2.88,2.88,0,0,1,46.94,47.79Z"/><path class="cls-8" d="M37.06,59.93h-.25L25.89,59a2.93,2.93,0,0,1,.51-5.83l10.91,1a2.93,2.93,0,0,1-.25,5.84Z"/><path class="cls-8" d="M60.58,40.14l-.25,0A2.93,2.93,0,0,1,57.66,37l.94-10.91a2.93,2.93,0,1,1,5.83.5l-.94,10.91A2.93,2.93,0,0,1,60.58,40.14Z"/><rect class="cls-2" x="99" y="128.31" width="15" height="6.27"/><rect class="cls-2" x="123.56" y="112.59" width="15" height="22"/><rect class="cls-9" x="160" y="106.81" width="7.5" height="27.78"/><rect class="cls-2" x="152.5" y="106.81" width="7.5" height="27.78"/><rect class="cls-9" x="206" y="91.81" width="15" height="42.78"/><rect class="cls-9" x="179.25" y="103.64" width="15" height="30.94"/><path class="cls-4" d="M95,130.81a2.62,2.62,0,0,1-1-.21,2.5,2.5,0,0,1-1.26-3.31C93.31,126,107.88,94.78,160,94.78a2.5,2.5,0,0,1,0,5c-48.91,0-62.59,29.26-62.72,29.56A2.5,2.5,0,0,1,95,130.81Z"/><path class="cls-6" d="M226,63.73a2.5,2.5,0,0,0-3.3,1.26c-.55,1.22-14,29.79-62.72,29.79h0v5h0c52.13,0,66.69-31.42,67.28-32.75A2.5,2.5,0,0,0,226,63.73Z"/></g></g></svg>