<?xml version="1.0" encoding="UTF-8" standalone="no"?>
<svg width="80px" height="80px" viewBox="0 0 80 80" version="1.1" xmlns="http://www.w3.org/2000/svg" xmlns:xlink="http://www.w3.org/1999/xlink">
    <!-- Generator: Sketch 39.1 (31720) - http://www.bohemiancoding.com/sketch -->
    <title>Efficiency_icon</title>
    <desc>Created with Sketch.</desc>
    <defs>
        <path d="M43.6603748,19.56255 L46.4332957,17.3863539 C47.2985626,16.70729 47.5414536,15.3895504 46.9704615,14.4341545 L44.060739,9.56554545 C43.4921406,8.61415464 42.1911396,8.15294772 41.1583334,8.5341334 L37.8026261,9.77265 C35.5689955,7.74945 32.8589812,6.2118 29.8520812,5.33325 L29.2951424,1.97075284 C29.1148653,0.8823361 28.0692991,0 26.9696546,0 L21.0301902,0 C19.9261358,0 18.8852541,0.880702537 18.7047023,1.97080827 L18.1477635,5.3334 C15.1410188,6.21195 12.4310045,7.7496 10.1972186,9.7728 L6.84161092,8.5342834 C5.8072857,8.15252573 4.510253,8.61029956 3.93926098,9.56569545 L1.02953845,14.4343045 C0.460940067,15.3856954 0.697235865,16.7041427 1.56670429,17.3865039 L4.3396252,19.5627 C3.99615694,20.98815 3.81417466,22.47345 3.81417466,24 C3.81417466,25.52655 3.99615694,27.01185 4.33946993,28.43745 L1.56664823,30.6136461 C0.701412305,31.29271 0.458546432,32.6104357 1.02953845,33.5658144 L3.93926098,38.4343356 C4.50785937,39.3857093 5.80883543,39.8469023 6.84161092,39.4657166 L10.1972186,38.2272 C12.4310045,40.2504 15.1410188,41.78805 18.1477635,42.6666 L18.7047023,46.0291917 C18.8849794,47.1176391 19.9305456,48 21.0301902,48 L26.9696546,48 C28.0737089,48 29.1145906,47.1192727 29.2951424,46.0291363 L29.8520812,42.66645 C32.8588259,41.7879 35.5688402,40.25025 37.8026261,38.22705 L41.1582338,39.4655666 C42.192559,39.8473243 43.489606,39.3895783 44.0606159,38.434217 L46.9704294,33.5657845 C47.5390455,32.6144282 47.3027392,31.2959605 46.4332396,30.6135388 L43.6602195,28.43715 C44.0036878,27.01185 44.18567,25.52655 44.18567,24 C44.18567,22.47345 44.0036878,20.98815 43.6603748,19.56255 Z" id="path-1"></path>
        <filter x="-50%" y="-50%" width="200%" height="200%" filterUnits="objectBoundingBox" id="filter-3">
            <feOffset dx="0" dy="2" in="SourceAlpha" result="shadowOffsetOuter1"></feOffset>
            <feColorMatrix values="0 0 0 0 0.68627451   0 0 0 0 0.71372549   0 0 0 0 0.733333333  0 0 0 1 0" type="matrix" in="shadowOffsetOuter1"></feColorMatrix>
        </filter>
    </defs>
    <g id="Page-1" stroke="none" stroke-width="1" fill="none" fill-rule="evenodd">
        <g id="Efficiency_icon">
            <g id="Group-23">
                <path d="M40,80 C62.09139,80 80,62.09139 80,40 C80,17.90861 62.09139,0 40,0 C17.90861,0 0,17.90861 0,40 C0,62.09139 17.90861,80 40,80 Z" id="Mask" fill="#EFF5FD"></path>
                <g id="efficiency" transform="translate(16.000000, 16.000000)">
                    <g id="XMLID_474_">
                        <g id="XMLID_476_">
                            <mask id="mask-2" fill="white">
                                <use xlink:href="#path-1"></use>
                            </mask>
                            <g id="Mask">
                                <use fill="black" fill-opacity="1" filter="url(#filter-3)" xlink:href="#path-1"></use>
                                <use fill="#E7ECED" fill-rule="evenodd" xlink:href="#path-1"></use>
                            </g>
                        </g>
                        <ellipse id="XMLID_477_" fill="#FFFFFF" cx="24" cy="24.7741935" rx="14.7096774" ry="14.7096774"></ellipse>
                        <rect id="XMLID_478_" fill="#0077CE" x="23" y="15" width="2" height="12"></rect>
                        <rect id="XMLID_3_" fill="#20A0FF" x="23" y="25" width="10" height="2"></rect>
                    </g>
                </g>
            </g>
        </g>
    </g>
</svg>