<?xml version="1.0" encoding="UTF-8" standalone="no"?>
<svg width="120px" height="120px" viewBox="0 0 120 120" version="1.1" xmlns="http://www.w3.org/2000/svg" xmlns:xlink="http://www.w3.org/1999/xlink">
    <!-- Generator: Sketch 39.1 (31720) - http://www.bohemiancoding.com/sketch -->
    <title>landingpage_doc_icon</title>
    <desc>Created with Sketch.</desc>
    <defs>
        <circle id="path-1" cx="60" cy="60" r="60"></circle>
        <path d="M72.7204805,55 C72.3212048,55 71.8159682,55.2518631 71.583447,55.5744208 L68.6205739,59.6845744 L30.9907556,59.6845744 C28.7867221,59.6845744 27,61.4733181 27,63.6828821 L27,94.9419923 C27,97.1501967 28.7995699,98.9402999 31.0045707,98.9402999 L88.9954293,98.9402986 C91.2070926,98.9402985 93,97.1496402 93,94.9439184 L93,58.9963801 C93,56.7892403 91.2181016,55.1145608 89.0176162,55.1367239 L72.7204805,55 Z" id="path-3"></path>
        <filter x="-50%" y="-50%" width="200%" height="200%" filterUnits="objectBoundingBox" id="filter-4">
            <feOffset dx="0" dy="2" in="SourceAlpha" result="shadowOffsetOuter1"></feOffset>
            <feColorMatrix values="0 0 0 0 0   0 0 0 0 0.466666667   0 0 0 0 0.807843137  0 0 0 1 0" type="matrix" in="shadowOffsetOuter1"></feColorMatrix>
        </filter>
    </defs>
    <g id="Page-1" stroke="none" stroke-width="1" fill="none" fill-rule="evenodd">
        <g id="landingpage_doc_icon">
            <g id="Group">
                <g id="Group-2">
                    <mask id="mask-2" fill="white">
                        <use xlink:href="#path-1"></use>
                    </mask>
                    <use id="Mask" fill="#EFF5FD" xlink:href="#path-1"></use>
                    <path d="M27,59.0081112 C27,56.7944925 28.7811186,55 30.9977467,55 L47.586785,55 C47.9921103,55 48.5248696,55.2699688 48.7688582,55.5925758 L51.7488113,59.5327339 L88.2558934,59.5327339 C88.6668521,59.5327339 89,59.8566406 89,60.264357 L89,96.2683769 C89,96.6724412 88.6664231,97 88.260519,97 L27.739481,97 C27.3310769,97 27,96.6619234 27,96.2710114 L27,59.0081112 Z" id="Rectangle" fill="#0077CE" mask="url(#mask-2)"></path>
                    <g id="Group-9" mask="url(#mask-2)">
                        <g transform="translate(32.000000, 15.000000)">
                            <path d="M42.2461314,0 L55.7180083,13.3923872 L55.7180083,68.1865965 C55.7180083,70.6980461 53.6816152,72.7323226 51.1722822,72.7323226 L4.62309912,72.7323226 C2.11376615,72.7323226 0.0773730599,70.6980461 0.0773730599,68.1865965 L0.0773730599,4.54572606 C0.0773730599,2.0342765 2.11400132,0 4.62309912,0 L42.2461314,0 Z" id="Shape" fill="#FFFFFF"></path>
                            <path d="M55.6523941,13.4558849 L46.8080847,13.4558849 C44.2987517,13.4558849 42.2623586,11.4194918 42.2623586,8.91015881 L42.2623586,0.0453890595 L55.6523941,13.4558849 Z" id="Shape" fill="#D9EDFE"></path>
                            <polygon id="Path" fill="#EFF5FD" points="6.16906036 36.1924682 30.1690604 36.1924682 30.1690604 31.6467421 6.16906036 31.6467421"></polygon>
                            <polygon id="Path" fill="#20A0FF" points="6 8 6 12 33 12 32.999746 8"></polygon>
                            <polygon id="Path" fill="#EFF5FD" points="6.16906036 21.9292516 6.16906036 25.9292516 51.1690604 25.9292516 51.1690604 21.9292516"></polygon>
                        </g>
                    </g>
                    <g id="Rectangle-Copy" mask="url(#mask-2)">
                        <use fill="black" fill-opacity="1" filter="url(#filter-4)" xlink:href="#path-3"></use>
                        <use fill="#20A0FF" fill-rule="evenodd" xlink:href="#path-3"></use>
                    </g>
                    <text id="Elemnet" mask="url(#mask-2)" font-family="PingFangSC-Semibold, PingFang SC" font-size="14" font-weight="500" line-spacing="30" fill="#0077CE">
                        <tspan x="33" y="82">Elemnet</tspan>
                    </text>
                </g>
                <path d="M100.506172,19.2377548 C100.506172,18.3510985 98.1302446,14.3428431 98.1302446,14.3428431 C97.1524382,12.6147723 97.7714617,11.9727442 99.5476926,12.9005283 C99.5476926,12.9005283 103.291856,15.0088747 104.371071,15.0088747 C105.964825,15.0088747 109.247423,12.9669733 109.247423,12.9669733 C110.978808,11.9987744 111.601512,12.6239259 110.672549,14.3744675 C110.672549,14.3744675 108.657471,17.7591636 108.657471,19.2377548 C108.657471,20.4447205 110.721457,24.1294186 110.721457,24.1294186 C111.638756,25.887084 110.992695,26.4842846 109.270392,25.4942095 C109.270392,25.4942095 105.670245,23.2219716 104.371071,23.2219716 C102.997276,23.2219716 99.4459871,25.4942095 99.4459871,25.4942095 C97.7415162,26.4981217 97.2289914,25.9503 98.257018,24.2518201 C98.257018,24.2518201 100.506172,21.0366554 100.506172,19.2377548 Z" id="Rectangle-22" fill="#FFACAD" transform="translate(104.403023, 19.235844) rotate(135.000000) translate(-104.403023, -19.235844) "></path>
                <path d="M97.9563635,39.9441042 C97.9563635,39.2992632 96.6862323,37.2218793 96.6862323,37.2218793 C95.7222557,35.5024456 96.3641883,34.8700535 98.1353687,35.7777355 C98.1353687,35.7777355 99.9823157,36.868555 100.7672,36.868555 C101.926293,36.868555 103.446659,35.8329857 103.446659,35.8329857 C105.184667,34.8806167 105.817305,35.5201588 104.908745,37.2811628 C104.908745,37.2811628 103.884581,38.8687651 103.884581,39.9441042 C103.884581,40.8218974 104.955257,42.6329686 104.955257,42.6329686 C105.86009,44.3910456 105.207738,44.9955706 103.466102,44.0173303 C103.466102,44.0173303 101.712053,42.8417164 100.7672,42.8417164 C99.7680756,42.8417164 98.045543,44.0173303 98.045543,44.0173303 C96.3308398,45.0108454 95.8049382,44.4506312 96.8077051,42.7354455 C96.8077051,42.7354455 97.9563635,41.2523955 97.9563635,39.9441042 Z" id="Rectangle-22" fill="#FFD6D2" transform="translate(100.800150, 39.935899) rotate(135.000000) translate(-100.800150, -39.935899) "></path>
            </g>
        </g>
    </g>
</svg>