<?xml version="1.0" encoding="UTF-8" standalone="no"?>
<svg width="134px" height="120px" viewBox="0 0 134 120" version="1.1" xmlns="http://www.w3.org/2000/svg" xmlns:xlink="http://www.w3.org/1999/xlink">
    <!-- Generator: Sketch 39.1 (31720) - http://www.bohemiancoding.com/sketch -->
    <title>landingpage_sketch_icon</title>
    <desc>Created with Sketch.</desc>
    <defs>
        <circle id="path-1" cx="83" cy="60" r="60"></circle>
    </defs>
    <g id="Page-1" stroke="none" stroke-width="1" fill="none" fill-rule="evenodd">
        <g id="landingpage_sketch_icon">
            <g id="Group-7" transform="translate(-9.000000, 0.000000)">
                <mask id="mask-2" fill="white">
                    <use xlink:href="#path-1"></use>
                </mask>
                <use id="Mask" fill="#EFF5FD" xlink:href="#path-1"></use>
                <path d="M139,95 L139,97 C139,98.1 137.734375,99 136.1875,99 L29.8125,99 C28.2665625,99 27,98.1 27,97 L27,95 L139,95 Z" id="Shape" fill="#0077CE"></path>
                <g id="Group-15" transform="translate(0.000000, 10.000000)">
                    <g id="Group-9" transform="translate(26.000000, 72.000000)" fill="#20A0FF">
                        <polygon id="Rectangle-731" points="9 0.00446001895 105 0.00446001895 112.920506 13 0.989849838 13.3241507"></polygon>
                    </g>
                    <path d="M35,6.44020485 C35,5.09251693 36.0946646,4 37.4331334,4 L128.566867,4 C129.910649,4 131,5.09565993 131,6.44020485 L131,72 L35,72 L35,6.44020485 Z" id="Rectangle-731" fill="#D9EDFE"></path>
                    <rect id="Rectangle-13" fill="#FFFFFF" x="41" y="10" width="84" height="56"></rect>
                    <g id="Group-11" transform="translate(87.589150, 38.649096) scale(-1, 1) translate(-87.589150, -38.649096) translate(58.589150, 20.149096)">
                        <rect id="Rectangle-733" fill="#FF9EA4" x="0.425215481" y="0.00674799284" width="15.7704918" height="15.7012987"></rect>
                        <rect id="Rectangle-733-Copy-2" fill="#FFCFC7" x="21.0481663" y="20.5392155" width="15.7704918" height="15.7012987"></rect>
                        <rect id="Rectangle-733-Copy" fill="#EFF5FD" x="21.0481663" y="0.00674799284" width="15.7704918" height="15.7012987"></rect>
                        <rect id="Rectangle-733-Copy" fill="#EFF5FD" x="41.6711171" y="20.5392155" width="15.7704918" height="15.7012987"></rect>
                    </g>
                    <g id="Group-20" transform="translate(25.049180, 14.701299)">
                        <circle id="Oval-4" fill="#20A0FF" cx="15" cy="15" r="15"></circle>
                        <path d="M21.9841499,12.529882 L19.7537045,10.8565359 C19.7036857,10.8045119 19.64724,10.7618965 19.5852055,10.73035 L18.0826867,9.60297906 C17.970913,9.5194086 17.8348284,9.47402597 17.6948318,9.47402597 L11.9736917,9.47402597 C11.8336951,9.47402597 11.6973311,9.5194086 11.5858368,9.60297906 L7.68409413,12.529882 C7.40046821,12.7426823 7.3451402,13.1433777 7.56058413,13.4239752 L14.3226173,22.228759 C14.5799764,22.563871 15.0882676,22.563871 15.3456267,22.228759 L22.1079393,13.4239752 C22.3233833,13.1433777 22.2677758,12.7426823 21.9841499,12.529882 L21.9841499,12.529882 Z" id="Sketch" fill="#FFFFFF"></path>
                    </g>
                    <g id="Group-16" transform="translate(19.933385, 18.437778) rotate(-26.000000) translate(-19.933385, -18.437778) translate(4.933385, 5.437778)">
                        <rect id="Rectangle-23" fill="#FFCFC7" x="25.5270465" y="0.854317229" width="3.8499999" height="11.0799999"></rect>
                        <path d="M10.981875,8.34555266 C10.4466477,7.48650426 10.7986346,6.36966093 11.70694,5.8837127 L11.70694,5.8837127 C12.6426096,5.38312444 13.8231901,5.65474724 14.3702344,6.53276219 L18.3008157,12.8414083 C18.836043,13.7004567 18.484056,14.8173001 17.5757507,15.3032483 L17.5757507,15.3032483 C16.6400811,15.8038366 15.4595006,15.5322138 14.9124562,14.6541988 L10.981875,8.34555266" id="Rectangle-23" fill="#FF9EA4"></path>
                        <path d="M0.957497949,21.3837223 C0.0308614262,20.8877504 -0.266799001,19.7574503 0.25738261,18.9157632 L0.25738261,18.9157632 C0.797356108,18.0487189 1.96581964,17.7369549 2.91291496,18.2438771 L9.71791212,21.8861756 C10.6445486,22.3821474 10.9422091,23.5124476 10.4180275,24.3541347 L10.4180275,24.3541347 C9.87805396,25.221179 8.70959043,25.532943 7.76249511,25.0260208 L0.957497949,21.3837223" id="Rectangle-23" fill="#FFCFC7"></path>
                    </g>
                </g>
            </g>
        </g>
    </g>
</svg>