<?xml version="1.0" encoding="UTF-8" standalone="no"?>
<svg width="120px" height="120px" viewBox="0 0 120 120" version="1.1" xmlns="http://www.w3.org/2000/svg" xmlns:xlink="http://www.w3.org/1999/xlink">
    <!-- Generator: Sketch 39.1 (31720) - http://www.bohemiancoding.com/sketch -->
    <title>landingpage_demo_icon</title>
    <desc>Created with Sketch.</desc>
    <defs>
        <rect id="path-1" x="0" y="0" width="68" height="12"></rect>
        <filter x="-50%" y="-50%" width="200%" height="200%" filterUnits="objectBoundingBox" id="filter-2">
            <feOffset dx="0" dy="2" in="SourceAlpha" result="shadowOffsetOuter1"></feOffset>
            <feColorMatrix values="0 0 0 0 0   0 0 0 0 0.466666667   0 0 0 0 0.807843137  0 0 0 1 0" type="matrix" in="shadowOffsetOuter1"></feColorMatrix>
        </filter>
        <polyline id="path-3" points="95.3575369 19.0075852 100.34433 8.39738533 104.940596 12.254111 95.3575369 19.0075852"></polyline>
        <mask id="mask-4" maskContentUnits="userSpaceOnUse" maskUnits="objectBoundingBox" x="-1" y="-1" width="11.5830596" height="12.6101999">
            <rect x="94.3575369" y="7.39738533" width="11.5830596" height="12.6101999" fill="white"></rect>
            <use xlink:href="#path-3" fill="black"></use>
        </mask>
        <polyline id="path-5" points="95.7283485 30.6666667 101.271652 25.1568381 103.271652 28.6209397 95.7283485 30.6666667"></polyline>
        <mask id="mask-6" maskContentUnits="userSpaceOnUse" maskUnits="objectBoundingBox" x="-1" y="-1" width="9.54330305" height="7.50982859">
            <rect x="94.7283485" y="24.1568381" width="9.54330305" height="7.50982859" fill="white"></rect>
            <use xlink:href="#path-5" fill="black"></use>
        </mask>
    </defs>
    <g id="Page-1" stroke="none" stroke-width="1" fill="none" fill-rule="evenodd">
        <g id="landingpage_demo_icon">
            <g id="Group-17">
                <circle id="Oval-7" fill="#EFF5FD" cx="60" cy="60" r="60"></circle>
                <g id="Group-8" transform="translate(10.000000, 16.000000)">
                    <g id="Rectangle-27">
                        <use fill="black" fill-opacity="1" filter="url(#filter-2)" xlink:href="#path-1"></use>
                        <use fill="#20A0FF" fill-rule="evenodd" xlink:href="#path-1"></use>
                    </g>
                    <rect id="Rectangle-36" fill="#FFFFFF" x="0" y="14" width="68" height="69"></rect>
                    <path d="M9.04980469,81.7578125 C10.9093537,78.8748781 11.4501953,73 11.4501953,73 L75.4501953,73 L75.4501953,77.9414074 C75.4501953,80.735191 73.1859826,83 70.383591,83 L10.0666043,83 C7.26839602,83 7.24754402,82.9859929 9.04980469,81.7578125 C9.04980469,81.7578125 7.81646034,83.6699164 9.04980469,81.7578125 Z" id="Rectangle-36-Copy" fill="#D9EDFE"></path>
                    <circle id="Oval-8" fill="#0077CE" cx="6.5" cy="6.5" r="2.5"></circle>
                    <circle id="Oval-8" fill="#0077CE" cx="14.5" cy="6.5" r="2.5"></circle>
                    <circle id="Oval-8" fill="#0077CE" cx="22.5" cy="6.5" r="2.5"></circle>
                    <rect id="Rectangle-20" fill="#20A0FF" x="24" y="57" width="20" height="6" rx="3"></rect>
                    <rect id="Rectangle-37" fill="#D9EDFE" x="8" y="20" width="15" height="4"></rect>
                    <rect id="Rectangle-37" fill="#EFF5FD" x="8" y="27" width="52" height="4"></rect>
                    <rect id="Rectangle-37" fill="#D9EDFE" x="8" y="37" width="15" height="4"></rect>
                    <rect id="Rectangle-37" fill="#EFF5FD" x="8" y="44" width="52" height="4"></rect>
                </g>
                <g id="Group-8" transform="translate(58.000000, 39.000000)">
                    <polygon id="Combined-Shape" fill="#6496DC" points="12 29.8863636 14.5 29.8863637 17 34.8863636 12 34.8863636"></polygon>
                    <path d="M14,33.8884505 C14,34.9918675 14.5735636,35.1980873 15.2746482,34.3567858 L19,29.8863636 L14,29.8863636 L14,33.8884505 Z" id="Combined-Shape" fill="#80A8E1"></path>
                    <g id="Group-12" transform="translate(0.000000, 0.136364)">
                        <g id="Group-19">
                            <rect id="Rectangle-20" fill="#6496DD" x="0" y="0.863636364" width="49" height="29"></rect>
                            <rect id="Rectangle-20" fill="#80A8E1" x="2" y="0.863636364" width="49" height="29"></rect>
                            <polygon id="Fill-1" fill="#FFFFFF" points="34.4995277 21.9823228 40.7552877 15.6968482 34.4995277 9.41128616 32.6225734 11.2972638 37.0018433 15.6971981 32.6225734 20.0965784"></polygon>
                            <polygon id="Fill-2" fill="#FFFFFF" points="18.25576 9.41128616 12 15.6967316 18.25576 21.982177 20.1327143 20.096316 15.7534444 15.6963817 20.1327143 11.2971181"></polygon>
                            <polygon id="Fill-3" fill="#FFFFFF" points="30.6244081 9.37209893 24.6448241 23.2004929 22.4809422 22.8285106 28.4605725 9"></polygon>
                        </g>
                    </g>
                </g>
                <g id="Triangle-3">
                    <use fill="#FFACAD" fill-rule="evenodd" xlink:href="#path-3"></use>
                    <use stroke="#FFACAD" mask="url(#mask-4)" stroke-width="2" stroke-linecap="round" stroke-linejoin="round" xlink:href="#path-3"></use>
                </g>
                <g id="Triangle-3">
                    <use fill="#FFD6D2" fill-rule="evenodd" xlink:href="#path-5"></use>
                    <use stroke="#FFD6D2" mask="url(#mask-6)" stroke-width="2" stroke-linecap="round" stroke-linejoin="round" xlink:href="#path-5"></use>
                </g>
            </g>
        </g>
    </g>
</svg>